<?xml version="1.0" encoding="utf-8"?>
<!-- Generator: Adobe Illustrator 24.1.2, SVG Export Plug-In . SVG Version: 6.00 Build 0)  -->
<svg version="1.1" xmlns="http://www.w3.org/2000/svg" xmlns:xlink="http://www.w3.org/1999/xlink" x="0px" y="0px"
	 viewBox="0 0 450 450" style="enable-background:new 0 0 450 450;" xml:space="preserve">
<style type="text/css">
	.st0{fill:#fffaf2;}
	.st1{opacity:0.13;}
	.st2{opacity:0;fill:#556573;}
	.st3{opacity:0.0294;fill:#546472;}
	.st4{opacity:0.0588;fill:#546371;}
	.st5{opacity:0.0882;fill:#536270;}
	.st6{opacity:0.1176;fill:#52626F;}
	.st7{opacity:0.1471;fill:#51616E;}
	.st8{opacity:0.1765;fill:#51606D;}
	.st9{opacity:0.2059;fill:#505F6C;}
	.st10{opacity:0.2353;fill:#4F5E6B;}
	.st11{opacity:0.2647;fill:#4E5D6A;}
	.st12{opacity:0.2941;fill:#4E5C69;}
	.st13{opacity:0.3235;fill:#4D5C68;}
	.st14{opacity:0.3529;fill:#4C5B67;}
	.st15{opacity:0.3824;fill:#4B5A66;}
	.st16{opacity:0.4118;fill:#4B5965;}
	.st17{opacity:0.4412;fill:#4A5864;}
	.st18{opacity:0.4706;fill:#495763;}
	.st19{opacity:0.5;fill:#495763;}
	.st20{opacity:0.5294;fill:#485662;}
	.st21{opacity:0.5588;fill:#475561;}
	.st22{opacity:0.5882;fill:#465460;}
	.st23{opacity:0.6176;fill:#46535F;}
	.st24{opacity:0.6471;fill:#45525E;}
	.st25{opacity:0.6765;fill:#44515D;}
	.st26{opacity:0.7059;fill:#43515C;}
	.st27{opacity:0.7353;fill:#43505B;}
	.st28{opacity:0.7647;fill:#424F5A;}
	.st29{opacity:0.7941;fill:#414E59;}
	.st30{opacity:0.8235;fill:#404D58;}
	.st31{opacity:0.8529;fill:#404C57;}
	.st32{opacity:0.8824;fill:#3F4B56;}
	.st33{opacity:0.9118;fill:#3E4B55;}
	.st34{opacity:0.9412;fill:#3D4A54;}
	.st35{opacity:0.9706;fill:#3D4953;}
	.st36{fill:#3C4852;}
	.st37{fill:#E39E29;}
	.st38{opacity:0.53;fill:#B37A19;}
	.st39{fill:#A7784A;}
	.st40{fill:#CF945C;}
	.st41{fill:#D99B60;}
	.st42{fill:#9C7045;}
	.st43{opacity:0.43;fill:#F0AB6A;}
	.st44{opacity:0.82;fill:#805C38;}
	.st45{fill:#FFC157;}
	.st46{fill:#FFD182;}
	.st47{fill:#F7BB54;}
	.st48{opacity:0.29;fill:#805C38;}
	.st49{opacity:0.29;fill:#694B2E;}
	.st50{fill:#ADAD00;}
	.st51{fill:#EBEA8A;}
	.st52{fill:#FAF993;}
	.st53{fill:#999900;}
	.st54{opacity:0.22;fill:#FFFFFF;}
	.st55{opacity:0.14;fill:#805C38;}
	.st56{fill:#E34554;}
	.st57{fill:#F55B69;}
	.st58{opacity:0.12;fill:#FFFFFF;}
	.st59{opacity:0.1;fill:#FFFFFF;}
	.st60{fill:#D94250;}
	.st61{fill:#C4C300;}
	.st62{fill:#D1D000;}
	.st63{fill:#E0DF00;}
	.st64{fill:#EBEA00;}
	.st65{fill:#B8B700;}
	.st66{filter:url(#Adobe_OpacityMaskFilter);}
	.st67{filter:url(#Adobe_OpacityMaskFilter_1_);}
	.st68{mask:url(#SVGID_1_);fill:url(#SVGID_2_);}
	.st69{opacity:0.88;fill:url(#SVGID_3_);}
	.st70{fill:#FFB22E;}
	.st71{fill:#F5A316;}
	.st72{fill:#FFC054;}
	.st73{fill:#E0981B;}
	.st74{opacity:0.26;fill:#FFFFFF;}
	.st75{opacity:0.41;fill:#FFFFFF;}
	.st76{fill:#AB771E;}
	.st77{opacity:0.5;}
	.st78{fill:#E4B816;}
	.st79{fill:#F5C518;}
	.st80{opacity:0.21;fill:#FFFFFF;}
	.st81{opacity:0.66;}
</style>
<g id="background">
	<rect class="st0" width="450" height="450"/>
</g>
<g id="fast_food">
	<g>
		<g class="st1">
			<ellipse class="st2" cx="229.15" cy="300.79" rx="149.83" ry="63.75"/>
			<ellipse class="st3" cx="229.15" cy="300.79" rx="148.78" ry="63.31"/>
			<ellipse class="st4" cx="229.15" cy="300.79" rx="147.72" ry="62.86"/>
			<ellipse class="st5" cx="229.15" cy="300.79" rx="146.67" ry="62.41"/>
			<ellipse class="st6" cx="229.15" cy="300.79" rx="145.62" ry="61.96"/>
			<ellipse class="st7" cx="229.15" cy="300.79" rx="144.56" ry="61.51"/>
			<ellipse class="st8" cx="229.15" cy="300.79" rx="143.51" ry="61.06"/>
			<ellipse class="st9" cx="229.15" cy="300.79" rx="142.46" ry="60.62"/>
			<ellipse class="st10" cx="229.15" cy="300.79" rx="141.4" ry="60.17"/>
			<ellipse class="st11" cx="229.15" cy="300.79" rx="140.35" ry="59.72"/>
			<ellipse class="st12" cx="229.15" cy="300.79" rx="139.3" ry="59.27"/>
			<ellipse class="st13" cx="229.15" cy="300.79" rx="138.24" ry="58.82"/>
			<ellipse class="st14" cx="229.15" cy="300.79" rx="137.19" ry="58.38"/>
			<ellipse class="st15" cx="229.15" cy="300.79" rx="136.14" ry="57.93"/>
			<ellipse class="st16" cx="229.15" cy="300.79" rx="135.08" ry="57.48"/>
			<ellipse class="st17" cx="229.15" cy="300.79" rx="134.03" ry="57.03"/>
			<ellipse class="st18" cx="229.15" cy="300.79" rx="132.98" ry="56.58"/>
			<ellipse class="st19" cx="229.15" cy="300.79" rx="131.92" ry="56.13"/>
			<ellipse class="st20" cx="229.15" cy="300.79" rx="130.87" ry="55.69"/>
			<ellipse class="st21" cx="229.15" cy="300.79" rx="129.82" ry="55.24"/>
			<ellipse class="st22" cx="229.15" cy="300.79" rx="128.76" ry="54.79"/>
			<ellipse class="st23" cx="229.15" cy="300.79" rx="127.71" ry="54.34"/>
			<ellipse class="st24" cx="229.15" cy="300.79" rx="126.66" ry="53.89"/>
			<ellipse class="st25" cx="229.15" cy="300.79" rx="125.6" ry="53.45"/>
			<ellipse class="st26" cx="229.15" cy="300.79" rx="124.55" ry="53"/>
			<ellipse class="st27" cx="229.15" cy="300.79" rx="123.5" ry="52.55"/>
			<ellipse class="st28" cx="229.15" cy="300.79" rx="122.44" ry="52.1"/>
			<ellipse class="st29" cx="229.15" cy="300.79" rx="121.39" ry="51.65"/>
			<ellipse class="st30" cx="229.15" cy="300.79" rx="120.34" ry="51.2"/>
			<ellipse class="st31" cx="229.15" cy="300.79" rx="119.28" ry="50.76"/>
			<ellipse class="st32" cx="229.15" cy="300.79" rx="118.23" ry="50.31"/>
			<ellipse class="st33" cx="229.15" cy="300.79" rx="117.18" ry="49.86"/>
			<ellipse class="st34" cx="229.15" cy="300.79" rx="116.12" ry="49.41"/>
			<ellipse class="st35" cx="229.15" cy="300.79" rx="115.07" ry="48.96"/>
			<ellipse class="st36" cx="229.15" cy="300.79" rx="114.02" ry="48.51"/>
		</g>
		<g>
			<g>
				<path class="st37" d="M345.66,273.98c-14.37,32.62-61.32,56.57-117.07,56.61c-63.6,0.06-115.83-31-121.27-70.63l8.07-38.11
					c5.9-3.94,12.81-7.01,19.17-9.22c16.26-5.64,33.81-6.85,51.08-7.96c42.42-2.7,85.61-4.92,126.97,4.39
					c8.84,1.98,17.72,4.57,25.53,8.87c7.68,11.27,12.01,23.29,12.03,35C350.16,260.23,348.59,267.28,345.66,273.98z"/>
				<path class="st38" d="M346.5,269.73c-3.97,3.84-8.39,7.35-12.7,10.64c-6.72,5.14-13.46,10.3-20.76,14.69
					c-37.78,22.76-86.67,22.74-129.89,11.66c-12.72-3.26-25.27-7.42-36.64-13.7c-16.16-8.91-29.27-21.96-38.35-37.32l8.07-38.11
					c5.9-3.94,12.81-7.01,19.17-9.22c16.26-5.64,33.81-6.85,51.08-7.96c42.42-2.7,85.61-4.92,126.97,4.39
					c8.84,1.98,17.72,4.57,25.53,8.87c7.68,11.27,12.01,23.29,12.03,35C351,255.97,349.43,263.03,346.5,269.73z"/>
			</g>
			<g>
				<g>
					<path class="st39" d="M350.93,257.48c-11.07,29.41-60.12,52.03-119.29,52.78c-64.3,0.8-117.42-24.55-122.95-57.56
						c-0.3-1.73-0.47-3.47-0.49-5.24c-0.5-35.53,53.95-65.02,121.64-65.87c67.69-0.85,122.95,27.27,123.45,62.8
						C353.35,248.85,352.53,253.24,350.93,257.48z"/>
					<path class="st40" d="M351.45,242c-12.02,28.77-60.51,50.74-118.77,51.48c-67.69,0.85-122.95-27.27-123.45-62.8
						c-0.09-6.22,1.51-12.27,4.59-18c14.42-26.98,61.25-47.16,117.05-47.86c67.69-0.85,122.95,27.27,123.45,62.8
						C354.39,232.55,353.4,237.36,351.45,242z"/>
				</g>
				<path class="st41" d="M351.45,242c-7.82,5.06-17.21,7.6-26.43,9.85c-53.66,13.14-110.83,20.17-164.23,6.1
					c-13.45-3.53-27.09-8.76-36.15-18.82c-6.9-7.65-10.31-16.95-10.82-26.46c14.42-26.98,61.25-47.16,117.05-47.86
					c67.69-0.85,122.95,27.27,123.45,62.8C354.39,232.55,353.4,237.36,351.45,242z"/>
				<path class="st42" d="M350.93,257.48c-11.07,29.41-60.12,52.03-119.29,52.78c-64.3,0.8-117.42-24.55-122.95-57.56
					c0.8,2.06,1.43,3.66,1.74,4.32c1.94,4.12,3.93,8.29,6.89,11.85c3.42,4.09,7.99,7.16,12.66,9.93
					c35.9,21.35,80.33,27.67,122.37,22.54C289.11,296.86,325.86,283.07,350.93,257.48z"/>
				<path class="st43" d="M281.43,277.33c-1.93,0.47-4.23,1.21-4.68,3.05c-0.38,1.53,0.86,3.08,2.4,3.67
					c1.53,0.59,3.26,0.44,4.9,0.21c17.76-2.52,32.71-13.47,46.77-24.05c9.18-6.91,19.1-15.04,20.24-26.09
					c0.18-1.79,0.05-3.78-1.25-5.09c-6.87-6.93-10.15,6.91-11.42,10.09c-2.6,6.53-10.2,12.69-15.6,17.23
					C310.99,266.26,296.72,273.58,281.43,277.33z"/>
				<path class="st43" d="M125.2,251.89c2.7,3.95,5.5,7.87,8.92,11.29c9.5,9.48,22.9,14.34,35.84,18.91
					c5.68,2.01,11.4,4.03,17.38,4.95c1.99,0.31,4.11,0.48,5.97-0.24c1.87-0.73,3.37-2.62,2.93-4.49c-0.34-1.45-1.69-2.46-2.95-3.34
					c-9.09-6.3-18.65-11.99-28.6-17c-6.92-3.48-14.07-6.67-20.25-11.23c-6.18-4.56-11.41-10.74-12.9-18.01
					c-0.78-3.82-1.06-8.61-4.81-10.2c-3.53-1.5-7.73,1.45-8.77,4.98C115.61,235.57,120.79,245.43,125.2,251.89z"/>
			</g>
			<polygon class="st44" points="121.13,260.65 215.73,293.72 232.13,291.51 			"/>
			<polygon class="st44" points="352.91,238.1 284.05,284.26 270.22,284.11 			"/>
			<g>
				<path class="st45" d="M361.71,232.37c0,0-87.53,57.15-116.13,66.19c-23.84-12.71-153.31-49.12-153.31-49.12s3.31-2.3,8.75-6.08
					c25.07-17.42,95.55-66.32,96.82-66.62l142.67,48.43L361.71,232.37z"/>
				<path class="st46" d="M361.71,232.36c0,0-99.33,67.01-116.13,66.19c-16.79-0.82-153.31-49.12-153.31-49.12l150.17,43.86
					l118.09-61.16L361.71,232.36z"/>
				<path class="st47" d="M340.51,225.17c-1.36,1.65-2.9,3.19-4.44,4.62c-20.75,19.14-48.97,29.88-77.62,33.97
					c-28.65,4.09-57.9,1.94-86.59-1.91c-24.37-3.26-48.95-7.88-70.84-18.5c25.07-17.42,95.55-66.32,96.82-66.62L340.51,225.17z"/>
			</g>
			<path class="st48" d="M250.48,277.94c6.13,0.03,12.24-2.04,16.97-5.73c1.77-1.39,3.48-3.35,3.09-5.5
				c-0.18-0.97-0.78-1.83-1.44-2.6c-4.94-5.71-13.33-7.3-21.05-8.33c-1.87-0.25-3.81-0.49-5.62,0.03c-2,0.57-3.59,1.99-4.95,3.49
				c-3,3.32-7.38,9.6-3.54,13.47C237.48,276.35,245.6,277.92,250.48,277.94z"/>
			<g>
				<path class="st49" d="M221.11,274.53c2.11-0.6,4.37-1.46,5.4-3.3c0.92-1.63,0.62-3.64-0.04-5.38
					c-2.41-6.3-8.91-10.29-15.27-13.23c-10.15-4.69-21.75-7.95-32.7-5.35c-6.28,1.49-13.43,6.14-12.17,13.22
					c0.87,4.86,7.33,7.64,11.49,9.74C190.93,276.83,206.83,278.58,221.11,274.53z"/>
				<path class="st49" d="M326.88,248.34c3.86-1.18,7.67-2.73,10.78-5.19c4.75-3.75,7.59-9.59,7.5-15.45
					c-0.02-1.26-0.17-2.54-0.77-3.67c-1.59-3.02-5.67-3.93-9.23-4.03c-13.28-0.35-26.52,6.4-33.53,17.08
					c-3.09,4.71-5.34,15.2,3.37,15.33C311.65,252.51,320.58,250.26,326.88,248.34z"/>
				<path class="st49" d="M106.54,248.62c0.76,1.64,2,3.03,3.37,4.26c6.54,5.88,16.71,8.1,25.09,4.92c1.02-0.39,2.05-0.87,2.73-1.69
					c1.37-1.65,0.91-4.04,0.17-6.01c-2.97-7.88-9.57-14.47-17.72-17.71c-2.13-0.84-4.58-1.46-6.72-0.65
					C107.6,233.98,104.15,243.45,106.54,248.62z"/>
			</g>
			<g>
				<g>
					<polygon class="st50" points="365.01,204.37 366.33,208.88 363.31,208.46 					"/>
					<path class="st50" d="M366.73,212.16l-0.01,0.18c-0.38,13.29-19.92,23.58-43.63,22.97c-18.95-0.49-34.85-7.81-40.24-17.52
						c-1.37-2.42-2.07-5.01-1.99-7.67c0.38-13.31,19.92-23.6,43.63-22.99C348.08,187.75,366.94,198.94,366.73,212.16z"/>
				</g>
				
					<ellipse transform="matrix(0.0245 -0.9997 0.9997 0.0245 108.52 523.1785)" class="st51" cx="322.33" cy="205.98" rx="24.1" ry="42.93"/>
				<path class="st52" d="M292.39,190.79c-3.52,2.44-6.45,5.8-7.9,9.73c-2.91,7.89,4.57,13.81,10.83,17.69
					c15.1,9.35,35.1,9.19,51.27,2.35c5.28-2.23,11.59-6.61,12.94-12.31c1.33-5.61-1.28-12.19-6.83-14.81
					c-8.36-3.95-17.64-5.79-26.81-7.48C314.45,183.84,302.2,183.97,292.39,190.79z"/>
				<path class="st53" d="M366.73,212.16l-0.01,0.18c-0.38,13.29-19.92,23.58-43.63,22.97c-18.95-0.49-34.85-7.81-40.24-17.52
					c2.21,2.63,4.96,4.89,7.96,6.69c5.76,3.49,12.4,5.5,19.03,7.03c3.53,0.81,7.08,1.51,10.71,1.69c4.44,0.21,8.9-0.36,13.29-1.13
					c6.13-1.05,12.24-2.49,17.82-5.16c5.57-2.67,10.58-6.63,13.5-11.85C365.71,214.14,366.18,213.14,366.73,212.16z"/>
				<path class="st54" d="M308.32,188.02c-6.5,1.95-13.14,5.3-15.91,11.19c-1.09,2.32-1.49,4.87-1.65,7.4
					c-0.14,2.16-0.1,4.39,0.72,6.41c1.66,4.1,6.2,6.54,10.7,7.64c11.53,2.81,23.9-1.18,33.66-7.62c4.55-3,8.98-7,9.75-12.19
					c0.61-4.12-1.32-8.37-4.51-11.24C332.83,182.2,318.05,185.1,308.32,188.02z"/>
				<path class="st54" d="M356.97,216.41c-4.63,5.76-12.44,8.73-20.08,8.96c-1.1,0.03-2.26,0-3.21-0.53
					c-0.95-0.53-1.57-1.71-1.09-2.64c0.41-0.79,1.41-1.11,2.31-1.37c3.6-1,7.23-2.13,10.34-4.12c3.09-1.98,5.55-4.81,7.07-8.03
					c0.78-1.66,1.42-3.51,1.57-5.33c0.17-2-0.84-3.23-1.09-5.06c-0.45-3.24,1.9-5.14,4.45-2.57c2.47,2.49,3.55,6.21,3.59,9.55
					C360.89,209.23,359.52,213.25,356.97,216.41z"/>
			</g>
			<g>
				<g>
					<polygon class="st50" points="180.53,211.71 182.14,216.13 179.1,215.88 					"/>
					<path class="st50" d="M182.75,219.38l0.01,0.18c0.47,13.29-18.38,24.68-42.08,25.42c-18.95,0.59-35.29-5.8-41.29-15.18
						c-1.52-2.34-2.38-4.89-2.48-7.55c-0.47-13.3,18.38-24.7,42.08-25.44C162.58,196.08,182.11,206.18,182.75,219.38z"/>
				</g>
				
					<ellipse transform="matrix(0.9996 -0.0297 0.0297 0.9996 -6.3373 4.1882)" class="st51" cx="138.04" cy="215.76" rx="42.93" ry="24.1"/>
				<path class="st52" d="M107.18,202.3c-3.35,2.64-6.07,6.16-7.26,10.16c-2.4,8.04,5.44,13.52,11.94,17.03
					c15.67,8.47,35.62,7.17,51.33-0.59c5.13-2.53,11.15-7.26,12.13-13.03c0.97-5.68-2.06-12.1-7.76-14.4
					c-8.6-3.47-17.97-4.77-27.24-5.93C128.75,194.11,116.53,194.93,107.18,202.3z"/>
				<path class="st53" d="M182.75,219.38l0.01,0.18c0.47,13.29-18.38,24.68-42.08,25.42c-18.95,0.59-35.29-5.8-41.29-15.18
					c2.38,2.5,5.27,4.59,8.37,6.22c5.97,3.16,12.73,4.78,19.45,5.93c3.57,0.6,7.16,1.1,10.79,1.08c4.44-0.05,8.86-0.87,13.2-1.88
					c6.05-1.4,12.06-3.19,17.45-6.17c5.39-2.98,10.13-7.23,12.72-12.6C181.85,221.42,182.26,220.39,182.75,219.38z"/>
				<path class="st54" d="M122.9,198.62c-6.36,2.32-12.78,6.04-15.16,12.08c-0.94,2.38-1.18,4.95-1.18,7.48
					c0,2.17,0.18,4.39,1.13,6.36c1.92,4,6.61,6.17,11.17,7.01c11.69,2.15,23.78-2.54,33.11-9.54c4.35-3.26,8.51-7.5,8.95-12.73
					c0.35-4.15-1.86-8.28-5.22-10.96C146.99,191.42,132.42,195.16,122.9,198.62z"/>
				<path class="st54" d="M173.28,224.18c-4.26,6.02-11.86,9.43-19.48,10.09c-1.1,0.1-2.25,0.13-3.23-0.34
					c-0.98-0.47-1.68-1.62-1.26-2.58c0.36-0.82,1.34-1.19,2.22-1.49c3.53-1.21,7.08-2.54,10.05-4.7c2.96-2.15,5.23-5.12,6.55-8.42
					c0.68-1.7,1.19-3.59,1.23-5.41c0.04-2.01-1.05-3.17-1.41-4.99c-0.65-3.21,1.57-5.24,4.28-2.82c2.63,2.34,3.94,6,4.2,9.33
					C176.73,216.79,175.62,220.88,173.28,224.18z"/>
			</g>
			<g>
				<g>
					<polygon class="st50" points="195.11,241.44 196.45,245.94 193.43,245.53 					"/>
					<path class="st50" d="M196.86,249.22l0,0.18c-0.33,13.29-19.82,23.66-43.53,23.13c-18.95-0.42-34.89-7.68-40.31-17.37
						c-1.38-2.42-2.09-5.01-2.02-7.67c0.33-13.31,19.82-23.68,43.53-23.15C178.11,224.87,197.02,236,196.86,249.22z"/>
				</g>
				
					<ellipse transform="matrix(0.0209 -0.9998 0.9998 0.0209 -93.9065 390.5252)" class="st51" cx="152.44" cy="243.21" rx="24.1" ry="42.93"/>
				<path class="st52" d="M122.43,228.13c-3.51,2.46-6.43,5.82-7.86,9.76c-2.87,7.9,4.63,13.79,10.91,17.65
					c15.14,9.3,35.14,9.06,51.28,2.16c5.27-2.25,11.56-6.65,12.89-12.36c1.31-5.62-1.33-12.19-6.89-14.79
					c-8.38-3.92-17.66-5.72-26.84-7.38C144.46,221.1,132.21,221.27,122.43,228.13z"/>
				<path class="st53" d="M196.86,249.22l0,0.18c-0.33,13.29-19.82,23.66-43.53,23.13c-18.95-0.42-34.89-7.68-40.31-17.37
					c2.23,2.62,4.98,4.87,7.99,6.66c5.78,3.47,12.42,5.45,19.06,6.96c3.53,0.79,7.09,1.48,10.71,1.65c4.44,0.19,8.9-0.39,13.29-1.18
					c6.12-1.08,12.23-2.54,17.79-5.23c5.56-2.69,10.55-6.67,13.45-11.9C195.84,251.2,196.32,250.2,196.86,249.22z"/>
				<path class="st54" d="M138.35,225.3c-6.49,1.97-13.12,5.35-15.86,11.25c-1.08,2.32-1.47,4.88-1.62,7.41
					c-0.13,2.16-0.08,4.39,0.75,6.41c1.68,4.1,6.23,6.52,10.73,7.6c11.54,2.77,23.89-1.27,33.62-7.75c4.53-3.02,8.95-7.03,9.7-12.23
					c0.59-4.13-1.36-8.37-4.56-11.22C162.84,219.39,148.06,222.34,138.35,225.3z"/>
				<path class="st54" d="M187.12,253.5c-4.61,5.78-12.4,8.78-20.05,9.03c-1.1,0.04-2.26,0.01-3.21-0.52
					c-0.95-0.53-1.58-1.7-1.1-2.64c0.41-0.8,1.41-1.12,2.3-1.37c3.6-1.02,7.22-2.16,10.32-4.16c3.08-1.99,5.53-4.83,7.04-8.06
					c0.78-1.66,1.4-3.52,1.55-5.34c0.16-2-0.85-3.22-1.11-5.05c-0.46-3.24,1.88-5.15,4.44-2.59c2.48,2.48,3.57,6.2,3.63,9.53
					C191.01,246.31,189.65,250.33,187.12,253.5z"/>
			</g>
			<g>
				<g>
					<polygon class="st50" points="318.45,243.02 319.78,247.53 316.76,247.11 					"/>
					<path class="st50" d="M320.18,250.81l-0.01,0.18c-0.38,13.29-19.92,23.58-43.63,22.97c-18.95-0.49-34.85-7.81-40.24-17.52
						c-1.37-2.42-2.07-5.01-1.99-7.67c0.38-13.31,19.92-23.6,43.63-22.99C301.53,226.4,320.38,237.6,320.18,250.81z"/>
				</g>
				<path class="st51" d="M318.7,245.75c-0.38,13.3-19.91,23.59-43.62,22.98c-23.7-0.61-42.61-11.9-42.22-25.2
					c0.38-13.3,19.91-23.59,43.62-22.98C300.18,221.16,319.08,232.44,318.7,245.75z"/>
				<path class="st52" d="M245.84,229.44c-3.52,2.44-6.45,5.8-7.9,9.73c-2.91,7.89,4.57,13.81,10.83,17.69
					c15.1,9.35,35.1,9.19,51.27,2.35c5.28-2.23,11.59-6.61,12.94-12.31c1.33-5.61-1.28-12.19-6.83-14.81
					c-8.36-3.95-17.64-5.79-26.81-7.48C267.89,222.49,255.65,222.62,245.84,229.44z"/>
				<path class="st53" d="M320.18,250.81l-0.01,0.18c-0.38,13.29-19.92,23.58-43.63,22.97c-18.95-0.49-34.85-7.81-40.24-17.52
					c2.21,2.63,4.96,4.89,7.96,6.69c5.76,3.49,12.4,5.5,19.04,7.03c3.53,0.81,7.08,1.51,10.71,1.69c4.44,0.21,8.9-0.36,13.29-1.13
					c6.13-1.05,12.24-2.49,17.82-5.16c5.57-2.67,10.58-6.63,13.5-11.85C319.15,252.79,319.62,251.79,320.18,250.81z"/>
				<path class="st54" d="M261.77,226.67c-6.5,1.95-13.14,5.3-15.91,11.19c-1.09,2.32-1.49,4.87-1.65,7.4
					c-0.14,2.16-0.1,4.39,0.72,6.41c1.66,4.1,6.2,6.54,10.7,7.64c11.53,2.81,23.9-1.18,33.66-7.62c4.55-3,8.98-7,9.75-12.19
					c0.61-4.12-1.32-8.37-4.51-11.24C286.27,220.85,271.49,223.75,261.77,226.67z"/>
				<path class="st54" d="M310.42,255.06c-4.63,5.76-12.44,8.73-20.08,8.96c-1.1,0.03-2.26,0-3.21-0.53
					c-0.95-0.53-1.57-1.71-1.09-2.64c0.41-0.79,1.41-1.11,2.31-1.37c3.6-1,7.23-2.13,10.34-4.12c3.09-1.98,5.55-4.81,7.07-8.03
					c0.78-1.66,1.42-3.51,1.57-5.33c0.17-2-0.84-3.23-1.09-5.06c-0.45-3.24,1.9-5.14,4.45-2.57c2.47,2.49,3.55,6.21,3.59,9.55
					C314.33,247.88,312.96,251.9,310.42,255.06z"/>
			</g>
			<g>
				<g>
					<polygon class="st50" points="258.39,245.89 259.72,250.4 256.69,249.98 					"/>
					<path class="st50" d="M260.12,253.68l-0.01,0.18c-0.38,13.29-19.92,23.58-43.63,22.97c-18.95-0.49-34.85-7.81-40.24-17.52
						c-1.37-2.42-2.07-5.01-1.99-7.67c0.38-13.31,19.92-23.6,43.63-22.99C241.47,229.27,260.32,240.46,260.12,253.68z"/>
				</g>
				
					<ellipse transform="matrix(0.0245 -0.9997 0.9997 0.0245 -36.9953 457.0952)" class="st51" cx="215.72" cy="247.5" rx="24.1" ry="42.93"/>
				<path class="st52" d="M185.77,232.31c-3.52,2.44-6.45,5.8-7.9,9.73c-2.91,7.89,4.57,13.81,10.83,17.69
					c15.1,9.35,35.1,9.19,51.27,2.35c5.28-2.23,11.59-6.61,12.94-12.31c1.33-5.61-1.28-12.19-6.83-14.81
					c-8.36-3.95-17.64-5.79-26.81-7.48C207.83,225.36,195.58,225.49,185.77,232.31z"/>
				<path class="st53" d="M260.12,253.68l-0.01,0.18c-0.38,13.29-19.92,23.58-43.63,22.97c-18.95-0.49-34.85-7.81-40.24-17.52
					c2.21,2.63,4.96,4.89,7.96,6.69c5.76,3.49,12.4,5.5,19.03,7.03c3.53,0.81,7.08,1.51,10.71,1.69c4.44,0.21,8.9-0.36,13.29-1.13
					c6.13-1.05,12.24-2.49,17.82-5.16c5.57-2.67,10.58-6.63,13.5-11.85C259.09,255.66,259.56,254.66,260.12,253.68z"/>
				<path class="st54" d="M201.7,229.54c-6.5,1.95-13.14,5.3-15.91,11.19c-1.09,2.32-1.49,4.87-1.66,7.4
					c-0.14,2.16-0.1,4.39,0.72,6.41c1.66,4.1,6.2,6.54,10.7,7.64c11.53,2.81,23.9-1.18,33.66-7.62c4.55-3,8.98-7,9.75-12.19
					c0.61-4.12-1.32-8.37-4.51-11.24C226.21,223.72,211.43,226.62,201.7,229.54z"/>
				<path class="st54" d="M250.36,257.93c-4.63,5.76-12.44,8.73-20.08,8.96c-1.1,0.03-2.26,0-3.21-0.53
					c-0.95-0.53-1.57-1.71-1.09-2.64c0.41-0.79,1.41-1.11,2.31-1.36c3.6-1,7.23-2.13,10.34-4.12c3.09-1.98,5.55-4.81,7.07-8.03
					c0.78-1.66,1.42-3.51,1.57-5.33c0.17-2-0.84-3.23-1.09-5.06c-0.45-3.24,1.9-5.14,4.45-2.57c2.47,2.49,3.55,6.21,3.59,9.55
					C254.27,250.75,252.9,254.77,250.36,257.93z"/>
			</g>
			<path class="st55" d="M166.64,267.69c2.52,0.7,5.12,1.06,7.72,1.36c6.34,0.74,13.12,1.08,18.76-1.76
				c4.43-2.24,7.6-6.2,10.18-10.28c0.92-1.45,1.79-2.96,2.09-4.62c0.29-1.66-0.1-3.52-1.4-4.67c-0.79-0.69-1.82-1.07-2.84-1.38
				c-7.9-2.42-16.5-2.01-24.63-0.41c-8.13,1.6-15.94,4.36-23.89,6.63c-5.58,1.59,0.12,6.55,2.7,8.88
				C158.5,264.33,162.41,266.51,166.64,267.69z"/>
			<path class="st55" d="M230,267.11c3.23,1.62,6.67,2.97,10.29,3.44c0.93,0.12,1.94,0.17,2.76-0.28c1.03-0.56,1.47-1.76,1.54-2.88
				c0.16-2.55-1.18-4.95-2.48-7.2c-2.05-3.55-4.1-7.1-6.16-10.64c-1.51-2.61-3.09-5.3-5.59-7.1c-5.4-3.88-23.07-5.24-19.24,5.42
				c1.3,3.62,4.84,7.59,7.29,10.58C221.45,262.19,225.64,264.94,230,267.11z"/>
			<path class="st55" d="M286.5,248.04c8.54,1.53,17.36,2.01,25.93,0.64c8.57-1.37,16.9-4.65,23.46-10.05
				c2.08-1.71,4.02-3.69,4.91-6.16c0.89-2.46,0.5-5.48-1.55-7.22c-1.48-1.26-3.55-1.66-5.51-1.99c-5.81-0.96-11.67-1.65-17.55-2.06
				c-8.29-0.58-16.76-0.6-24.74,1.6c-7.8,2.15-16.5,7.09-19.8,14.49C268.01,245.48,280.57,246.97,286.5,248.04z"/>
			<path class="st55" d="M120.4,240.78c1.42,0.37,2.45,1.48,3.53,2.43c4.17,3.67,10.04,5.36,15.74,5.19
				c5.7-0.17,11.23-2.07,16.14-4.79c1.42-0.79,2.9-1.78,3.3-3.29c0.38-1.45-0.4-3-1.58-4c-1.18-0.99-2.7-1.53-4.2-2.01
				c-10.44-3.31-21.62-4.45-32.57-3.4c-2.84,0.27-11.79,0.12-11.1,4.12C110.49,239.72,116.95,239.88,120.4,240.78z"/>
			<g>
				<g>
					<polygon class="st56" points="201.8,248.42 202.64,251.23 200.75,250.98 					"/>
					<path class="st56" d="M202.89,253.38c0,0.06,0,0.1-0.02,0.16c-0.35,8.24-12.46,14.62-27.15,14.3
						c-12.34-0.27-22.62-5.19-25.58-11.63c-0.6-1.29-0.89-2.63-0.86-4.01c0.2-8.3,12.38-14.77,27.18-14.45
						C191.26,238.08,203.1,245.09,202.89,253.38z"/>
				</g>
				<path class="st57" d="M201.96,250.12c-0.21,8.31-12.37,14.78-27.17,14.45c-14.8-0.33-26.64-7.33-26.43-15.64
					c0.21-8.31,12.37-14.78,27.17-14.45S202.17,241.81,201.96,250.12z"/>
				<path class="st56" d="M178.11,242.76c-0.62,2.49-2.02,5.12-2.67,6.48c-1.42,2.98-3.47,5.83-6.45,7.48
					c-4.73,2.65-11.43,1.49-14.88-2.54c-0.09-0.11-0.19-0.22-0.27-0.34c-0.53-0.68-0.96-1.42-1.12-2.24
					c-0.32-1.67,0.47-3.33,1.25-4.85c1.15-2.28,2.39-4.67,4.59-6.11c1.18-0.79,2.59-1.25,3.98-1.63c2.62-0.74,5.32-1.27,8.04-1.6
					c1.84-0.22,5.05-1.01,6.66,0.26C178.6,238.75,178.61,240.7,178.11,242.76z"/>
				<path class="st56" d="M194.9,257.3c-0.59,0.53-1.24,0.98-1.92,1.38c-1.96,1.14-4.23,1.81-6.47,2.36
					c-1.99,0.47-4.07,0.86-6.09,0.52c-2.02-0.34-3.98-1.59-4.57-3.45c-0.49-1.57,0.06-3.26,0.68-4.78c1.12-2.69,2.51-5.29,4.13-7.74
					c0.73-1.08,1.62-2.7,2.67-3.94c0.5-0.6,1.03-1.11,1.6-1.44c3.8-2.23,9.95,1.45,11.86,4.48
					C199.26,248.64,198.44,254.16,194.9,257.3z"/>
				<path class="st58" d="M154.54,242.07c-4.18,2.63-5.53,8.57-2.85,12.6c0.79,1.19,1.85,2.19,2.99,3.08
					c1.69,1.33,3.57,2.44,5.57,3.3c1.3,0.56,2.73,1.02,4.14,0.8c2.04-0.33,3.51-1.97,4.79-3.51c1.49-1.78,3.04-3.74,3.13-6.01
					c0.03-0.7-0.11-1.44-0.61-1.96c-0.73-0.76-1.97-0.8-3.06-0.77c-1.92,0.04-3.83,0.09-5.75,0.13c-1.27,0.03-2.68,0.01-3.61-0.82
					c-0.84-0.75-1.02-1.96-0.92-3.05c0.11-1.33,0.55-2.63,1.26-3.78c0.36-0.59,0.81-1.18,0.83-1.86c0.03-1.2-1.68-2.06-2.72-1.37
					L154.54,242.07z"/>
				<path class="st59" d="M178.7,263.79c2.56,0.79,5.36,0.12,7.89-0.76c2.24-0.78,4.43-1.72,6.52-2.82c2.6-1.36,5.17-3.05,6.57-5.53
					c2.32-4.09,0.46-9.82-3.88-11.98c-0.6-0.3-1.37-0.52-1.93-0.16c-0.62,0.41-0.6,1.27-0.47,1.98c0.57,2.98,1.89,6.11,0.63,8.89
					c-1.19,2.65-4.36,3.99-7.35,4.51c-2.24,0.39-5.16,0.11-5.91-1.92c-0.32-0.85-0.16-1.85-0.66-2.62c-0.84-1.27-3.05-1-4.08,0.14
					C173.32,256.52,174.68,262.54,178.7,263.79z"/>
				<path class="st60" d="M202.87,253.54c-0.35,8.24-12.46,14.62-27.15,14.3c-12.34-0.27-22.62-5.19-25.58-11.63
					c1.28,1.31,2.67,2.51,4.15,3.6c4.37,3.19,9.55,5.36,14.97,6.35c2.09,0.39,4.22,0.6,6.33,0.48c2.56-0.14,5.06-0.76,7.53-1.43
					c7.08-1.91,14.5-4.54,18.75-10.23C202.22,254.52,202.55,254.03,202.87,253.54z"/>
			</g>
			<g>
				<g>
					<polygon class="st56" points="146.73,200.55 149.19,202.33 147.51,203.19 					"/>
					<path class="st56" d="M150.75,203.91c0.04,0.05,0.06,0.08,0.09,0.14c4.95,6.79-0.69,18.77-12.64,26.86
						c-10.05,6.79-21.39,8.7-27.84,5.23c-1.29-0.69-2.39-1.6-3.23-2.72c-5.1-6.75,0.53-18.84,12.57-26.99
						C131.74,198.27,145.65,197.15,150.75,203.91z"/>
				</g>
				<path class="st57" d="M147.94,201.82c5.11,6.76-0.52,18.85-12.56,26.99c-12.05,8.15-25.95,9.27-31.06,2.51
					c-5.11-6.76,0.52-18.85,12.56-26.99C128.92,196.18,142.83,195.06,147.94,201.82z"/>
				<path class="st56" d="M124.19,209.48c1.08,2.34,1.63,5.24,1.98,6.7c0.76,3.19,0.93,6.63-0.41,9.65
					c-2.1,4.81-8.2,7.68-13.51,6.42c-0.14-0.03-0.29-0.07-0.43-0.12c-0.85-0.24-1.67-0.59-2.32-1.15c-1.32-1.15-1.73-2.93-2.08-4.58
					c-0.53-2.47-1.05-5.1-0.21-7.5c0.45-1.3,1.28-2.47,2.15-3.57c1.63-2.09,3.45-4.04,5.41-5.85c1.33-1.22,3.4-3.68,5.49-3.57
					C122.04,206,123.29,207.55,124.19,209.48z"/>
				<path class="st56" d="M146.85,211.58c-0.14,0.76-0.37,1.49-0.66,2.2c-0.84,2.02-2.23,3.85-3.68,5.56
					c-1.29,1.51-2.71,3-4.54,3.87c-1.83,0.87-4.2,0.99-5.84-0.16c-1.39-0.98-2.02-2.64-2.49-4.21c-0.81-2.79-1.35-5.65-1.61-8.54
					c-0.1-1.28-0.42-3.08-0.37-4.67c0.02-0.76,0.12-1.48,0.36-2.06c1.62-3.94,8.88-4.5,12.33-3.15
					C144.84,202.17,147.68,207.05,146.85,211.58z"/>
				<path class="st58" d="M104.9,222.31c-1.67,4.48,1.02,10,5.71,11.69c1.38,0.5,2.87,0.7,4.35,0.76c2.19,0.1,4.4-0.08,6.55-0.52
					c1.4-0.29,2.83-0.73,3.82-1.71c1.43-1.42,1.56-3.57,1.6-5.53c0.06-2.27,0.06-4.72-1.31-6.58c-0.42-0.57-1.01-1.09-1.73-1.22
					c-1.07-0.19-2.08,0.48-2.94,1.12c-1.51,1.12-3.01,2.25-4.52,3.37c-1,0.74-2.14,1.53-3.4,1.4c-1.15-0.12-2.06-0.99-2.68-1.92
					c-0.75-1.13-1.23-2.41-1.39-3.74c-0.08-0.68-0.1-1.4-0.51-1.96c-0.74-0.98-2.65-0.69-3.04,0.45L104.9,222.31z"/>
				<path class="st59" d="M138,225.97c2.55-0.82,4.36-2.95,5.83-5.09c1.3-1.9,2.45-3.89,3.43-5.96c1.22-2.57,2.2-5.38,1.75-8.16
					c-0.74-4.59-5.86-8.12-10.71-7.37c-0.67,0.1-1.43,0.36-1.64,0.97c-0.24,0.68,0.33,1.36,0.88,1.85c2.34,2.06,5.39,3.82,6.15,6.75
					c0.73,2.8-0.95,5.66-3.01,7.78c-1.54,1.58-4.05,3.01-5.95,1.82c-0.79-0.5-1.3-1.39-2.19-1.72c-1.48-0.54-3.07,0.93-3.18,2.43
					C129.08,223.21,134,227.26,138,225.97z"/>
				<path class="st60" d="M150.84,204.04c4.95,6.79-0.69,18.77-12.64,26.86c-10.05,6.79-21.39,8.7-27.84,5.23
					c1.85,0.32,3.73,0.5,5.61,0.52c5.52,0.07,11.04-1.14,16-3.42c1.92-0.87,3.75-1.92,5.37-3.21c1.96-1.57,3.57-3.48,5.11-5.42
					c4.45-5.55,8.71-11.87,8.51-18.83C150.93,205.19,150.88,204.62,150.84,204.04z"/>
			</g>
			<g>
				<g>
					<polygon class="st56" points="271.64,265.12 270.97,267.97 269.44,266.9 					"/>
					<path class="st56" d="M270.11,269.98c-0.03,0.05-0.05,0.09-0.09,0.13c-4.44,7.09-18.3,7.27-31.07,0.38
						c-10.73-5.79-17.3-14.73-16.67-21.73c0.12-1.4,0.54-2.72,1.26-3.91c4.35-7.21,18.31-7.44,31.17-0.5
						C267.55,251.28,274.46,262.77,270.11,269.98z"/>
				</g>
				<path class="st57" d="M270.93,266.69c-4.35,7.22-18.3,7.45-31.17,0.51c-12.86-6.94-19.76-18.42-15.41-25.64
					c4.35-7.22,18.3-7.45,31.17-0.51C268.38,247.99,275.28,259.47,270.93,266.69z"/>
				<path class="st56" d="M253.64,249.49c-1.79,1.91-4.34,3.6-5.6,4.5c-2.75,1.99-5.98,3.57-9.43,3.69
					c-5.49,0.2-10.81-3.82-11.82-8.92c-0.03-0.14-0.05-0.28-0.07-0.42c-0.13-0.83-0.13-1.68,0.14-2.47c0.55-1.61,2.08-2.72,3.53-3.7
					c2.15-1.49,4.45-3.04,7.11-3.32c1.44-0.16,2.91,0.06,4.32,0.35c2.68,0.52,5.32,1.27,7.88,2.2c1.73,0.63,4.96,1.38,5.73,3.22
					C256.08,246.19,255.11,247.91,253.64,249.49z"/>
				<path class="st56" d="M261.12,269.84c-0.79,0.2-1.58,0.31-2.39,0.35c-2.29,0.12-4.63-0.31-6.88-0.83
					c-1.99-0.48-4.01-1.07-5.62-2.28c-1.6-1.21-2.71-3.19-2.29-5.09c0.35-1.6,1.68-2.84,2.99-3.9c2.34-1.87,4.86-3.53,7.52-4.96
					c1.19-0.63,2.78-1.65,4.33-2.27c0.74-0.3,1.47-0.51,2.13-0.55c4.47-0.26,8.03,5.75,8.19,9.28
					C269.3,264.17,265.8,268.66,261.12,269.84z"/>
				<path class="st58" d="M233.24,238.3c-5,0.44-9.17,5.06-8.83,9.8c0.1,1.4,0.53,2.76,1.09,4.06c0.82,1.93,1.92,3.75,3.24,5.41
					c0.86,1.08,1.89,2.13,3.24,2.56c1.96,0.63,4.08-0.16,5.98-0.94c2.2-0.9,4.55-1.92,5.77-3.88c0.37-0.6,0.63-1.32,0.45-2
					c-0.26-1-1.34-1.59-2.31-2.05c-1.71-0.82-3.42-1.65-5.13-2.47c-1.13-0.55-2.37-1.2-2.77-2.34c-0.36-1.04,0.09-2.18,0.72-3.1
					c0.77-1.12,1.8-2.07,3.01-2.76c0.61-0.35,1.31-0.67,1.66-1.26c0.63-1.04-0.45-2.57-1.71-2.43L233.24,238.3z"/>
				<path class="st59" d="M243.6,268.27c1.86,1.85,4.66,2.52,7.32,2.88c2.37,0.32,4.76,0.47,7.15,0.45
					c2.97-0.03,6.08-0.37,8.56-1.92c4.1-2.56,5.34-8.43,2.59-12.28c-0.38-0.53-0.94-1.08-1.62-1.01c-0.75,0.08-1.17,0.85-1.4,1.53
					c-1,2.87-1.41,6.23-3.91,8.11c-2.38,1.8-5.83,1.55-8.73,0.67c-2.17-0.66-4.59-2.22-4.24-4.35c0.15-0.89,0.79-1.7,0.73-2.6
					c-0.1-1.5-2.18-2.25-3.66-1.71C242.51,259.45,240.68,265.36,243.6,268.27z"/>
				<path class="st60" d="M270.02,270.11c-4.44,7.09-18.3,7.27-31.07,0.38c-10.73-5.79-17.3-14.73-16.67-21.73
					c0.46,1.73,1.08,3.41,1.85,5.03c2.24,4.77,5.72,9.01,9.99,12.32c1.64,1.28,3.41,2.42,5.33,3.27c2.32,1.03,4.84,1.61,7.34,2.13
					c7.19,1.5,15.04,2.52,21.63-0.58C268.95,270.67,269.48,270.39,270.02,270.11z"/>
			</g>
			<g>
				<g>
					<polygon class="st56" points="356.22,214.45 355.54,217.3 354.01,216.23 					"/>
					<path class="st56" d="M354.68,219.3c-0.03,0.05-0.05,0.09-0.09,0.13c-4.44,7.09-18.3,7.27-31.07,0.38
						c-10.73-5.79-17.3-14.73-16.67-21.73c0.12-1.4,0.54-2.72,1.26-3.91c4.35-7.21,18.31-7.44,31.17-0.5
						C352.13,200.61,359.03,212.09,354.68,219.3z"/>
				</g>
				
					<ellipse transform="matrix(0.4539 -0.8911 0.8911 0.4539 0.1414 407.131)" class="st57" cx="332.21" cy="203.45" rx="15.24" ry="26.48"/>
				<path class="st56" d="M338.21,198.82c-1.79,1.91-4.34,3.6-5.6,4.5c-2.75,1.99-5.98,3.57-9.43,3.69
					c-5.49,0.2-10.81-3.82-11.82-8.92c-0.03-0.14-0.05-0.28-0.07-0.42c-0.13-0.83-0.13-1.68,0.14-2.47c0.55-1.61,2.08-2.72,3.53-3.7
					c2.15-1.49,4.45-3.04,7.11-3.32c1.44-0.16,2.91,0.06,4.32,0.35c2.68,0.52,5.32,1.27,7.88,2.2c1.73,0.63,4.96,1.38,5.73,3.22
					C340.65,195.51,339.68,197.24,338.21,198.82z"/>
				<path class="st56" d="M345.69,219.16c-0.79,0.2-1.58,0.31-2.39,0.35c-2.29,0.12-4.63-0.31-6.88-0.83
					c-1.99-0.48-4.01-1.07-5.62-2.28c-1.6-1.21-2.71-3.19-2.29-5.09c0.35-1.6,1.68-2.84,2.99-3.9c2.34-1.87,4.86-3.53,7.52-4.96
					c1.19-0.63,2.78-1.65,4.33-2.27c0.74-0.3,1.47-0.51,2.13-0.55c4.46-0.26,8.03,5.75,8.19,9.28
					C353.87,213.5,350.37,217.98,345.69,219.16z"/>
				<path class="st58" d="M317.82,187.62c-5,0.44-9.17,5.06-8.83,9.8c0.1,1.4,0.53,2.76,1.09,4.06c0.82,1.93,1.92,3.75,3.24,5.41
					c0.86,1.08,1.89,2.13,3.24,2.56c1.96,0.63,4.08-0.16,5.98-0.94c2.2-0.9,4.55-1.92,5.77-3.88c0.37-0.6,0.63-1.32,0.45-2
					c-0.26-1-1.34-1.59-2.31-2.05c-1.71-0.82-3.42-1.65-5.13-2.47c-1.13-0.55-2.37-1.2-2.77-2.34c-0.37-1.04,0.09-2.18,0.72-3.1
					c0.77-1.12,1.8-2.07,3.01-2.76c0.62-0.35,1.31-0.67,1.66-1.26c0.63-1.04-0.45-2.57-1.71-2.43L317.82,187.62z"/>
				<path class="st59" d="M328.17,217.59c1.86,1.85,4.66,2.52,7.32,2.88c2.37,0.32,4.76,0.47,7.15,0.45
					c2.98-0.03,6.08-0.37,8.56-1.92c4.1-2.56,5.34-8.43,2.59-12.28c-0.38-0.53-0.94-1.08-1.62-1.01c-0.75,0.08-1.17,0.85-1.4,1.53
					c-1,2.87-1.41,6.23-3.91,8.11c-2.38,1.8-5.83,1.55-8.73,0.67c-2.17-0.66-4.59-2.22-4.24-4.35c0.15-0.89,0.79-1.7,0.73-2.6
					c-0.1-1.5-2.18-2.25-3.66-1.71C327.08,208.77,325.26,214.69,328.17,217.59z"/>
				<path class="st60" d="M354.59,219.44c-4.44,7.09-18.3,7.27-31.07,0.38c-10.73-5.79-17.3-14.73-16.67-21.73
					c0.46,1.73,1.08,3.41,1.85,5.04c2.24,4.77,5.72,9.01,9.99,12.32c1.64,1.28,3.41,2.42,5.33,3.27c2.32,1.03,4.84,1.61,7.34,2.13
					c7.19,1.5,15.04,2.52,21.63-0.58C353.52,220,354.06,219.72,354.59,219.44z"/>
			</g>
			<g>
				<g>
					<polygon class="st50" points="344.69,215.77 346.01,220.28 342.99,219.86 					"/>
					<path class="st50" d="M346.41,223.56l-0.01,0.18c-0.38,13.29-19.92,23.58-43.63,22.97c-18.95-0.49-34.85-7.81-40.24-17.52
						c-1.37-2.42-2.07-5.01-1.99-7.67c0.38-13.31,19.92-23.6,43.63-22.99C327.76,199.14,346.62,210.34,346.41,223.56z"/>
				</g>
				<path class="st51" d="M344.93,218.49c-0.38,13.3-19.91,23.59-43.62,22.98c-23.7-0.61-42.61-11.9-42.22-25.2
					c0.38-13.3,19.91-23.59,43.62-22.98C326.41,193.9,345.32,205.19,344.93,218.49z"/>
				<path class="st52" d="M272.07,202.18c-3.52,2.44-6.45,5.8-7.9,9.73c-2.91,7.89,4.57,13.81,10.83,17.69
					c15.1,9.35,35.1,9.19,51.27,2.35c5.28-2.23,11.59-6.61,12.94-12.31c1.33-5.61-1.28-12.19-6.83-14.81
					c-8.36-3.95-17.64-5.79-26.81-7.48C294.13,195.24,281.88,195.36,272.07,202.18z"/>
				<path class="st53" d="M346.41,223.56l-0.01,0.18c-0.38,13.29-19.92,23.58-43.63,22.97c-18.95-0.49-34.85-7.81-40.24-17.52
					c2.21,2.63,4.96,4.89,7.96,6.69c5.76,3.49,12.4,5.5,19.03,7.03c3.53,0.81,7.08,1.51,10.71,1.69c4.44,0.21,8.9-0.36,13.29-1.13
					c6.13-1.05,12.24-2.49,17.82-5.16c5.57-2.67,10.58-6.63,13.5-11.85C345.38,225.53,345.86,224.54,346.41,223.56z"/>
				<path class="st54" d="M288,199.41c-6.5,1.95-13.14,5.3-15.91,11.19c-1.09,2.32-1.49,4.87-1.66,7.4
					c-0.14,2.16-0.1,4.39,0.72,6.41c1.66,4.1,6.2,6.54,10.7,7.64c11.53,2.81,23.9-1.18,33.66-7.62c4.55-3,8.98-7,9.75-12.19
					c0.61-4.12-1.32-8.37-4.51-11.24C312.51,193.6,297.72,196.5,288,199.41z"/>
				<path class="st54" d="M336.65,227.8c-4.63,5.76-12.44,8.73-20.08,8.96c-1.1,0.03-2.26,0-3.21-0.53
					c-0.95-0.53-1.57-1.71-1.09-2.64c0.41-0.79,1.41-1.11,2.31-1.36c3.6-1,7.23-2.13,10.34-4.12c3.09-1.98,5.55-4.81,7.07-8.03
					c0.78-1.66,1.42-3.51,1.57-5.33c0.17-2-0.84-3.23-1.09-5.06c-0.45-3.24,1.9-5.14,4.45-2.57c2.47,2.49,3.55,6.21,3.59,9.55
					C340.57,220.63,339.2,224.64,336.65,227.8z"/>
			</g>
			<g>
				<g>
					<path class="st61" d="M367.57,182.69c-6.05,7.98-9.12,17.14-8.86,26.36c-1.19-0.07-2.48-0.09-3.76-0.02
						c-4.05,0.21-7.98,1.27-8.04,3.95c-0.01,0.56,0.16,1.11,0.43,1.65c0.42,0.87,1.04,1.72,1.33,2.63c0.08,0.26,0.14,0.51,0.16,0.76
						c0.53,4.28-6.46,7.23-12.53,8.39c-6.43,1.21-14.28,2.7-15.72,7.3c-0.29,0.9-0.3,1.9-1.05,2.64c-0.75,0.74-2.07,1.05-3.3,1.33
						c-1.98,0.44-3.97,0.9-5.95,1.33c-3.4,0.77-6.79,1.53-10.2,2.29c-0.49,0.11-1.01,0.23-1.53,0.32c-1.45,0.26-2.93,0.38-4.31-0.04
						c-2.09-0.62-3.28-2.3-5.35-2.95c-2.43-0.76-5.26,0.19-6.85,1.62c-0.51,0.47-0.93,0.98-1.3,1.52c-0.51,0.74-0.94,1.52-1.36,2.31
						c-0.21,0.37-0.41,0.74-0.63,1.1c-3.76,6.27-12.66,10.46-22.25,11.34c-3.25,0.3-6.57,0.23-9.81-0.28
						c-1.62-0.25-3.21-0.61-4.76-1.07c-5.41-1.64-10.05-4.37-14.61-7.05c-1.17-0.68-2.41-1.39-3.88-1.57
						c-1.71-0.2-3.06,0.28-4.31,1.05c-2.15,1.32-3.97,3.47-6.67,4.25c-0.29,0.08-0.59,0.16-0.89,0.21c-4.32,0.75-8.85-1.9-13.36-3
						c-6.72-1.64-13.76,0.23-20.57,1.2c-6.81,0.97-15.45,0.47-19.02-3.91c-1.09-1.34-1.54-2.88-2.65-4.22
						c-2.75-3.29-8.74-4.45-14.02-4.39c-5.28,0.06-10.5,1.01-15.77,0.59c-5.27-0.42-10.98-2.84-11.79-6.55
						c-0.52-2.36,1-4.87-0.44-7.05c-0.14-0.23-0.32-0.44-0.5-0.63c-1.47-1.51-4.07-2.21-6.73-2.82c-1.21-0.29-2.43-0.57-3.57-0.87
						c-4.8-1.32-8.57-4.22-10.58-7.58c-1.8-3.02-2.16-6.43-0.59-9.42c0.5-0.95,1.18-1.86,1.4-2.87c1.23-5.32-9.68-10.56-6-15.2
						c0.47-0.6,1.16-1.1,1.79-1.62c0.58-0.47,1.12-0.96,1.42-1.55c0.78-1.62-0.5-3.38-1.51-4.99c-2.06-3.26-3.05-7.16-0.59-10.14
						c2.44-2.98,9.38-3.92,12.43-1.06c4.31-4.4,9.09-9.05,16.34-10.72c3.53-0.81,7.34-0.84,11.1-0.84
						c50.66-0.12,101.41,1.58,152.13,3.99c14.74,0.7,29.6,1.47,43.92,4.4c8.64,1.77,16.02,5.09,24.3,7.33
						c6.61,1.79,14.47-0.02,19.23,4.81c0.35,0.36,0.66,0.73,0.91,1.12c0.54,0.8,0.86,1.65,0.83,2.51
						C369.65,180.04,368.56,181.38,367.57,182.69z"/>
					<path class="st62" d="M353.75,185.48c-4.18,2.91-8.67,6.46-7.83,10.68c0.66,3.4,4.6,6.04,7.15,9.01
						c0.99,1.14,1.66,2.52,1.89,3.86c-4.05,0.21-7.98,1.27-8.04,3.95c-0.01,0.56,0.16,1.11,0.43,1.65
						c-10.15,0.17-20.12,1.79-29.2,4.73c-3.73,1.21-7.39,2.69-9.98,4.92c-5.53,4.78-5.33,12.18-9.61,17.33
						c-1.45,0.26-2.93,0.38-4.31-0.04c-2.09-0.62-3.28-2.3-5.35-2.95c-2.43-0.76-5.26,0.19-6.85,1.62c-0.51,0.47-0.93,0.98-1.3,1.52
						c-2.11-1.84-4.26-3.79-7.06-4.82c-5.73-2.07-12.66,0.43-16.23,4.01c-3.58,3.58-4.99,8.04-7.76,11.99
						c-0.81,1.16-1.81,2.28-3,3.3c-2.83,2.46-6.66,4.27-11.14,4.14c-6.6-0.19-11.77-4.49-14.41-8.84c-0.78-1.29-1.42-2.61-2.02-3.94
						c-1.48-3.18-2.74-6.41-5.2-9.28c-1.22-1.41-2.77-2.77-4.9-3.46c-5.73-1.87-11.43,1.79-15.88,4.73
						c-4.44,2.93-12.43,5.14-16.13,1.51c-2-1.97-1.41-4.59-2.2-6.92c-1.58-4.66-8.85-7.62-15.57-7.73
						c-6.72-0.12-12.96,1.97-18.77,4.17c-2.63,0.99-5.96,1.99-8.48,0.72c-3.19-1.61-1.88-5.02-2.85-7.68
						c-1.19-3.26-6.29-5.35-11-5.35c-4.17,0-8.03,1.3-11.41,2.96c-1.21-0.29-2.43-0.57-3.57-0.87c-4.8-1.32-8.57-4.22-10.58-7.58
						c4.56-6.82,14.42-12.38,13-19.97c-0.85-4.57-6.43-8.63-12.87-9.37c-1.15-0.13-2.34-0.03-3.52,0.22
						c0.58-0.47,1.12-0.96,1.42-1.55c0.78-1.62-0.5-3.38-1.51-4.99c-2.06-3.26-3.05-7.16-0.59-10.14c2.44-2.98,9.38-3.92,12.43-1.06
						c4.31-4.4,9.09-9.05,16.34-10.72c3.53-0.81,7.34-0.84,11.1-0.84c50.66-0.12,101.41,1.58,152.13,3.99
						c14.74,0.7,29.6,1.47,43.92,4.4c8.64,1.77,16.02,5.09,24.3,7.33c6.61,1.79,14.47-0.02,19.23,4.81
						c0.35,0.36,0.66,0.73,0.91,1.12C363.37,178.76,358.52,182.13,353.75,185.48z"/>
					<path class="st63" d="M207.28,198.34c0.59-0.6,1.93-1.18,2.49-0.54c2.68,3.08-6.3,14.61-8.14,17.44
						c-3.8,5.83-8.01,11.52-10.86,17.66c-0.83,1.78-1.5,6.22-4.77,6.6c-2.66,0.3-4.94-2.13-5.45-3.69
						c-1.6-4.93,6.65-13.25,9.69-17.45C195.28,211.41,200.97,204.71,207.28,198.34z"/>
					<path class="st64" d="M236.41,253.9c-0.23,0.86-0.72,1.89-1.95,1.99c-1.08,0.09-1.97-0.63-2.64-1.26
						c-2.16-2.08-4.32-4.15-6.49-6.23c-3.42-3.29-6.96-6.76-7.82-10.73c-0.21-0.99-0.24-2.04,0.36-2.92
						c0.6-0.88,1.98-1.54,3.37-1.34c1.21,0.18,2.11,0.92,2.9,1.61c1.4,1.22,2.8,2.45,4.19,3.67c0.26,0.23,0.56,0.47,0.96,0.54
						c0.69,0.11,1.25-0.35,1.61-0.76c3.52-4.03,5.48-8.65,7.41-13.23c1-2.38,1.48-6.98,5.16-7.96c1.27,5.31-1.54,12.41-2.62,17.79
						C239.6,241.37,238.11,247.65,236.41,253.9z"/>
					<path class="st64" d="M151.88,224.16c4.67-0.53,9.43,0.79,13.9,2.1c1.24-1.36,0.55-3.34-1.1-4.57
						c-1.65-1.23-4.02-1.83-6.34-2.13c-4.74-0.62-9.69-0.17-13.92,1.28c-0.64,0.22-1.48,0.44-2.02,0.08
						c-0.29-0.2-0.36-0.5-0.39-0.77c-0.46-4.01,3.68-7.3,6.36-10.75c3.04-3.91,4.32-8.4,5.57-12.82c0.09-0.31,0.17-0.63,0-0.93
						c-0.61-1.09-2.89-0.29-3.84,0.62c-6.15,5.86-12.45,11.95-14.65,19.17c-0.57,1.88-0.94,3.93-2.82,5.29
						c0.67-3.59-2.5-7.48-7.29-8.96c-1.47-0.45-3.2-0.69-4.58-0.19c-1.38,0.49-2.08,1.92-1.02,2.78c0.38,0.31,0.9,0.5,1.4,0.69
						c4.47,1.77,7.96,4.8,9.48,8.24c0.58,1.31,0.88,2.67,1.2,4.01c1.1,4.57,3.39,3.24,6.78,1.58
						C142.41,227.01,147.17,224.7,151.88,224.16z"/>
					<path class="st64" d="M297.44,233.83c3.07-3.28,3.93-7.43,6.8-10.8c2.91-3.41,7.9-5.86,13.48-6.63
						c-3.28-2.07-8.34-1.66-12.11-0.32c-2.87,1.02-5.4,2.5-7.34,4.31c-1.89,1.76-3.25,3.84-5.52,5.36
						c-2.27,1.52-5.94,2.36-8.69,1.12c-3.55-1.6-3.67-5.66-7.37-7.07c-0.33-0.13-0.7-0.23-1.06-0.18c-0.76,0.11-0.98,0.78-1.05,1.33
						c-0.58,4.64-0.88,9.4,5.37,12.01C285.7,235.36,292.94,238.65,297.44,233.83z"/>
					<path class="st64" d="M342.68,198.49c1.08,1.73,2.77,3.24,4.03,4.91c1.26,1.67,2.07,3.65,1.22,5.38
						c-1.21,2.46-5.28,3.51-8.99,3.7c-3.71,0.19-7.59-0.19-11.07,0.68c-0.61,0.15-1.24,0.34-1.89,0.26
						c-1.19-0.15-1.81-1.09-2.22-1.9c-0.41-0.81-0.82-1.62-1.24-2.43c-0.45-0.88-0.89-1.91-0.22-2.69c0.97-1.13,3.48-0.85,5.11-0.1
						c1.62,0.76,3.02,1.87,4.9,2.16c1.71,0.26,3.41-0.24,4.92-0.8c0.97-0.36,2.07-0.97,1.79-1.74c-0.15-0.42-0.66-0.72-1.13-1
						c-2.69-1.62-4.87-3.66-6.32-5.92c-0.57-0.9-1.02-1.97-0.33-2.79c0.6-0.7,1.88-0.98,2.49-1.68c0.64-0.73,0.38-1.69,0.43-2.56
						c0.13-2.24,7.53-9.03,9.74-6.27c1.1,1.36-1.41,4-1.81,5.24C341.27,193.48,341.1,195.96,342.68,198.49z"/>
					<path class="st64" d="M101.1,209.26c0.14,1.76,1.18,3.5,2.89,4.83c2.21,1.71,5.69,2.69,8.74,2.1c3.05-0.59,5.28-2.94,4.43-5.15
						c-0.2-0.51-0.54-1.02-0.49-1.54c0.13-1.39,2.77-1.81,4.68-1.42c1.92,0.38,3.82,1.21,5.74,0.96c0.04-1.44-1.45-2.77-3.28-3.46
						c-1.83-0.69-3.93-0.83-5.96-0.85c-2.61-0.02-5.52,0.28-7.02,1.74c-0.73,0.71-1.75,1.79-2.81,1.26
						c-0.54-0.27-0.6-0.81-0.55-1.26c0.4-3.45,5.3-6.79,4.3-10.19C105.93,196.76,100.82,205.58,101.1,209.26z"/>
					<path class="st65" d="M211.58,252.04c-4.32,0.75-8.85-1.9-13.36-3c-6.72-1.64-13.76,0.23-20.57,1.2
						c-6.81,0.97-15.45,0.47-19.02-3.91c-1.09-1.34-1.54-2.88-2.65-4.22c-2.75-3.29-8.74-4.45-14.02-4.39
						c-5.28,0.06-10.5,1.01-15.77,0.59c-5.27-0.42-10.98-2.84-11.79-6.55c-0.52-2.36,1-4.87-0.44-7.05
						c-0.14-0.23-0.32-0.44-0.5-0.63c0.62-0.05,1.23-0.1,1.82-0.15c9.12-0.73,6.33,1.9,6.63,6.57c0.16,2.46,3.85,4.29,7.32,4.52
						c3.47,0.22,6.8-0.69,10.1-1.37c4.51-0.94,9.31-1.5,14-0.85c4.71,0.65,9.3,2.66,11.43,5.73c0.95,1.38,1.46,2.98,3.09,3.99
						c1.25,0.77,2.92,1.06,4.53,1.18c6.15,0.46,12.12-1.06,18.23-1.38c4.76-0.25,9.66,0.24,14.22,1.43c1.59,0.41,3.18,0.94,4.35,1.8
						C211.48,247.23,211.68,249.73,211.58,252.04z"/>
				</g>
				<path class="st65" d="M279.88,244.1c-0.21,0.37-0.41,0.74-0.63,1.1c-3.76,6.27-12.66,10.46-22.25,11.34
					c1.79-5.13,9.31-11.86,13.35-12.85c1.86-0.46,3.95-0.36,5.94-0.16C277.46,243.65,278.69,243.83,279.88,244.1z"/>
			</g>
			<defs>
				<filter id="Adobe_OpacityMaskFilter" filterUnits="userSpaceOnUse" x="105.89" y="135.99" width="242.49" height="109.16">
					<feFlood  style="flood-color:white;flood-opacity:1" result="back"/>
					<feBlend  in="SourceGraphic" in2="back" mode="normal"/>
				</filter>
			</defs>
			<mask maskUnits="userSpaceOnUse" x="105.89" y="135.99" width="242.49" height="109.16" id="SVGID_1_">
				<g class="st66">
					<defs>
						<filter id="Adobe_OpacityMaskFilter_1_" filterUnits="userSpaceOnUse" x="105.89" y="135.99" width="242.49" height="109.16">
							<feFlood  style="flood-color:white;flood-opacity:1" result="back"/>
							<feBlend  in="SourceGraphic" in2="back" mode="normal"/>
						</filter>
					</defs>
					<mask maskUnits="userSpaceOnUse" x="105.89" y="135.99" width="242.49" height="109.16" id="SVGID_1_">
						<g class="st67">
						</g>
					</mask>
					
						<linearGradient id="SVGID_2_" gradientUnits="userSpaceOnUse" x1="345.1314" y1="193.9305" x2="236.5729" y2="186.5869" gradientTransform="matrix(0.9973 0.0739 -0.0739 0.9973 20.0896 -11.8438)">
						<stop  offset="0.2132" style="stop-color:#000000"/>
						<stop  offset="0.2262" style="stop-color:#060606"/>
						<stop  offset="0.3224" style="stop-color:#2B2B2B"/>
						<stop  offset="0.423" style="stop-color:#4A4A4A"/>
						<stop  offset="0.5279" style="stop-color:#616161"/>
						<stop  offset="0.6389" style="stop-color:#727272"/>
						<stop  offset="0.7603" style="stop-color:#7C7C7C"/>
						<stop  offset="0.9114" style="stop-color:#808080"/>
					</linearGradient>
					<path class="st68" d="M109.07,196.05c3.47,7.9,10.07,14.12,16.51,20.13c4.16,3.88,8.35,7.78,13.26,10.77
						c5.37,3.27,11.44,5.36,17.48,7.35c12.45,4.1,25.08,7.95,38.13,9.7c23.71,3.18,47.87-0.66,71.08-6.24
						c17.06-4.1,34.08-9.25,48.93-18.19c14.85-8.94,27.48-22.07,32.44-38.05c1.12-3.61,1.85-7.41,1.29-11.14
						c-1.47-9.78-11.15-16.46-20.61-20.64c-22.33-9.86-47.48-12.21-72.1-13.24c-20.74-0.87-41.62-0.89-62.15,2.04
						c-9.72,1.39-19.51,3.5-28.02,8.16c-7.58,4.15-13.92,10.21-21.78,13.87c-9.49,4.41-20.7,5.04-29.64,10.58
						C103.62,177.51,104.69,186.09,109.07,196.05z"/>
				</g>
			</mask>
			
				<linearGradient id="SVGID_3_" gradientUnits="userSpaceOnUse" x1="345.1314" y1="193.9305" x2="236.5729" y2="186.5869" gradientTransform="matrix(0.9973 0.0739 -0.0739 0.9973 20.0896 -11.8438)">
				<stop  offset="0.2132" style="stop-color:#999900"/>
				<stop  offset="0.3368" style="stop-color:#878700"/>
				<stop  offset="0.5028" style="stop-color:#767600"/>
				<stop  offset="0.6848" style="stop-color:#6C6C00"/>
				<stop  offset="0.9114" style="stop-color:#696900"/>
			</linearGradient>
			<path class="st69" d="M109.07,196.05c3.47,7.9,10.07,14.12,16.51,20.13c4.16,3.88,8.35,7.78,13.26,10.77
				c5.37,3.27,11.44,5.36,17.48,7.35c12.45,4.1,25.08,7.95,38.13,9.7c23.71,3.18,47.87-0.66,71.08-6.24
				c17.06-4.1,34.08-9.25,48.93-18.19c14.85-8.94,27.48-22.07,32.44-38.05c1.12-3.61,1.85-7.41,1.29-11.14
				c-1.47-9.78-11.15-16.46-20.61-20.64c-22.33-9.86-47.48-12.21-72.1-13.24c-20.74-0.87-41.62-0.89-62.15,2.04
				c-9.72,1.39-19.51,3.5-28.02,8.16c-7.58,4.15-13.92,10.21-21.78,13.87c-9.49,4.41-20.7,5.04-29.64,10.58
				C103.62,177.51,104.69,186.09,109.07,196.05z"/>
			<g>
				<path class="st70" d="M230.04,239.96c-68.29,3.71-125.71-27.47-128.27-69.61c-0.47-7.65,0.77-15.51,3.51-23.31
					c0.07-0.19,0.13-0.37,0.2-0.56c12.6-34.93,55.4-68,111-71.01c21.38-1.16,42.12,2.26,60.6,8.8c13.2,4.67,25.25,10.93,35.55,18.26
					c21.34,15.16,35.21,34.87,36.4,54.39C351.6,199.08,298.32,236.25,230.04,239.96z"/>
				<g>
					<path class="st71" d="M230.04,239.96c-67.99,3.69-125.22-27.2-128.22-69.07c-0.01-0.18-0.03-0.37-0.04-0.55
						c-0.47-7.65,0.77-15.51,3.51-23.31c3.94,4.98,7.86,9.97,11.77,14.95c4.54,5.77,9.16,11.62,15.14,16.07
						c6.13,4.55,13.47,7.46,20.96,9.52c24.44,6.75,50.93,4.9,75.29-2.11c20.76-5.98,40.53-15.8,56-30.19
						c15.14-14.1,25.92-32.79,28.19-52.74c8.62,6.13,16.04,13,21.88,20.3c8.61,10.77,13.8,22.46,14.52,34.09
						C351.6,199.08,298.32,236.25,230.04,239.96z"/>
					<path class="st72" d="M277.04,105.89c-1.53,3.98-3.92,7.62-6.71,10.91c-12.42,14.62-32.07,21.77-51.16,26.78
						c-16.09,4.22-32.49,7.37-49.05,9.42c-12.37,1.54-24.97,2.45-37.32,0.73c-8.32-1.15-19.76-2.58-27.32-7.25
						c12.6-34.93,55.4-68,111-71.01c21.38-1.16,42.12,2.26,60.6,8.8C279.61,91.24,279.71,98.99,277.04,105.89z"/>
					<path class="st73" d="M349,163.41c-2.93,39.42-54.2,73.03-118.95,76.55c-68,3.7-125.23-27.19-128.23-69.06
						c0.09,0.15,0.19,0.3,0.3,0.45c3.28,5.14,6.86,10.08,10.84,14.76c11.75,13.86,27.09,25.44,44.98,30.85
						c7.01,2.1,14.33,3.26,21.64,4.12c23.99,2.83,48.61,2.63,72.05-3.02c23.44-5.65,45.68-17,61.75-34.08
						c6.62-7.03,11.98-15.15,15.78-23.85c5.1-11.73,7.37-24.77,5.35-37.3c8.6,10.76,13.8,22.45,14.52,34.08
						C349.17,159.1,349.15,161.26,349,163.41z"/>
					<path class="st74" d="M124.48,137.16c-4.28,4.19-8.42,9.25-8.35,15.08c0.02,1.57,0.36,3.16,1.17,4.53
						c1.23,2.09,3.45,3.53,5.81,4.39c4.33,1.57,9.13,1.39,13.76,1.03c8.71-0.68,17.36-1.91,25.89-3.7
						c3.64-0.76,7.44-1.71,10.14-4.14c1.83-1.64,3.01-3.85,3.8-6.11c3.51-9.98-1.31-27.7-13.82-30.22
						C149.7,115.38,132.69,129.11,124.48,137.16z"/>
					<path class="st74" d="M250.75,94.17c-18.52-1.11-38.58-0.98-53.61,9.32c-5.86,4.02-10.71,9.58-12.85,16.13
						c-2.14,6.55-1.31,14.09,2.97,19.62c6.54,8.44,18.89,10.36,29.95,10.67c21.17,0.59,42.45-2.25,62.63-8.34
						c5.76-1.74,11.67-3.89,15.68-8.17c5.3-5.64,6.15-14.44,2.58-21.19C290.33,97.51,265.83,95.07,250.75,94.17z"/>
				</g>
			</g>
			<polygon class="st75" points="202.26,284.5 245.59,298.56 276.5,283.23 244.35,295.73 			"/>
			<path class="st76" d="M349,163.41c-2.93,39.42-54.2,73.03-118.95,76.55c-68,3.7-125.23-27.19-128.23-69.06
				c0.09,0.15,0.19,0.3,0.3,0.45c5.22,13.23,11.91,24.42,23.17,34.68c7.35,6.69,15.75,12.37,24.8,16.83
				c22.17,10.92,47.89,14.64,72.76,12.44C273.29,230.84,332.16,212.71,349,163.41z"/>
			<g>
				<g>
					<g class="st77">
						<path class="st78" d="M226.26,86.74c-4-0.55-8.19,1.14-10.41,4.21c-0.18,0.25-0.37,0.56-0.29,0.87
							c0.09,0.43,0.6,0.67,1.06,0.82c0.21,0.07,0.42,0.13,0.63,0.19c2.84,0.81,5.9,0.87,8.74,0.2c0,0,1.22,0.09,2.41-0.64
							c1.18-0.72,2.01-2.12,1.55-3.41c-0.18-0.49-0.51-0.89-0.95-1.22C228.26,87.19,227.23,86.87,226.26,86.74z"/>
						<path class="st79" d="M229,87.77c-0.53-0.07-1.07-0.07-1.6-0.04c-2.35,0.12-4.7,0.6-6.66,1.76c-0.81,0.48-2.5,1.89-3.5,3.35
							c2.84,0.81,5.9,0.87,8.74,0.2c0,0,1.22,0.09,2.41-0.64c1.18-0.72,2.01-2.12,1.55-3.41C229.76,88.49,229.43,88.09,229,87.77z"
							/>
						<path class="st80" d="M221.33,92.17c-0.24-0.14-0.49-0.31-0.58-0.56c-0.16-0.44,0.24-0.86,0.62-1.15
							c0.91-0.68,1.92-1.27,3.04-1.57c1.13-0.3,2.39-0.29,3.47,0.18c1.8,0.78-0.65,2.88-1.5,3.26
							C224.83,93.04,222.86,93.03,221.33,92.17z"/>
					</g>
					<g class="st77">
						<path class="st78" d="M191.32,118.44c-1.77-3.44-5.59-5.77-9.53-5.79c-0.32,0-0.69,0.02-0.93,0.26
							c-0.32,0.31-0.24,0.85-0.12,1.29c0.05,0.2,0.12,0.4,0.19,0.61c0.89,2.68,2.55,5.11,4.74,6.96c0,0,0.61,1.01,1.91,1.53
							c1.29,0.52,2.98,0.38,3.85-0.7c0.33-0.42,0.5-0.9,0.53-1.43C192.05,120.26,191.74,119.28,191.32,118.44z"/>
						<path class="st79" d="M191.96,121.16c-0.24-0.46-0.54-0.88-0.86-1.27c-1.42-1.78-3.16-3.35-5.28-4.23
							c-0.87-0.37-3.05-0.9-4.89-0.86c0.89,2.68,2.55,5.11,4.74,6.96c0,0,0.61,1.01,1.91,1.53c1.29,0.52,2.98,0.38,3.85-0.7
							C191.75,122.17,191.92,121.69,191.96,121.16z"/>
						<path class="st80" d="M183.8,117.63c-0.02-0.27-0.01-0.56,0.16-0.77c0.3-0.37,0.89-0.29,1.35-0.16
							c1.1,0.33,2.18,0.79,3.08,1.5c0.89,0.72,1.59,1.71,1.79,2.82c0.33,1.84-2.88,1.11-3.69,0.66
							C185,120.86,183.91,119.31,183.8,117.63z"/>
					</g>
					<g class="st77">
						<path class="st78" d="M204.58,94.06c-3.38,0.65-6.23,3.16-7.08,6.23c-0.07,0.25-0.13,0.55,0.03,0.78
							c0.2,0.32,0.69,0.37,1.1,0.37c0.19,0,0.38-0.01,0.57-0.02c2.53-0.13,5-0.91,7.09-2.24c0,0,1.01-0.26,1.74-1.17
							c0.73-0.9,0.97-2.25,0.2-3.16c-0.3-0.35-0.68-0.58-1.13-0.72C206.33,93.88,205.4,93.91,204.58,94.06z"/>
						<path class="st79" d="M207.1,94.14c-0.45,0.09-0.88,0.24-1.3,0.4c-1.85,0.74-3.6,1.77-4.81,3.24c-0.5,0.6-1.44,2.2-1.79,3.65
							c2.53-0.13,5-0.91,7.09-2.24c0,0,1.01-0.26,1.74-1.17c0.73-0.9,0.97-2.25,0.2-3.16C207.93,94.51,207.55,94.28,207.1,94.14z"/>
						<path class="st80" d="M202.28,99.78c-0.24-0.04-0.49-0.11-0.64-0.29c-0.26-0.31-0.07-0.76,0.15-1.09
							c0.52-0.8,1.15-1.54,1.97-2.09c0.82-0.55,1.83-0.88,2.85-0.8c1.68,0.13,0.36,2.49-0.21,3.03
							C205.36,99.52,203.77,100.05,202.28,99.78z"/>
					</g>
					<g class="st77">
						<path class="st78" d="M186.9,100.01c-1.21-2.37-3.84-3.96-6.55-3.98c-0.22,0-0.48,0.02-0.64,0.18
							c-0.22,0.21-0.17,0.58-0.08,0.88c0.04,0.14,0.08,0.28,0.13,0.42c0.61,1.84,1.75,3.51,3.26,4.78c0,0,0.42,0.69,1.31,1.05
							c0.89,0.36,2.04,0.26,2.64-0.48c0.23-0.29,0.34-0.62,0.37-0.98C187.4,101.26,187.2,100.58,186.9,100.01z"/>
						<path class="st79" d="M187.34,101.88c-0.16-0.31-0.37-0.6-0.59-0.88c-0.98-1.22-2.17-2.3-3.63-2.9
							c-0.6-0.25-2.1-0.62-3.36-0.59c0.61,1.84,1.75,3.51,3.26,4.78c0,0,0.42,0.69,1.31,1.05c0.89,0.36,2.04,0.26,2.64-0.48
							C187.2,102.57,187.32,102.24,187.34,101.88z"/>
						<path class="st80" d="M181.73,99.45c-0.01-0.18,0-0.38,0.11-0.53c0.21-0.26,0.61-0.2,0.93-0.11c0.76,0.22,1.5,0.54,2.12,1.03
							c0.61,0.49,1.09,1.17,1.23,1.94c0.23,1.27-1.98,0.76-2.54,0.45C182.56,101.67,181.81,100.61,181.73,99.45z"/>
					</g>
					<g class="st77">
						<path class="st78" d="M216.98,113.86c-1.21-2.37-3.84-3.96-6.55-3.98c-0.22,0-0.48,0.02-0.64,0.18
							c-0.22,0.21-0.17,0.58-0.08,0.88c0.04,0.14,0.08,0.28,0.13,0.42c0.61,1.84,1.75,3.51,3.25,4.78c0,0,0.42,0.69,1.31,1.05
							c0.89,0.36,2.04,0.26,2.64-0.48c0.23-0.29,0.34-0.62,0.37-0.98C217.48,115.11,217.27,114.43,216.98,113.86z"/>
						<path class="st79" d="M217.42,115.73c-0.16-0.31-0.37-0.6-0.59-0.88c-0.98-1.22-2.17-2.3-3.63-2.9
							c-0.6-0.25-2.1-0.62-3.36-0.59c0.61,1.84,1.75,3.51,3.25,4.78c0,0,0.42,0.69,1.31,1.05c0.89,0.36,2.04,0.26,2.64-0.48
							C217.28,116.42,217.4,116.09,217.42,115.73z"/>
						<path class="st80" d="M211.81,113.3c-0.01-0.18,0-0.38,0.11-0.53c0.21-0.26,0.61-0.2,0.93-0.11c0.76,0.22,1.5,0.54,2.12,1.03
							c0.61,0.49,1.09,1.17,1.23,1.94c0.23,1.27-1.98,0.76-2.54,0.45C212.64,115.52,211.89,114.46,211.81,113.3z"/>
					</g>
				</g>
				<g class="st77">
					<g class="st81">
						<g>
							<path class="st78" d="M140.54,187.8c4.33-0.27,8.65,1.87,10.76,5.32c0.17,0.29,0.34,0.62,0.24,0.95
								c-0.13,0.45-0.7,0.67-1.2,0.79c-0.23,0.06-0.46,0.11-0.7,0.16c-3.11,0.64-6.38,0.47-9.37-0.48c0,0-1.32,0-2.52-0.87
								c-1.2-0.86-1.96-2.42-1.35-3.76c0.24-0.51,0.62-0.92,1.12-1.23C138.35,188.12,139.49,187.87,140.54,187.8z"/>
							<path class="st79" d="M137.52,188.68c0.58-0.03,1.15,0.01,1.71,0.08c2.5,0.31,4.98,1.01,6.97,2.41
								c0.82,0.57,2.51,2.21,3.45,3.86c-3.11,0.64-6.38,0.47-9.37-0.48c0,0-1.32,0-2.52-0.87c-1.2-0.86-1.96-2.42-1.35-3.76
								C136.63,189.4,137.02,188.99,137.52,188.68z"/>
							<path class="st80" d="M145.33,194c0.27-0.13,0.55-0.29,0.67-0.55c0.21-0.46-0.18-0.94-0.56-1.27
								c-0.91-0.8-1.94-1.51-3.12-1.92c-1.18-0.41-2.53-0.5-3.73-0.08c-1.99,0.69,0.44,3.13,1.32,3.61
								C141.5,194.65,143.61,194.79,145.33,194z"/>
						</g>
						<g>
							<path class="st78" d="M155.63,148.4c3.97,1.65,6.76,5.44,6.94,9.43c0.01,0.33,0,0.7-0.26,0.95
								c-0.33,0.34-0.95,0.28-1.45,0.18c-0.23-0.05-0.46-0.11-0.69-0.16c-3.07-0.8-5.88-2.38-8.07-4.53c0,0-1.17-0.57-1.81-1.88
								c-0.64-1.29-0.55-3,0.64-3.93c0.46-0.35,1-0.54,1.59-0.6C153.54,147.73,154.67,148,155.63,148.4z"/>
							<path class="st79" d="M152.52,147.86c0.53,0.22,1.02,0.52,1.48,0.82c2.07,1.37,3.92,3.07,5,5.18
								c0.45,0.87,1.14,3.06,1.17,4.93c-3.07-0.8-5.88-2.38-8.07-4.53c0,0-1.17-0.57-1.81-1.88c-0.64-1.29-0.55-3,0.64-3.93
								C151.39,148.1,151.93,147.92,152.52,147.86z"/>
							<path class="st80" d="M156.85,155.99c0.3,0.01,0.63-0.02,0.87-0.2c0.41-0.32,0.3-0.91,0.12-1.38
								c-0.41-1.11-0.98-2.18-1.83-3.06c-0.85-0.88-2-1.55-3.27-1.7c-2.1-0.26-1.14,2.97-0.6,3.77
								C153.14,154.9,154.94,155.95,156.85,155.99z"/>
						</g>
						<g>
							<path class="st78" d="M121.3,164.81c3.97-1.64,8.81-1.02,12.03,1.56c0.26,0.21,0.55,0.48,0.56,0.82
								c0.04,0.46-0.43,0.85-0.85,1.13c-0.19,0.13-0.4,0.25-0.6,0.37c-2.7,1.6-5.84,2.48-8.99,2.55c0,0-1.24,0.42-2.69-0.01
								c-1.44-0.43-2.71-1.65-2.62-3.11c0.04-0.56,0.26-1.06,0.61-1.51C119.37,165.82,120.34,165.21,121.3,164.81z"/>
							<path class="st79" d="M118.78,166.61c0.53-0.22,1.09-0.36,1.64-0.47c2.47-0.51,5.04-0.65,7.42,0.03
								c0.98,0.28,3.15,1.28,4.62,2.52c-2.7,1.6-5.84,2.48-8.99,2.55c0,0-1.24,0.42-2.69-0.01c-1.44-0.43-2.71-1.65-2.62-3.11
								C118.2,167.57,118.42,167.06,118.78,166.61z"/>
							<path class="st80" d="M128.03,169.11c0.21-0.21,0.42-0.45,0.43-0.74c0.03-0.5-0.51-0.83-0.99-1.02
								c-1.14-0.46-2.36-0.8-3.62-0.8c-1.26-0.01-2.55,0.34-3.54,1.12c-1.62,1.29,1.53,2.8,2.53,2.97
								C124.67,170.95,126.7,170.41,128.03,169.11z"/>
						</g>
						<g>
							<path class="st78" d="M166.95,188.23c0.79-4.03,4.06-7.47,8.12-8.54c0.34-0.09,0.72-0.16,1.04,0.02
								c0.43,0.23,0.51,0.81,0.51,1.3c0,0.22,0,0.45-0.01,0.68c-0.12,3.01-1.11,5.96-2.82,8.47c0,0-0.32,1.21-1.52,2.1
								c-1.18,0.89-2.96,1.19-4.19,0.31c-0.47-0.35-0.78-0.8-0.98-1.33C166.74,190.31,166.76,189.21,166.95,188.23z"/>
							<path class="st79" d="M167.1,191.22c0.11-0.54,0.3-1.05,0.51-1.55c0.94-2.22,2.27-4.31,4.19-5.79
								c0.79-0.61,2.89-1.75,4.8-2.2c-0.12,3.01-1.11,5.96-2.82,8.47c0,0-0.32,1.21-1.52,2.1c-1.18,0.89-2.96,1.19-4.19,0.31
								C167.61,192.21,167.3,191.75,167.1,191.22z"/>
							<path class="st80" d="M174.48,185.38c-0.06-0.28-0.16-0.58-0.4-0.75c-0.42-0.31-1.01-0.06-1.45,0.2
								c-1.04,0.63-2.02,1.4-2.73,2.38c-0.71,0.98-1.13,2.19-1.01,3.4c0.21,1.99,3.31,0.37,4.02-0.31
								C174.21,189.04,174.87,187.15,174.48,185.38z"/>
						</g>
						<g>
							<path class="st78" d="M145.92,166.57c3.7-0.23,7.39,1.59,9.19,4.55c0.15,0.24,0.29,0.53,0.2,0.82
								c-0.11,0.38-0.6,0.57-1.03,0.68c-0.19,0.05-0.39,0.09-0.59,0.14c-2.66,0.54-5.45,0.4-8-0.41c0,0-1.13,0-2.16-0.74
								c-1.03-0.74-1.67-2.07-1.16-3.22c0.2-0.44,0.53-0.78,0.96-1.05C144.06,166.85,145.03,166.63,145.92,166.57z"/>
							<path class="st79" d="M143.34,167.33c0.49-0.03,0.98,0.01,1.46,0.07c2.14,0.27,4.25,0.86,5.95,2.06
								c0.7,0.49,2.14,1.89,2.94,3.29c-2.66,0.54-5.45,0.4-8-0.41c0,0-1.13,0-2.16-0.74c-1.03-0.74-1.67-2.07-1.16-3.22
								C142.59,167.94,142.92,167.59,143.34,167.33z"/>
							<path class="st80" d="M150.02,171.87c0.23-0.11,0.47-0.25,0.57-0.47c0.18-0.39-0.16-0.8-0.48-1.09
								c-0.78-0.68-1.65-1.29-2.66-1.64c-1.01-0.35-2.16-0.42-3.19-0.07c-1.7,0.59,0.38,2.67,1.12,3.08
								C146.75,172.43,148.55,172.55,150.02,171.87z"/>
						</g>
						<g>
							<path class="st78" d="M157.58,133.21c2.73,1.14,4.64,3.74,4.77,6.48c0.01,0.23,0,0.48-0.18,0.65c-0.23,0.23-0.65,0.19-1,0.12
								c-0.16-0.03-0.32-0.07-0.48-0.11c-2.11-0.55-4.04-1.63-5.54-3.11c0,0-0.8-0.39-1.24-1.29c-0.44-0.89-0.38-2.06,0.44-2.7
								c0.32-0.24,0.69-0.37,1.09-0.41C156.14,132.75,156.92,132.93,157.58,133.21z"/>
							<path class="st79" d="M155.45,132.84c0.36,0.15,0.7,0.35,1.02,0.56c1.42,0.94,2.69,2.11,3.43,3.56
								c0.31,0.6,0.79,2.1,0.8,3.38c-2.11-0.55-4.04-1.63-5.54-3.11c0,0-0.8-0.39-1.24-1.29c-0.44-0.89-0.38-2.06,0.44-2.7
								C154.67,133.01,155.04,132.88,155.45,132.84z"/>
							<path class="st80" d="M158.42,138.43c0.21,0.01,0.44-0.01,0.6-0.14c0.28-0.22,0.2-0.63,0.08-0.95
								c-0.28-0.76-0.67-1.5-1.26-2.1c-0.58-0.6-1.37-1.06-2.25-1.17c-1.44-0.18-0.78,2.04-0.41,2.59
								C155.87,137.67,157.11,138.39,158.42,138.43z"/>
						</g>
						<g>
							<path class="st78" d="M133.49,146.33c2.73-1.13,6.05-0.7,8.27,1.07c0.18,0.15,0.38,0.33,0.39,0.57
								c0.03,0.32-0.29,0.59-0.58,0.78c-0.13,0.09-0.27,0.17-0.41,0.26c-1.86,1.1-4.01,1.71-6.17,1.75c0,0-0.85,0.29-1.85-0.01
								c-0.99-0.29-1.86-1.13-1.8-2.14c0.03-0.38,0.18-0.73,0.42-1.04C132.15,147.02,132.82,146.6,133.49,146.33z"/>
							<path class="st79" d="M131.75,147.56c0.36-0.15,0.75-0.25,1.13-0.32c1.7-0.35,3.47-0.44,5.1,0.02
								c0.67,0.19,2.17,0.88,3.18,1.73c-1.86,1.1-4.01,1.71-6.17,1.75c0,0-0.85,0.29-1.85-0.01c-0.99-0.29-1.86-1.13-1.8-2.14
								C131.36,148.22,131.51,147.87,131.75,147.56z"/>
							<path class="st80" d="M138.11,149.28c0.15-0.14,0.29-0.31,0.3-0.51c0.02-0.34-0.35-0.57-0.68-0.7
								c-0.78-0.32-1.62-0.55-2.49-0.55c-0.86,0-1.76,0.24-2.43,0.77c-1.12,0.88,1.05,1.93,1.74,2.04
								C135.8,150.55,137.19,150.17,138.11,149.28z"/>
						</g>
						<g>
							<path class="st78" d="M165.99,167.98c0.55-2.77,2.79-5.13,5.58-5.87c0.23-0.06,0.5-0.11,0.71,0.01
								c0.29,0.16,0.35,0.56,0.35,0.89c0,0.15,0,0.31-0.01,0.46c-0.08,2.07-0.76,4.1-1.93,5.82c0,0-0.22,0.83-1.04,1.44
								c-0.81,0.61-2.04,0.82-2.88,0.21c-0.32-0.24-0.54-0.55-0.67-0.91C165.85,169.41,165.86,168.65,165.99,167.98z"/>
							<path class="st79" d="M166.1,170.03c0.07-0.37,0.21-0.72,0.35-1.06c0.65-1.52,1.56-2.96,2.88-3.98
								c0.54-0.42,1.98-1.2,3.3-1.51c-0.08,2.07-0.76,4.1-1.93,5.82c0,0-0.22,0.83-1.04,1.44c-0.81,0.61-2.04,0.82-2.88,0.21
								C166.45,170.71,166.23,170.4,166.1,170.03z"/>
							<path class="st80" d="M171.17,166.02c-0.04-0.19-0.11-0.4-0.27-0.52c-0.29-0.21-0.69-0.04-0.99,0.14
								c-0.72,0.44-1.39,0.96-1.88,1.64c-0.49,0.67-0.78,1.51-0.69,2.33c0.15,1.37,2.28,0.26,2.76-0.21
								C170.98,168.54,171.43,167.23,171.17,166.02z"/>
						</g>
					</g>
					<g class="st81">
						<g>
							<path class="st78" d="M226.04,171.22c-3.74,2.08-6.05,6.14-5.74,10.12c0.03,0.33,0.09,0.7,0.37,0.92
								c0.37,0.3,0.98,0.18,1.46,0.02c0.22-0.07,0.45-0.16,0.67-0.24c2.95-1.13,5.56-3.01,7.46-5.38c0,0,1.09-0.7,1.57-2.06
								c0.48-1.35,0.18-3.04-1.12-3.83c-0.5-0.3-1.06-0.43-1.66-0.42C228.04,170.32,226.95,170.72,226.04,171.22z"/>
							<path class="st79" d="M229.06,170.34c-0.5,0.28-0.95,0.62-1.37,0.98c-1.89,1.59-3.52,3.48-4.33,5.69
								c-0.34,0.91-0.76,3.17-0.56,5.02c2.95-1.13,5.56-3.01,7.46-5.38c0,0,1.09-0.7,1.57-2.06c0.48-1.35,0.18-3.04-1.12-3.83
								C230.21,170.46,229.66,170.34,229.06,170.34z"/>
							<path class="st80" d="M225.76,178.89c-0.3,0.04-0.63,0.05-0.88-0.1c-0.45-0.27-0.41-0.87-0.29-1.35
								c0.28-1.14,0.71-2.28,1.44-3.24c0.73-0.96,1.8-1.75,3.04-2.05c2.06-0.49,1.49,2.82,1.05,3.68
								C229.31,177.4,227.65,178.64,225.76,178.89z"/>
						</g>
						<g>
							<path class="st78" d="M190.15,146.65c-2.3,3.48-2.36,8.09-0.14,11.49c0.18,0.28,0.42,0.58,0.78,0.65
								c0.48,0.1,0.95-0.27,1.31-0.63c0.16-0.16,0.32-0.33,0.48-0.5c2.07-2.29,3.46-5.1,3.99-8.03c0,0,0.63-1.1,0.38-2.52
								c-0.23-1.41-1.33-2.78-2.86-2.91c-0.59-0.05-1.15,0.09-1.67,0.35C191.49,144.98,190.71,145.81,190.15,146.65z"/>
							<path class="st79" d="M192.4,144.55c-0.3,0.46-0.53,0.97-0.74,1.46c-0.9,2.23-1.42,4.62-1.06,6.95
								c0.14,0.96,0.87,3.14,1.96,4.7c2.07-2.29,3.46-5.1,3.99-8.03c0,0,0.63-1.1,0.38-2.52c-0.23-1.41-1.33-2.78-2.86-2.91
								C193.48,144.15,192.93,144.28,192.4,144.55z"/>
							<path class="st80" d="M193.65,153.58c-0.25,0.17-0.54,0.32-0.83,0.3c-0.53-0.05-0.79-0.6-0.92-1.07
								c-0.32-1.14-0.49-2.33-0.31-3.5c0.18-1.18,0.73-2.34,1.69-3.14c1.58-1.33,2.7,1.85,2.73,2.8
								C196.07,150.7,195.21,152.52,193.65,153.58z"/>
						</g>
						<g>
							<path class="st78" d="M228.3,141.98c-4.26,0.75-7.89,3.84-9.03,7.69c-0.09,0.32-0.17,0.69,0.02,0.98
								c0.24,0.4,0.86,0.48,1.37,0.48c0.24,0,0.48,0,0.71-0.01c3.18-0.11,6.3-1.05,8.95-2.67c0,0,1.28-0.31,2.22-1.44
								c0.94-1.12,1.26-2.8,0.32-3.96c-0.37-0.44-0.85-0.74-1.41-0.93C230.5,141.78,229.33,141.8,228.3,141.98z"/>
							<path class="st79" d="M231.46,142.12c-0.57,0.1-1.11,0.28-1.64,0.48c-2.34,0.89-4.56,2.15-6.11,3.97
								c-0.65,0.75-1.85,2.73-2.32,4.54c3.18-0.11,6.3-1.05,8.95-2.67c0,0,1.28-0.31,2.22-1.44c0.94-1.12,1.26-2.8,0.32-3.96
								C232.5,142.61,232.02,142.31,231.46,142.12z"/>
							<path class="st80" d="M225.28,149.11c-0.3-0.06-0.61-0.15-0.8-0.38c-0.32-0.4-0.07-0.95,0.21-1.37
								c0.67-0.99,1.48-1.92,2.52-2.59c1.04-0.67,2.32-1.07,3.59-0.95c2.11,0.2,0.4,3.13-0.33,3.8
								C229.16,148.85,227.16,149.48,225.28,149.11z"/>
						</g>
						<g>
							<path class="st78" d="M204.45,185.62c-3.05-2.92-7.79-4.02-11.79-2.75c-0.33,0.11-0.69,0.25-0.85,0.57
								c-0.22,0.42,0.06,0.94,0.35,1.35c0.13,0.19,0.27,0.37,0.41,0.55c1.89,2.43,4.46,4.35,7.36,5.51c0,0,0.99,0.83,2.5,0.93
								c1.5,0.11,3.16-0.59,3.65-1.97c0.18-0.53,0.17-1.08,0.02-1.62C205.86,187.23,205.19,186.32,204.45,185.62z"/>
							<path class="st79" d="M206.09,188.17c-0.41-0.39-0.87-0.71-1.34-1.01c-2.09-1.34-4.44-2.36-6.91-2.56
								c-1.02-0.09-3.43,0.09-5.28,0.73c1.89,2.43,4.46,4.35,7.36,5.51c0,0,0.99,0.83,2.5,0.93c1.5,0.11,3.16-0.59,3.65-1.97
								C206.26,189.26,206.25,188.71,206.09,188.17z"/>
							<path class="st80" d="M196.52,187.26c-0.12-0.27-0.21-0.57-0.12-0.84c0.17-0.48,0.79-0.59,1.32-0.6
								c1.24-0.03,2.51,0.08,3.68,0.52c1.17,0.43,2.24,1.21,2.85,2.28c1.01,1.76-2.52,2.07-3.51,1.88
								C198.93,190.15,197.25,188.93,196.52,187.26z"/>
						</g>
						<g>
							<path class="st78" d="M208.98,156.52c-3.2,1.77-5.17,5.25-4.91,8.65c0.02,0.28,0.07,0.6,0.32,0.78
								c0.32,0.26,0.84,0.15,1.25,0.01c0.19-0.06,0.38-0.13,0.57-0.2c2.52-0.96,4.75-2.57,6.37-4.59c0,0,0.93-0.6,1.34-1.76
								c0.41-1.15,0.16-2.6-0.95-3.27c-0.43-0.26-0.91-0.36-1.41-0.36C210.68,155.76,209.75,156.09,208.98,156.52z"/>
							<path class="st79" d="M211.56,155.77c-0.42,0.24-0.81,0.53-1.17,0.83c-1.61,1.36-3.01,2.97-3.7,4.86
								c-0.29,0.78-0.65,2.7-0.48,4.29c2.52-0.96,4.75-2.57,6.37-4.59c0,0,0.93-0.6,1.34-1.76c0.41-1.15,0.16-2.6-0.95-3.27
								C212.54,155.88,212.07,155.77,211.56,155.77z"/>
							<path class="st80" d="M208.74,163.08c-0.26,0.03-0.54,0.05-0.76-0.09c-0.38-0.23-0.35-0.75-0.25-1.16
								c0.24-0.98,0.6-1.94,1.23-2.77c0.63-0.82,1.53-1.5,2.6-1.75c1.76-0.42,1.28,2.41,0.9,3.15
								C211.77,161.8,210.35,162.86,208.74,163.08z"/>
						</g>
						<g>
							<path class="st78" d="M179.52,135.12c-1.58,2.39-1.62,5.56-0.1,7.89c0.13,0.19,0.29,0.4,0.53,0.45
								c0.33,0.07,0.66-0.19,0.9-0.43c0.11-0.11,0.22-0.23,0.33-0.35c1.42-1.57,2.37-3.5,2.74-5.52c0,0,0.43-0.75,0.26-1.73
								c-0.16-0.97-0.91-1.91-1.97-2c-0.41-0.03-0.79,0.06-1.15,0.24C180.44,133.97,179.9,134.54,179.52,135.12z"/>
							<path class="st79" d="M181.07,133.68c-0.21,0.32-0.37,0.66-0.5,1.01c-0.62,1.54-0.97,3.18-0.73,4.77
								c0.1,0.66,0.6,2.16,1.34,3.23c1.42-1.57,2.37-3.5,2.74-5.52c0,0,0.43-0.75,0.26-1.73c-0.16-0.97-0.91-1.91-1.97-2
								C181.81,133.4,181.43,133.49,181.07,133.68z"/>
							<path class="st80" d="M181.92,139.88c-0.17,0.12-0.37,0.22-0.57,0.21c-0.36-0.03-0.54-0.41-0.63-0.74
								c-0.22-0.78-0.33-1.6-0.21-2.41c0.12-0.81,0.5-1.61,1.16-2.16c1.09-0.91,1.86,1.27,1.88,1.93
								C183.59,137.9,182.99,139.16,181.92,139.88z"/>
						</g>
						<g>
							<path class="st78" d="M207.24,133.16c-2.93,0.52-5.42,2.64-6.2,5.28c-0.06,0.22-0.12,0.47,0.01,0.67
								c0.17,0.28,0.59,0.33,0.94,0.33c0.16,0,0.33,0,0.49-0.01c2.19-0.08,4.33-0.72,6.15-1.83c0,0,0.88-0.21,1.52-0.99
								c0.64-0.77,0.87-1.93,0.22-2.72c-0.25-0.3-0.58-0.51-0.97-0.64C208.75,133.03,207.95,133.04,207.24,133.16z"/>
							<path class="st79" d="M209.41,133.26c-0.39,0.07-0.76,0.19-1.12,0.33c-1.61,0.61-3.13,1.48-4.2,2.73
								c-0.44,0.51-1.27,1.88-1.6,3.12c2.19-0.08,4.33-0.72,6.15-1.83c0,0,0.88-0.21,1.52-0.99c0.64-0.77,0.87-1.93,0.22-2.72
								C210.13,133.59,209.8,133.39,209.41,133.26z"/>
							<path class="st80" d="M205.17,138.06c-0.2-0.04-0.42-0.1-0.55-0.26c-0.22-0.27-0.05-0.65,0.15-0.94
								c0.46-0.68,1.02-1.32,1.73-1.78c0.71-0.46,1.59-0.74,2.47-0.66c1.45,0.14,0.27,2.15-0.22,2.61
								C207.84,137.88,206.46,138.32,205.17,138.06z"/>
						</g>
						<g>
							<path class="st78" d="M193.21,168.35c-2.1-2-5.35-2.76-8.1-1.89c-0.23,0.07-0.48,0.17-0.58,0.39
								c-0.15,0.29,0.04,0.65,0.24,0.92c0.09,0.13,0.19,0.25,0.28,0.38c1.3,1.67,3.06,2.99,5.05,3.78c0,0,0.68,0.57,1.72,0.64
								c1.03,0.07,2.17-0.4,2.51-1.36c0.12-0.37,0.12-0.74,0.01-1.11C194.18,169.46,193.72,168.84,193.21,168.35z"/>
							<path class="st79" d="M194.34,170.11c-0.28-0.26-0.6-0.49-0.92-0.69c-1.44-0.92-3.05-1.62-4.74-1.76
								c-0.7-0.06-2.36,0.06-3.63,0.5c1.3,1.67,3.06,2.99,5.05,3.78c0,0,0.68,0.57,1.72,0.64c1.03,0.07,2.17-0.4,2.51-1.36
								C194.45,170.85,194.45,170.48,194.34,170.11z"/>
							<path class="st80" d="M187.76,169.48c-0.08-0.18-0.15-0.39-0.08-0.57c0.11-0.33,0.55-0.4,0.9-0.41
								c0.85-0.02,1.72,0.06,2.53,0.35c0.8,0.3,1.54,0.83,1.96,1.56c0.69,1.21-1.73,1.42-2.41,1.29
								C189.42,171.47,188.27,170.63,187.76,169.48z"/>
						</g>
					</g>
					<g class="st81">
						<g>
							<path class="st78" d="M178.53,150.45c-2.64,1.47-4.27,4.34-4.06,7.15c0.02,0.23,0.06,0.49,0.26,0.65
								c0.26,0.21,0.69,0.12,1.03,0.01c0.16-0.05,0.32-0.11,0.47-0.17c2.09-0.8,3.93-2.12,5.27-3.8c0,0,0.77-0.49,1.11-1.46
								c0.34-0.96,0.13-2.15-0.79-2.71c-0.35-0.21-0.75-0.3-1.17-0.3C179.94,149.82,179.17,150.1,178.53,150.45z"/>
							<path class="st79" d="M180.67,149.84c-0.35,0.2-0.67,0.44-0.97,0.69c-1.33,1.12-2.49,2.46-3.06,4.02
								c-0.24,0.64-0.54,2.24-0.4,3.55c2.09-0.8,3.93-2.12,5.27-3.8c0,0,0.77-0.49,1.11-1.46c0.34-0.96,0.13-2.15-0.79-2.71
								C181.48,149.92,181.09,149.83,180.67,149.84z"/>
							<path class="st80" d="M178.33,155.88c-0.21,0.03-0.45,0.04-0.63-0.07c-0.32-0.19-0.29-0.62-0.2-0.96
								c0.2-0.81,0.5-1.61,1.02-2.29c0.52-0.68,1.27-1.24,2.15-1.45c1.45-0.34,1.06,1.99,0.74,2.6
								C180.84,154.83,179.67,155.7,178.33,155.88z"/>
						</g>
						<g>
							<path class="st78" d="M171.37,122.46c-1.63,2.46-1.67,5.72-0.1,8.12c0.13,0.2,0.29,0.41,0.55,0.46
								c0.34,0.07,0.67-0.19,0.92-0.44c0.12-0.11,0.23-0.24,0.34-0.36c1.46-1.62,2.44-3.6,2.82-5.68c0,0,0.44-0.77,0.27-1.78
								c-0.17-1-0.94-1.96-2.02-2.06c-0.42-0.03-0.81,0.06-1.18,0.25C172.31,121.28,171.76,121.87,171.37,122.46z"/>
							<path class="st79" d="M172.96,120.98c-0.21,0.33-0.38,0.68-0.52,1.03c-0.63,1.58-1,3.27-0.75,4.91
								c0.1,0.68,0.62,2.22,1.38,3.32c1.46-1.62,2.44-3.6,2.82-5.68c0,0,0.44-0.77,0.27-1.78c-0.17-1-0.94-1.96-2.02-2.06
								C173.72,120.7,173.33,120.79,172.96,120.98z"/>
							<path class="st80" d="M173.84,127.36c-0.18,0.12-0.38,0.23-0.59,0.21c-0.37-0.03-0.56-0.42-0.65-0.76
								c-0.22-0.8-0.34-1.64-0.22-2.48c0.13-0.83,0.52-1.65,1.2-2.22c1.12-0.94,1.91,1.31,1.93,1.98
								C175.55,125.33,174.94,126.61,173.84,127.36z"/>
						</g>
						<g>
							<path class="st78" d="M146.64,136.92c-1.12,1.69-1.15,3.93-0.07,5.58c0.09,0.14,0.2,0.28,0.38,0.32
								c0.23,0.05,0.46-0.13,0.63-0.3c0.08-0.08,0.16-0.16,0.23-0.24c1-1.11,1.68-2.47,1.94-3.9c0,0,0.3-0.53,0.19-1.22
								c-0.11-0.68-0.64-1.35-1.39-1.41c-0.29-0.02-0.56,0.04-0.81,0.17C147.29,136.12,146.91,136.52,146.64,136.92z"/>
							<path class="st79" d="M147.73,135.91c-0.15,0.23-0.26,0.47-0.36,0.71c-0.44,1.09-0.69,2.25-0.51,3.37
								c0.07,0.46,0.42,1.52,0.95,2.28c1-1.11,1.68-2.47,1.94-3.9c0,0,0.3-0.53,0.19-1.22c-0.11-0.68-0.64-1.35-1.39-1.41
								C148.26,135.71,147.99,135.78,147.73,135.91z"/>
							<path class="st80" d="M148.34,140.29c-0.12,0.08-0.26,0.16-0.4,0.14c-0.26-0.02-0.38-0.29-0.45-0.52
								c-0.15-0.55-0.24-1.13-0.15-1.7c0.09-0.57,0.36-1.14,0.82-1.53c0.77-0.65,1.31,0.9,1.33,1.36
								C149.51,138.89,149.09,139.78,148.34,140.29z"/>
						</g>
						<g>
							<path class="st78" d="M197.01,126.18c-2.07,0.37-3.83,1.87-4.38,3.73c-0.04,0.15-0.08,0.33,0.01,0.48
								c0.12,0.2,0.42,0.23,0.67,0.23c0.11,0,0.23,0,0.35-0.01c1.54-0.06,3.06-0.51,4.34-1.3c0,0,0.62-0.15,1.08-0.7
								c0.45-0.54,0.61-1.36,0.16-1.92c-0.18-0.21-0.41-0.36-0.68-0.45C198.08,126.09,197.51,126.1,197.01,126.18z"/>
							<path class="st79" d="M198.54,126.25c-0.28,0.05-0.54,0.14-0.79,0.23c-1.14,0.43-2.21,1.04-2.97,1.93
								c-0.31,0.36-0.9,1.33-1.13,2.21c1.54-0.06,3.06-0.51,4.34-1.3c0,0,0.62-0.15,1.08-0.7c0.45-0.54,0.61-1.36,0.16-1.92
								C199.05,126.49,198.81,126.34,198.54,126.25z"/>
							<path class="st80" d="M195.54,129.65c-0.14-0.03-0.3-0.07-0.39-0.18c-0.16-0.19-0.03-0.46,0.1-0.66
								c0.33-0.48,0.72-0.93,1.22-1.26c0.5-0.33,1.13-0.52,1.74-0.46c1.02,0.1,0.19,1.52-0.16,1.85
								C197.43,129.52,196.45,129.82,195.54,129.65z"/>
						</g>
					</g>
				</g>
				<g class="st77">
					<g class="st81">
						<g>
							<path class="st78" d="M219.94,129.8c3.13,2.84,4.39,7.3,3.12,11.1c-0.11,0.31-0.25,0.66-0.58,0.81
								c-0.44,0.21-1-0.04-1.43-0.3c-0.2-0.12-0.4-0.25-0.59-0.38c-2.6-1.74-4.67-4.14-5.95-6.86c0,0-0.89-0.92-1.03-2.35
								c-0.14-1.42,0.56-3,2.02-3.48c0.56-0.18,1.14-0.18,1.71-0.05C218.22,128.49,219.18,129.11,219.94,129.8z"/>
							<path class="st79" d="M217.22,128.29c0.41,0.38,0.77,0.81,1.09,1.25c1.45,1.96,2.57,4.15,2.83,6.49
								c0.11,0.96-0.03,3.25-0.68,5.01c-2.6-1.74-4.67-4.14-5.95-6.86c0,0-0.89-0.92-1.03-2.35c-0.14-1.42,0.56-3,2.02-3.48
								C216.06,128.15,216.64,128.15,217.22,128.29z"/>
							<path class="st80" d="M218.35,137.33c0.28,0.11,0.6,0.19,0.89,0.1c0.5-0.17,0.61-0.76,0.61-1.25
								c0.01-1.17-0.13-2.37-0.61-3.47c-0.48-1.1-1.32-2.1-2.46-2.66c-1.88-0.92-2.14,2.42-1.92,3.35
								C215.25,135.1,216.57,136.67,218.35,137.33z"/>
						</g>
						<g>
							<path class="st78" d="M260.86,113.74c1.39,3.89,0.32,8.39-2.67,11.21c-0.25,0.23-0.55,0.48-0.91,0.46
								c-0.49,0-0.86-0.47-1.12-0.89c-0.12-0.19-0.23-0.39-0.34-0.59c-1.45-2.68-2.12-5.71-1.92-8.69c0,0-0.34-1.2,0.24-2.53
								c0.57-1.32,1.97-2.41,3.5-2.21c0.59,0.09,1.1,0.34,1.54,0.71C259.97,111.82,260.52,112.79,260.86,113.74z"/>
							<path class="st79" d="M259.18,111.2c0.18,0.52,0.28,1.06,0.36,1.59c0.33,2.37,0.25,4.81-0.67,6.99
								c-0.37,0.9-1.61,2.87-3.05,4.14c-1.45-2.68-2.12-5.71-1.92-8.69c0,0-0.34-1.2,0.24-2.53c0.57-1.32,1.97-2.41,3.5-2.21
								C258.22,110.58,258.73,110.83,259.18,111.2z"/>
							<path class="st80" d="M255.76,119.71c0.2,0.22,0.44,0.43,0.74,0.47c0.52,0.07,0.91-0.41,1.16-0.84
								c0.58-1.04,1.04-2.16,1.15-3.34c0.11-1.18-0.14-2.44-0.88-3.43c-1.22-1.64-3.08,1.21-3.34,2.13
								C254.11,116.39,254.51,118.35,255.76,119.71z"/>
						</g>
						<g>
							<path class="st78" d="M224.88,100.86c3.96,1.67,6.74,5.46,6.91,9.45c0.01,0.33,0,0.7-0.26,0.95
								c-0.34,0.34-0.95,0.28-1.45,0.17c-0.23-0.05-0.46-0.11-0.69-0.17c-3.07-0.81-5.88-2.4-8.05-4.55c0,0-1.17-0.58-1.81-1.88
								c-0.64-1.29-0.54-3,0.66-3.93c0.46-0.35,1-0.54,1.6-0.59C222.79,100.18,223.92,100.46,224.88,100.86z"/>
							<path class="st79" d="M221.77,100.31c0.53,0.22,1.01,0.52,1.47,0.83c2.06,1.38,3.91,3.08,4.98,5.2
								c0.45,0.87,1.13,3.06,1.15,4.93c-3.07-0.81-5.88-2.4-8.05-4.55c0,0-1.17-0.58-1.81-1.88c-0.64-1.29-0.54-3,0.66-3.93
								C220.64,100.55,221.18,100.37,221.77,100.31z"/>
							<path class="st80" d="M226.07,108.46c0.3,0.01,0.64-0.01,0.87-0.19c0.41-0.32,0.3-0.91,0.13-1.38
								c-0.41-1.11-0.97-2.19-1.82-3.07c-0.84-0.88-1.99-1.55-3.26-1.71c-2.1-0.27-1.15,2.96-0.61,3.77
								C222.37,107.35,224.16,108.4,226.07,108.46z"/>
						</g>
						<g>
							<path class="st78" d="M237.44,148.53c3.68-2.17,8.56-2.21,12.14-0.1c0.29,0.18,0.61,0.4,0.68,0.74
								c0.11,0.45-0.29,0.9-0.67,1.23c-0.17,0.15-0.35,0.3-0.53,0.45c-2.43,1.95-5.4,3.25-8.5,3.75c0,0-1.16,0.59-2.66,0.36
								c-1.49-0.23-2.93-1.26-3.07-2.72c-0.05-0.56,0.09-1.09,0.38-1.58C235.67,149.79,236.54,149.06,237.44,148.53z"/>
							<path class="st79" d="M235.21,150.65c0.49-0.29,1.02-0.5,1.55-0.69c2.36-0.84,4.89-1.33,7.34-0.98
								c1.01,0.14,3.32,0.83,4.96,1.86c-2.43,1.95-5.4,3.25-8.5,3.75c0,0-1.16,0.59-2.66,0.36c-1.49-0.23-2.93-1.26-3.07-2.72
								C234.79,151.67,234.93,151.15,235.21,150.65z"/>
							<path class="st80" d="M244.75,151.86c0.18-0.23,0.34-0.51,0.32-0.79c-0.05-0.5-0.63-0.75-1.13-0.87
								c-1.2-0.3-2.46-0.47-3.7-0.3c-1.24,0.17-2.48,0.69-3.33,1.59c-1.41,1.5,1.95,2.56,2.96,2.6
								C241.7,154.14,243.63,153.33,244.75,151.86z"/>
						</g>
						<g>
							<path class="st78" d="M240.13,119.23c2.68,2.42,3.75,6.23,2.66,9.49c-0.09,0.27-0.22,0.56-0.5,0.69
								c-0.37,0.18-0.85-0.04-1.22-0.26c-0.17-0.1-0.34-0.21-0.51-0.32c-2.22-1.49-3.99-3.54-5.08-5.86c0,0-0.76-0.78-0.88-2.01
								c-0.12-1.21,0.48-2.56,1.73-2.98c0.48-0.15,0.97-0.16,1.46-0.04C238.66,118.11,239.48,118.64,240.13,119.23z"/>
							<path class="st79" d="M237.8,117.94c0.35,0.32,0.66,0.69,0.93,1.07c1.24,1.67,2.2,3.55,2.41,5.54
								c0.09,0.82-0.03,2.77-0.58,4.28c-2.22-1.49-3.99-3.54-5.08-5.86c0,0-0.76-0.78-0.88-2.01c-0.12-1.21,0.48-2.56,1.73-2.98
								C236.82,117.82,237.31,117.82,237.8,117.94z"/>
							<path class="st80" d="M238.77,125.66c0.24,0.09,0.51,0.16,0.76,0.08c0.43-0.14,0.52-0.65,0.52-1.07
								c0.01-1-0.11-2.02-0.52-2.96c-0.41-0.94-1.13-1.79-2.1-2.27c-1.61-0.79-1.83,2.07-1.64,2.86
								C236.12,123.76,237.25,125.1,238.77,125.66z"/>
						</g>
						<g>
							<path class="st78" d="M274.02,104.84c0.96,2.67,0.22,5.77-1.83,7.7c-0.17,0.16-0.38,0.33-0.63,0.32
								c-0.34,0-0.59-0.33-0.77-0.61c-0.08-0.13-0.16-0.27-0.23-0.41c-1-1.84-1.46-3.93-1.32-5.97c0,0-0.23-0.83,0.16-1.74
								c0.39-0.91,1.35-1.66,2.4-1.51c0.4,0.06,0.75,0.23,1.06,0.49C273.4,103.53,273.78,104.2,274.02,104.84z"/>
							<path class="st79" d="M272.86,103.1c0.13,0.36,0.19,0.73,0.25,1.09c0.22,1.63,0.17,3.3-0.46,4.8
								c-0.26,0.62-1.11,1.97-2.1,2.85c-1-1.84-1.46-3.93-1.32-5.97c0,0-0.23-0.83,0.16-1.74c0.39-0.91,1.35-1.66,2.4-1.51
								C272.21,102.67,272.56,102.85,272.86,103.1z"/>
							<path class="st80" d="M270.51,108.95c0.14,0.15,0.3,0.3,0.51,0.32c0.36,0.05,0.63-0.28,0.79-0.58
								c0.4-0.71,0.72-1.48,0.79-2.3c0.08-0.81-0.1-1.68-0.6-2.36c-0.84-1.13-2.12,0.83-2.3,1.46
								C269.38,106.66,269.65,108.01,270.51,108.95z"/>
						</g>
						<g>
							<path class="st78" d="M247.52,96.88c2.72,1.14,4.63,3.75,4.75,6.49c0.01,0.23,0,0.48-0.18,0.65c-0.23,0.23-0.65,0.19-1,0.12
								c-0.16-0.03-0.32-0.07-0.48-0.11c-2.11-0.55-4.04-1.65-5.53-3.13c0,0-0.8-0.4-1.24-1.29c-0.44-0.89-0.37-2.06,0.45-2.7
								c0.32-0.24,0.69-0.37,1.1-0.41C246.08,96.42,246.86,96.61,247.52,96.88z"/>
							<path class="st79" d="M245.38,96.5c0.36,0.15,0.7,0.36,1.01,0.57c1.42,0.95,2.69,2.12,3.42,3.57
								c0.31,0.6,0.78,2.11,0.79,3.39c-2.11-0.55-4.04-1.65-5.53-3.13c0,0-0.8-0.4-1.24-1.29c-0.44-0.89-0.37-2.06,0.45-2.7
								C244.61,96.67,244.98,96.54,245.38,96.5z"/>
							<path class="st80" d="M248.34,102.1c0.21,0.01,0.44-0.01,0.6-0.13c0.28-0.22,0.21-0.63,0.09-0.95
								c-0.28-0.76-0.67-1.5-1.25-2.11c-0.58-0.6-1.37-1.07-2.24-1.18c-1.44-0.18-0.79,2.04-0.42,2.59
								C245.79,101.34,247.02,102.07,248.34,102.1z"/>
						</g>
						<g>
							<path class="st78" d="M252.58,134.19c2.53-1.49,5.88-1.52,8.34-0.07c0.2,0.12,0.42,0.27,0.47,0.51
								c0.07,0.31-0.2,0.62-0.46,0.85c-0.12,0.11-0.24,0.21-0.37,0.31c-1.67,1.34-3.71,2.24-5.84,2.58c0,0-0.8,0.41-1.83,0.25
								c-1.02-0.16-2.01-0.87-2.11-1.87c-0.03-0.38,0.06-0.75,0.26-1.09C251.37,135.05,251.97,134.55,252.58,134.19z"/>
							<path class="st79" d="M251.05,135.65c0.34-0.2,0.7-0.34,1.06-0.47c1.62-0.58,3.36-0.91,5.05-0.67
								c0.69,0.1,2.28,0.57,3.41,1.28c-1.67,1.34-3.71,2.24-5.84,2.58c0,0-0.8,0.41-1.83,0.25c-1.02-0.16-2.01-0.87-2.11-1.87
								C250.76,136.35,250.86,135.99,251.05,135.65z"/>
							<path class="st80" d="M257.61,136.48c0.12-0.16,0.24-0.35,0.22-0.54c-0.03-0.34-0.43-0.51-0.78-0.6
								c-0.82-0.21-1.69-0.32-2.54-0.21c-0.85,0.11-1.7,0.47-2.29,1.09c-0.97,1.03,1.34,1.76,2.03,1.78
								C255.51,138.04,256.84,137.48,257.61,136.48z"/>
						</g>
					</g>
					<g class="st81">
						<g>
							<path class="st78" d="M290.6,178.29c-4.14-1.21-8.87-0.08-11.77,2.83c-0.24,0.24-0.49,0.53-0.46,0.88
								c0.02,0.46,0.52,0.8,0.98,1.03c0.21,0.11,0.42,0.21,0.64,0.31c2.87,1.3,6.09,1.85,9.23,1.58c0,0,1.28,0.29,2.67-0.3
								c1.38-0.58,2.5-1.93,2.23-3.37c-0.11-0.55-0.38-1.03-0.79-1.44C292.64,179.08,291.6,178.58,290.6,178.29z"/>
							<path class="st79" d="M293.32,179.8c-0.55-0.16-1.12-0.24-1.68-0.3c-2.51-0.24-5.09-0.11-7.37,0.82
								c-0.94,0.38-2.98,1.6-4.29,3c2.87,1.3,6.09,1.85,9.23,1.58c0,0,1.28,0.29,2.67-0.3c1.38-0.58,2.5-1.93,2.23-3.37
								C294.01,180.69,293.73,180.22,293.32,179.8z"/>
							<path class="st80" d="M284.42,183.27c-0.24-0.18-0.47-0.41-0.52-0.69c-0.09-0.49,0.41-0.87,0.86-1.12
								c1.08-0.58,2.25-1.04,3.5-1.18c1.25-0.14,2.58,0.07,3.65,0.74c1.77,1.11-1.19,2.95-2.16,3.22
								C287.98,184.74,285.9,184.42,284.42,183.27z"/>
						</g>
						<g>
							<path class="st78" d="M285.53,136.65c-4.27,0.74-7.9,3.82-9.05,7.66c-0.09,0.32-0.17,0.68,0.02,0.98
								c0.24,0.4,0.86,0.48,1.37,0.49c0.24,0.01,0.48,0,0.71-0.01c3.18-0.1,6.31-1.03,8.96-2.64c0,0,1.28-0.3,2.22-1.43
								c0.94-1.11,1.27-2.8,0.33-3.96c-0.36-0.44-0.84-0.74-1.4-0.93C287.73,136.46,286.56,136.47,285.53,136.65z"/>
							<path class="st79" d="M288.68,136.8c-0.57,0.1-1.11,0.28-1.64,0.48c-2.35,0.88-4.56,2.13-6.13,3.95
								c-0.65,0.75-1.86,2.73-2.34,4.54c3.18-0.1,6.31-1.03,8.96-2.64c0,0,1.28-0.3,2.22-1.43c0.94-1.11,1.27-2.8,0.33-3.96
								C289.72,137.29,289.24,136.99,288.68,136.8z"/>
							<path class="st80" d="M282.49,143.77c-0.3-0.06-0.61-0.15-0.8-0.38c-0.32-0.4-0.07-0.95,0.22-1.37
								c0.67-0.99,1.49-1.91,2.52-2.58c1.04-0.67,2.32-1.07,3.59-0.94c2.11,0.21,0.38,3.14-0.34,3.8
								C286.36,143.52,284.36,144.14,282.49,143.77z"/>
						</g>
						<g>
							<path class="st78" d="M314.92,160.12c-3.47-2.47-8.32-2.91-12.09-1.11c-0.31,0.15-0.65,0.34-0.75,0.68
								c-0.15,0.44,0.21,0.92,0.55,1.28c0.16,0.17,0.32,0.33,0.49,0.49c2.24,2.14,5.07,3.69,8.12,4.44c0,0,1.1,0.68,2.62,0.58
								c1.5-0.1,3.04-1.01,3.31-2.45c0.1-0.55,0.01-1.09-0.23-1.61C316.56,161.52,315.76,160.72,314.92,160.12z"/>
							<path class="st79" d="M316.94,162.42c-0.46-0.33-0.97-0.58-1.48-0.82c-2.28-1.04-4.75-1.73-7.22-1.59
								c-1.02,0.05-3.38,0.55-5.11,1.45c2.24,2.14,5.07,3.69,8.12,4.44c0,0,1.1,0.68,2.62,0.58c1.5-0.1,3.04-1.01,3.31-2.45
								C317.26,163.48,317.17,162.94,316.94,162.42z"/>
							<path class="st80" d="M307.32,162.83c-0.16-0.25-0.3-0.53-0.24-0.81c0.09-0.49,0.7-0.69,1.21-0.78
								c1.22-0.2,2.49-0.26,3.72,0.01c1.22,0.27,2.4,0.89,3.17,1.86c1.27,1.61-2.18,2.39-3.18,2.34
								C310.15,165.36,308.3,164.39,307.32,162.83z"/>
						</g>
						<g>
							<path class="st78" d="M264.79,172.94c0.21-4.1-2.12-8.15-5.81-10.09c-0.3-0.16-0.67-0.31-1.01-0.21
								c-0.47,0.13-0.69,0.68-0.82,1.15c-0.06,0.22-0.11,0.44-0.15,0.66c-0.62,2.96-0.38,6.04,0.67,8.85c0,0,0.02,1.25,0.96,2.37
								c0.93,1.12,2.59,1.81,4,1.21c0.54-0.23,0.96-0.61,1.28-1.08C264.49,175.01,264.74,173.93,264.79,172.94z"/>
							<path class="st79" d="M263.91,175.81c0.02-0.55-0.03-1.09-0.12-1.62c-0.37-2.36-1.15-4.69-2.67-6.55
								c-0.62-0.77-2.38-2.34-4.13-3.19c-0.62,2.96-0.38,6.04,0.67,8.85c0,0,0.02,1.25,0.96,2.37c0.93,1.12,2.59,1.81,4,1.21
								C263.18,176.66,263.6,176.28,263.91,175.81z"/>
							<path class="st80" d="M258.16,168.51c0.13-0.26,0.3-0.53,0.57-0.65c0.48-0.2,1,0.16,1.36,0.51c0.86,0.85,1.63,1.81,2.08,2.91
								c0.45,1.11,0.57,2.38,0.15,3.53c-0.69,1.89-3.31-0.36-3.83-1.18C257.53,172.14,257.35,170.15,258.16,168.51z"/>
						</g>
						<g>
							<path class="st78" d="M290.54,156.46c-3.54-1.03-7.58-0.06-10.05,2.41c-0.2,0.21-0.42,0.45-0.4,0.75
								c0.01,0.4,0.45,0.68,0.83,0.88c0.18,0.09,0.36,0.18,0.54,0.26c2.45,1.11,5.21,1.58,7.89,1.35c0,0,1.09,0.25,2.28-0.25
								c1.18-0.49,2.13-1.65,1.91-2.88c-0.09-0.47-0.33-0.88-0.67-1.23C292.28,157.13,291.4,156.71,290.54,156.46z"/>
							<path class="st79" d="M292.86,157.75c-0.47-0.14-0.96-0.2-1.44-0.25c-2.15-0.21-4.35-0.09-6.29,0.7
								c-0.8,0.32-2.55,1.37-3.67,2.56c2.45,1.11,5.21,1.58,7.89,1.35c0,0,1.09,0.25,2.28-0.25c1.18-0.49,2.13-1.65,1.91-2.88
								C293.45,158.51,293.21,158.1,292.86,157.75z"/>
							<path class="st80" d="M285.26,160.71c-0.2-0.16-0.4-0.35-0.44-0.59c-0.08-0.42,0.35-0.75,0.73-0.95
								c0.92-0.5,1.92-0.89,2.99-1.01c1.07-0.12,2.2,0.06,3.12,0.63c1.51,0.94-1.02,2.52-1.85,2.75
								C288.3,161.97,286.52,161.69,285.26,160.71z"/>
						</g>
						<g>
							<path class="st78" d="M287.34,121.44c-2.93,0.51-5.43,2.62-6.22,5.26c-0.06,0.22-0.12,0.47,0.01,0.67
								c0.17,0.28,0.59,0.33,0.94,0.34c0.16,0,0.33,0,0.49-0.01c2.19-0.07,4.33-0.71,6.15-1.81c0,0,0.88-0.21,1.53-0.98
								c0.65-0.77,0.87-1.92,0.23-2.72c-0.25-0.3-0.58-0.51-0.96-0.64C288.85,121.31,288.05,121.32,287.34,121.44z"/>
							<path class="st79" d="M289.51,121.55c-0.39,0.07-0.77,0.19-1.13,0.33c-1.61,0.61-3.14,1.47-4.21,2.71
								c-0.45,0.51-1.28,1.87-1.61,3.12c2.19-0.07,4.33-0.71,6.15-1.81c0,0,0.88-0.21,1.53-0.98c0.65-0.77,0.87-1.92,0.23-2.72
								C290.22,121.89,289.89,121.68,289.51,121.55z"/>
							<path class="st80" d="M285.25,126.34c-0.2-0.04-0.42-0.11-0.55-0.26c-0.22-0.27-0.05-0.65,0.15-0.94
								c0.46-0.68,1.02-1.31,1.73-1.77c0.71-0.46,1.59-0.73,2.47-0.65c1.45,0.14,0.26,2.15-0.23,2.61
								C287.91,126.16,286.53,126.59,285.25,126.34z"/>
						</g>
						<g>
							<path class="st78" d="M307.58,139.47c-2.38-1.69-5.72-2-8.3-0.76c-0.21,0.1-0.45,0.24-0.52,0.47
								c-0.1,0.3,0.14,0.63,0.38,0.88c0.11,0.12,0.22,0.23,0.34,0.34c1.54,1.47,3.49,2.54,5.58,3.05c0,0,0.76,0.47,1.8,0.4
								c1.03-0.07,2.09-0.7,2.27-1.69c0.07-0.38,0-0.75-0.16-1.1C308.71,140.44,308.16,139.89,307.58,139.47z"/>
							<path class="st79" d="M308.97,141.06c-0.32-0.22-0.67-0.4-1.02-0.56c-1.56-0.71-3.26-1.19-4.96-1.09
								c-0.7,0.04-2.32,0.38-3.51,0.99c1.54,1.47,3.49,2.54,5.58,3.05c0,0,0.76,0.47,1.8,0.4c1.03-0.07,2.09-0.7,2.27-1.69
								C309.19,141.78,309.13,141.41,308.97,141.06z"/>
							<path class="st80" d="M302.36,141.34c-0.11-0.17-0.2-0.37-0.17-0.56c0.06-0.34,0.48-0.47,0.83-0.53
								c0.84-0.14,1.71-0.18,2.55,0.01c0.84,0.18,1.65,0.61,2.18,1.28c0.87,1.1-1.5,1.64-2.19,1.61
								C304.3,143.07,303.03,142.41,302.36,141.34z"/>
						</g>
						<g>
							<path class="st78" d="M270.67,153.44c0.15-2.82-1.46-5.6-3.99-6.93c-0.21-0.11-0.46-0.22-0.7-0.14
								c-0.32,0.09-0.48,0.47-0.56,0.79c-0.04,0.15-0.07,0.3-0.11,0.45c-0.43,2.03-0.26,4.15,0.46,6.08c0,0,0.01,0.86,0.66,1.63
								c0.64,0.77,1.78,1.24,2.75,0.83c0.37-0.16,0.66-0.42,0.88-0.74C270.46,154.86,270.63,154.12,270.67,153.44z"/>
							<path class="st79" d="M270.06,155.41c0.02-0.37-0.02-0.75-0.08-1.11c-0.26-1.62-0.79-3.22-1.83-4.5
								c-0.43-0.53-1.64-1.61-2.84-2.19c-0.43,2.03-0.26,4.15,0.46,6.08c0,0,0.01,0.86,0.66,1.63c0.64,0.77,1.78,1.24,2.75,0.83
								C269.56,156,269.84,155.74,270.06,155.41z"/>
							<path class="st80" d="M266.11,150.4c0.09-0.18,0.21-0.36,0.39-0.44c0.33-0.14,0.68,0.11,0.93,0.35
								c0.59,0.58,1.12,1.24,1.43,2c0.31,0.76,0.39,1.64,0.1,2.42c-0.48,1.3-2.28-0.25-2.63-0.81
								C265.68,152.89,265.55,151.52,266.11,150.4z"/>
						</g>
					</g>
					<g class="st81">
						<g>
							<path class="st78" d="M274.71,131.11c-2.93-0.86-6.27-0.05-8.32,2c-0.17,0.17-0.34,0.38-0.33,0.62
								c0.01,0.33,0.37,0.57,0.69,0.73c0.15,0.08,0.3,0.15,0.45,0.22c2.03,0.92,4.31,1.31,6.52,1.12c0,0,0.91,0.21,1.89-0.21
								c0.97-0.41,1.76-1.36,1.58-2.38c-0.07-0.39-0.27-0.73-0.56-1.02C276.16,131.67,275.42,131.32,274.71,131.11z"/>
							<path class="st79" d="M276.64,132.18c-0.39-0.11-0.79-0.17-1.19-0.21c-1.78-0.17-3.6-0.08-5.2,0.58
								c-0.66,0.27-2.11,1.13-3.03,2.12c2.03,0.92,4.31,1.31,6.52,1.12c0,0,0.91,0.21,1.89-0.21c0.97-0.41,1.76-1.36,1.58-2.38
								C277.12,132.81,276.92,132.47,276.64,132.18z"/>
							<path class="st80" d="M270.35,134.63c-0.17-0.13-0.33-0.29-0.37-0.48c-0.06-0.35,0.29-0.62,0.61-0.79
								c0.76-0.41,1.59-0.74,2.47-0.84c0.88-0.1,1.82,0.05,2.58,0.52c1.25,0.78-0.84,2.08-1.53,2.28
								C272.86,135.67,271.39,135.44,270.35,134.63z"/>
						</g>
						<g>
							<path class="st78" d="M291.7,107.21c-3.01,0.52-5.59,2.7-6.4,5.41c-0.07,0.22-0.12,0.48,0.01,0.69
								c0.17,0.29,0.6,0.34,0.97,0.35c0.17,0,0.34,0,0.51-0.01c2.25-0.07,4.46-0.73,6.33-1.87c0,0,0.9-0.21,1.57-1.01
								c0.66-0.79,0.9-1.98,0.24-2.8c-0.26-0.31-0.6-0.53-0.99-0.66C293.26,107.07,292.43,107.08,291.7,107.21z"/>
							<path class="st79" d="M293.93,107.32c-0.4,0.07-0.79,0.2-1.16,0.34c-1.66,0.62-3.22,1.51-4.33,2.79
								c-0.46,0.53-1.31,1.93-1.65,3.21c2.25-0.07,4.46-0.73,6.33-1.87c0,0,0.9-0.21,1.57-1.01c0.66-0.79,0.9-1.98,0.24-2.8
								C294.67,107.66,294.33,107.45,293.93,107.32z"/>
							<path class="st80" d="M289.55,112.24c-0.21-0.04-0.43-0.11-0.56-0.27c-0.23-0.28-0.05-0.67,0.15-0.97
								c0.48-0.7,1.05-1.35,1.78-1.82s1.64-0.75,2.54-0.67c1.49,0.15,0.27,2.22-0.24,2.69
								C292.29,112.06,290.88,112.51,289.55,112.24z"/>
						</g>
						<g>
							<path class="st78" d="M263.73,99.71c-2.07,0.36-3.84,1.85-4.4,3.72c-0.05,0.15-0.08,0.33,0.01,0.48
								c0.12,0.2,0.42,0.23,0.66,0.24c0.11,0,0.23,0,0.35,0c1.54-0.05,3.06-0.5,4.35-1.28c0,0,0.62-0.15,1.08-0.69
								c0.46-0.54,0.62-1.36,0.16-1.92c-0.18-0.22-0.41-0.36-0.68-0.45C264.8,99.62,264.23,99.63,263.73,99.71z"/>
							<path class="st79" d="M265.26,99.79c-0.28,0.05-0.54,0.14-0.8,0.23c-1.14,0.43-2.22,1.04-2.98,1.92
								c-0.32,0.36-0.9,1.32-1.14,2.2c1.54-0.05,3.06-0.5,4.35-1.28c0,0,0.62-0.15,1.08-0.69c0.46-0.54,0.62-1.36,0.16-1.92
								C265.77,100.03,265.53,99.88,265.26,99.79z"/>
							<path class="st80" d="M262.25,103.17c-0.14-0.03-0.3-0.07-0.39-0.18c-0.16-0.19-0.03-0.46,0.11-0.66
								c0.33-0.48,0.72-0.93,1.23-1.25c0.5-0.32,1.13-0.52,1.75-0.46c1.02,0.1,0.19,1.52-0.17,1.85
								C264.14,103.05,263.16,103.35,262.25,103.17z"/>
						</g>
						<g>
							<path class="st78" d="M306.11,127.62c-1.68-1.2-4.04-1.41-5.87-0.54c-0.15,0.07-0.31,0.17-0.36,0.33
								c-0.07,0.21,0.1,0.45,0.27,0.62c0.08,0.08,0.16,0.16,0.24,0.24c1.09,1.04,2.46,1.79,3.94,2.16c0,0,0.54,0.33,1.27,0.28
								c0.73-0.05,1.47-0.49,1.61-1.19c0.05-0.27,0-0.53-0.11-0.78C306.91,128.3,306.52,127.91,306.11,127.62z"/>
							<path class="st79" d="M307.09,128.74c-0.23-0.16-0.47-0.28-0.72-0.4c-1.11-0.5-2.31-0.84-3.51-0.77
								c-0.5,0.03-1.64,0.27-2.48,0.7c1.09,1.04,2.46,1.79,3.94,2.16c0,0,0.54,0.33,1.27,0.28c0.73-0.05,1.47-0.49,1.61-1.19
								C307.25,129.25,307.2,128.99,307.09,128.74z"/>
							<path class="st80" d="M302.42,128.93c-0.08-0.12-0.14-0.26-0.12-0.39c0.05-0.24,0.34-0.34,0.59-0.38
								c0.59-0.1,1.21-0.13,1.8,0s1.17,0.43,1.54,0.9c0.62,0.78-1.06,1.16-1.55,1.14C303.79,130.16,302.9,129.69,302.42,128.93z"/>
						</g>
					</g>
				</g>
			</g>
		</g>
	</g>
</g>
</svg>
