<?xml version="1.0" encoding="utf-8"?>
<!-- Generator: Adobe Illustrator 24.1.2, SVG Export Plug-In . SVG Version: 6.00 Build 0)  -->
<svg version="1.1" id="Layer_1" xmlns="http://www.w3.org/2000/svg" xmlns:xlink="http://www.w3.org/1999/xlink" x="0px" y="0px"
	 viewBox="0 0 538 678" style="enable-background:new 0 0 538 678;" xml:space="preserve">
<style type="text/css">
	.st0{fill:#FFC248;}
	.st1{fill:#FFFFFF;}
	.st2{fill:#232323;}
</style>
<g>
	<g>
		<path class="st0" d="M373.96,636.7c-12.83,3.53-24.83,2.93-36.7-0.12c-2.88-0.74-5.59-2.6-8.07-4.38
			c-6.08-4.36-12.83-7.02-20.23-6.95c-12.46,0.12-25.29-2.42-37.14,3.65c-10.71,5.49-21.25,11.1-29.81,20.06
			c-5.22,5.46-12.09,8.94-20.33,8.35c-3.91-0.28-7.87,0.06-11.8,0.34c-14.32,1.01-26.22-6.31-38.64-11.5
			c-8.01-3.35-15.69-7.76-22.95-12.56c-4.15-2.74-7.16-7.2-10.88-11.11c5.42-6.15,7.37-12.54,8.12-20.14
			c0.93-9.37-8.19-20.44-14.67-22.45c-22.01-6.81-33.65-23.1-42.18-42.99c-4.29-9.99-6.07-19.4-0.47-29.57
			c2.16-3.93,3.05-8.81,3.53-13.37c0.97-9.27,1.28-18.77-2.94-27.36c-5.99-12.19-15.38-21.56-26.81-28.77
			c-6.52-4.12-13.21-7.99-20-11.67c-7.38-3.99-11.87-10.55-15.34-17.64c-2.99-6.12-5.06-12.76-6.91-19.34
			c-3.73-13.21-0.56-26.32,1.39-39.4c0.16-1.04,1.09-2.22,2-2.85c13.34-9.32,17.17-23.32,19.45-38.32
			c3.08-20.26-1.15-38.92-11.61-56.27c-5.12-8.5-11.25-16.42-15.9-25.15c-2.9-5.45-4.26-11.83-5.63-17.94
			c-3.01-13.41,0.73-26.28,3.69-39.23c5.08-22.22,14.26-42.67,26.14-61.97c3.42-5.55,7.11-10.94,10.94-16.21
			c0.7-0.96,2.85-1.65,4.05-1.34c15.28,3.96,30.71,3.41,46.11,1.46c7.96-1,15.83-2.84,23.66-4.68
			c14.76-3.47,24.98-13.98,35.92-23.44c11.06-9.57,21.88-19.56,33.82-27.91c6.05-4.23,14.17-6.59,21.64-7.49
			c18.46-2.24,37.08-3.14,55.57,0.27c6.21,1.15,12.38,3.86,18.52,3.71c8.68-0.21,11.9,4.99,15.56,11.11
			c9.54,15.97,23.39,26.94,40.91,32.96c8.7,2.99,17.64,6.41,26.67,7.09c17.16,1.31,35.02,4.67,50.49-7.37
			c1.11-0.87,4.46-0.34,5.74,0.74c4.97,4.2,9.79,8.64,14.17,13.45c5.5,6.03,11.06,12.13,15.64,18.85
			c15.71,23.01,31.43,46.18,38.46,73.63c2.53,9.88,2.92,20.31,4.02,30.52c0.16,1.47-0.82,3.33-1.8,4.62
			c-6.18,8.13-13.27,15.7-18.48,24.4c-3.01,5.03-3.68,11.75-4.36,17.83c-1.37,12.28,1.32,23.41,10.28,32.76
			c3.63,3.78,7.61,8.42,8.59,13.25c1.22,5.99,1.21,13.4-1.32,18.75c-5.01,10.55-11.16,20.89-18.59,29.87
			c-10.52,12.71-22.71,24.02-33.98,36.13c-1.64,1.77-2.9,4.6-2.98,6.98c-0.33,10.24,2.16,19.87,8.56,28.02
			c2.6,3.31,5.76,6.75,9.45,8.48c5.46,2.57,7.17,6.6,7.08,11.83c-0.21,12.05,0.51,24.29-1.43,36.07
			c-1.73,10.51-6.72,20.41-15.02,27.98c-11.06,10.08-17.98,22.54-17.61,37.55c0.31,12.64,7.37,22.01,19.2,27.09
			c2.9,1.24,3.64,2.48,2.59,5.37c-4.56,12.52-22.02,33.59-40.54,31.71c-6.79-0.69-14.24,0.6-20.77,2.81
			C380.11,618.25,373.06,624.93,373.96,636.7z"/>
		<path class="st0" d="M95.35,55.08c0.62-0.71,1.89-2.22,3.21-3.69c0.91-1.01,1.93-1.92,2.84-2.93
			c7.99-8.86,16.03-17.68,23.92-26.63c3.4-3.85,6.65-7.86,9.68-12c2.72-3.72,6.45-4.32,9.78-1.27c5.28,4.83,10.81,9.42,15.82,14.51
			c1.02,1.04,0.85,4.11,0.16,5.83c-4.55,11.35-13.55,18.94-23.26,25.49c-8.65,5.83-17.99,10.63-27.05,15.84
			c-0.71,0.41-1.63,0.79-2.39,0.71C104.3,70.52,95.27,60.1,95.35,55.08z"/>
		<path class="st0" d="M368.2,56.52c-7.69,0.02-14.12-1.39-19.51-6.59c-2.66-2.57-6.53-3.87-9.24-6.4
			c-1.66-1.55-3.36-4.65-2.89-6.51c0.8-3.12,3.3-5.8,5.14-8.64c0.09-0.13,0.68,0.15,0.97,0.05c2.48-0.89,3.11-5.62,7.05-3.44
			c4.89,2.72,9.75,5.49,14.59,8.29c2.15,1.25,4.44,2.39,6.26,4.03c0.9,0.81,1.43,2.75,1.19,4C370.8,46.34,369.46,51.31,368.2,56.52z
			"/>
		<path class="st0" d="M266.74,652.45c11.2-5.35,21.62-12.37,34.88-10.42c3.23,0.47,5.97,4.45,3.86,6.82
			c-2.21,2.47-1.04,4.37-0.95,6.75c0.07,1.78-0.78,4.6-2.09,5.27c-7.46,3.79-15.18,7.07-22.83,10.52
			C275.47,665.28,271.35,659.23,266.74,652.45z"/>
		<path class="st0" d="M514.56,298.37c-4.81-5.71-9.25-10.66-13.22-15.97c-0.83-1.11-0.59-4.03,0.32-5.26
			c4.87-6.56,10.11-12.85,15.44-19.52c4.37,4.91,8.33,9.36,12.58,14.15C524.88,280.22,519.95,288.88,514.56,298.37z"/>
		<path class="st0" d="M387.36,36.96c8.5,3.28,16.28,6.28,24.31,9.38c-0.2,6.52,0.74,13.21-7.47,16.56
			c-6.14,2.5-11.82,3.47-17.45-0.63c-0.96-0.7-2.07-2.17-1.98-3.18C385.44,51.91,386.41,44.76,387.36,36.96z"/>
	</g>
	<g>
		<path class="st1" d="M163.68,529.2c-5.45,0-15.01-2.12-17.78-16.35c-1.95-10.06-3.85-20.13-5.75-30.19
			c-0.97-5.16-1.94-10.32-2.92-15.48c-0.95-5.02-1.91-10.03-2.87-15.05c-1.99-10.38-3.97-20.76-5.9-31.15
			c-0.39-2.11-1.82-9.25-2.35-10.35c0,0-1.88-21.09-3.23-26.86c-0.63-2.68-1.27-5.44-1.76-8.39c-1.2-7.19-2.89-14.32-4.69-21.87
			c-1.12-4.69-2.27-9.54-3.3-14.42c-0.77-3.65-1.89-18.23-1.24-22.02c-16.21-3.55-31.33-13.27-39.36-26.03
			c-5.36-8.51-9.63-17.45-13.76-26.08l-1.34-2.8c-2-4.17-2.14-8.26-2.22-10.97c-0.02-0.55-0.02-1.1-0.08-1.63
			c-0.01-0.08-0.02-0.16-0.02-0.24c-4.06-10.02-3.49-19.94-3.03-28.03c0.15-2.63,0.29-5.12,0.28-7.44
			c-0.09-20.31,5.31-39.82,16.05-57.97c9.2-15.55,20.63-26.04,33.98-31.19c8.8-3.39,16.79-5.04,24.43-5.04
			c4.18,0,8.28,0.51,12.18,1.51c12.37,3.16,26.39,6.75,37.89,17.65c1.66,1.58,3.25,3.19,4.77,4.82c0.09-0.17,0.19-0.34,0.28-0.52
			c13.37-24.16,32.25-40.66,56.11-49.01c8.15-2.86,15.82-4.3,22.82-4.3c2.39,0,4.71,0.17,6.92,0.51
			c13.39,2.07,32.88,6.57,47.42,21.69c6.49,6.74,11.22,14.89,14.99,21.98c0.44,0.82,0.86,1.65,1.26,2.48
			c11.29-9.55,24.77-14.19,41.19-14.19c5.31,0,10.94,0.49,17.21,1.48c26.54,4.23,44.06,22.22,54.93,35.4
			c11.57,14.02,12.25,30.77,12.75,43c0.07,1.75,0.23,3.61,0.4,5.59c0.43,5.04,0.92,10.75,0.06,16.72c-1.19,8.24-3.28,16.1-5.3,23.69
			c-0.54,2.03-1.08,4.06-1.6,6.09c-0.68,2.65-1.67,4.88-2.47,6.66c-0.39,0.88-0.76,1.7-0.95,2.26
			c-3.79,11.5-11.18,19.64-17.71,26.82c-1.95,2.15-3.79,4.17-5.47,6.21c-2.2,2.67-8.89,10.79-19.73,10.79c-0.04,0-0.08,0-0.12,0
			c1.93,9.05,2.27,17.59,1.05,26.04c-1.04,7.21-1.61,14.49-2.21,22.2c-0.27,3.51-0.55,7.01-0.87,10.51l-6.91,75.59
			c-0.36,4.01-0.72,8.01-1.07,12.02c-0.65,7.38-1.31,15.01-2.07,22.55c-0.67,6.72-1.45,13.26-2.27,20.2
			c-0.36,3.05-0.73,6.15-1.09,9.3l-1.35,11.77h-11.85c-2.48,0-12.09-0.03-14.43-0.03c-2.78,0-5.54,0.01-8.3,0.05
			c-10.62,0.14-21.24,0.32-31.86,0.5c-7.98,0.13-15.96,0.27-23.93,0.39c-5.27,0.08-10.54,0.11-15.81,0.14
			c-10.89,0.06-22.15,0.12-33.05,0.65c-6.83,0.33-13.7,1.25-20.98,2.21c-4.05,0.54-8.25,1.09-12.46,1.54
			c-2.96,0.32-5.83,0.5-8.61,0.68c-3.33,0.21-6.47,0.41-9.44,0.82c-8.02,1.09-16.54,2.48-27.63,4.49
			C167.19,529.01,165.38,529.2,163.68,529.2z"/>
		<path class="st2" d="M150.08,299.15c-5.82,1.84-11.32,4.11-17.05,5.29c-17.34,3.6-39.82-5.52-49.25-20.49
			c-5.5-8.74-9.89-18.22-14.37-27.56c-1.15-2.39-0.77-5.51-1.07-8.29c-0.07-0.68,0.14-1.47-0.14-2.04
			c-5.08-10.42-2.51-21.55-2.55-32.29c-0.08-18.21,4.87-35.39,14.2-51.15c6.61-11.18,15.39-20.95,27.32-25.55
			c8.68-3.34,18.62-5.6,28.54-3.06c11.54,2.95,23.11,5.96,32.04,14.42c5.18,4.91,9.72,10.51,14.44,15.9
			c0.75,0.86,0.91,2.23,1.34,3.36c0.59-0.38,1.18-0.76,1.77-1.14c2.74-5.68,5.22-11.5,8.27-17.01
			c11.14-20.13,27.01-35.25,48.88-42.91c7.31-2.56,15.85-4.35,23.32-3.2c14.61,2.26,29.17,6.64,39.88,17.77
			c5.23,5.44,9.26,12.28,12.84,19.01c3.5,6.56,5.74,13.79,8.23,19.99c4.09-4.23,8.23-9.26,13.11-13.43
			c14.07-12.04,31.08-12.61,47.96-9.92c19.84,3.16,34.38,15.71,46.77,30.73c8.38,10.15,9.22,22.63,9.73,35.08
			c0.27,6.64,1.52,13.41,0.59,19.87c-1.38,9.58-4.21,18.96-6.62,28.37c-0.71,2.77-2.26,5.32-3.16,8.06
			c-3.88,11.77-13.31,19.65-20.81,28.74c-2.76,3.34-12.71,13.19-30.83,4.18c-4.1-2.04-4.87,1.42-6.52,4.07
			c2.45,1.47,4.62,3.41,7.15,4.14c4.55,1.31,6.4,4.26,7.38,8.58c1.69,7.44,2.23,14.74,1.12,22.42c-1.59,11.06-2.14,22.26-3.16,33.4
			c-2.3,25.2-4.61,50.39-6.91,75.59c-1.05,11.48-1.97,22.98-3.12,34.46c-0.96,9.58-2.17,19.14-3.33,29.31
			c-7.83,0-15.37-0.09-22.91,0.02c-18.61,0.25-37.21,0.61-55.82,0.89c-16.44,0.25-32.9,0-49.31,0.81
			c-11.44,0.56-22.8,2.59-34.21,3.81c-6.13,0.66-12.33,0.71-18.43,1.54c-9.44,1.29-18.84,2.88-28.21,4.58
			c-5.65,1.03-7.14,0.39-8.22-5.19c-2.95-15.19-5.77-30.41-8.66-45.62c-2.92-15.38-5.9-30.75-8.76-46.15
			c-0.55-2.97-5.72-35.87-7.3-45.35c-2.06-12.38-5.5-24.53-8.09-36.84c-0.59-2.81-1.8-16.39-0.95-17.42
			c2.12-2.55,5.23-4.35,8.13-6.14c1.55-0.96,3.44-1.53,5.26-1.86C145.44,309.7,148.49,305.01,150.08,299.15z"/>
		<path class="st1" d="M177.09,593.57c-6.32,0-17.34-2.2-20.05-16.96c-2.15-11.67-4.63-23.07-7.36-33.87
			c-3.1-12.23,4.99-18.35,7.65-20.37c13.33-10.09,28.15-11.81,41.23-13.32c2.46-0.28,4.91-0.57,7.35-0.91
			c29.43-4.12,60.27-6.6,94.28-7.56c3.54-0.1,7.08-0.28,10.63-0.45c5.67-0.28,11.52-0.57,17.43-0.57c4.61,0,8.76,0.17,12.68,0.54
			c1.85,0.17,3.79,0.25,5.94,0.25c4.22,0,8.51-0.32,13.06-0.66c4.81-0.36,9.78-0.72,14.94-0.72c0.81,0,1.62,0.01,2.44,0.03
			c4.75,0.11,10.5,0.25,14.98,5.42c4.45,5.13,3.76,10.97,3.3,14.85l-0.11,0.97c-1.18,10.27-2.17,20.8-3.12,30.98
			c-0.39,4.11-0.77,8.21-1.17,12.31c-0.25,2.52-0.48,5.04-0.72,7.59l-1.43,15.14l-11.55,0.52c-4.13,0.19-8.18,0.38-12.17,0.57
			c-8.94,0.43-17.38,0.84-25.99,1.09c-9.11,0.27-18.33,0.37-27.25,0.48c-17.98,0.21-36.57,0.43-54.5,1.97
			c-22.32,1.91-44.74,2.2-66.42,2.49c-4.51,0.06-9.01,0.12-13.52,0.19L177.09,593.57z"/>
		<path class="st2" d="M376.89,573.51c-13.22,0.59-25.58,1.3-37.95,1.66c-27.51,0.8-55.13,0.14-82.49,2.48
			c-26.37,2.26-52.67,2.2-79.02,2.63c-4.79,0.08-6.47-1.47-7.32-6.07c-2.14-11.65-4.64-23.25-7.55-34.73
			c-0.9-3.55,0.3-4.62,2.79-6.51c12.64-9.57,27.78-9.61,42.41-11.66c30.79-4.31,61.75-6.56,92.81-7.44
			c13.06-0.37,26.22-1.72,39.14-0.53c12.61,1.16,24.85-1.35,37.27-1.05c6.39,0.15,6.01,0.1,5.29,6.44
			c-1.66,14.48-2.91,29.01-4.32,43.52C377.59,565.98,377.25,569.71,376.89,573.51z"/>
	</g>
	<g>
		<path class="st1" d="M230.22,395.53c2.81,16.2,5.5,31.8,8.23,47.39c0.24,1.35,0.72,2.65,1.01,3.99
			c1.18,5.43,1.73,11.09-5.34,12.44c-6.81,1.3-9.05-3.93-10.08-9.38c-1.64-8.62-2.93-17.3-4.43-25.95
			c-5.35-30.87-10.73-61.74-16.09-92.62c-0.14-0.83-0.23-2.19-0.24-3.03c-0.05-4.68-0.78-10.06,5.62-11.1
			c6.38-1.03,7.4,4.48,8.37,9.05c3.75,17.68,7.34,35.38,11.01,53.12c11.19,0.13,11.95-1.51,11.18-12.7
			c-1.06-15.25-1.13-30.6-1.01-45.9c0-0.28,0.04-0.56,0.12-0.84c1.19-4.57,7.81-4.6,9.75-0.28c0.21,0.47,0.36,0.95,0.42,1.43
			c2.96,23.11,5.19,46.32,8.06,69.45c2.36,19.02,5.3,37.98,7.98,56.96c0.08,0.54,1.25,12.05-3.91,12.38c-5.73,2.32-8.03-2.98-9-7.78
			c-2.44-12.07-4.72-24.18-6.83-36.31c-1.16-6.7-1.85-13.48-2.77-20.32H230.22z"/>
		<path class="st1" d="M333.59,330.35c0,13.61,0,25.86,0,39.33c7.45,0,13.97-0.31,20.44,0.08c8.77,0.52,13.92,5.54,13.38,12.38
			c-0.5,6.36-6.13,10.52-14.45,10.35c-3-0.06-6-0.62-8.96-1.14c-2.65-0.46-5.25-1.18-8.32-1.89c0,8.91,0,17.27,0,25.64
			c0,11.24,0.12,22.49-0.04,33.73c-0.06,4.57,0.38,10.66-5.95,10.79c-6.34,0.13-6.27-6.19-6.48-10.6
			c-1.57-32.02-2.98-64.06-4.17-96.1c-0.35-9.31,0.05-18.65,0.33-27.97c0.39-13.01,1.3-14.64,13.89-14.44
			c8.28,0.13,16.87,1.91,24.68,4.74c8.88,3.22,12.09,11.17,8.94,17.54c-3.02,6.11-10.13,7.56-18.78,3.82
			C343.39,334.58,338.68,332.55,333.59,330.35z"/>
		<path class="st1" d="M283.02,325.07c1.88,18.13,3.76,36.29,5.65,54.54c6.54,1.6,15.85-0.41,16.17,9.22c0.31,9.22-8.3,8.44-15,9.67
			c0,15.74,0,31.51,0,47.6c4.09,0,8.03-1.04,10.9,0.27c3.43,1.57,7.53,4.78,8.3,8c0.51,2.17-3.9,7.51-6.74,8.04
			c-5.99,1.12-12.8,1.22-18.49-0.64c-3.25-1.06-6.75-6.64-7.1-10.46c-2.22-24.28-3.66-48.63-5.23-72.97
			c-1.31-20.22-2.45-40.46-3.67-60.69c-0.36-5.96,1.86-10.21,7.98-11.64c7.57-1.77,15.5-3.73,21.58,2.98
			c4.03,4.45,2.98,9.5-2.32,12.43C291.82,323.21,287.83,323.67,283.02,325.07z"/>
		<path class="st1" d="M193.27,449.97c1.85-5.45,2.71-10.52,5.24-14.54c1.71-2.71,6.11-5.76,8.7-5.3c2.6,0.47,5.95,4.9,6.36,7.95
			c1.37,10.22-2.88,18.88-10.62,25.42c-5.6,4.73-14.91,3.91-20.22-1.87c-3.84-4.19-7.57-8.99-9.63-14.19
			c-13.06-33.04-23.82-66.7-21.78-102.9c0.31-5.55,1.98-11.44,4.58-16.35c4.32-8.17,13.42-11.3,21.05-8.56
			c8.05,2.89,15.05,13.41,13.49,21.48c-0.54,2.77-2.9,6.54-5.19,7.2c-1.97,0.57-5.35-2.3-7.51-4.29c-2.06-1.89-3.35-4.61-5.19-7.27
			C160.96,353.8,175.27,431.96,193.27,449.97z"/>
	</g>
</g>
</svg>
