<?xml version="1.0" encoding="utf-8"?>
<!-- Generator: Adobe Illustrator 24.1.2, SVG Export Plug-In . SVG Version: 6.00 Build 0)  -->
<svg version="1.1" id="Layer_4" xmlns="http://www.w3.org/2000/svg" xmlns:xlink="http://www.w3.org/1999/xlink" x="0px" y="0px"
	 viewBox="0 0 450 450" style="enable-background:new 0 0 450 450;" xml:space="preserve">
<style type="text/css">
	.st0{fill:#D8B7A4;}
	.st1{fill:#E5CCBD;}
	.st2{opacity:0.6;fill:url(#SVGID_1_);}
	.st3{opacity:0.6;fill:url(#SVGID_2_);}
	.st4{opacity:0.46;fill:url(#SVGID_3_);}
	.st5{opacity:0.44;fill:#985C48;}
	.st6{fill:#985C48;}
	.st7{fill:#A76550;}
	.st8{fill:#B47D69;}
	.st9{fill:#6A3E2E;}
	.st10{opacity:0.6;fill:url(#SVGID_4_);}
	.st11{fill:url(#SVGID_5_);}
	.st12{fill:url(#SVGID_6_);}
	.st13{fill:#D9A691;}
	.st14{fill:url(#SVGID_7_);}
	.st15{opacity:0.6;fill:url(#SVGID_8_);}
	.st16{fill:url(#SVGID_9_);}
	.st17{fill:url(#SVGID_10_);}
	.st18{opacity:0.52;fill:#6A3E2E;}
	.st19{fill:#814E3C;}
	.st20{fill:#875240;}
	.st21{fill:#724434;}
	.st22{fill:#DCD3A4;}
	.st23{fill:#94595A;}
	.st24{fill:#CCB094;}
	.st25{fill:#87633E;}
	.st26{fill:#F0E2D8;}
	.st27{fill:#A97C50;}
	.st28{opacity:0.24;fill:#8A6354;}
	.st29{fill:#fffaf2;}
</style>
<g>
	<g>
		<path class="st0" d="M115.19,158.14l12.14,90.51l14.45,94.8c0,0-2.31,3.21,3.47,7.5c5.78,4.28,19.08,10.18,39.89,12.32
			c20.81,2.14,41.62,1.61,41.62,1.61l28.9-2.68l24.28-8.03c0,0,6.94-3.75,8.09-10.71c1.16-6.96,18.5-138.71,18.5-138.71l5.78-48.2
			L115.19,158.14z"/>
		<path class="st1" d="M124.74,234.51c0,0,16.67,0.44,51.43-3.09c34.76-3.53,59.53-8.82,59.53-8.82s23.34-5.74,42.38-12.8
			c19.05-7.06,29.05-16.33,29.05-16.33s-11.43,90.89-11.43,92.66c0,1.76-2.38,6.18-1.9,7.06c0.48,0.88-55.72,10.15-81.44,7.94
			c-25.72-2.21-56.2-9.27-56.2-9.27l-22.38-6.62L124.74,234.51z"/>
		<linearGradient id="SVGID_1_" gradientUnits="userSpaceOnUse" x1="401.9113" y1="261.7523" x2="180.8898" y2="261.7523">
			<stop  offset="0" style="stop-color:#000000"/>
			<stop  offset="1" style="stop-color:#FFFFFF"/>
		</linearGradient>
		<path class="st2" d="M213.32,166.56c0.03,0.13,0.05,0.26,0.08,0.39c5.44,28.09,10.89,56.19,16.33,84.28
			c3.87,19.96,7.73,39.91,11.6,59.87c1.54,7.97,3.09,15.93,4.63,23.9c1.36,7.03,5.05,15.75-2.06,21.1
			c-7.61,5.72-21.16,6.32-30.57,8.58c0,0,51.49-5.37,59.05-7.94c7.56-2.57,9.52-4.85,9.52-4.85l19.67-193.05L213.32,166.56z"/>
		<linearGradient id="SVGID_2_" gradientUnits="userSpaceOnUse" x1="99.0256" y1="262.5462" x2="210.9466" y2="262.5462">
			<stop  offset="0" style="stop-color:#FFFFFF"/>
			<stop  offset="1" style="stop-color:#000000"/>
		</linearGradient>
		<path class="st3" d="M127.12,160.38l26.67,195.03c0,0,8.1,5.29,34.76,7.5c26.67,2.21,29.53,1.76,29.53,1.76l-4.76-198.12
			C213.32,166.56,173.32,167.44,127.12,160.38z"/>
		<linearGradient id="SVGID_3_" gradientUnits="userSpaceOnUse" x1="84.8728" y1="261.4074" x2="205.6213" y2="261.4074">
			<stop  offset="0" style="stop-color:#FFFFFF"/>
			<stop  offset="1" style="stop-color:#000000"/>
		</linearGradient>
		<path class="st4" d="M115.19,158.14l26.59,185.31c0,0-1.32,6.66,15.35,13.72s56.2,7.5,56.2,7.5l-3.33-198.56
			C209.99,166.12,148.97,165.61,115.19,158.14z"/>
		<path class="st5" d="M143.32,342.17c0,0,7.14,10.59,36.19,16.33c20.96,4.14,42.57,3.7,63.63,0.5
			c17.17-2.61,30.02-7.39,44.88-15.55c-1.06,0.58-0.65,4.31-1.36,5.34c-1.86,2.68-7.25,4.88-10.09,6.4
			c-2.04,1.09-4.33,1.72-6.6,2.32c-25.03,6.66-52.48,7.95-78.56,6.28c-13.81-0.88-39.95-7.16-46.17-12.84
			C139.03,345.26,143.32,342.17,143.32,342.17z"/>
		<path class="st5" d="M115.69,163.91c0,0,27.62,9.27,77.63,11.03c20.29,0.72,40.65-0.49,60.84-2.3
			c11.29-1.01,28.08-8.24,32.97,4.82c1.59,4.25,1.58,8.85,1.55,13.35c-0.39,55.69,9.92,118.15-21.92,167.99
			c4.99-2.63,9.98-5.26,14.98-7.89c0.92-0.49,1.88-1,2.45-1.84c0.48-0.7,0.62-1.55,0.75-2.37c6.16-38.4,11.53-76.39,15.79-114.91
			c2.86-25.83,7.79-49.7,11.58-75.27c0,0-44.69,10.91-98.98,10.03c-54.29-0.88-98.14-8.42-98.14-8.42L115.69,163.91z"/>
		<path class="st6" d="M129.35,88.23l-4.7,8.4c0,0-8.39,2.8-11.41,4.67c-3.02,1.87-2.69,4.98-2.69,4.98l1.34,14.93
			c0,0-6.38,1.24-8.39,5.91c-2.01,4.67-6.71,15.55-6.71,15.55l2.35,6.84c0,0,0.34,1.24,3.69,3.42c3.36,2.18,12.35,5.22,12.35,5.22
			l36.32,5.36l48,2.49l47.33-0.62l29.88-2.18l24.84-4.35l10.74-2.3c0,0,9.07-3.92,10.75-5.79c1.68-1.87,1.68-5.6,1.68-5.6
			s2.01-1.87,1.01-4.35c-1.01-2.49-7.72-16.17-7.72-16.17l-4.03-3.11l-3.02-1.24l1.01-15.55c0,0-1.68-9.33-44.31-14.31
			c-42.63-4.98-86.61-1.87-86.61-1.87l-7.72,0.31c0,0-11.08-4.98-22.49-3.73C139.42,86.36,129.35,88.23,129.35,88.23z"/>
		<path class="st7" d="M110.66,105.24c0,0,0.74,3.41,2.58,4.1c1.84,0.68,5.16,2.05,5.16,2.05l5.16-12.63l5.8-10.53
			c0,0,18.14-2.1,24.04,0.63c5.89,2.73,9.95,3.41,11.42,5.46c1.47,2.05,3.68,7.17,3.68,7.17l3.32,12.63l2.58,7.17
			c0,0,23.94,1.02,39.41,1.37c15.47,0.34,58.94-4.1,58.94-4.1l26.89-5.12c0,0,8.84-2.73,10.31-4.44c1.47-1.71,2.04-4.28,2.04-4.28
			l-1.01,15.55c0,0,1.92,2.38,1.18,4.09c-0.74,1.71-4.42,3.75-4.42,3.75s-16.58,9.9-58.94,11.6c-42.36,1.71-63.72,1.02-63.72,1.02
			s-41.62-3.41-57.09-7.17c-15.47-3.75-15.84-6.83-15.84-6.83L110.66,105.24z"/>
		<path class="st8" d="M111.9,121.2c0,0-7.82,1.5-8.39,5.91c-0.58,4.41,12.31,8.51,12.31,8.51s16.94,4.78,47.52,7.51
			s49.73,1.71,49.73,1.71l41.99-1.71l30.57-2.73c0,0,17.68-4.1,25.42-6.14c7.74-2.05,8.84-5.46,8.84-5.46s1.05-1.52-1.87-4.17
			c-2.92-2.66-4.03-3.11-4.03-3.11s-4.05,7.96-15.1,10.69c-11.05,2.73-41.25,7.17-41.25,7.17s-36.83,1.71-50.83,1.71
			c-14,0-41.99-1.71-41.99-1.71s-20.26-2.73-32.05-5.12c-11.79-2.39-20.63-7.51-20.63-7.51L111.9,121.2z"/>
		<path class="st9" d="M96.66,144.15c0,0,7,5.46,25.05,8.87c18.05,3.41,33.15,4.78,33.15,4.78s24.31,1.71,43.1,2.39
			c18.79,0.68,39.41,0,39.41,0l38.68-2.73l27.99-4.78l12.52-3.07l8.16-4.46l-0.06,4.12c0,0-4.15,5.45-13.63,7.51
			c-9.48,2.06-22.84,4.78-22.84,4.78l-22.84,2.05l-42.36,2.39h-39.41l-34.26-2.73l-22.21-2.87l-11.94-2.24
			c0,0-13.37-5.12-15.21-6.83C98.14,149.61,96.54,145.63,96.66,144.15z"/>
		<linearGradient id="SVGID_4_" gradientUnits="userSpaceOnUse" x1="471.5332" y1="145.6912" x2="261.4324" y2="145.6912">
			<stop  offset="0" style="stop-color:#000000"/>
			<stop  offset="1" style="stop-color:#FFFFFF"/>
		</linearGradient>
		<path class="st10" d="M223.38,144.83l3.31,14.67c0,0,17.68,0.34,39.78-1.71c22.1-2.05,37.57-5.12,37.57-5.12l16.94-5.8
			l-6.26-15.02c0,0-10.68,6.48-29.1,8.53C267.21,142.44,223.38,144.83,223.38,144.83z"/>
		<linearGradient id="SVGID_5_" gradientUnits="userSpaceOnUse" x1="517.2675" y1="136.125" x2="234.6011" y2="136.125">
			<stop  offset="0" style="stop-color:#FFFFFF"/>
			<stop  offset="1" style="stop-color:#000000"/>
		</linearGradient>
		<path class="st11" d="M309.29,128.35l5.44,3.51c0,0-27.59,12.04-74.93,12.04c-47.33,0-56.4-0.31-56.4-0.31l1.67-2.86
			c0,0,23.85,0.68,47.01-0.25c22.16,0.31,39.28-2.8,39.28-2.8S298.21,135.19,309.29,128.35z"/>
		
			<radialGradient id="SVGID_6_" cx="83.4188" cy="141.3512" r="55.2014" gradientTransform="matrix(3.7038 0 0 3.4316 -141.0086 -531.0473)" gradientUnits="userSpaceOnUse">
			<stop  offset="0.1823" style="stop-color:#FFFFFF"/>
			<stop  offset="0.2572" style="stop-color:#F1F1F1"/>
			<stop  offset="0.3984" style="stop-color:#CDCDCD"/>
			<stop  offset="0.5909" style="stop-color:#919191"/>
			<stop  offset="0.8246" style="stop-color:#414141"/>
			<stop  offset="1" style="stop-color:#000000"/>
		</radialGradient>
		<path class="st12" d="M116.26,111.24l0.67,18.04c0,0,11.41,6.22,38.61,8.71c27.19,2.49,36.59,3.42,36.59,3.42l31.89-0.62
			l4.36-18.35l-54-1.16l-3.74-12.52c0,0-0.67-12.13-9.74-16.48c-9.06-4.35-18.46-4.04-18.46-4.04h-13.09l-9.06,17.42l-1.01,6.84
			L116.26,111.24z"/>
		<path class="st13" d="M132.38,87.96c0,0,19.35-0.01,25.89,3.18c4.36,2.12,13.08,12.35,18.04,4.89c4.41-6.63-8.9-9.16-13.27-9.98
			C152.86,84.15,142.25,85.09,132.38,87.96z"/>
		<linearGradient id="SVGID_7_" gradientUnits="userSpaceOnUse" x1="96.4286" y1="105.2172" x2="339.8923" y2="105.2172">
			<stop  offset="0.0872" style="stop-color:#FFFFFF"/>
			<stop  offset="0.0888" style="stop-color:#FEFEFE"/>
			<stop  offset="0.1639" style="stop-color:#C9C9C9"/>
			<stop  offset="0.2416" style="stop-color:#9A9A9A"/>
			<stop  offset="0.3243" style="stop-color:#717171"/>
			<stop  offset="0.4105" style="stop-color:#4E4E4E"/>
			<stop  offset="0.5014" style="stop-color:#313131"/>
			<stop  offset="0.5984" style="stop-color:#1C1C1C"/>
			<stop  offset="0.7044" style="stop-color:#0C0C0C"/>
			<stop  offset="0.8262" style="stop-color:#030303"/>
			<stop  offset="1" style="stop-color:#000000"/>
		</linearGradient>
		<path class="st14" d="M174.39,121.28l44.03,1.25l46.06-2.47c0,0,25.51-3.17,36.93-7.05c11.42-3.88,10.56-8.29,10.56-8.29
			s3.52-3.7-20.84-10.75c-24.36-7.05-97.08-6-97.08-6l-20.73,0.89l4.74,3.7l2.66,4.23c0,0,27.41-1.06,45.68-0.71
			c18.27,0.35,46.06,4.23,46.06,4.23s24.75,4.59,11.8,9.17s-18.65,5.29-18.65,5.29s-15.99,2.12-36.55,2.47
			c-20.56,0.35-42.26-0.35-42.26-0.35L174.39,121.28z"/>
		<linearGradient id="SVGID_8_" gradientUnits="userSpaceOnUse" x1="70.0096" y1="106.6202" x2="231.8161" y2="106.6202">
			<stop  offset="0" style="stop-color:#000000"/>
			<stop  offset="1" style="stop-color:#FFFFFF"/>
		</linearGradient>
		<path class="st15" d="M180.73,96.78c0,0,21.7-1.06,39.59-0.71c17.89,0.35,36.55,2.47,36.55,2.47l1.52,16.58
			c0,0-19.8,2.12-42.64,2.12s-27.79-1.41-27.79-1.41L180.73,96.78z"/>
		
			<radialGradient id="SVGID_9_" cx="43.1206" cy="152.262" r="65.5057" gradientTransform="matrix(3.7038 0 0 3.4316 -141.0086 -531.0473)" gradientUnits="userSpaceOnUse">
			<stop  offset="0.1823" style="stop-color:#FFFFFF"/>
			<stop  offset="0.2572" style="stop-color:#F1F1F1"/>
			<stop  offset="0.3984" style="stop-color:#CDCDCD"/>
			<stop  offset="0.5909" style="stop-color:#919191"/>
			<stop  offset="0.8246" style="stop-color:#414141"/>
			<stop  offset="1" style="stop-color:#000000"/>
		</radialGradient>
		<path class="st16" d="M116.93,129.28l-8.15,3.48l-4.95,14.81c0,0,25.51,9.17,60.53,10.93c35.02,1.76,39.59,1.76,39.59,1.76
			l0.38-15.87l6.47-3.17c0,0-23.98,0.35-43.78-1.76C147.23,137.34,123.18,133.92,116.93,129.28z"/>
		<path class="st8" d="M272.35,98.57l11.33-6.05c0,0,19.6,4.44,23.96,6.86c4.36,2.42,6.36,6.71,2.31,9.61
			c-4.05,2.9-16.25,6.13-16.25,6.13l-23.96,4.44l-37.02,2.42l15.25-5.25c0,0,21.78-1.21,30.49-4.44c8.71-3.23,8.71-4.84,8.71-4.84
			S295.87,104.63,272.35,98.57z"/>
		<path class="st13" d="M307.73,128.1l-0.53-17.02l4.36-4.04l-0.58,13.21l3.02,1.24C313.99,121.51,310.87,128.58,307.73,128.1z"/>
		<linearGradient id="SVGID_10_" gradientUnits="userSpaceOnUse" x1="72.0876" y1="103.7741" x2="127.8021" y2="103.7741">
			<stop  offset="0.2214" style="stop-color:#FFFFFF"/>
			<stop  offset="0.2888" style="stop-color:#F7F7F7"/>
			<stop  offset="0.3906" style="stop-color:#E3E3E3"/>
			<stop  offset="0.5142" style="stop-color:#C1C1C1"/>
			<stop  offset="0.6549" style="stop-color:#919191"/>
			<stop  offset="0.8099" style="stop-color:#555555"/>
			<stop  offset="0.9747" style="stop-color:#0C0C0C"/>
			<stop  offset="1" style="stop-color:#000000"/>
		</linearGradient>
		<path class="st17" d="M119.19,111.6c0,0-8.26-3.02-8.53-6.36c-0.28-3.34,7.58-6.87,7.58-6.87l7.62-2.43
			C125.86,95.94,119.67,108.74,119.19,111.6z"/>
		<path class="st18" d="M181.17,98.15l4.13,9.25l2.66,8.43c0,0,26.6,1.78,35.9,1.78c9.3,0,14.46-0.64,14.46-0.64
			s-17.21-1.6-24.44-2.87c-7.23-1.28-7.92-11.8-7.92-11.8s1.38-3.19,24.1-2.87c22.72,0.32,41.31,1.28,41.31,1.28
			s-21.69-5.1-48.89-4.47C195.29,96.88,181.17,98.15,181.17,98.15z"/>
		<path class="st8" d="M290.72,105.51c-0.05-0.29-0.15-0.57-0.27-0.81c-0.54-0.97-1.33-1.51-2.08-1.99
			c-1.54-0.9-3.14-1.48-4.75-1.99c-1.61-0.51-3.24-0.92-4.86-1.28c-3.26-0.73-6.52-1.28-9.77-1.75c-6.5-0.93-12.93-1.54-19.15-2
			c-6.23-0.47-12.26-0.7-17.97-0.84c-5.72-0.14-11.12-0.18-16.12-0.15c-9.98,0.04-18.29,0.47-24.09,0.78
			c-2.9,0.16-5.18,0.34-6.73,0.46c-1.55,0.12-2.38,0.19-2.38,0.19s3.32-0.15,9.13-0.3c5.81-0.17,14.11-0.23,24.07-0.1
			c9.95,0.12,21.57,0.59,33.95,1.56c6.19,0.49,12.58,1.14,19,2.1c3.21,0.49,6.43,1.05,9.6,1.78c1.58,0.37,3.16,0.78,4.69,1.27
			c1.52,0.49,3.03,1.06,4.29,1.82c0.61,0.38,1.17,0.83,1.39,1.25c0.05,0.1,0.08,0.19,0.1,0.28c0,0.02,0.01,0.14,0.01,0.08
			c-0.01,0.08-0.01,0.23-0.03,0.25c-0.01,0.02-0.04,0.12-0.1,0.23c-0.06,0.1-0.14,0.21-0.23,0.32c-0.22,0.24-0.49,0.45-0.78,0.66
			c0.13,0.94-0.28,1.91-1.51,2.46c-1.57,0.71-3.13,1.32-4.7,1.89c1.31-0.35,2.63-0.74,3.93-1.21c0.8-0.3,1.59-0.63,2.36-1.03
			c0.77-0.41,1.55-0.88,2.23-1.61c0.17-0.19,0.32-0.4,0.46-0.63c0.13-0.24,0.25-0.49,0.32-0.85c0.04-0.17,0.03-0.21,0.04-0.33
			C290.76,105.76,290.73,105.68,290.72,105.51z"/>
		<path class="st19" d="M180.35,97.22c0,0,0.83-0.07,2.38-0.19c1.55-0.12,3.83-0.3,6.73-0.46c5.81-0.32,14.11-0.74,24.09-0.78
			c4.99-0.03,10.4,0.01,16.12,0.15c5.72,0.14,11.75,0.38,17.97,0.84c6.23,0.46,12.65,1.07,19.15,2c3.25,0.47,6.52,1.03,9.77,1.75
			c1.63,0.37,3.25,0.78,4.86,1.28c1.61,0.51,3.21,1.09,4.75,1.99c0.75,0.48,1.54,1.02,2.08,1.99c0.13,0.25,0.22,0.52,0.27,0.81
			c0.01,0.17,0.04,0.24,0.02,0.5c-0.02,0.11,0,0.15-0.04,0.33c-0.07,0.36-0.19,0.61-0.32,0.85c-0.14,0.24-0.29,0.44-0.46,0.63
			c-0.68,0.73-1.46,1.2-2.23,1.61c-0.78,0.41-1.57,0.74-2.36,1.03c-3.19,1.16-6.43,1.88-9.66,2.51c-6.46,1.23-12.88,1.97-19.1,2.56
			c-6.22,0.59-12.24,0.92-17.96,1.14c-5.72,0.23-11.12,0.33-16.11,0.36c-4.99,0.04-9.56,0-13.62-0.15
			c-4.05-0.15-7.58-0.35-10.48-0.52c-5.8-0.38-9.12-0.6-9.12-0.6s3.32,0.09,9.14,0.24c2.91,0.08,6.43,0.17,10.48,0.19
			c4.04,0.02,8.61-0.09,13.58-0.2c9.95-0.25,21.56-0.86,33.91-2.06c6.17-0.62,12.54-1.4,18.89-2.65c3.16-0.64,6.35-1.37,9.32-2.48
			c1.44-0.56,2.96-1.24,3.8-2.15c0.09-0.11,0.18-0.22,0.23-0.32c0.06-0.11,0.09-0.21,0.1-0.23c0.02-0.01,0.02-0.17,0.03-0.25
			c0,0.06-0.01-0.06-0.01-0.08c-0.02-0.09-0.05-0.18-0.1-0.28c-0.22-0.42-0.78-0.87-1.39-1.25c-1.26-0.76-2.77-1.33-4.29-1.82
			c-1.53-0.49-3.1-0.9-4.69-1.27c-3.17-0.73-6.39-1.3-9.6-1.78c-6.42-0.96-12.81-1.61-19-2.1c-12.38-0.97-24-1.44-33.95-1.56
			c-9.96-0.12-18.26-0.07-24.07,0.1C183.68,97.07,180.35,97.22,180.35,97.22z"/>
		<path class="st13" d="M311.88,105.05c-0.03-0.01,0.08,0.54-0.33,1.45c-0.39,0.91-1.42,2.04-3.02,3.1
			c-3.2,2.14-8.49,4.05-14.96,5.71c-12.97,3.32-30.78,5.61-48.64,6.88c-17.87,1.28-35.8,1.51-49.25,1.26
			c-6.72-0.12-12.32-0.34-16.24-0.53c-3.92-0.21-6.16-0.34-6.16-0.34l0.23-2.77c0,0,2.22,0.16,6.11,0.45
			c3.89,0.26,9.45,0.59,16.14,0.84c13.37,0.5,31.24,0.63,49.07-0.3c17.82-0.91,35.63-2.85,48.62-5.91c6.48-1.53,11.78-3.33,15-5.39
			c1.61-1.01,2.65-2.12,3.06-3.01C311.94,105.59,311.85,105.04,311.88,105.05z"/>
		<path class="st20" d="M312.38,105.05h-1c0-9.2-45.79-16.97-99.99-16.97c-12.75,0-25.17,0.41-36.92,1.22l-0.07-0.92
			c11.78-0.81,24.22-1.22,37-1.22C268.01,87.15,312.38,95.01,312.38,105.05z"/>
		<path class="st13" d="M311.44,119.89c0,0,0.22,0.09,0.65,0.26c0.42,0.17,1.1,0.46,1.92,0.86c0.83,0.41,1.85,0.93,2.97,1.7
			c0.56,0.4,1.15,0.84,1.71,1.44c0.55,0.59,1.11,1.33,1.36,2.31c0.06,0.24,0.11,0.49,0.11,0.75l0.01,0.19l-0.01,0.22l-0.03,0.31
			c-0.11,0.6-0.28,1.09-0.56,1.54c-0.53,0.92-1.32,1.64-2.17,2.28c-1.72,1.26-3.75,2.23-5.97,3.08c-4.44,1.71-9.62,3.01-15.31,4.16
			c-11.4,2.26-24.87,3.83-39.33,4.87c-14.47,1.03-29.94,1.5-45.41,1.45c-15.47-0.06-30.93-0.64-45.38-1.78
			c-14.44-1.14-27.89-2.81-39.21-5.15c-5.65-1.19-10.8-2.52-15.15-4.23c-2.17-0.86-4.14-1.82-5.74-3.01
			c-0.78-0.6-1.49-1.27-1.93-2.05c-0.24-0.38-0.36-0.8-0.45-1.21c-0.04-0.42-0.05-0.82,0.07-1.21c0.2-0.78,0.68-1.41,1.17-1.93
			c0.5-0.53,1.05-0.94,1.58-1.31c1.06-0.72,2.05-1.22,2.85-1.6c0.81-0.38,1.44-0.64,1.87-0.82c0.43-0.17,0.65-0.26,0.65-0.26
			s-0.22,0.09-0.65,0.26c-0.43,0.18-1.06,0.44-1.86,0.83c-0.8,0.39-1.78,0.89-2.83,1.62c-0.52,0.37-1.07,0.78-1.56,1.31
			c-0.48,0.52-0.95,1.15-1.13,1.91c-0.21,0.76-0.07,1.61,0.38,2.36c0.43,0.76,1.13,1.41,1.92,2c1.59,1.17,3.56,2.11,5.73,2.95
			c4.34,1.67,9.49,2.96,15.14,4.1c11.33,2.25,24.76,3.82,39.2,4.85c14.44,1.03,29.89,1.5,45.33,1.44
			c15.44-0.06,30.88-0.64,45.3-1.78c14.41-1.14,27.82-2.81,39.08-5.13c5.62-1.18,10.72-2.51,14.97-4.18
			c2.12-0.83,4.03-1.77,5.5-2.88c0.72-0.55,1.34-1.15,1.68-1.77c0.19-0.3,0.27-0.63,0.33-0.84l0.02-0.3l0.01-0.08l0-0.04
			c0,0.02,0-0.09,0,0.03l-0.01-0.11c0-0.14-0.03-0.29-0.07-0.43c-0.31-1.14-1.42-2.05-2.37-2.72c-0.99-0.67-1.94-1.15-2.71-1.52
			c-0.79-0.37-1.37-0.61-1.81-0.79c-0.43-0.17-0.65-0.26-0.65-0.26L311.44,119.89z"/>
		<path class="st6" d="M325.53,138.67c0,0,0.04,0.04,0.11,0.12c0.07,0.08,0.22,0.25,0.37,0.44c0.29,0.4,0.76,1.05,0.96,2.09
			c0.04,0.27,0.07,0.51,0.04,0.86c-0.01,0.11-0.02,0.23-0.03,0.35c-0.04,0.17-0.07,0.33-0.11,0.51c-0.19,0.64-0.51,1.23-0.95,1.79
			c-0.89,1.1-2.15,2.02-3.63,2.85c-2.96,1.65-6.79,2.99-11.25,4.21c-4.46,1.2-9.56,2.28-15.15,3.22
			c-22.39,3.77-52.65,5.63-82.87,5.58c-30.22-0.03-60.46-2.02-82.8-5.67c-11.15-1.83-20.36-4.05-26.37-6.64
			c-3-1.28-5.17-2.72-6.22-4.06c-0.53-0.66-0.76-1.27-0.84-1.69c-0.06-0.21-0.05-0.37-0.06-0.48c-0.01-0.11-0.01-0.16-0.01-0.16
			s0,0.05,0.01,0.16c0.02,0.11,0,0.27,0.07,0.47c0.08,0.42,0.32,1.02,0.85,1.68c1.06,1.32,3.24,2.74,6.24,4
			c6.02,2.54,15.23,4.69,26.39,6.43c22.34,3.47,52.57,5.23,82.75,5.02c30.17-0.18,60.38-2.27,82.57-6.19
			c5.54-0.98,10.58-2.08,14.94-3.29c4.35-1.22,8.07-2.58,10.76-4.11c1.34-0.77,2.41-1.59,3.06-2.41c0.31-0.4,0.52-0.82,0.61-1.15
			c0.02-0.07,0.04-0.14,0.06-0.21c0.01-0.12,0.02-0.24,0.03-0.35c0.01-0.1-0.01-0.3-0.03-0.43c-0.11-0.59-0.42-1.03-0.64-1.32
			c-0.12-0.15-0.19-0.23-0.27-0.32c-0.08-0.08-0.11-0.12-0.11-0.12L325.53,138.67z"/>
		<polygon class="st13" points="96.95,142.09 96.49,141.9 103.31,127.32 103.77,127.5 		"/>
		<polygon class="st13" points="325.13,142.37 318.31,127.78 320.14,127.04 326.96,141.63 		"/>
		<polygon class="st21" points="310.94,127.42 310.44,127.4 311.63,105.03 312.13,105.06 		"/>
		<polygon class="st13" points="111.7,126.16 110.51,105.06 111.26,105.03 112.45,126.13 		"/>
		<path class="st22" d="M128.75,90.18c10.34,0.26,26.34-1.51,33.72,6.57c3.24,3.54,4.15,8.18,4.97,12.62
			c0.67,3.63,0.92,10.19,4.43,12.5c0.5,0.33,1.1,0.6,1.71,0.53c0.61-0.07,1.18-0.6,1.06-1.16c-0.09-0.43-0.53-0.71-0.9-1
			c-2.01-1.55-2.25-3.64-2.67-5.79c-0.56-2.88-1.58-5.67-2.33-8.52c-1.15-4.34-2.25-8.56-5.95-11.74
			c-8.49-7.29-23.54-5.59-34.06-4.76C128.23,89.48,128.21,90.17,128.75,90.18z"/>
		<path class="st23" d="M129.58,89.04c10.62,0.27,27.05-1.58,34.64,6.88c6.25,6.97,4.1,17.65,8.65,25.33
			c0.3,0.51,1.15,0.27,1.16-0.29c0.05-5.04-2.08-10.55-3.35-15.42c-1.18-4.54-2.32-8.97-6.11-12.3c-8.72-7.64-24.18-5.86-34.99-4.99
			C129.05,88.3,129.03,89.02,129.58,89.04L129.58,89.04z"/>
		<path class="st23" d="M129.65,88.89c12.34-2.33,26.32-4.76,38.69-1.12c6.73,1.98,9.74,5.79,12.22,11.62
			c2.33,5.5,4.27,11.02,5.92,16.73c0.24,0.84,1.58,0.48,1.39-0.35c-1.47-6.43-3.85-12.64-6.6-18.69c-2.04-4.47-4.59-7.64-9.47-9.64
			c-12.54-5.12-29.74-2.92-42.29,0.96C129.18,88.5,129.31,88.95,129.65,88.89L129.65,88.89z"/>
		<path class="st21" d="M173.72,120.75c4.64,0.02,9.98-0.94,13.66-3.64c0.35-0.25-0.1-0.75-0.46-0.55
			c-4.34,2.29-8.56,2.62-13.28,3.68C173.33,120.3,173.4,120.75,173.72,120.75L173.72,120.75z"/>
		<polygon class="st13" points="325,147.94 324.03,147.72 325.56,141.89 326.53,142.11 		"/>
		<polygon class="st21" points="97.77,147.97 96.01,142.57 96.96,142.3 98.73,147.7 		"/>
		<path class="st24" d="M113.92,157.12c1.25,15.25,4.26,30.51,6.47,45.66c2.26,15.47,4.52,30.95,6.82,46.42
			c4.63,31.24,8.96,62.52,13.82,93.73c0.07,0.44,0.9,0.34,0.84-0.11c-4.28-31.28-9.09-62.5-13.58-93.76
			c-2.15-14.92-4.32-29.83-6.51-44.75c-2.3-15.7-3.82-31.73-7.11-47.28C114.58,156.65,113.89,156.73,113.92,157.12L113.92,157.12z"
			/>
		<path class="st25" d="M289.08,344.87c0,0-0.01,0.14-0.04,0.42c-0.01,0.14-0.03,0.31-0.05,0.52c-0.03,0.21-0.13,0.56-0.22,0.9
			c-0.39,1.36-1.34,2.99-3.05,4.57c-1.68,1.58-4,3.07-6.8,4.4c-2.8,1.34-6.06,2.55-9.69,3.63c-7.25,2.15-15.93,3.75-25.29,4.8
			c-9.36,1.05-19.41,1.53-29.44,1.44c-5-0.04-10.04-0.23-14.95-0.55c-4.92-0.32-9.76-0.79-14.41-1.39
			c-9.31-1.21-17.91-2.96-25.04-5.2c-3.56-1.13-6.74-2.38-9.44-3.72c-2.7-1.33-4.88-2.81-6.39-4.29c-1.53-1.47-2.32-2.95-2.6-4
			c-0.06-0.27-0.15-0.49-0.17-0.7c-0.02-0.21-0.03-0.38-0.04-0.52c-0.02-0.28-0.03-0.42-0.03-0.42s0.01,0.14,0.04,0.42
			c0.01,0.14,0.03,0.31,0.05,0.52c0.03,0.2,0.12,0.43,0.18,0.7c0.3,1.04,1.11,2.49,2.66,3.92c1.53,1.44,3.72,2.86,6.43,4.14
			c2.7,1.29,5.89,2.48,9.45,3.54c7.13,2.11,15.73,3.7,25.01,4.74c4.64,0.52,9.46,0.9,14.37,1.14c4.91,0.24,9.88,0.33,14.88,0.29
			c9.97-0.08,19.93-0.73,29.17-1.93c9.23-1.2,17.76-2.94,24.76-5.15c3.5-1.11,6.61-2.33,9.2-3.63c2.6-1.29,4.66-2.69,6.02-4.03
			c1.38-1.31,2.02-2.61,2.22-3.35c0.04-0.19,0.11-0.3,0.14-0.5c0.02-0.21,0.03-0.38,0.04-0.52c0.02-0.28,0.03-0.42,0.03-0.42
			L289.08,344.87z"/>
		<path class="st26" d="M127.11,235.68c8.09,1.21,17.03,0.18,25.19-0.25c8.35-0.44,16.69-1.12,24.99-2.05
			c16.6-1.86,33.15-4.43,49.5-7.65c28.68-5.65,58.14-14.6,81.48-31.53c0.82-0.59-0.33-1.66-1.14-1.06
			c-24.04,17.75-53.02,25.29-82.59,30.93c-16.28,3.1-32.67,5.7-49.17,7.57c-8.31,0.94-16.64,1.73-25,2.24
			c-7.66,0.48-15.71-0.05-23.27,1.04C126.7,234.98,126.7,235.62,127.11,235.68L127.11,235.68z"/>
		<path class="st27" d="M133.21,285.2c24.76,9.65,52.75,14.1,79.44,15.52c26.99,1.44,54.65-0.61,80.86-6.9
			c0.44-0.1,0.25-0.72-0.19-0.62c-26.57,5.62-53.42,8.29-80.67,6.86c-27.5-1.44-53.25-7.47-79.36-15.14
			C133.09,284.86,133.03,285.13,133.21,285.2L133.21,285.2z"/>
		<path class="st27" d="M310.91,156.76c-2.89,6.73-2.97,15.41-3.96,22.55c-1.12,8.03-2.2,16.06-3.26,24.1
			c-2.04,15.53-3.97,31.08-5.78,46.64c-1.81,15.56-3.8,31.1-5.83,46.64c-2.08,15.99-4.46,32.05-6.19,48.07
			c-0.19,1.76,3.04,2.18,3.36,0.42c2.83-15.43,4.74-31.16,6.81-46.7c2.07-15.54,3.9-31.1,5.98-46.64
			c2.08-15.54,4.04-31.09,6.06-46.64c1-7.74,2-15.48,3.04-23.21c1.06-7.87,3.67-16.96,2.73-24.85
			C313.67,155.54,311.55,155.27,310.91,156.76L310.91,156.76z"/>
		<path class="st21" d="M211.38,166.53c-63.72,0-113.63-8.21-113.63-18.7h1c0,9.63,51.58,17.77,112.63,17.77
			c61.05,0,112.63-8.14,112.63-17.77h1C325.02,158.31,275.1,166.53,211.38,166.53z"/>
		<path class="st21" d="M211.38,141.71c-56.9,0-101.47-8.21-101.47-18.7c0-0.77,0.23-1.53,0.7-2.28l0.87,0.46
			c-0.37,0.6-0.56,1.22-0.56,1.82c0,9.63,46.01,17.77,100.47,17.77c54.46,0,100.47-8.14,100.47-17.77c0-0.6-0.19-1.21-0.56-1.82
			l0.87-0.46c0.46,0.74,0.7,1.51,0.7,2.28C312.85,133.49,268.28,141.71,211.38,141.71z"/>
		<path class="st27" d="M118.42,112.06c-5.24-2.18-7.9-4.54-7.9-7.01c0-3.38,4.89-6.51,14.54-9.29l0.22,0.66
			c-9.17,2.65-14.01,5.63-14.01,8.63c0,2.14,2.58,4.35,7.46,6.38L118.42,112.06z"/>
		<path class="st22" d="M120.22,111.33c1.68-3.74,2.85-7.69,4.51-11.45c1.67-3.78,3.75-7.33,5.46-11.08
			c0.13-0.28-0.22-0.49-0.4-0.24c-4.52,6.19-8.52,15.01-9.89,22.63C119.86,111.38,120.13,111.54,120.22,111.33L120.22,111.33z"/>
		<path class="st23" d="M118.83,111.33c1.85-3.75,3.13-7.71,4.96-11.47c1.84-3.78,4.13-7.34,6.01-11.1
			c0.14-0.28-0.25-0.49-0.45-0.24c-4.98,6.2-9.38,15.03-10.9,22.67C118.43,111.38,118.73,111.54,118.83,111.33L118.83,111.33z"/>
		<path class="st28" d="M220.18,166.01c-1.13-0.05-2.26-0.13-3.39-0.22c-7.53-0.62-14.6,0.59-22.19,0.37
			c6.04,1.66,12.39,3.5,16.62,7.82c1.84,1.88,3.17,4.13,4.32,6.43c6.97,14,6.87,28.18,7.61,43.11c0.67,13.54,1.35,27.07,2.02,40.61
			c1.17,23.51,2.34,47.02,3.51,70.52c0.22,4.37-0.94,11.51,0.78,15.66c0,0,2.42,5.83-5.81,8.07c-8.23,2.24-21.3,6.28-21.3,6.28
			s25.32-0.03,46.48-3.59c21.16-3.56,29.38-5.38,33.09-9.19c3.71-3.81,5.65-8.3,6.61-14.58c0.97-6.28,23.76-180.56,23.79-180.77
			c-0.43,3.25-25.32,6.06-27.6,6.37c-13,1.78-26.17,2.53-39.3,2.77C237,165.82,228.6,166.41,220.18,166.01z"/>
	</g>
	<path class="st29" d="M188.69,121.68c0,0,44.99-0.38,56.14-0.89S217.32,125.87,188.69,121.68z"/>
	<path class="st29" d="M188.69,144.02c0,0,44.99-0.38,56.14-0.89S217.32,148.2,188.69,144.02z"/>
	<path class="st29" d="M142.91,187.23c-0.29,0.09-0.6,0.21-0.9,0.37c-0.89,0.45-1.44,1.31-1.88,2.16
		c-2.84,5.44-2.92,11.72-1.66,17.54c3.01,13.96,9.04,77.7,14.56,79.56c5.52,1.86,3.01-26.52,2.51-49.32
		C155.43,232.33,154.58,183.71,142.91,187.23z"/>
	<path class="st29" d="M160.01,320.8c1.46-6.27,0.11-9.83-2.38-15.11c-0.46-0.98-1.48-2.01-2.57-1.65
		c-0.98,0.32-1.17,1.51-1.15,2.47c0.09,4.57,0.62,9.67,2.66,13.86c0.53,1.1,1.93,2.32,2.9,1.51
		C159.8,321.61,159.92,321.19,160.01,320.8z"/>
	<path class="st29" d="M156.76,91.61c4.69,2.86,8.2,7.32,9.71,12.33c0.67,0.41,1.63-0.03,1.97-0.71c0.33-0.67,0.2-1.46,0-2.18
		c-1.53-5.42-7.2-9.58-13.24-9.73c1.27,0.08,2.5,0.64,3.35,1.52L156.76,91.61z"/>
	<path class="st29" d="M119.52,135.95c-0.46-0.26-1.15,0.02-1.26,0.51c5.93,2.19,12.29,3.39,18.67,3.55
		c-5.19-1.3-10.38-2.6-15.56-3.89c-0.71-0.18-1.71-0.23-1.95,0.41c-0.3-0.2-0.6-0.41-0.91-0.61L119.52,135.95z"/>
</g>
</svg>
