<?xml version="1.0" encoding="utf-8"?>
<!-- Generator: Adobe Illustrator 24.1.2, SVG Export Plug-In . SVG Version: 6.00 Build 0)  -->
<svg version="1.1" xmlns="http://www.w3.org/2000/svg" xmlns:xlink="http://www.w3.org/1999/xlink" x="0px" y="0px"
	 viewBox="0 0 450 450" style="enable-background:new 0 0 450 450;" xml:space="preserve">
<style type="text/css">
	.st0{fill:#fffaf2;}
	.st1{opacity:0.13;}
	.st2{opacity:0;fill:#556573;}
	.st3{opacity:0.0294;fill:#546472;}
	.st4{opacity:0.0588;fill:#546371;}
	.st5{opacity:0.0882;fill:#536270;}
	.st6{opacity:0.1176;fill:#52626F;}
	.st7{opacity:0.1471;fill:#51616E;}
	.st8{opacity:0.1765;fill:#51606D;}
	.st9{opacity:0.2059;fill:#505F6C;}
	.st10{opacity:0.2353;fill:#4F5E6B;}
	.st11{opacity:0.2647;fill:#4E5D6A;}
	.st12{opacity:0.2941;fill:#4E5C69;}
	.st13{opacity:0.3235;fill:#4D5C68;}
	.st14{opacity:0.3529;fill:#4C5B67;}
	.st15{opacity:0.3824;fill:#4B5A66;}
	.st16{opacity:0.4118;fill:#4B5965;}
	.st17{opacity:0.4412;fill:#4A5864;}
	.st18{opacity:0.4706;fill:#495763;}
	.st19{opacity:0.5;fill:#495763;}
	.st20{opacity:0.5294;fill:#485662;}
	.st21{opacity:0.5588;fill:#475561;}
	.st22{opacity:0.5882;fill:#465460;}
	.st23{opacity:0.6176;fill:#46535F;}
	.st24{opacity:0.6471;fill:#45525E;}
	.st25{opacity:0.6765;fill:#44515D;}
	.st26{opacity:0.7059;fill:#43515C;}
	.st27{opacity:0.7353;fill:#43505B;}
	.st28{opacity:0.7647;fill:#424F5A;}
	.st29{opacity:0.7941;fill:#414E59;}
	.st30{opacity:0.8235;fill:#404D58;}
	.st31{opacity:0.8529;fill:#404C57;}
	.st32{opacity:0.8824;fill:#3F4B56;}
	.st33{opacity:0.9118;fill:#3E4B55;}
	.st34{opacity:0.9412;fill:#3D4A54;}
	.st35{opacity:0.9706;fill:#3D4953;}
	.st36{fill:#3C4852;}
	.st37{fill:#EBB83B;}
	.st38{fill:#FBCE5D;}
	.st39{fill:#E3AA1B;}
	.st40{opacity:0.39;fill:#FFFFFF;}
	.st41{fill:#FBD67B;}
	.st42{fill:#DE9F00;}
	.st43{fill:#F2BE3D;}
	.st44{fill:#BF3A46;}
	.st45{fill:#F2B724;}
	.st46{fill:#FBC02D;}
	.st47{fill:#FFC638;}
	.st48{opacity:0.54;fill:#FFFFFF;}
	.st49{fill:#E8AE1C;}
	.st50{fill:#E6A80E;}
	.st51{fill:#FFCB4A;}
	.st52{fill:#FBD471;}
	.st53{opacity:0.37;fill:#FFFFFF;}
	.st54{opacity:0.33;fill:#FFFFFF;}
	.st55{fill:#E3AE29;}
	.st56{fill:#C23B47;}
	.st57{fill:#E34554;}
	.st58{fill:#BD3945;}
	.st59{fill:#EB4757;}
	.st60{fill:#D1404D;}
	.st61{opacity:0.49;fill:#FF4D5E;}
	.st62{opacity:0.21;fill:#FF4D5E;}
	.st63{opacity:0.32;fill:#FF707E;}
</style>
<g id="background">
	<rect class="st0" width="450" height="450"/>
</g>
<g id="fast_food">
	<g>
		<g class="st1">
			<ellipse class="st2" cx="209.59" cy="323.07" rx="128.43" ry="52.62"/>
			<ellipse class="st3" cx="209.59" cy="323.07" rx="127.52" ry="52.25"/>
			<ellipse class="st4" cx="209.59" cy="323.07" rx="126.62" ry="51.88"/>
			<ellipse class="st5" cx="209.59" cy="323.07" rx="125.72" ry="51.51"/>
			<ellipse class="st6" cx="209.59" cy="323.07" rx="124.81" ry="51.14"/>
			<ellipse class="st7" cx="209.59" cy="323.07" rx="123.91" ry="50.77"/>
			<ellipse class="st8" cx="209.59" cy="323.07" rx="123.01" ry="50.4"/>
			<ellipse class="st9" cx="209.59" cy="323.07" rx="122.11" ry="50.03"/>
			<ellipse class="st10" cx="209.59" cy="323.07" rx="121.2" ry="49.66"/>
			<ellipse class="st11" cx="209.59" cy="323.07" rx="120.3" ry="49.29"/>
			<ellipse class="st12" cx="209.59" cy="323.07" rx="119.4" ry="48.92"/>
			<ellipse class="st13" cx="209.59" cy="323.07" rx="118.49" ry="48.55"/>
			<ellipse class="st14" cx="209.59" cy="323.07" rx="117.59" ry="48.18"/>
			<ellipse class="st15" cx="209.59" cy="323.07" rx="116.69" ry="47.81"/>
			<ellipse class="st16" cx="209.59" cy="323.07" rx="115.79" ry="47.44"/>
			<ellipse class="st17" cx="209.59" cy="323.07" rx="114.88" ry="47.07"/>
			<ellipse class="st18" cx="209.59" cy="323.07" rx="113.98" ry="46.7"/>
			<ellipse class="st19" cx="209.59" cy="323.07" rx="113.08" ry="46.33"/>
			<ellipse class="st20" cx="209.59" cy="323.07" rx="112.17" ry="45.96"/>
			<ellipse class="st21" cx="209.59" cy="323.07" rx="111.27" ry="45.59"/>
			<ellipse class="st22" cx="209.59" cy="323.07" rx="110.37" ry="45.22"/>
			<ellipse class="st23" cx="209.59" cy="323.07" rx="109.47" ry="44.85"/>
			<ellipse class="st24" cx="209.59" cy="323.07" rx="108.56" ry="44.48"/>
			<ellipse class="st25" cx="209.59" cy="323.07" rx="107.66" ry="44.11"/>
			<ellipse class="st26" cx="209.59" cy="323.07" rx="106.76" ry="43.74"/>
			<ellipse class="st27" cx="209.59" cy="323.07" rx="105.85" ry="43.37"/>
			<ellipse class="st28" cx="209.59" cy="323.07" rx="104.95" ry="43"/>
			<ellipse class="st29" cx="209.59" cy="323.07" rx="104.05" ry="42.63"/>
			<ellipse class="st30" cx="209.59" cy="323.07" rx="103.15" ry="42.26"/>
			<ellipse class="st31" cx="209.59" cy="323.07" rx="102.24" ry="41.89"/>
			<ellipse class="st32" cx="209.59" cy="323.07" rx="101.34" ry="41.52"/>
			<ellipse class="st33" cx="209.59" cy="323.07" rx="100.44" ry="41.15"/>
			<ellipse class="st34" cx="209.59" cy="323.07" rx="99.53" ry="40.78"/>
			<ellipse class="st35" cx="209.59" cy="323.07" rx="98.63" ry="40.41"/>
			<ellipse class="st36" cx="209.59" cy="323.07" rx="97.73" ry="40.04"/>
		</g>
		<g>
			<g>
				<g>
					<polygon class="st37" points="256.2,66.34 256.14,68.25 252.19,189.15 245.9,187.14 238.89,184.87 234.44,183.45 230.84,74.72 
						230.6,67.1 232.41,66.16 247.59,58.32 254.67,64.92 					"/>
					<polygon class="st38" points="256.2,66.34 239.75,75.84 230.6,67.1 232.41,66.16 247.59,58.32 254.67,64.92 					"/>
					<polygon class="st39" points="239.75,75.84 242.22,185.06 238.89,184.37 234.44,183.45 230.84,74.72 230.6,67.1 					"/>
				</g>
				<polygon class="st40" points="230.58,66.81 239.74,75.56 256.19,66.06 239.48,72.9 				"/>
				<path class="st41" d="M254.67,64.92c-6.91,4.49-15.03,4.94-22.26,1.24l15.18-7.84L254.67,64.92z"/>
				<path class="st42" d="M238.54,156.55c0.26,9.28,0.51,18.57,0.35,27.82c0.01,0.18,0,0.34-0.01,0.51l-4.44-1.42l-3.6-108.73
					c0.33,1.12,0.58,2.24,0.74,3.13c0.55,2.71,1.11,5.43,1.66,8.16C237.93,109.38,237.86,132.55,238.54,156.55z"/>
				<path class="st43" d="M256.14,68.25l-3.96,120.9l-6.29-2.01c-0.78-17.4,0.06-34.83,0.94-52.17c0.34-6.43,0.69-12.87,1.16-19.27
					c0.84-11.09,2.04-22.17,4.27-32.82C253.32,77.85,254.61,72.98,256.14,68.25z"/>
			</g>
			<polygon class="st44" points="108.97,166.2 243.98,145.8 315.08,164.69 297.43,169.17 118.27,170.94 109.21,167.37 			"/>
			<g>
				<g>
					<path class="st39" d="M246.72,158.4l1.84-0.05l5.95-0.14c0.02,0,0.02,0,0.02,0l8.45-0.22c0,0,1.5,0.29,4.21-2.53
						c2.49-2.57,5.97-7.71,10.23-18c-5.96-33.53,5.51-56.62,7.01-59.44c0.1-0.18,0.16-0.29,0.16-0.29l-15.43-15.04
						c0,0-0.03,0.03-0.08,0.06l-0.28,0.14c-1.29,0.74-5.83,3.33-11.61,6.83c-1.71,1.05-3.55,2.18-5.44,3.38
						c-4.27,11.97-4.97,78.63-5.03,84.84C246.71,158.24,246.72,158.4,246.72,158.4z"/>
					<polygon class="st38" points="251.75,73.09 264.29,85.89 284.59,77.72 280.89,74.11 269.16,62.68 253.63,71.97 					"/>
					<path class="st45" d="M246.72,158.4c0,0,0.64,0.08,1.77,0.1c1.38,0.05,3.49,0.02,6.02-0.3c0.02,0,0.02,0,0.02,0
						c2.88-0.37,6.34-1.08,9.96-2.45c-6.62-27.92-0.2-69.85-0.2-69.85s-0.05-0.06-0.16-0.16c-0.28-0.31-0.97-1.06-2.19-2.34
						c-1.92-1.98-5.16-5.29-10.19-10.3c-6.3,12.32-5.16,78.66-5.03,84.84C246.71,158.24,246.72,158.4,246.72,158.4z"/>
				</g>
				<path class="st42" d="M267.19,155.45c2.49-2.57,5.97-7.71,10.23-18c-5.96-33.53,5.51-56.62,7.01-59.44
					c-0.51,0.13-1.05,0.37-1.65,0.71c-3.88,2.12-6.88,6-9.07,10.48c-0.25,0.51-0.49,1.03-0.72,1.56
					c-4.33,10.05-6.3,22.61-7.16,34.11c-0.46,6.06-0.53,12.23-0.13,18.38C265.77,144.15,266.52,150.47,267.19,155.45z"/>
				<path class="st46" d="M246.72,158.4c0,0,0.64,0.08,1.77,0.1l0.01-0.03c0.01-0.05,0.04-0.08,0.05-0.13
					c1.07-2.59,1.7-5.43,2.17-8.31c2.84-17.64-0.6-37.17,4.66-53.74c1.5-4.76,3.72-9.12,6.5-12.84c0.01-0.03,0.03-0.05,0.05-0.06
					c-1.92-1.98-5.16-5.29-10.19-10.3c-6.3,12.32-5.16,78.66-5.03,84.84C246.71,158.24,246.72,158.4,246.72,158.4z"/>
				<path class="st41" d="M253.63,71.97c1.01,0.7,2.05,1.28,3.09,1.78c7.88,3.79,16.65,3.9,24.16,0.35l-11.72-11.43L253.63,71.97z"
					/>
				<polygon class="st40" points="284.43,78 264.29,85.89 251.75,73.09 264.46,81.83 				"/>
			</g>
			<g>
				<g>
					<polygon class="st37" points="203.8,74.83 203.85,77.16 206.37,224.36 198.62,221.45 189.97,218.18 184.49,216.13 
						173.54,83.24 172.78,73.92 174.92,72.9 192.86,64.42 201.85,72.98 					"/>
					<polygon class="st38" points="203.8,74.83 184.42,85.24 172.78,73.92 174.92,72.9 192.86,64.42 201.85,72.98 					"/>
					<polygon class="st39" points="184.42,85.24 194.03,218.64 189.95,217.56 184.49,216.13 173.54,83.24 172.78,73.92 					"/>
				</g>
				<polygon class="st40" points="172.73,73.56 184.39,84.89 203.77,74.49 183.91,81.63 				"/>
				<path class="st41" d="M201.85,72.98c-8.12,4.99-17.94,4.95-26.93-0.08l17.94-8.48L201.85,72.98z"/>
				<path class="st42" d="M187.84,183.6c0.87,11.33,1.75,22.69,2.11,33.96c0.02,0.22,0.02,0.42,0.02,0.62l-5.48-2.05L173.54,83.24
					c0.47,1.39,0.83,2.78,1.09,3.87c0.83,3.34,1.67,6.71,2.51,10.08C184.24,126.02,185.56,154.28,187.84,183.6z"/>
				<path class="st43" d="M203.85,77.16l2.53,147.2l-7.75-2.91c-2-21.28-2.03-42.49-2.03-63.58c0.02-7.83,0.05-15.65,0.24-23.43
					c0.34-13.47,1.14-26.9,3.2-39.73C201,88.66,202.28,82.82,203.85,77.16z"/>
			</g>
			<g>
				<g>
					<polygon class="st37" points="165.92,69.38 166.35,71.28 193.14,191.63 184.97,192.05 175.87,192.49 170.1,192.79 
						137.32,87.29 135.02,79.89 136.98,78.27 153.36,64.77 163.68,68.57 					"/>
					<polygon class="st38" points="165.92,69.38 148.42,84.99 135.02,79.89 136.98,78.27 153.36,64.77 163.68,68.57 					"/>
					<polygon class="st39" points="148.42,84.99 179.96,191.41 175.74,192 170.1,192.79 137.32,87.29 135.02,79.89 					"/>
				</g>
				<polygon class="st40" points="134.92,79.61 148.34,84.71 165.84,69.11 147.33,82.21 				"/>
				<path class="st41" d="M163.68,68.57c-7.22,7.05-16.97,10.59-26.7,9.71l16.38-13.5L163.68,68.57z"/>
				<path class="st42" d="M168.05,164.79c2.73,9.02,5.48,18.06,7.69,27.21c0.06,0.18,0.09,0.34,0.13,0.5l-5.77,0.3l-32.78-105.5
					c0.7,0.97,1.29,1.99,1.72,2.79c1.38,2.45,2.76,4.92,4.15,7.39C154.98,118.65,160.95,141.46,168.05,164.79z"/>
				<path class="st43" d="M166.35,71.28l26.79,120.35l-8.17,0.42c-5.49-16.81-9.03-34.26-12.5-51.64
					c-1.27-6.45-2.53-12.91-3.63-19.39c-1.88-11.22-3.31-22.58-3.38-33.89C165.43,81.79,165.73,76.51,166.35,71.28z"/>
			</g>
			<g>
				<g>
					<polygon class="st38" points="233.44,80.57 199.5,79.92 201.6,76.01 204.89,69.88 228.07,69.7 228.19,69.95 					"/>
					<polygon class="st46" points="233.44,80.57 230.4,190.6 224.39,190.43 210.82,190.04 199.52,80.08 199.5,79.92 					"/>
				</g>
				<path class="st47" d="M224.39,190.43l-13.57-0.39l-11.3-109.95c7.25,4.9,12.07,17.49,14.48,25.9
					c3.02,10.65,4.18,21.91,5.53,33.06C221.61,156.07,224.25,173.25,224.39,190.43z"/>
				<path class="st41" d="M228.19,69.95c-0.99,0.6-2,1.17-3.01,1.74c-5.83,3.35-16.24,7.21-23.58,4.31l3.29-6.13l23.18-0.18
					L228.19,69.95z"/>
				<polygon class="st48" points="204.88,69.88 228.07,69.69 233.45,80.58 226.74,71.23 				"/>
			</g>
			<g>
				<g>
					<polygon class="st38" points="234.04,156.3 201.74,157.6 203.82,153.5 207.09,147.07 229.17,145.55 229.27,145.8 					"/>
					<polygon class="st46" points="234.04,156.3 228.71,268.37 222.99,268.55 210.08,268.93 201.75,157.76 201.74,157.6 					"/>
				</g>
				<path class="st47" d="M222.99,268.55l-12.91,0.39l-8.33-111.17c6.79,4.56,11.1,17.09,13.21,25.5
					c2.64,10.65,3.49,22.04,4.53,33.3C221.1,233.77,223.24,251.08,222.99,268.55z"/>
				<path class="st41" d="M229.27,145.8c-0.95,0.66-1.93,1.3-2.9,1.95c-5.63,3.74-15.62,8.27-22.55,5.75l3.27-6.43l22.08-1.52
					L229.27,145.8z"/>
				<polygon class="st40" points="207.09,147.08 229.17,145.54 234.05,156.3 227.87,147.18 				"/>
			</g>
			<g>
				<polygon class="st47" points="223.67,113.86 213.02,218.86 194.87,218.69 193.13,113.94 200.89,110.58 211.41,106.01 				"/>
				<polygon class="st49" points="223.67,113.86 222.7,123.45 213.02,218.86 208.8,218.67 203.24,218.43 207.1,123.2 				"/>
				<path class="st50" d="M222.7,123.45l-9.68,95.41l-4.21-0.19c-0.98-4.37-1.3-9.08-1.47-13.66c-0.53-15.11,0.25-30.37,3.12-45.13
					c1.06-5.49,2.41-10.92,4.07-16.22c1.53-4.84,3.32-9.57,5.38-14.12C220.66,127.86,221.53,125.4,222.7,123.45z"/>
				<path class="st51" d="M207.49,116.86c0.08,2.49-2.16,5.44-2.88,7.76c-2.32,7.38-3.57,15.17-4.39,22.97
					c-0.45,4.45-0.78,8.89-1.06,13.34c-0.59,9.53-1.04,19.08-1.35,28.63c-0.31,9.74-0.47,19.5,0.35,29.17l-3.3-0.03l-1.75-104.75
					l7.76-3.37c0.43,0.15,0.86,0.32,1.27,0.5C204.38,112,207.38,113.46,207.49,116.86z"/>
				<polygon class="st38" points="223.67,113.86 207.1,123.2 193.13,113.94 195.95,112.73 211.41,106.01 220.17,111.62 				"/>
				<path class="st52" d="M220.17,111.62c-4.19,1.71-8.57,2.83-12.98,2.96c-1.78,0.05-7.73-0.05-11.24-1.85l15.46-6.71
					L220.17,111.62z"/>
				<polygon class="st40" points="211.41,105.84 193.13,113.76 207.1,123.03 197.17,113.8 				"/>
			</g>
			<g>
				<g>
					<polygon class="st38" points="309.7,87.07 280.49,80.66 282.97,77.35 286.87,72.17 306.92,75.96 306.97,76.22 					"/>
					<polygon class="st46" points="309.7,87.07 288.22,189.64 283.06,188.46 271.4,185.77 280.48,80.81 280.49,80.66 					"/>
				</g>
				<path class="st47" d="M283.06,188.46l-11.65-2.69l9.07-104.96c5.42,5.83,7.43,18.45,8.07,26.74
					c0.79,10.49-0.14,21.24-0.89,31.92C286.54,155.79,285.88,172.34,283.06,188.46z"/>
				<path class="st41" d="M306.97,76.22c-0.96,0.39-1.93,0.75-2.89,1.12c-5.61,2.14-15.26,3.98-21.11,0.01l3.89-5.18l20.05,3.79
					L306.97,76.22z"/>
				<polygon class="st40" points="286.86,72.17 306.92,75.95 309.7,87.08 305.51,77.17 				"/>
			</g>
			<g>
				<g>
					<polygon class="st38" points="146.75,102.62 118.38,109.98 119.26,105.65 120.64,98.84 139.88,93.2 140.03,93.42 					"/>
					<polygon class="st46" points="146.75,102.62 168.57,211.41 163.53,212.67 152.16,215.49 118.43,110.14 118.38,109.98 					"/>
				</g>
				<path class="st47" d="M163.53,212.67l-11.37,2.82l-33.73-105.35c7.11,3.1,13.91,14.33,17.77,22.03
					c4.87,9.75,8.32,20.54,11.91,31.17C153.61,179.57,159.62,195.82,163.53,212.67z"/>
				<path class="st41" d="M140.03,93.42c-0.69,0.82-1.4,1.62-2.11,2.42c-4.11,4.66-11.91,10.92-18.66,9.8l1.38-6.8l19.24-5.65
					L140.03,93.42z"/>
				<polygon class="st40" points="120.63,98.85 139.88,93.19 146.76,102.62 139.11,95.02 				"/>
			</g>
			<g>
				<g>
					<polygon class="st37" points="247.42,112.41 247.55,114.35 255.79,237.12 247.59,235.43 238.45,233.51 232.65,232.32 
						216.16,122.3 215.01,114.59 217.21,113.53 235.61,104.74 245.31,111.05 					"/>
					<polygon class="st38" points="247.42,112.41 227.59,122.94 215.01,114.59 217.21,113.53 235.61,104.74 245.31,111.05 					"/>
					<polygon class="st39" points="227.59,122.94 242.7,233.52 238.4,233 232.65,232.32 216.16,122.3 215.01,114.59 					"/>
				</g>
				<polygon class="st40" points="214.96,114.29 227.54,122.65 247.37,112.12 226.92,119.98 				"/>
				<path class="st41" d="M245.31,111.05c-8.28,4.94-18.53,5.84-28.1,2.49l18.4-8.79L245.31,111.05z"/>
				<path class="st42" d="M234.9,204.82c1.34,9.39,2.69,18.8,3.5,28.18c0.03,0.18,0.04,0.35,0.05,0.51l-5.79-1.19L216.16,122.3
					c0.55,1.11,0.98,2.24,1.29,3.13c1,2.71,2,5.45,3,8.18C228.96,157.04,231.41,180.53,234.9,204.82z"/>
				<path class="st43" d="M247.55,114.35l8.24,122.77l-8.2-1.69c-2.89-17.6-3.74-35.31-4.53-52.94c-0.28-6.54-0.54-13.08-0.64-19.6
					c-0.15-11.29,0.16-22.59,1.82-33.5C245.02,124.23,246.13,119.22,247.55,114.35z"/>
			</g>
			<g>
				<g>
					<polygon class="st37" points="197.8,113.72 197.38,115.62 169.8,235.78 162.29,232.45 153.93,228.7 148.63,226.35 
						164.46,116.78 165.57,109.1 168.03,108.54 188.51,103.88 196.15,111.97 					"/>
					<polygon class="st38" points="197.8,113.72 175.41,119.77 165.57,109.1 168.03,108.54 188.51,103.88 196.15,111.97 					"/>
					<polygon class="st39" points="175.41,119.77 158.07,229.59 154.03,228.2 148.63,226.35 164.46,116.78 165.57,109.1 					"/>
				</g>
				<polygon class="st40" points="165.61,108.8 175.46,119.49 197.85,113.44 175.62,116.77 				"/>
				<path class="st41" d="M196.15,111.97c-9.51,3.04-19.76,1.78-28.12-3.43l20.49-4.66L196.15,111.97z"/>
				<path class="st42" d="M158.79,200.29c-1.41,9.34-2.83,18.69-4.76,27.91c-0.02,0.18-0.06,0.34-0.1,0.5l-5.3-2.35l15.83-109.57
					c0.21,1.19,0.3,2.37,0.35,3.28c0.19,2.82,0.37,5.67,0.55,8.52C166.86,152.95,162.43,176.13,158.79,200.29z"/>
				<path class="st43" d="M197.38,115.62L169.8,235.78l-7.51-3.34c2.28-17.58,6.6-34.85,10.94-52.02
					c1.62-6.37,3.27-12.74,5.06-19.04c3.12-10.93,6.71-21.76,11.5-31.94C192.04,124.63,194.57,120.03,197.38,115.62z"/>
			</g>
			<g>
				<g>
					<polygon class="st37" points="271.34,134.5 271.14,136.12 258.45,238.67 251.26,236.46 243.26,233.97 238.18,232.41 
						241.27,139.61 241.49,133.11 243.66,132.45 261.85,126.98 269.65,133.16 					"/>
					<polygon class="st38" points="271.34,134.5 251.56,141.27 241.49,133.11 243.66,132.45 261.85,126.98 269.65,133.16 					"/>
					<polygon class="st39" points="251.56,141.27 247.13,234.39 243.3,233.54 238.18,232.41 241.27,139.61 241.49,133.11 					"/>
				</g>
				<polygon class="st40" points="241.49,132.85 251.57,141.03 271.35,134.26 251.44,138.75 				"/>
				<path class="st41" d="M269.65,133.16c-8.35,3.27-17.83,3.01-25.98-0.71l18.19-5.47L269.65,133.16z"/>
				<path class="st42" d="M244.75,209.84c-0.32,7.91-0.65,15.84-1.45,23.69c0,0.16-0.02,0.29-0.04,0.43l-5.08-1.56l3.09-92.8
					c0.31,0.98,0.52,1.96,0.66,2.72c0.46,2.35,0.92,4.71,1.39,7.08C247.2,169.66,245.56,189.37,244.75,209.84z"/>
				<path class="st43" d="M271.14,136.12l-12.69,102.55l-7.19-2.21c0.26-14.87,2.4-29.63,4.58-44.32c0.82-5.45,1.66-10.9,2.64-16.31
					c1.72-9.37,3.86-18.7,7.17-27.58C267.22,144.06,269.05,140.02,271.14,136.12z"/>
			</g>
			<g>
				<polygon class="st47" points="196.88,99.15 187.32,215.14 164.45,215.51 158.4,100.17 168.05,96.22 181.13,90.87 				"/>
				<polygon class="st49" points="196.88,99.15 196.01,109.74 187.32,215.14 182.01,215.06 174.99,214.97 176.34,109.94 				"/>
				<path class="st50" d="M196.01,109.74l-8.69,105.4l-5.32-0.08c-1.4-4.79-1.98-9.96-2.36-15c-1.23-16.62-0.8-33.46,2.27-49.81
					c1.13-6.09,2.63-12.11,4.53-18c1.75-5.38,3.83-10.64,6.26-15.72C193.6,114.66,194.6,111.92,196.01,109.74z"/>
				<path class="st51" d="M176.61,102.94c0.19,2.74-2.53,6.06-3.34,8.63c-2.65,8.2-3.93,16.83-4.68,25.44
					c-0.41,4.91-0.66,9.82-0.85,14.73c-0.39,10.51-0.61,21.05-0.65,31.58c-0.04,10.74,0.12,21.5,1.52,32.12l-4.16,0.07l-6.06-115.34
					l9.66-3.95c0.55,0.15,1.09,0.33,1.62,0.51C172.5,97.69,176.33,99.2,176.61,102.94z"/>
				<polygon class="st38" points="196.88,99.15 176.34,109.94 158.4,100.17 161.91,98.74 181.13,90.87 192.38,96.78 				"/>
				<path class="st52" d="M192.38,96.78c-5.22,2.02-10.69,3.38-16.24,3.66c-2.24,0.11-9.74,0.18-14.23-1.7l19.23-7.87L192.38,96.78z
					"/>
				<polygon class="st53" points="181.14,90.69 158.4,99.97 176.34,109.75 163.48,99.89 				"/>
			</g>
			<g>
				<g>
					<polygon class="st37" points="295.83,100.89 295.49,102.81 274.87,224 282.85,223.04 291.75,221.95 297.38,221.27 
						324.52,113.47 326.42,105.91 324.44,104.67 307.86,94.32 297.97,99.73 					"/>
					<polygon class="st38" points="295.83,100.89 313.59,113.1 326.42,105.91 324.44,104.67 307.86,94.32 297.97,99.73 					"/>
					<polygon class="st39" points="313.59,113.1 287.71,221.58 291.85,221.44 297.38,221.27 324.52,113.47 326.42,105.91 					"/>
				</g>
				<polygon class="st40" points="326.51,105.62 313.66,112.82 295.9,100.61 314.54,110.21 				"/>
				<path class="st41" d="M297.97,99.73c7.36,5.63,17.02,7.42,26.47,4.94l-16.58-10.35L297.97,99.73z"/>
				<path class="st42" d="M298.11,193.77c-2.25,9.2-4.51,18.43-6.26,27.67c-0.05,0.18-0.07,0.34-0.1,0.51l5.64-0.68l27.14-107.8
					c-0.64,1.06-1.16,2.14-1.55,2.99c-1.23,2.61-2.47,5.23-3.71,7.86C308.74,146.84,303.96,169.95,298.11,193.77z"/>
				<path class="st43" d="M295.49,102.81L274.87,224l7.98-0.96c4.58-17.22,7.24-34.74,9.82-52.17c0.95-6.47,1.88-12.95,2.65-19.41
					c1.32-11.2,2.2-22.45,1.75-33.43C296.87,112.84,296.34,107.78,295.49,102.81z"/>
			</g>
			<g>
				<g>
					<polygon class="st37" points="237.68,90.79 237.56,93.12 230.43,240.15 238.27,237.5 247.01,234.52 252.55,232.65 
						267.67,100.2 268.72,90.91 266.61,89.82 248.94,80.75 239.69,89.01 					"/>
					<polygon class="st38" points="237.68,90.79 256.73,101.83 268.72,90.91 266.61,89.82 248.94,80.75 239.69,89.01 					"/>
					<polygon class="st39" points="256.73,101.83 242.94,234.85 247.06,233.91 252.55,232.65 267.67,100.2 268.72,90.91 					"/>
				</g>
				<polygon class="st40" points="268.78,90.55 256.77,101.49 237.72,90.45 257.35,98.25 				"/>
				<path class="st41" d="M239.69,89.01c7.96,5.25,17.78,5.54,26.92,0.81l-17.67-9.07L239.69,89.01z"/>
				<path class="st42" d="M250.23,200.04c-1.23,11.3-2.46,22.62-3.17,33.87c-0.03,0.22-0.04,0.42-0.04,0.62l5.54-1.87l15.11-132.46
					c-0.52,1.37-0.92,2.75-1.21,3.83c-0.94,3.31-1.88,6.65-2.83,9.99C255.63,142.6,253.43,170.8,250.23,200.04z"/>
				<path class="st43" d="M237.56,93.12l-7.14,147.04l7.84-2.65c2.66-21.21,3.36-42.4,4.02-63.48c0.23-7.82,0.44-15.65,0.49-23.42
					c0.08-13.48-0.29-26.93-1.95-39.81C240.05,104.71,238.96,98.82,237.56,93.12z"/>
			</g>
			<g>
				<polygon class="st47" points="289.23,98.15 277.39,213.89 257.07,213.73 255.03,98.27 263.72,94.55 275.49,89.51 				"/>
				<polygon class="st49" points="289.23,98.15 288.15,108.72 277.39,213.89 272.67,213.69 266.44,213.43 270.68,108.46 				"/>
				<path class="st50" d="M288.15,108.72l-10.76,105.17l-4.72-0.2c-1.1-4.82-1.47-10.01-1.66-15.05
					c-0.61-16.65,0.26-33.47,3.46-49.74c1.18-6.06,2.69-12.04,4.54-17.89c1.71-5.33,3.71-10.55,6.01-15.57
					C285.87,113.59,286.84,110.87,288.15,108.72z"/>
				<path class="st51" d="M271.12,101.47c0.09,2.74-2.42,6-3.21,8.55c-2.59,8.14-3.98,16.73-4.89,25.32
					c-0.5,4.9-0.87,9.8-1.18,14.71c-0.65,10.5-1.15,21.03-1.49,31.56c-0.34,10.74-0.51,21.5,0.42,32.15l-3.7-0.03l-2.04-115.46
					l8.69-3.72c0.48,0.17,0.96,0.36,1.42,0.55C267.63,96.12,270.99,97.73,271.12,101.47z"/>
				<polygon class="st38" points="289.23,98.15 270.68,108.46 255.03,98.27 258.19,96.92 275.49,89.51 285.3,95.68 				"/>
				<path class="st52" d="M285.3,95.68c-4.69,1.89-9.59,3.13-14.53,3.27c-1.99,0.05-8.65-0.05-12.58-2.03l17.3-7.41L285.3,95.68z"/>
				<polygon class="st40" points="275.5,89.32 255.04,98.07 270.68,108.27 259.56,98.1 				"/>
			</g>
			<g>
				<g>
					<path class="st39" d="M165.6,207.88l-1.81,0.71l-5.84,2.33c-0.02,0-0.02,0-0.02,0l-8.29,3.3c0,0-1.36,0.89-4.96-0.63
						c-3.29-1.37-8.44-4.74-16.08-12.61c-5.63-33.84-24.67-50.69-27.09-52.71c-0.16-0.13-0.25-0.2-0.25-0.2l9.87-20.46
						c0,0,0.04,0.01,0.1,0.02l0.32,0.02c1.51,0.16,6.8,0.7,13.62,1.58c2.02,0.27,4.2,0.57,6.45,0.91
						c8.23,9.43,31.65,71.51,33.82,77.29C165.55,207.73,165.6,207.88,165.6,207.88z"/>
					<polygon class="st38" points="131.62,130.15 123.79,147.32 101.26,148.08 103.63,143.17 111.13,127.62 129.4,129.88 					"/>
					<path class="st45" d="M165.6,207.88c0,0-0.59,0.34-1.69,0.83c-1.33,0.62-3.39,1.46-5.96,2.22c-0.02,0-0.02,0-0.02,0
						c-2.93,0.84-6.54,1.62-10.52,1.83c-3.09-28.87-23.63-65.44-23.63-65.44s0.03-0.08,0.1-0.22c0.17-0.4,0.58-1.39,1.33-3.09
						c1.19-2.65,3.21-7.09,6.4-13.86c10.33,8.91,31.83,71.46,33.82,77.29C165.55,207.73,165.6,207.88,165.6,207.88z"/>
				</g>
				<path class="st42" d="M144.68,213.61c-3.29-1.37-8.44-4.74-16.08-12.61c-5.63-33.84-24.67-50.69-27.09-52.71
					c0.54-0.08,1.15-0.09,1.85-0.02c4.5,0.38,8.74,2.77,12.39,6.05c0.42,0.38,0.82,0.76,1.23,1.16c7.64,7.6,13.83,18.55,18.59,28.95
					c2.52,5.48,4.69,11.22,6.39,17.14C142.22,202.44,143.64,208.67,144.68,213.61z"/>
				<path class="st46" d="M165.6,207.88c0,0-0.59,0.34-1.69,0.83l-0.02-0.02c-0.03-0.04-0.07-0.06-0.1-0.1
					c-1.92-1.98-3.51-4.37-4.95-6.88c-8.77-15.33-12.09-35.03-22.86-48.35c-3.08-3.83-6.72-6.99-10.7-9.32
					c-0.02-0.02-0.05-0.04-0.06-0.03c1.19-2.65,3.21-7.09,6.4-13.86c10.33,8.91,31.83,71.46,33.82,77.29
					C165.55,207.73,165.6,207.88,165.6,207.88z"/>
				<path class="st41" d="M129.4,129.88c-0.74,1.07-1.55,2.04-2.4,2.95c-6.37,6.81-14.86,10.55-23.37,10.34l7.5-15.55L129.4,129.88z
					"/>
				<polygon class="st40" points="101.51,148.29 123.79,147.32 131.62,130.15 122.24,143.6 				"/>
			</g>
			<g>
				<g>
					<path class="st39" d="M238.97,225.76l1.89,0.45l6.11,1.49c0.02,0,0.02,0,0.02,0l8.68,2.1c0,0,1.46,0.69,4.96-1.29
						c3.21-1.8,8.12-5.8,15.16-14.56c2.71-33.97,20.49-53.1,22.76-55.41c0.15-0.15,0.24-0.23,0.24-0.23l-11.79-18.73
						c0,0-0.04,0.02-0.1,0.04l-0.32,0.06c-1.51,0.36-6.82,1.61-13.64,3.41c-2.02,0.54-4.2,1.13-6.44,1.77
						c-7.5,10.37-25.71,74.48-27.4,80.45C239,225.6,238.97,225.76,238.97,225.76z"/>
					<polygon class="st38" points="266.49,144.86 275.93,160.63 298.79,158.31 295.95,153.81 286.99,139.58 268.71,144.29 					"/>
					<path class="st45" d="M238.97,225.76c0,0,0.63,0.25,1.78,0.58c1.4,0.42,3.56,0.97,6.22,1.36c0.02,0,0.02,0,0.02,0
						c3.04,0.43,6.75,0.69,10.8,0.36c0.58-28.74,18.13-67.43,18.13-67.43s-0.03-0.07-0.12-0.2c-0.2-0.37-0.71-1.29-1.62-2.85
						c-1.44-2.44-3.87-6.52-7.7-12.73c-9.67,10.15-25.9,74.46-27.4,80.45C239,225.6,238.97,225.76,238.97,225.76z"/>
				</g>
				<path class="st42" d="M260.63,228.52c3.21-1.8,8.12-5.8,15.16-14.56c2.71-33.97,20.49-53.1,22.76-55.41
					c-0.55-0.01-1.17,0.07-1.87,0.23c-4.52,0.98-8.6,3.91-12,7.62c-0.39,0.43-0.77,0.86-1.14,1.31
					c-7.06,8.5-12.36,20.08-16.26,30.94c-2.06,5.72-3.75,11.65-4.96,17.69C262.14,217.22,261.25,223.53,260.63,228.52z"/>
				<path class="st46" d="M238.97,225.76c0,0,0.63,0.25,1.78,0.58l0.02-0.02c0.02-0.04,0.06-0.06,0.09-0.11
					c1.77-2.2,3.16-4.77,4.4-7.42c7.53-16.23,9.14-36.02,18.86-50.56c2.77-4.18,6.18-7.78,10-10.61c0.02-0.02,0.04-0.04,0.06-0.04
					c-1.44-2.44-3.87-6.52-7.7-12.73c-9.67,10.15-25.9,74.46-27.4,80.45C239,225.6,238.97,225.76,238.97,225.76z"/>
				<path class="st41" d="M268.71,144.29c0.84,0.95,1.75,1.79,2.69,2.56c7.05,5.82,15.97,8.32,24.56,6.96l-8.96-14.23L268.71,144.29
					z"/>
				<polygon class="st40" points="298.55,158.54 275.93,160.63 266.49,144.86 277.17,156.77 				"/>
			</g>
			<g>
				<path class="st39" d="M185.64,207.45l-0.63,0.1l-5,0.75c0,0-1.27-0.31-3.26-1.06c-6.09-2.35-18.94-8.88-22.05-23.46
					c-2.6-12.27-8.85-22.96-13.04-29.1c-2.41-3.53-4.16-5.58-4.16-5.58l20.91-2.3l6.42-0.72L185.64,207.45z"/>
				<polygon class="st46" points="185.64,207.45 185.01,207.55 180.01,208.3 158.45,156.62 159.88,154.25 164.84,146.08 				"/>
				<path class="st42" d="M176.75,207.25c-6.09-2.35-18.94-8.88-22.05-23.46c-2.6-12.27-8.85-22.96-13.04-29.1
					c0.24,0.18,0.46,0.37,0.68,0.55c5.13,4.38,10.01,9.28,14.6,14.67C165.21,179.6,173.77,192.36,176.75,207.25z"/>
				<path class="st47" d="M185.64,207.45l-0.63,0.1c-2.51-4.78-3.74-10.6-5.54-15.95c-1.66-4.93-3.83-9.53-6-14.09
					c-3.51-7.45-7.11-15.03-11.84-21.16c-0.56-0.71-1.18-1.38-1.74-2.1c-0.38-0.46-0.74-0.94-1.04-1.5c-0.5-0.9-0.81-1.97-0.79-3.32
					c0.03-0.88,0.15-1.77,0.37-2.63c0.25-1.03,0.61-2.03,1.09-2.94l5.33,2.22L185.64,207.45z"/>
				<polygon class="st38" points="164.84,146.08 159.88,154.25 158.45,156.62 137.51,149.11 138.73,147.28 145.03,137.8 
					159.46,143.84 159.51,143.87 				"/>
				<path class="st41" d="M164.84,146.08l-4.96,8.17l-1.44,2.36l-20.94-7.51l1.22-1.83c1.98,0.42,3.98,0.84,6.01,0.98
					c2.49,0.16,5.01-0.01,7.46-0.78c2.51-0.77,4.91-2.15,7.26-3.64l0.05,0.02L164.84,146.08z"/>
				<polygon class="st54" points="137.51,149.16 158.44,156.68 164.84,146.14 158.13,153.58 				"/>
			</g>
			<g>
				<path class="st46" d="M231.73,134.9l-0.02,0.02c-0.1,0.14-0.21,0.25-0.29,0.42c-0.44,0.67-1.33,1.96-2.56,3.81
					c-0.02,0.02-0.04,0.07-0.08,0.12c-4.04,6.15-11.55,17.85-17.69,29.42c-3.52,6.62-6.57,13.19-8.28,18.67
					c-3.47,11.04-6.66,25.1-8.74,35.14c0,0.05-0.02,0.09-0.02,0.12c-1.32,6.38-2.21,11.09-2.43,12.35
					c-0.04,0.21-0.07,0.33-0.07,0.33s-0.12,0.07-0.35,0.16c-0.14,0.07-0.31,0.14-0.51,0.23c-0.02,0-0.02,0.02-0.04,0.02
					c-0.72,0.32-1.82,0.82-3.13,1.39l-14.64,6.62l-0.76,0.34l-8.32-9.37c0,0,2.14-14.28,6.51-32.56
					c6.09-25.26,16.44-58.16,31.38-71.73l11.08-2.14l6.23-1.2L231.73,134.9z"/>
				<path class="st55" d="M231.71,134.92c-0.1,0.14-0.21,0.25-0.29,0.42c-0.75,0.99-1.6,2.26-2.56,3.81
					c-0.02,0.02-0.04,0.07-0.08,0.12c-5.96,9.62-15.65,28.95-22.63,47.49c-8.72,23.2-13.86,45.28-14.54,48.21
					c-0.04,0.21-0.07,0.33-0.07,0.33s-0.12,0.07-0.35,0.16c-0.14,0.07-0.31,0.14-0.51,0.23c-0.02,0-0.02,0.02-0.04,0.02
					c-0.72,0.32-1.82,0.82-3.13,1.39c-4.6,1.98-11.83,4.9-14.41,4.76c-0.24-0.03-0.47-0.07-0.61-0.12
					c16.04-74.67,42.21-100,42.21-100S221.17,139.06,231.71,134.92z"/>
				<path class="st42" d="M216,163.52c-3.97,8.22-8.02,17.46-11.43,26.5c-4.5,11.93-8.03,23.6-10.51,32.48
					c0,0.05-0.02,0.09-0.02,0.12c-1.59,5.75-2.74,10.32-3.4,13.08c-0.72,0.32-1.82,0.82-3.13,1.39l-14.64,6.62
					c0.07-0.63,0.14-1.23,0.23-1.86c1.16-7.5,4.2-14.89,7.19-21.84c5.29-12.32,9.5-25.1,17.14-35.89
					c4.05-5.68,9.02-10.41,13.65-15.44c0.19-0.18,0.35-0.39,0.54-0.58c0.08-0.12,0.19-0.21,0.27-0.3
					C213.24,166.33,214.58,164.85,216,163.52z"/>
				<path class="st47" d="M213.78,133.49c-1.18,1.41-2.6,2.65-4.12,3.85c-2.82,2.21-5.94,4.23-8.35,6.72
					c-7.68,7.84-14.06,17.34-18.72,27.83c-2.47,5.6-4.45,11.49-6.71,17.22c-1.74,4.4-3.63,8.71-5.57,13.02
					c6.09-25.26,16.44-58.16,31.38-71.73l11.08-2.14C214.35,129.96,215.38,131.6,213.78,133.49z"/>
				<path class="st38" d="M231.73,134.9l-0.02,0.02l-14.41,5.76c-0.55,0.23-1.04,0.41-1.43,0.57c-0.76,0.32-1.17,0.48-1.17,0.48
					l-5.05-4.39l-7.97-6.95l0.65-0.13l10.43-2l6.23-1.2l7.86,4.86L231.73,134.9z"/>
				<path class="st41" d="M226.87,131.9c-4.29,1.8-9.19,2.06-13.81,1.65c-2.7-0.23-5.41-0.72-7.97-1.81
					c-0.95-0.4-1.85-0.9-2.74-1.49l10.43-2l6.23-1.2L226.87,131.9z"/>
				<polygon class="st40" points="201.94,130.39 219.26,127.05 231.96,134.92 218.88,128.88 				"/>
			</g>
			<g>
				<path class="st56" d="M187.1,361.62c0,0-57.2-17.75-66.14-55.29c-0.07-0.26-0.13-0.49-0.18-0.75
					c-8.36-38.06-11.82-139.22-11.82-139.22l31.02,16.99l20.79,11.4L187.1,361.62z"/>
				<path class="st57" d="M300.47,320.87C281.1,351.3,196.9,364.81,187.1,361.62c-1.37-0.43-2.86-3.98-4.4-9.74
					c-1.48-5.43-3-12.81-4.54-21.48c-8.56-48.32-17.38-135.65-17.38-135.65l17.59-1.76c0,0,13.15,15.75,32.18,24.58
					c11.38,5.29,24.87,8.12,38.88,3.6c28.51-9.14,41.42-34.38,45.97-45.93c1.42-3.64,2.03-5.91,2.03-5.91l17.66-4.48
					C315.08,164.86,313.26,298.91,300.47,320.87z"/>
				<path class="st58" d="M300.47,320.87C281.1,351.3,196.9,364.81,187.1,361.62c-1.37-0.43-2.86-3.98-4.4-9.74
					c23.91-14.28,43.66-34.75,59.46-57.45c16.89-24.25,29.52-51.07,40.97-78.18c3.89-9.24,7.69-18.59,10.01-28.31
					c1-4.2,1.74-8.44,2.26-12.69c1.42-3.64,2.03-5.91,2.03-5.91l17.66-4.48C315.08,164.86,313.26,298.91,300.47,320.87z"/>
				<path class="st59" d="M210.54,217.58c-0.52,2.6-0.99,5.1-1.31,7.5c-1.87,13.47-3.73,26.93-7.05,40.13
					c-3.62,14.47-8.92,28.48-14.37,42.43c-3.01,7.67-6.06,15.35-9.66,22.78c-8.56-48.32-17.38-135.65-17.38-135.65l17.59-1.76
					C178.36,193,191.52,208.75,210.54,217.58z"/>
				<path class="st60" d="M137.87,256.98c-1.76,10.12-4.26,20.11-7.59,29.87c-2.33,6.81-5.15,13.62-9.32,19.48
					c-0.07-0.26-0.13-0.49-0.18-0.75c-8.36-38.06-11.82-139.22-11.82-139.22l31.02,16.99c0.47,6.14,1.15,12.31,1.33,18.45
					C141.89,220.24,141.06,238.76,137.87,256.98z"/>
				<path class="st61" d="M160.78,194.76c0,0,16.52,144.29,25.33,162.98c3.5,3.91,67.47-4,104.02-31.93
					c-14.78,6.44-70.4,36.9-99.58,27.33C178.45,349.16,160.78,194.76,160.78,194.76z"/>
				<path class="st44" d="M108.96,166.37l51.81,28.39l17.59-1.76c0,0,28.54,35.73,62.13,30.43c35.04-5.52,50.15-33.05,56.93-54.09
					c8.69-2.14,17.66-4.48,17.66-4.48l-3.07-0.75l-16.07,3.67c0,0-8.92,45.81-56.61,53.7c-19.08,3.16-35.23-6.3-59.42-29.77
					c-10.71,0.19-18.6,0.74-18.6,0.74L108.96,166.37z"/>
				<path class="st44" d="M108.96,166.37c0,0,2.05,129.43,16.72,153.21c14.67,23.78,61.42,42.05,61.42,42.05s-51.34-28-61.67-50.96
					C120.81,300.36,111.06,191.56,108.96,166.37z"/>
				<path class="st62" d="M157.16,192.22c0,0,15.93,149.51,11.75,150.63c-4.18,1.12-38.22-25.94-38.22-25.94s25.03,32.2,44.04,33.55
					C176.77,334.79,157.16,192.22,157.16,192.22z"/>
				<path class="st63" d="M271.79,212.57c-11.9,9.42-26.82,15.12-42.06,16.07c-8.85,0.55-17.88-0.44-26.5,1.61
					c-4.58,1.09-8.94,3.03-12.87,5.59c-4.17,2.72-7.91,6.2-10.3,10.51c-2.27,4.1-3.22,8.79-3.51,13.43
					c-0.9,14.37,4.16,28.35,9.16,41.85c1.81,4.89,3.64,9.84,6.61,14.16c7.54,10.98,21.18,18.37,34.58,19.49
					c15.44,1.29,37.41-5.02,48.75-15.52c11.32-10.48,18.72-24.81,24.52-38.74c10.47-25.16,10.69-54.71,9.91-81.5
					c-0.15-4.94-0.98-27.72-9.32-26.97c-5.52,0.5-7.47,12.58-9.47,16.4C286.56,198.04,279.89,206.15,271.79,212.57z"/>
			</g>
		</g>
	</g>
</g>
</svg>
