<?xml version="1.0" encoding="utf-8"?>
<!-- Generator: Adobe Illustrator 24.1.2, SVG Export Plug-In . SVG Version: 6.00 Build 0)  -->
<svg version="1.1" xmlns="http://www.w3.org/2000/svg" xmlns:xlink="http://www.w3.org/1999/xlink" x="0px" y="0px"
	 viewBox="0 0 450 450" style="enable-background:new 0 0 450 450;" xml:space="preserve">
<style type="text/css">
	.st0{fill:#fffaf2;}
	.st1{opacity:0.13;}
	.st2{opacity:0;fill:#fffaf2;}
	.st3{opacity:0.0294;fill:#fffaf2;}
	.st4{opacity:0.0588;fill:#fffaf2;}
	.st5{opacity:0.0882;fill:#fffaf2;}
	.st6{opacity:0.1176;fill:#fffaf2;}
	.st7{opacity:0.1471;fill:#fffaf2;}
	.st8{opacity:0.1765;fill:#fffaf2;}
	.st9{opacity:0.2059;fill:#505F6C;}
	.st10{opacity:0.2353;fill:#4F5E6B;}
	.st11{opacity:0.2647;fill:#4E5D6A;}
	.st12{opacity:0.2941;fill:#4E5C69;}
	.st13{opacity:0.3235;fill:#4D5C68;}
	.st14{opacity:0.3529;fill:#4C5B67;}
	.st15{opacity:0.3824;fill:#4B5A66;}
	.st16{opacity:0.4118;fill:#4B5965;}
	.st17{opacity:0.4412;fill:#4A5864;}
	.st18{opacity:0.4706;fill:#495763;}
	.st19{opacity:0.5;fill:#495763;}
	.st20{opacity:0.5294;fill:#485662;}
	.st21{opacity:0.5588;fill:#475561;}
	.st22{opacity:0.5882;fill:#465460;}
	.st23{opacity:0.6176;fill:#46535F;}
	.st24{opacity:0.6471;fill:#45525E;}
	.st25{opacity:0.6765;fill:#44515D;}
	.st26{opacity:0.7059;fill:#43515C;}
	.st27{opacity:0.7353;fill:#43505B;}
	.st28{opacity:0.7647;fill:#424F5A;}
	.st29{opacity:0.7941;fill:#414E59;}
	.st30{opacity:0.8235;fill:#404D58;}
	.st31{opacity:0.8529;fill:#404C57;}
	.st32{opacity:0.8824;fill:#3F4B56;}
	.st33{opacity:0.9118;fill:#3E4B55;}
	.st34{opacity:0.9412;fill:#3D4A54;}
	.st35{opacity:0.9706;fill:#3D4953;}
	.st36{fill:#3C4852;}
	.st37{fill:#EBB83B;}
	.st38{fill:#FBCE5D;}
	.st39{fill:#E3AA1B;}
	.st40{opacity:0.39;fill:#FFFFFF;}
	.st41{fill:#FBD67B;}
	.st42{fill:#DE9F00;}
	.st43{fill:#F2BE3D;}
	.st44{fill:#BF3A46;}
	.st45{fill:#F2B724;}
	.st46{fill:#FBC02D;}
	.st47{fill:#FFC638;}
	.st48{opacity:0.54;fill:#FFFFFF;}
	.st49{fill:#E8AE1C;}
	.st50{fill:#E6A80E;}
	.st51{fill:#FFCB4A;}
	.st52{fill:#FBD471;}
	.st53{opacity:0.37;fill:#FFFFFF;}
	.st54{opacity:0.33;fill:#FFFFFF;}
	.st55{fill:#E3AE29;}
	.st56{fill:#C23B47;}
	.st57{fill:#E34554;}
	.st58{fill:#BD3945;}
	.st59{fill:#EB4757;}
	.st60{fill:#D1404D;}
	.st61{opacity:0.49;fill:#FF4D5E;}
	.st62{opacity:0.21;fill:#FF4D5E;}
	.st63{opacity:0.32;fill:#FF707E;}
</style>
<g id="background">
	<rect class="st0" width="450" height="450"/>
</g>
<g id="fast_food">
	<g>
		<g class="st1">
			<ellipse class="st2" cx="227.59" cy="303.85" rx="117.41" ry="41.91"/>
			<ellipse class="st3" cx="227.59" cy="303.85" rx="116.58" ry="41.61"/>
			<ellipse class="st4" cx="227.59" cy="303.85" rx="115.76" ry="41.32"/>
			<ellipse class="st5" cx="227.59" cy="303.85" rx="114.93" ry="41.02"/>
			<ellipse class="st6" cx="227.59" cy="303.85" rx="114.11" ry="40.73"/>
			<ellipse class="st7" cx="227.59" cy="303.85" rx="113.28" ry="40.44"/>
			<ellipse class="st8" cx="227.59" cy="303.85" rx="112.46" ry="40.14"/>
			<ellipse class="st9" cx="227.59" cy="303.85" rx="111.63" ry="39.85"/>
			<ellipse class="st10" cx="227.59" cy="303.85" rx="110.81" ry="39.55"/>
			<ellipse class="st11" cx="227.59" cy="303.85" rx="109.98" ry="39.26"/>
			<ellipse class="st12" cx="227.59" cy="303.85" rx="109.16" ry="38.96"/>
			<ellipse class="st13" cx="227.59" cy="303.85" rx="108.33" ry="38.67"/>
			<ellipse class="st14" cx="227.59" cy="303.85" rx="107.5" ry="38.37"/>
			<ellipse class="st15" cx="227.59" cy="303.85" rx="106.68" ry="38.08"/>
			<ellipse class="st16" cx="227.59" cy="303.85" rx="105.85" ry="37.78"/>
			<ellipse class="st17" cx="227.59" cy="303.85" rx="105.03" ry="37.49"/>
			<ellipse class="st18" cx="227.59" cy="303.85" rx="104.2" ry="37.19"/>
			<ellipse class="st19" cx="227.59" cy="303.85" rx="103.38" ry="36.9"/>
			<ellipse class="st20" cx="227.59" cy="303.85" rx="102.55" ry="36.61"/>
			<ellipse class="st21" cx="227.59" cy="303.85" rx="101.73" ry="36.31"/>
			<ellipse class="st22" cx="227.59" cy="303.85" rx="100.9" ry="36.02"/>
			<ellipse class="st23" cx="227.59" cy="303.85" rx="100.08" ry="35.72"/>
			<ellipse class="st24" cx="227.59" cy="303.85" rx="99.25" ry="35.43"/>
			<ellipse class="st25" cx="227.59" cy="303.85" rx="98.43" ry="35.13"/>
			<ellipse class="st26" cx="227.59" cy="303.85" rx="97.6" ry="34.84"/>
			<ellipse class="st27" cx="227.59" cy="303.85" rx="96.77" ry="34.54"/>
			<ellipse class="st28" cx="227.59" cy="303.85" rx="95.95" ry="34.25"/>
			<ellipse class="st29" cx="227.59" cy="303.85" rx="95.12" ry="33.95"/>
			<ellipse class="st30" cx="227.59" cy="303.85" rx="94.3" ry="33.66"/>
			<ellipse class="st31" cx="227.59" cy="303.85" rx="93.47" ry="33.36"/>
			<ellipse class="st32" cx="227.59" cy="303.85" rx="92.65" ry="33.07"/>
			<ellipse class="st33" cx="227.59" cy="303.85" rx="91.82" ry="32.78"/>
			<ellipse class="st34" cx="227.59" cy="303.85" rx="91" ry="32.48"/>
			<ellipse class="st35" cx="227.59" cy="303.85" rx="90.17" ry="32.19"/>
			<ellipse class="st36" cx="227.59" cy="303.85" rx="89.35" ry="31.89"/>
		</g>
		<g>
			<g>
				<g>
					<polygon class="st37" points="270.2,99.39 270.15,100.91 266.53,197.2 260.78,195.6 254.37,193.79 250.31,192.66 
						247.02,106.07 246.79,100 248.45,99.25 262.33,93 268.8,98.26 					"/>
					<polygon class="st38" points="270.2,99.39 255.16,106.96 246.79,100 248.45,99.25 262.33,93 268.8,98.26 					"/>
					<polygon class="st39" points="255.16,106.96 257.42,193.94 254.38,193.38 250.31,192.66 247.02,106.07 246.79,100 					"/>
				</g>
				<polygon class="st40" points="246.77,99.76 255.15,106.73 270.19,99.17 254.91,104.62 				"/>
				<path class="st41" d="M268.8,98.26c-6.32,3.58-13.74,3.93-20.35,0.99L262.33,93L268.8,98.26z"/>
				<path class="st42" d="M254.06,171.23c0.23,7.39,0.47,14.79,0.32,22.15c0.01,0.15,0,0.27,0,0.4l-4.06-1.13l-3.29-86.59
					c0.31,0.89,0.53,1.79,0.68,2.49c0.51,2.16,1.01,4.33,1.52,6.5C253.5,133.67,253.43,152.12,254.06,171.23z"/>
				<path class="st43" d="M270.15,100.91l-3.62,96.28l-5.75-1.6c-0.71-13.86,0.06-27.74,0.86-41.55c0.31-5.12,0.63-10.25,1.06-15.35
					c0.77-8.83,1.87-17.66,3.91-26.14C267.57,108.56,268.75,104.68,270.15,100.91z"/>
			</g>
			<polygon class="st44" points="135.6,178.91 259.03,162.68 324.03,177.72 307.89,181.28 144.1,182.69 135.82,179.85 			"/>
			<g>
				<g>
					<path class="st39" d="M261.54,172.7l1.68-0.04l5.44-0.11c0.02,0,0.02,0,0.02,0l7.72-0.17c0,0,1.37,0.23,3.85-2.02
						c2.27-2.05,5.46-6.14,9.35-14.34c-5.45-26.7,5.04-45.09,6.41-47.34c0.09-0.15,0.15-0.23,0.15-0.23l-14.1-11.98
						c0,0-0.03,0.02-0.08,0.05l-0.25,0.11c-1.18,0.59-5.33,2.65-10.61,5.44c-1.56,0.83-3.25,1.74-4.98,2.69
						c-3.9,9.53-4.55,62.62-4.6,67.56C261.53,172.57,261.54,172.7,261.54,172.7z"/>
					<polygon class="st38" points="266.13,104.77 277.6,114.96 296.16,108.45 292.77,105.58 282.05,96.47 267.86,103.87 					"/>
					<path class="st45" d="M261.54,172.7c0,0,0.58,0.06,1.62,0.08c1.27,0.04,3.19,0.01,5.51-0.24c0.02,0,0.02,0,0.02,0
						c2.63-0.3,5.8-0.86,9.1-1.95c-6.05-22.24-0.18-55.63-0.18-55.63s-0.04-0.05-0.15-0.13c-0.25-0.24-0.89-0.84-2-1.86
						c-1.75-1.58-4.72-4.22-9.32-8.2c-5.76,9.81-4.71,62.64-4.6,67.56C261.53,172.57,261.54,172.7,261.54,172.7z"/>
				</g>
				<path class="st42" d="M280.25,170.36c2.27-2.05,5.46-6.14,9.35-14.34c-5.45-26.7,5.04-45.09,6.41-47.34
					c-0.46,0.11-0.96,0.29-1.51,0.56c-3.55,1.69-6.29,4.78-8.29,8.34c-0.23,0.41-0.44,0.82-0.65,1.24c-3.96,8-5.76,18.01-6.54,27.17
					c-0.42,4.83-0.49,9.74-0.12,14.64C278.95,161.35,279.63,166.39,280.25,170.36z"/>
				<path class="st46" d="M261.54,172.7c0,0,0.58,0.06,1.62,0.08l0.01-0.02c0.01-0.04,0.04-0.06,0.05-0.1
					c0.98-2.06,1.56-4.32,1.99-6.62c2.6-14.05-0.55-29.6,4.26-42.8c1.37-3.79,3.4-7.26,5.94-10.23c0.01-0.02,0.03-0.04,0.04-0.04
					c-1.75-1.58-4.72-4.22-9.32-8.2c-5.76,9.81-4.71,62.64-4.6,67.56C261.53,172.57,261.54,172.7,261.54,172.7z"/>
				<path class="st41" d="M267.86,103.87c0.92,0.56,1.87,1.02,2.83,1.42c7.21,3.02,15.22,3.1,22.09,0.28l-10.72-9.1L267.86,103.87z"
					/>
				<polygon class="st40" points="296.01,108.68 277.6,114.96 266.13,104.77 277.76,111.73 				"/>
			</g>
			<g>
				<g>
					<polygon class="st37" points="222.3,106.15 222.34,108.01 224.65,225.23 217.56,222.92 209.65,220.31 204.65,218.68 
						194.63,112.85 193.93,105.43 195.89,104.62 212.3,97.86 220.51,104.68 					"/>
					<polygon class="st38" points="222.3,106.15 204.57,114.44 193.93,105.43 195.89,104.62 212.3,97.86 220.51,104.68 					"/>
					<polygon class="st39" points="204.57,114.44 213.36,220.68 209.63,219.82 204.65,218.68 194.63,112.85 193.93,105.43 					"/>
				</g>
				<polygon class="st40" points="193.89,105.14 204.55,114.16 222.27,105.88 204.11,111.57 				"/>
				<path class="st41" d="M220.51,104.68c-7.42,3.97-16.4,3.94-24.62-0.07l16.4-6.75L220.51,104.68z"/>
				<path class="st42" d="M207.7,192.78c0.8,9.03,1.6,18.07,1.93,27.04c0.02,0.18,0.02,0.33,0.02,0.49l-5.01-1.63l-10.02-105.83
					c0.43,1.11,0.76,2.21,1,3.08c0.76,2.66,1.53,5.34,2.3,8.02C204.41,146.92,205.62,169.42,207.7,192.78z"/>
				<path class="st43" d="M222.34,108.01l2.31,117.23l-7.09-2.31c-1.83-16.95-1.86-33.83-1.85-50.63
					c0.02-6.23,0.05-12.46,0.22-18.66c0.31-10.73,1.04-21.43,2.92-31.64C219.74,117.17,220.9,112.51,222.34,108.01z"/>
			</g>
			<g>
				<g>
					<polygon class="st37" points="187.66,101.81 188.06,103.33 212.55,199.17 205.08,199.51 196.76,199.86 191.48,200.1 
						161.51,116.07 159.42,110.18 161.21,108.89 176.18,98.14 185.62,101.16 					"/>
					<polygon class="st38" points="187.66,101.81 171.67,114.24 159.42,110.18 161.21,108.89 176.18,98.14 185.62,101.16 					"/>
					<polygon class="st39" points="171.67,114.24 200.5,198.99 196.64,199.46 191.48,200.1 161.51,116.07 159.42,110.18 					"/>
				</g>
				<polygon class="st40" points="159.32,109.96 171.59,114.02 187.59,101.59 170.67,112.03 				"/>
				<path class="st41" d="M185.62,101.16c-6.6,5.62-15.51,8.43-24.41,7.73l14.98-10.75L185.62,101.16z"/>
				<path class="st42" d="M189.61,177.79c2.5,7.18,5.01,14.38,7.03,21.67c0.05,0.14,0.08,0.27,0.12,0.4l-5.27,0.24l-29.97-84.02
					c0.64,0.77,1.18,1.58,1.57,2.22c1.26,1.95,2.53,3.92,3.79,5.89C177.66,141.05,183.12,159.21,189.61,177.79z"/>
				<path class="st43" d="M188.06,103.33l24.49,95.85l-7.46,0.33c-5.02-13.39-8.25-27.29-11.42-41.13
					c-1.17-5.14-2.31-10.28-3.32-15.44c-1.72-8.94-3.03-17.98-3.09-26.99C187.22,111.69,187.49,107.49,188.06,103.33z"/>
			</g>
			<g>
				<g>
					<polygon class="st38" points="249.4,110.73 218.36,110.21 220.28,107.09 223.29,102.21 244.49,102.06 244.59,102.27 					"/>
					<polygon class="st46" points="249.4,110.73 246.62,198.35 241.12,198.21 228.71,197.9 218.38,110.33 218.36,110.21 					"/>
				</g>
				<path class="st47" d="M241.12,198.21l-12.41-0.31l-10.33-87.57c6.63,3.9,11.03,13.93,13.24,20.63
					c2.77,8.48,3.82,17.45,5.06,26.32C238.57,170.85,240.99,184.53,241.12,198.21z"/>
				<path class="st41" d="M244.59,102.27c-0.9,0.47-1.83,0.93-2.75,1.39c-5.33,2.66-14.85,5.74-21.56,3.44l3.01-4.88l21.19-0.14
					L244.59,102.27z"/>
				<polygon class="st48" points="223.29,102.21 244.49,102.06 249.4,110.73 243.27,103.28 				"/>
			</g>
			<g>
				<g>
					<polygon class="st38" points="249.94,171.03 220.41,172.07 222.32,168.8 225.3,163.68 245.49,162.47 245.58,162.67 					"/>
					<polygon class="st46" points="249.94,171.03 245.07,260.28 239.84,260.42 228.03,260.73 220.42,172.2 220.41,172.07 					"/>
				</g>
				<path class="st47" d="M239.84,260.42l-11.81,0.31l-7.61-88.54c6.21,3.63,10.15,13.61,12.08,20.31
					c2.42,8.49,3.19,17.55,4.14,26.52C238.11,232.73,240.07,246.52,239.84,260.42z"/>
				<path class="st41" d="M245.58,162.67c-0.87,0.53-1.76,1.04-2.65,1.55c-5.15,2.98-14.28,6.59-20.61,4.58l2.99-5.12l20.18-1.21
					L245.58,162.67z"/>
				<polygon class="st40" points="225.3,163.69 245.49,162.46 249.95,171.04 244.3,163.77 				"/>
			</g>
			<g>
				<polygon class="st47" points="240.46,137.24 230.72,220.85 214.13,220.72 212.54,137.3 219.63,134.62 229.25,130.98 				"/>
				<polygon class="st49" points="240.46,137.24 239.58,144.87 230.72,220.85 226.87,220.71 221.78,220.51 225.31,144.67 				"/>
				<path class="st50" d="M239.58,144.87l-8.85,75.98l-3.85-0.15c-0.9-3.48-1.19-7.23-1.34-10.88c-0.49-12.03,0.23-24.18,2.86-35.94
					c0.97-4.38,2.2-8.7,3.72-12.92c1.4-3.85,3.04-7.62,4.92-11.25C237.71,148.38,238.5,146.43,239.58,144.87z"/>
				<path class="st51" d="M225.67,139.62c0.07,1.98-1.98,4.33-2.63,6.18c-2.12,5.88-3.26,12.08-4.01,18.29
					c-0.41,3.54-0.72,7.08-0.97,10.62c-0.54,7.59-0.95,15.19-1.23,22.8c-0.29,7.76-0.43,15.53,0.32,23.23l-3.02-0.02l-1.6-83.42
					l7.1-2.68c0.39,0.12,0.79,0.26,1.16,0.4C222.82,135.75,225.57,136.92,225.67,139.62z"/>
				<polygon class="st38" points="240.46,137.24 225.31,144.67 212.54,137.3 215.11,136.33 229.25,130.98 237.26,135.45 				"/>
				<path class="st52" d="M237.26,135.45c-3.83,1.36-7.83,2.26-11.87,2.36c-1.63,0.04-7.06-0.04-10.28-1.48l14.13-5.35
					L237.26,135.45z"/>
				<polygon class="st40" points="229.26,130.85 212.54,137.16 225.31,144.54 216.23,137.19 				"/>
			</g>
			<g>
				<g>
					<polygon class="st38" points="319.11,115.9 292.41,110.79 294.68,108.16 298.24,104.03 316.57,107.05 316.62,107.26 					"/>
					<polygon class="st46" points="319.11,115.9 299.48,197.59 294.75,196.64 284.1,194.51 292.39,110.92 292.41,110.79 					"/>
				</g>
				<path class="st47" d="M294.75,196.64l-10.66-2.14l8.3-83.59c4.96,4.64,6.79,14.69,7.38,21.3c0.72,8.36-0.13,16.92-0.81,25.42
					C297.94,170.63,297.33,183.81,294.75,196.64z"/>
				<path class="st41" d="M316.62,107.26c-0.87,0.31-1.76,0.6-2.65,0.89c-5.13,1.7-13.95,3.17-19.29,0.01l3.56-4.13l18.33,3.02
					L316.62,107.26z"/>
				<polygon class="st40" points="298.23,104.04 316.57,107.05 319.11,115.91 315.28,108.01 				"/>
			</g>
			<g>
				<g>
					<polygon class="st38" points="170.14,128.28 144.2,134.15 145,130.69 146.26,125.28 163.86,120.78 163.99,120.96 					"/>
					<polygon class="st46" points="170.14,128.28 190.09,214.92 185.48,215.92 175.08,218.17 144.24,134.27 144.2,134.15 					"/>
				</g>
				<path class="st47" d="M185.48,215.92l-10.4,2.24l-30.84-83.9c6.5,2.47,12.71,11.41,16.25,17.54
					c4.45,7.76,7.61,16.36,10.89,24.82C176.41,189.57,181.9,202.51,185.48,215.92z"/>
				<path class="st41" d="M163.99,120.96c-0.63,0.65-1.28,1.29-1.93,1.93c-3.76,3.71-10.89,8.69-17.06,7.81l1.26-5.42l17.59-4.5
					L163.99,120.96z"/>
				<polygon class="st40" points="146.26,125.28 163.85,120.77 170.15,128.28 163.15,122.23 				"/>
			</g>
			<g>
				<g>
					<polygon class="st37" points="262.17,136.08 262.29,137.62 269.83,235.4 262.33,234.05 253.97,232.52 248.67,231.57 
						233.6,143.96 232.55,137.81 234.56,136.97 251.38,129.97 260.25,134.99 					"/>
					<polygon class="st38" points="262.17,136.08 244.04,144.46 232.55,137.81 234.56,136.97 251.38,129.97 260.25,134.99 					"/>
					<polygon class="st39" points="244.04,144.46 257.86,232.53 253.92,232.12 248.67,231.57 233.6,143.96 232.55,137.81 					"/>
				</g>
				<polygon class="st40" points="232.49,137.58 244,144.24 262.13,135.85 243.43,142.11 				"/>
				<path class="st41" d="M260.25,134.99c-7.57,3.93-16.94,4.65-25.69,1.98l16.82-7L260.25,134.99z"/>
				<path class="st42" d="M250.73,209.68c1.23,7.48,2.46,14.97,3.2,22.44c0.03,0.15,0.04,0.28,0.04,0.41l-5.3-0.95l-15.07-87.62
					c0.5,0.89,0.89,1.79,1.18,2.49c0.91,2.16,1.83,4.34,2.75,6.52C245.29,171.62,247.53,190.33,250.73,209.68z"/>
				<path class="st43" d="M262.29,137.62l7.53,97.78l-7.5-1.35c-2.64-14.01-3.42-28.12-4.14-42.16c-0.26-5.21-0.5-10.42-0.59-15.61
					c-0.14-8.99,0.15-17.99,1.67-26.68C259.98,145.49,260.99,141.5,262.29,137.62z"/>
			</g>
			<g>
				<g>
					<polygon class="st37" points="216.81,137.12 216.42,138.64 191.21,234.33 184.35,231.68 176.7,228.69 171.85,226.82 
						186.33,139.56 187.35,133.45 189.59,133 208.32,129.29 215.3,135.73 					"/>
					<polygon class="st38" points="216.81,137.12 196.34,141.94 187.35,133.45 189.59,133 208.32,129.29 215.3,135.73 					"/>
					<polygon class="st39" points="196.34,141.94 180.49,229.4 176.79,228.29 171.85,226.82 186.33,139.56 187.35,133.45 					"/>
				</g>
				<polygon class="st40" points="187.38,133.21 196.38,141.71 216.85,136.9 196.53,139.55 				"/>
				<path class="st41" d="M215.3,135.73c-8.69,2.42-18.07,1.42-25.71-2.73l18.73-3.71L215.3,135.73z"/>
				<path class="st42" d="M181.15,206.06c-1.29,7.43-2.59,14.89-4.36,22.23c-0.02,0.15-0.06,0.27-0.09,0.4l-4.85-1.87l14.48-87.26
					c0.19,0.95,0.28,1.89,0.32,2.62c0.17,2.25,0.34,4.52,0.51,6.78C188.52,168.37,184.48,186.82,181.15,206.06z"/>
				<path class="st43" d="M216.42,138.64l-25.21,95.69l-6.86-2.66c2.09-14,6.03-27.75,10-41.43c1.48-5.07,2.99-10.14,4.63-15.17
					c2.86-8.7,6.14-17.33,10.51-25.44C211.55,145.81,213.86,142.15,216.42,138.64z"/>
			</g>
			<g>
				<g>
					<polygon class="st37" points="284.04,153.67 283.86,154.96 272.26,236.63 265.69,234.87 258.37,232.89 253.73,231.64 
						256.55,157.74 256.75,152.56 258.74,152.04 275.37,147.68 282.49,152.61 					"/>
					<polygon class="st38" points="284.04,153.67 265.96,159.06 256.75,152.56 258.74,152.04 275.37,147.68 282.49,152.61 					"/>
					<polygon class="st39" points="265.96,159.06 261.9,233.22 258.4,232.55 253.73,231.64 256.55,157.74 256.75,152.56 					"/>
				</g>
				<polygon class="st40" points="256.75,152.36 265.97,158.87 284.05,153.48 265.85,157.05 				"/>
				<path class="st41" d="M282.49,152.61c-7.63,2.61-16.3,2.4-23.75-0.57l16.63-4.35L282.49,152.61z"/>
				<path class="st42" d="M259.73,213.67c-0.3,6.3-0.59,12.62-1.33,18.87c0,0.12-0.02,0.23-0.04,0.34l-4.64-1.24l2.82-73.9
					c0.29,0.78,0.48,1.56,0.6,2.16c0.42,1.87,0.85,3.75,1.27,5.64C261.97,181.67,260.48,197.37,259.73,213.67z"/>
				<path class="st43" d="M283.86,154.96l-11.61,81.67l-6.57-1.76c0.24-11.84,2.2-23.6,4.19-35.29c0.75-4.34,1.52-8.68,2.41-12.99
					c1.57-7.46,3.53-14.9,6.55-21.97C280.27,161.28,281.95,158.07,283.86,154.96z"/>
			</g>
			<g>
				<polygon class="st47" points="215.96,125.52 207.23,217.89 186.32,218.19 180.79,126.33 189.62,123.19 201.57,118.93 				"/>
				<polygon class="st49" points="215.96,125.52 215.17,133.95 207.23,217.89 202.37,217.83 195.96,217.76 197.19,134.12 				"/>
				<path class="st50" d="M215.17,133.95l-7.94,83.94l-4.86-0.06c-1.28-3.81-1.81-7.93-2.15-11.95
					c-1.12-13.24-0.73-26.65,2.08-39.67c1.03-4.85,2.41-9.64,4.14-14.33c1.6-4.28,3.5-8.47,5.72-12.52
					C212.97,137.87,213.89,135.69,215.17,133.95z"/>
				<path class="st51" d="M197.43,128.54c0.18,2.18-2.31,4.83-3.05,6.88c-2.42,6.53-3.6,13.4-4.28,20.26
					c-0.37,3.91-0.6,7.82-0.78,11.73c-0.36,8.37-0.55,16.76-0.59,25.15c-0.03,8.55,0.11,17.12,1.39,25.58l-3.8,0.05l-5.54-91.86
					l8.83-3.14c0.5,0.12,1,0.26,1.48,0.4C193.68,124.35,197.18,125.56,197.43,128.54z"/>
				<polygon class="st38" points="215.96,125.52 197.19,134.12 180.79,126.33 183.99,125.2 201.57,118.93 211.85,123.63 				"/>
				<path class="st52" d="M211.85,123.63c-4.77,1.6-9.77,2.69-14.85,2.92c-2.05,0.09-8.9,0.15-13.01-1.35l17.58-6.27L211.85,123.63z
					"/>
				<polygon class="st53" points="201.58,118.78 180.79,126.17 197.19,133.96 185.44,126.11 				"/>
			</g>
			<g>
				<g>
					<polygon class="st37" points="306.43,126.91 306.12,128.43 287.27,224.95 294.57,224.19 302.7,223.31 307.85,222.77 
						332.66,136.92 334.4,130.9 332.59,129.91 317.43,121.67 308.39,125.98 					"/>
					<polygon class="st38" points="306.43,126.91 322.67,136.63 334.4,130.9 332.59,129.91 317.43,121.67 308.39,125.98 					"/>
					<polygon class="st39" points="322.67,136.63 299,223.02 302.79,222.91 307.85,222.77 332.66,136.92 334.4,130.9 					"/>
				</g>
				<polygon class="st40" points="334.48,130.67 322.73,136.4 306.49,126.69 323.53,134.33 				"/>
				<path class="st41" d="M308.39,125.98c6.73,4.48,15.56,5.91,24.2,3.93l-15.16-8.24L308.39,125.98z"/>
				<path class="st42" d="M308.51,200.87c-2.06,7.33-4.13,14.68-5.72,22.04c-0.05,0.14-0.07,0.27-0.09,0.4l5.15-0.54l24.81-85.85
					c-0.58,0.84-1.06,1.71-1.42,2.38c-1.13,2.08-2.26,4.17-3.39,6.26C318.23,163.5,313.86,181.91,308.51,200.87z"/>
				<path class="st43" d="M306.12,128.43l-18.85,96.52l7.29-0.76c4.19-13.71,6.61-27.67,8.98-41.55c0.87-5.15,1.72-10.31,2.42-15.46
					c1.21-8.92,2.01-17.88,1.6-26.62C307.38,136.42,306.9,132.39,306.12,128.43z"/>
			</g>
			<g>
				<g>
					<polygon class="st37" points="253.27,118.86 253.16,120.71 246.64,237.81 253.81,235.7 261.8,233.33 266.87,231.84 
						280.68,126.35 281.65,118.96 279.72,118.09 263.56,110.87 255.11,117.44 					"/>
					<polygon class="st38" points="253.27,118.86 270.69,127.66 281.65,118.96 279.72,118.09 263.56,110.87 255.11,117.44 					"/>
					<polygon class="st39" points="270.69,127.66 258.08,233.59 261.84,232.84 266.87,231.84 280.68,126.35 281.65,118.96 					"/>
				</g>
				<polygon class="st40" points="281.7,118.67 270.72,127.38 253.31,118.59 271.26,124.8 				"/>
				<path class="st41" d="M255.11,117.44c7.27,4.18,16.25,4.41,24.61,0.65l-16.15-7.22L255.11,117.44z"/>
				<path class="st42" d="M264.74,205.86c-1.12,9-2.25,18.02-2.9,26.97c-0.03,0.18-0.03,0.33-0.04,0.49l5.06-1.49l13.82-105.49
					c-0.47,1.09-0.84,2.19-1.11,3.05c-0.86,2.64-1.72,5.3-2.58,7.95C269.68,160.12,267.67,182.58,264.74,205.86z"/>
				<path class="st43" d="M253.16,120.71l-6.52,117.1l7.17-2.11c2.43-16.89,3.08-33.76,3.67-50.55c0.21-6.23,0.4-12.46,0.45-18.65
					c0.07-10.73-0.27-21.44-1.78-31.71C255.43,129.94,254.44,125.26,253.16,120.71z"/>
			</g>
			<g>
				<polygon class="st47" points="300.39,124.73 289.57,216.9 271,216.77 269.13,124.82 277.08,121.86 287.84,117.84 				"/>
				<polygon class="st49" points="300.39,124.73 299.41,133.14 289.57,216.9 285.26,216.74 279.57,216.53 283.44,132.94 				"/>
				<path class="st50" d="M299.41,133.14l-9.84,83.76l-4.31-0.16c-1.01-3.84-1.34-7.97-1.52-11.99
					c-0.55-13.26,0.24-26.66,3.16-39.61c1.08-4.82,2.46-9.59,4.15-14.24c1.56-4.25,3.39-8.4,5.5-12.4
					C297.32,137.02,298.21,134.86,299.41,133.14z"/>
				<path class="st51" d="M283.84,127.37c0.08,2.19-2.21,4.78-2.94,6.81c-2.36,6.48-3.64,13.32-4.47,20.17
					c-0.46,3.9-0.8,7.81-1.08,11.71c-0.59,8.36-1.05,16.75-1.36,25.13c-0.31,8.55-0.47,17.12,0.38,25.61l-3.38-0.02l-1.87-91.95
					l7.94-2.96c0.44,0.13,0.88,0.28,1.3,0.43C280.65,123.1,283.72,124.39,283.84,127.37z"/>
				<polygon class="st38" points="300.39,124.73 283.44,132.94 269.13,124.82 272.02,123.75 287.84,117.84 296.8,122.76 				"/>
				<path class="st52" d="M296.8,122.76c-4.29,1.51-8.77,2.49-13.28,2.61c-1.82,0.04-7.91-0.04-11.51-1.62l15.82-5.9L296.8,122.76z"
					/>
				<polygon class="st40" points="287.84,117.7 269.14,124.66 283.44,132.78 273.27,124.69 				"/>
			</g>
			<g>
				<g>
					<path class="st39" d="M187.37,212.11l-1.65,0.57l-5.34,1.86c-0.02,0-0.02,0-0.02,0l-7.58,2.63c0,0-1.24,0.71-4.53-0.5
						c-3.01-1.09-7.71-3.78-14.7-10.04c-5.15-26.95-22.55-40.37-24.77-41.98c-0.15-0.1-0.23-0.16-0.23-0.16l9.03-16.3
						c0,0,0.04,0.01,0.09,0.02l0.29,0.01c1.38,0.12,6.22,0.56,12.45,1.26c1.85,0.22,3.84,0.46,5.89,0.72
						c7.53,7.51,28.93,56.95,30.92,61.55C187.32,211.99,187.37,212.11,187.37,212.11z"/>
					<polygon class="st38" points="156.3,150.21 149.15,163.88 128.55,164.49 130.72,160.58 137.58,148.19 154.28,149.99 					"/>
					<path class="st45" d="M187.37,212.11c0,0-0.54,0.27-1.54,0.66c-1.22,0.49-3.1,1.16-5.45,1.77c-0.02,0-0.02,0-0.02,0
						c-2.68,0.67-5.97,1.29-9.62,1.46c-2.82-22.99-21.6-52.12-21.6-52.12s0.02-0.06,0.09-0.17c0.15-0.32,0.53-1.11,1.22-2.46
						c1.09-2.11,2.94-5.65,5.85-11.04c9.44,7.1,29.1,56.91,30.92,61.55C187.32,211.99,187.37,212.11,187.37,212.11z"/>
				</g>
				<path class="st42" d="M168.25,216.67c-3.01-1.09-7.71-3.78-14.7-10.04c-5.15-26.95-22.55-40.37-24.77-41.98
					c0.49-0.07,1.05-0.07,1.69-0.02c4.11,0.3,7.99,2.2,11.33,4.81c0.38,0.3,0.75,0.6,1.12,0.93c6.98,6.06,12.65,14.77,17,23.06
					c2.3,4.37,4.28,8.93,5.84,13.65C165.99,207.78,167.3,212.74,168.25,216.67z"/>
				<path class="st46" d="M187.37,212.11c0,0-0.54,0.27-1.54,0.66l-0.02-0.01c-0.02-0.03-0.06-0.04-0.09-0.08
					c-1.76-1.57-3.2-3.48-4.52-5.48c-8.02-12.21-11.05-27.9-20.9-38.51c-2.81-3.05-6.15-5.57-9.78-7.43
					c-0.02-0.01-0.04-0.03-0.06-0.03c1.09-2.11,2.94-5.65,5.85-11.04c9.44,7.1,29.1,56.91,30.92,61.55
					C187.32,211.99,187.37,212.11,187.37,212.11z"/>
				<path class="st41" d="M154.28,149.99c-0.68,0.85-1.42,1.63-2.19,2.35c-5.83,5.43-13.59,8.4-21.37,8.24l6.86-12.39L154.28,149.99
					z"/>
				<polygon class="st40" points="128.78,164.65 149.15,163.88 156.3,150.21 147.73,160.92 				"/>
			</g>
			<g>
				<g>
					<path class="st39" d="M254.45,226.35l1.73,0.36l5.59,1.19c0.02,0,0.02,0,0.02,0l7.93,1.68c0,0,1.33,0.55,4.54-1.03
						c2.94-1.43,7.42-4.62,13.86-11.6c2.48-27.05,18.73-42.29,20.81-44.13c0.14-0.12,0.22-0.19,0.22-0.19l-10.78-14.92
						c0,0-0.04,0.02-0.09,0.03l-0.29,0.05c-1.38,0.29-6.24,1.28-12.47,2.72c-1.84,0.43-3.84,0.9-5.89,1.41
						c-6.86,8.26-23.5,59.31-25.05,64.07C254.48,226.22,254.45,226.35,254.45,226.35z"/>
					<polygon class="st38" points="279.61,161.92 288.23,174.48 309.13,172.63 306.54,169.05 298.35,157.72 281.63,161.47 					"/>
					<path class="st45" d="M254.45,226.35c0,0,0.57,0.2,1.63,0.46c1.28,0.34,3.25,0.77,5.69,1.09c0.02,0,0.02,0,0.02,0
						c2.77,0.34,6.18,0.55,9.88,0.29c0.53-22.89,16.58-53.7,16.58-53.7s-0.03-0.06-0.11-0.16c-0.19-0.3-0.65-1.03-1.48-2.27
						c-1.32-1.94-3.54-5.19-7.04-10.14c-8.84,8.08-23.68,59.3-25.05,64.07C254.48,226.22,254.45,226.35,254.45,226.35z"/>
				</g>
				<path class="st42" d="M274.25,228.55c2.94-1.43,7.42-4.62,13.86-11.6c2.48-27.05,18.73-42.29,20.81-44.13
					c-0.5-0.01-1.07,0.05-1.71,0.18c-4.13,0.78-7.86,3.11-10.97,6.07c-0.36,0.34-0.7,0.68-1.04,1.04
					c-6.45,6.77-11.3,15.99-14.86,24.64c-1.89,4.56-3.43,9.27-4.53,14.09C275.63,219.55,274.82,224.58,274.25,228.55z"/>
				<path class="st46" d="M254.45,226.35c0,0,0.57,0.2,1.63,0.46l0.02-0.02c0.02-0.04,0.06-0.05,0.08-0.09
					c1.62-1.75,2.89-3.8,4.02-5.91c6.88-12.93,8.36-28.68,17.24-40.26c2.54-3.33,5.65-6.19,9.14-8.45c0.02-0.02,0.04-0.03,0.06-0.03
					c-1.32-1.94-3.54-5.19-7.04-10.14c-8.84,8.08-23.68,59.3-25.05,64.07C254.48,226.22,254.45,226.35,254.45,226.35z"/>
				<path class="st41" d="M281.63,161.47c0.77,0.76,1.6,1.43,2.46,2.04c6.44,4.63,14.6,6.63,22.45,5.54l-8.19-11.34L281.63,161.47z"
					/>
				<polygon class="st40" points="308.92,172.82 288.23,174.48 279.61,161.92 289.37,171.41 				"/>
			</g>
			<g>
				<path class="st39" d="M205.69,211.77l-0.57,0.08l-4.57,0.6c0,0-1.16-0.25-2.98-0.84c-5.57-1.87-17.31-7.07-20.16-18.68
					c-2.38-9.77-8.09-18.28-11.92-23.17c-2.21-2.81-3.8-4.44-3.8-4.44l19.12-1.83l5.87-0.58L205.69,211.77z"/>
				<polygon class="st46" points="205.69,211.77 205.12,211.85 200.55,212.45 180.83,171.28 182.14,169.4 186.68,162.9 				"/>
				<path class="st42" d="M197.57,211.61c-5.57-1.87-17.31-7.07-20.16-18.68c-2.38-9.77-8.09-18.28-11.92-23.17
					c0.22,0.15,0.42,0.29,0.62,0.44c4.69,3.49,9.15,7.39,13.35,11.68C187.02,189.59,194.84,199.75,197.57,211.61z"/>
				<path class="st47" d="M205.69,211.77l-0.57,0.08c-2.29-3.81-3.42-8.45-5.07-12.71c-1.52-3.93-3.5-7.59-5.49-11.22
					c-3.21-5.93-6.5-11.97-10.83-16.85c-0.52-0.57-1.08-1.1-1.59-1.67c-0.34-0.37-0.67-0.75-0.95-1.19
					c-0.45-0.72-0.74-1.57-0.72-2.64c0.02-0.7,0.14-1.41,0.34-2.1c0.22-0.82,0.56-1.62,1-2.34l4.87,1.77L205.69,211.77z"/>
				<polygon class="st38" points="186.68,162.9 182.14,169.4 180.83,171.28 161.69,165.31 162.8,163.85 168.57,156.3 181.76,161.11 
					181.81,161.13 				"/>
				<path class="st41" d="M186.68,162.9l-4.53,6.5l-1.31,1.88l-19.14-5.98l1.12-1.45c1.81,0.33,3.64,0.67,5.5,0.78
					c2.28,0.13,4.58-0.01,6.82-0.62c2.3-0.61,4.49-1.71,6.64-2.9l0.05,0.02L186.68,162.9z"/>
				<polygon class="st54" points="161.69,165.35 180.83,171.33 186.68,162.95 180.55,168.87 				"/>
			</g>
			<g>
				<path class="st46" d="M247.83,153.99l-0.02,0.02c-0.09,0.11-0.19,0.2-0.27,0.33c-0.4,0.53-1.22,1.56-2.34,3.04
					c-0.02,0.02-0.04,0.06-0.08,0.09c-3.69,4.9-10.56,14.21-16.17,23.43c-3.22,5.27-6,10.51-7.57,14.87
					c-3.17,8.79-6.08,19.99-7.99,27.99c0,0.04-0.02,0.07-0.02,0.09c-1.21,5.08-2.02,8.83-2.22,9.83c-0.04,0.17-0.06,0.26-0.06,0.26
					s-0.11,0.05-0.32,0.13c-0.13,0.05-0.28,0.11-0.47,0.18c-0.02,0-0.02,0.02-0.04,0.02c-0.65,0.25-1.66,0.65-2.86,1.11l-13.39,5.27
					l-0.69,0.27l-7.6-7.46c0,0,1.95-11.37,5.95-25.93c5.57-20.12,15.03-46.32,28.69-57.12l10.13-1.7l5.7-0.96L247.83,153.99z"/>
				<path class="st55" d="M247.81,154c-0.09,0.11-0.19,0.2-0.27,0.33c-0.68,0.79-1.46,1.8-2.34,3.04c-0.02,0.02-0.04,0.06-0.08,0.09
					c-5.45,7.66-14.31,23.05-20.69,37.82c-7.97,18.47-12.67,36.06-13.29,38.39c-0.04,0.17-0.06,0.26-0.06,0.26s-0.11,0.05-0.32,0.13
					c-0.13,0.05-0.28,0.11-0.47,0.18c-0.02,0-0.02,0.02-0.04,0.02c-0.65,0.25-1.66,0.65-2.86,1.11c-4.21,1.58-10.82,3.9-13.18,3.79
					c-0.22-0.02-0.43-0.06-0.56-0.1c14.66-59.47,38.59-79.64,38.59-79.64S238.17,157.3,247.81,154z"/>
				<path class="st42" d="M233.45,176.78c-3.63,6.55-7.33,13.9-10.45,21.1c-4.11,9.5-7.34,18.79-9.61,25.87
					c0,0.04-0.02,0.07-0.02,0.09c-1.46,4.58-2.51,8.22-3.11,10.42c-0.65,0.25-1.66,0.65-2.86,1.11l-13.39,5.27
					c0.06-0.5,0.13-0.98,0.21-1.48c1.06-5.97,3.84-11.86,6.57-17.39c4.84-9.81,8.68-19.99,15.67-28.58
					c3.7-4.53,8.25-8.29,12.48-12.29c0.17-0.15,0.32-0.31,0.49-0.46c0.08-0.09,0.17-0.17,0.25-0.24
					C230.92,179.02,232.15,177.85,233.45,176.78z"/>
				<path class="st47" d="M231.42,152.87c-1.08,1.12-2.38,2.11-3.77,3.06c-2.58,1.76-5.43,3.37-7.63,5.35
					c-7.02,6.24-12.86,13.81-17.11,22.16c-2.25,4.46-4.07,9.15-6.14,13.71c-1.59,3.51-3.32,6.94-5.09,10.37
					c5.57-20.12,15.03-46.32,28.69-57.12l10.13-1.7C231.94,150.06,232.88,151.36,231.42,152.87z"/>
				<path class="st38" d="M247.83,153.99l-0.02,0.02l-13.17,4.59c-0.5,0.18-0.95,0.33-1.31,0.45c-0.69,0.25-1.07,0.38-1.07,0.38
					l-4.61-3.5l-7.29-5.53l0.6-0.11l9.53-1.6l5.7-0.96l7.19,3.87L247.83,153.99z"/>
				<path class="st41" d="M243.38,151.6c-3.92,1.43-8.4,1.64-12.63,1.31c-2.47-0.18-4.95-0.57-7.29-1.44
					c-0.87-0.32-1.69-0.72-2.5-1.18l9.53-1.6l5.7-0.96L243.38,151.6z"/>
				<polygon class="st40" points="220.6,150.4 236.43,147.74 248.04,154.01 236.08,149.2 				"/>
			</g>
			<g>
				<path class="st56" d="M207.03,334.55c0,0-52.29-14.14-60.46-44.03c-0.06-0.2-0.12-0.39-0.16-0.59
					c-7.64-30.31-10.81-110.87-10.81-110.87l28.36,13.53l19.01,9.08L207.03,334.55z"/>
				<path class="st57" d="M310.68,302.09c-17.71,24.23-94.69,34.99-103.65,32.46c-1.26-0.34-2.61-3.17-4.03-7.75
					c-1.35-4.32-2.74-10.21-4.15-17.1c-7.83-38.48-15.89-108.03-15.89-108.03l16.08-1.4c0,0,12.02,12.54,29.42,19.57
					c10.4,4.22,22.73,6.47,35.55,2.87c26.06-7.28,37.87-27.38,42.03-36.58c1.3-2.9,1.85-4.71,1.85-4.71l16.14-3.57
					C324.03,177.85,322.37,284.6,310.68,302.09z"/>
				<path class="st58" d="M310.68,302.09c-17.71,24.23-94.69,34.99-103.65,32.46c-1.26-0.34-2.61-3.17-4.03-7.75
					c21.86-11.37,39.92-27.68,54.36-45.75c15.44-19.31,26.99-40.67,37.45-62.26c3.56-7.36,7.03-14.81,9.15-22.55
					c0.91-3.34,1.59-6.73,2.06-10.11c1.3-2.9,1.85-4.71,1.85-4.71l16.14-3.57C324.03,177.85,322.37,284.6,310.68,302.09z"/>
				<path class="st59" d="M228.46,219.83c-0.47,2.07-0.9,4.07-1.2,5.97c-1.71,10.72-3.41,21.45-6.44,31.96
					c-3.31,11.52-8.16,22.68-13.13,33.79c-2.75,6.1-5.54,12.23-8.83,18.14c-7.83-38.48-15.89-108.03-15.89-108.03l16.08-1.4
					C199.04,200.26,211.07,212.8,228.46,219.83z"/>
				<path class="st60" d="M162.02,251.21c-1.61,8.06-3.9,16.02-6.94,23.79c-2.13,5.43-4.71,10.85-8.52,15.52
					c-0.06-0.2-0.12-0.39-0.16-0.59c-7.64-30.31-10.81-110.87-10.81-110.87l28.36,13.53c0.43,4.89,1.05,9.8,1.22,14.69
					C165.7,221.96,164.93,236.71,162.02,251.21z"/>
				<path class="st61" d="M182.96,201.66c0,0,15.1,114.91,23.15,129.79c3.2,3.11,61.68-3.19,95.1-25.43
					c-13.51,5.13-64.36,29.39-91.04,21.76C199.12,324.62,182.96,201.66,182.96,201.66z"/>
				<path class="st44" d="M135.59,179.05l47.37,22.61l16.08-1.4c0,0,26.09,28.45,56.8,24.23c32.04-4.4,45.85-26.32,52.05-43.08
					c7.94-1.7,16.14-3.57,16.14-3.57l-2.8-0.6l-14.69,2.92c0,0-8.15,36.48-51.75,42.76c-17.45,2.52-32.21-5.01-54.32-23.71
					c-9.79,0.15-17,0.59-17,0.59L135.59,179.05z"/>
				<path class="st44" d="M135.59,179.05c0,0,1.88,103.08,15.29,122.01c13.41,18.93,56.15,33.49,56.15,33.49
					s-46.94-22.3-56.38-40.58C146.42,285.76,137.51,199.12,135.59,179.05z"/>
				<path class="st62" d="M179.65,199.64c0,0,14.57,119.07,10.74,119.96c-3.82,0.89-34.94-20.66-34.94-20.66
					s22.89,25.65,40.27,26.72C197.59,313.18,179.65,199.64,179.65,199.64z"/>
				<path class="st63" d="M284.45,215.84c-10.88,7.5-24.52,12.05-38.45,12.8c-8.09,0.44-16.34-0.35-24.23,1.29
					c-4.19,0.87-8.17,2.42-11.76,4.45c-3.81,2.16-7.24,4.94-9.41,8.37c-2.07,3.27-2.94,7-3.21,10.7
					c-0.82,11.44,3.81,22.57,8.37,33.33c1.65,3.9,3.33,7.84,6.04,11.27c6.89,8.74,19.36,14.63,31.62,15.52
					c14.12,1.03,34.2-4,44.57-12.36c10.35-8.34,17.12-19.76,22.42-30.85c9.58-20.03,9.78-43.57,9.06-64.91
					c-0.13-3.94-0.9-22.08-8.52-21.48c-5.05,0.4-6.83,10.02-8.66,13.06C297.95,204.27,291.86,210.74,284.45,215.84z"/>
			</g>
		</g>
	</g>
</g>
</svg>
