<?xml version="1.0" encoding="utf-8"?>
<!-- Generator: Adobe Illustrator 24.1.2, SVG Export Plug-In . SVG Version: 6.00 Build 0)  -->
<svg version="1.1" id="Layer_1" xmlns="http://www.w3.org/2000/svg" xmlns:xlink="http://www.w3.org/1999/xlink" x="0px" y="0px"
	 viewBox="0 0 883 768" style="enable-background:new 0 0 883 768;" xml:space="preserve">
<style type="text/css">
	.st0{fill:#51A8CE;}
	.st1{fill:#FFFFFF;}
	.st2{fill:#232323;}
</style>
<g>
	<g>
		<g>
			<path class="st0" d="M534.36,40.96c36.49,18.48,68.41,42.86,96.21,71.96c11.55,12.1,20.24,26.74,31.32,39.31
				c15.68,17.79,22.73,39.79,31.58,60.77c15.68,37.14,31.49,74.35,44.3,112.53c12.53,37.36,21.95,75.83,26.2,115.34
				c2.42,22.55,5.74,45.05,6.77,67.71c0.67,14.73-0.64,29.91-3.51,44.5c-6.77,34.41-16.96,68-33.53,99.64
				c-7.81,14.9-21.09,23.49-35.92,30.96c-9.14,4.6-16.87,11.85-25.77,16.99c-32.92,19.02-67.32,34.89-104.47,43.8
				c-14.5,3.48-29.73,3.82-44.22,7.36c-56.69,13.85-112.84,7-168.54-0.6c-38.88-5.3-77.75-12.81-113.67-28.84
				c-10.54-4.7-20.56-10.72-30.06-17.16c-26.95-18.26-54.61-35.75-77.57-58.85c-3.72-3.74-5.58-9.18-8.73-13.53
				c-1.52-2.09-4.68-3.11-6.01-5.26c-9.49-15.37-19.45-30.53-27.64-46.57c-3.44-6.74-2.41-15.58-4.37-23.21
				c-5.8-22.67-0.94-45.7-0.85-68.54c0.07-16.74,0.53-33.83,3.98-50.22c4.96-23.57,12.38-46.76,19.62-69.88
				c2.98-9.52,10.1-18.12,12.1-27.69c12.57-60.14,45.09-112.65,70.67-167.85c14.4-31.07,37.44-55.43,61.01-79.84
				c17.91-18.55,35.75-36.84,57.68-51.22c27.52-18.04,56.29-30.59,89.8-33.56c38.83-3.44,74.49,4.3,108.88,19.38
				C512.07,29.45,528.57,38.02,534.36,40.96z"/>
			<path class="st0" d="M74.82,366.71c-1.17,6.58-7.07,11.52-13.93,11.81c-1.94,0.08-3.81,0.09-5.65-0.07
				c-20.56-1.72-28.36-16.91-36.59-32.19c-8.12-15.09-8.74-31.21-8.57-47.72c0.28-27.05,1.8-54.04,8.8-80.52
				c4.06-15.35,8.91-30.66,21.96-41.76c1.97-1.67,7.04-3.07,8.17-2.03c17.2,15.71,35.26,30.82,50.3,48.35
				c7.25,8.45,9.84,21.41,12.12,32.84c1.04,5.21-3.78,11.67-5.98,17.55c-8.9,23.7-18.12,47.3-26.53,71.14
				c-2.52,7.13-2.75,14.97-4.08,22.47C74.84,366.64,74.83,366.67,74.82,366.71z"/>
			<path class="st0" d="M810.73,476.13c1.19,0.26,3.13-0.14,3.91-0.96c6.6-6.85,10.62-1.85,14.95,2.4
				c20.53,20.14,36.5,43.39,42.17,71.43c2.43,12.04,1.1,26.74-4.03,38c-4.55,9.97-18.52,13.36-30.36,15.07
				c-21.26,3.06-33.65-11.48-46.82-23.06c-3.19-2.81-1.58-11.23-1.32-17.06C790.54,532.47,805.2,474.93,810.73,476.13z"/>
			<path class="st0" d="M133.22,193.31c-11.21,6.32-16.14-1.16-21.89-8.07c-3.56-4.28-7.73-8.48-12.54-11.3
				c-10.37-6.1-12.98-16.19-15.07-26.41c-1.17-5.72,0.97-10.75,6.86-14.59c8.6-5.61,16.53-10.54,27.8-8.93
				c12.27,1.76,17.34,9.99,22.38,18.9C150.26,159.71,145.19,189.53,133.22,193.31z"/>
		</g>
		<path class="st1" d="M448.44,717.48c-4.29,0-8.46-0.24-12.48-0.47c-2.81-0.16-5.61-0.33-8.37-0.39
			c-9.27-0.2-18.61-0.58-27.64-0.94c-9.67-0.39-19.66-0.79-29.4-0.97c-26.09-0.48-50.4-7.61-72.78-15.24
			c-8.23-2.81-13.38-10.53-14.83-16.94c-3.69-16.26-7.42-33.48-11.41-52.63c-1.41-6.75,0.56-13.84,5.54-19.97
			c1.79-2.2,4.16-4.46,6.98-6.39c-2.68-3.61-4.62-7.5-5.68-11c-8.73-28.84-17-58.26-25-86.72l-2.65-9.45
			c-2.05-7.28-3.99-14.64-5.88-21.77c-2.27-8.57-4.61-17.44-7.09-26c-1.9-6.55-4.06-13.27-6.16-19.78
			c-3.39-10.53-6.9-21.43-9.65-32.62c-2.96-12.03-5.44-24.22-7.84-36c-2.61-12.8-5.31-26.04-8.55-38.69
			c-6.03-23.52-4.2-46.17-1.31-67.15c3.38-24.6,15.24-45.49,23.87-59.07c14.07-22.13,28.19-44.23,42.32-66.32l4.17-6.52
			c1.3-2.04,2.83-3.98,4.67-5.96c1.13-1.22,2.22-2.51,3.31-3.79c3.51-4.13,7.49-8.82,13.07-12.64c8.64-5.92,17.4-10.02,26.05-12.2
			c14.83-3.74,30.89-6.94,47.75-9.52c25.66-3.93,49.05-5.84,71.5-5.84c4.68,0,9.38,0.09,13.97,0.25
			c13.07,0.48,28.1,2.87,40.54,16.91c15.22,17.19,31.24,33.99,46.74,50.23c2.1,2.2,4.63,4.41,7.32,6.76
			c4.41,3.85,9.42,8.22,13.72,13.69c6.73,8.55,12.63,17.51,18.34,26.18c2.21,3.35,4.42,6.71,6.67,10.03
			c0.97,1.43,1.68,2.77,2.22,3.82c10.26,9.01,10.68,20.99,10.91,27.62l0.03,0.95c0.79,21-0.28,43.14-3.24,67.23
			c10.09-11.28,23.75-24.12,45.11-24.12c0.75,0,1.51,0.02,2.28,0.05c23.76,1.04,37.88,18.79,42.53,24.63
			c15.49,19.47,11.78,39.44,6.81,54.66c-3.83,11.75-7.29,24.02-10.63,35.89c-3.85,13.65-7.82,27.77-12.5,41.63
			c-7.75,22.97-19.25,42.75-34.16,58.79c-10.7,11.51-21.8,22.85-32.54,33.82c-4.08,4.17-8.16,8.35-12.23,12.53l-0.27,0.29
			c-1.22,1.3-3.72,3.96-7.48,5.74c-0.58,3.53-1.17,7.06-1.76,10.58c-1.75,10.47-3.56,21.29-5.14,31.88
			c-0.05,0.32-0.1,0.64-0.16,0.95c1.38,1.05,2.51,2.04,3.39,2.82c9.19,8.08,12.63,19.6,9.21,30.82
			c-4.45,14.6-8.41,29.82-12.24,44.53l-0.67,2.56c-2.06,7.91-7.59,18.34-22.25,23.08c-8.12,2.63-16.23,5.32-24.33,8.02
			c-20.69,6.88-42.09,13.99-63.67,19.89C461.84,716.77,455.8,717.48,448.44,717.48z"/>
		<path class="st2" d="M581.87,341.83c8.44-10.03,16.75-20.18,25.35-30.07c10.06-11.57,20.49-23.31,37.58-22.57
			c12.86,0.56,22.05,8.34,29.9,18.19c9.75,12.25,8.5,24.73,3.94,38.71c-8.34,25.58-14.48,51.88-23.07,77.36
			c-6.53,19.36-16.38,37.45-30.48,52.62c-14.54,15.64-29.63,30.77-44.51,46.09c-1.03,1.06-2.39,2.72-3.47,2.63
			c-7.79-0.66-7.65,5.03-8.47,10.04c-2.48,15.07-5.11,30.11-7.36,45.21c-0.75,5.04-3.75,6.97-8,8.7
			c-5.78,2.35-11.25,5.44-16.85,8.21c0.26,0.77,0.51,1.55,0.77,2.32c6.43-1.36,13.15-1.96,19.21-4.29
			c6.2-2.38,10.51,1.37,13.73,4.19c2.99,2.62,5.93,7.13,4.14,12.99c-4.82,15.79-8.94,31.79-13.1,47.78
			c-1.56,6-5.39,9.32-10.96,11.11c-29.04,9.39-57.84,19.65-87.25,27.68c-10.93,2.99-23.31,1.05-35.01,0.8
			c-19.04-0.42-38.07-1.56-57.11-1.91c-23.49-0.43-45.64-6.85-67.58-14.33c-1.59-0.54-3.28-2.8-3.67-4.54
			c-3.95-17.41-7.7-34.86-11.34-52.33c-0.92-4.4,6.37-11.26,11.7-10.9c11.04,0.73,22.14,1.22,33.06,2.84
			c15.83,2.35,31.49,1.56,47.19-0.55c12.25-1.64,24.49-3.41,36.83-6.52c-9.09-0.75-18.18-1.63-27.28-2.2
			c-17.39-1.09-34.85-1.43-52.18-3.18c-11.07-1.12-22.23-3.37-32.77-6.85c-4.24-1.4-8.69-6.92-10.07-11.46
			c-9.63-31.81-18.55-63.84-27.55-95.84c-4.48-15.93-8.4-32.01-13.01-47.9c-5.01-17.3-11.33-34.26-15.62-51.72
			c-6.1-24.8-10.09-50.13-16.44-74.86c-5.22-20.35-3.7-40.49-0.94-60.57c2.61-18.99,11.11-36.1,21.36-52.23
			c15.44-24.3,30.96-48.55,46.46-72.81c0.8-1.25,1.76-2.43,2.78-3.52c4.43-4.76,8.28-10.39,13.52-13.97
			c6.2-4.25,13.32-7.9,20.56-9.73c15.2-3.83,30.66-6.82,46.16-9.2c27.23-4.17,54.62-6.42,82.25-5.4
			c10.98,0.4,20.51,2.29,28.37,11.16c15.3,17.27,31.23,33.99,47.16,50.7c6.38,6.69,14.32,12.03,19.98,19.22
			c8.81,11.19,16.28,23.42,24.29,35.23c1.4,2.06,2.19,4.86,4.05,6.24c6.04,4.47,5.93,10.82,6.17,17.19
			c1.05,27.88-1.4,55.46-5.73,83.01c-1.45,9.24,0.42,19,0.77,28.52C580.19,341.35,581.03,341.59,581.87,341.83z"/>
	</g>
	<g>
		<path class="st1" d="M471.04,374.14c-1.37,9.89-2.25,19.89-4.38,29.61c-0.72,3.3-4.13,7.46-7.15,8.33
			c-2.25,0.65-6.72-2.73-8.65-5.43c-3.68-5.15-6.25-11.09-9.28-16.7c-1.8,0.63-1.35,0.47-3.15,1.1
			c3.49,19.87,6.98,39.74,10.45,59.61c0.65,3.74,1.97,7.56,1.61,11.21c-0.25,2.57-2.92,6.97-4.36,6.91
			c-2.74-0.11-6.96-2.27-7.76-4.56c-2.63-7.46-4.36-15.31-5.79-23.12c-5.72-31.29-11.5-62.58-16.55-93.98
			c-1.15-7.16-5.42-17.58,4.9-20.35c3.09-0.83,10.3,9.11,13.76,15.19c7.14,12.53,13.02,25.78,19.42,38.74
			c1.6-0.32,1.44-0.29,3.04-0.6c0.52-7.29,1.27-14.57,1.49-21.87c0.37-12.12-0.15-24.29,0.86-36.34c0.08-1,0.34-1.99,0.72-2.97
			c2.13-5.57,9.71-6.89,13.66-2.43c1,1.14,1.76,2.33,2.06,3.63c7.49,32.4,13.33,65.19,19.99,97.78c0.9,4.38,1.43,8.81,2.01,13.24
			c0.74,5.63,3.96,14.49-4.6,15.11c-2.98,0.22-8.49-6.51-9.42-10.82c-3.74-17.22-6.09-34.74-9.05-52.14
			c-0.52-3.04-1.45-6.01-2.19-9.01C472.14,374.23,471.59,374.19,471.04,374.14z"/>
		<path class="st1" d="M317.62,380.95c-1.69-13.18-3.33-25.45-4.81-37.74c-0.37-3.08-1.03-6.49-0.1-9.25
			c0.35-1.06,0.89-2.05,1.52-3.01c2.19-3.37,6.59-4.2,9.79-1.77c1.36,1.03,2.45,2.14,2.78,3.43c3.55,14.07,5.9,28.43,8.9,42.65
			c4.86,22.98,11.58,45.63,14.86,68.89c1.63,11.56-1.63,15.46-5.06,17.29c-5.88,3.14-10.45-1.87-12.04-7.8
			c-3.58-13.34-6.75-26.8-9.96-40.24c-0.96-4.02-1.51-8.13-2.36-12.79h-22.06c2.96,12.85,5.77,25.19,8.66,37.5
			c0.87,3.7,3.2,7.56,2.64,10.98c-0.73,4.45-2.64,10.81-5.89,12.3c-6.37,2.91-10.24-2.59-11.56-8.42
			c-8.97-39.43-17.92-78.86-26.19-118.43c-0.29-1.37,0.03-2.86,0.64-4.42c1.79-4.58,7.71-5.99,11.2-2.53
			c1.19,1.18,2.16,2.44,2.64,3.86c4.41,13.09,8.36,26.46,10.84,40.03c2,10.99,7.74,13.38,17.29,11.43
			C311.69,382.41,314.02,381.8,317.62,380.95z"/>
		<path class="st1" d="M413.78,411.4c-0.25,10.68-1.08,21.62-4.08,31.7c-1.91,6.41-7.34,13.99-13.16,16.49
			c-8.34,3.58-17.9-0.76-22.45-8.71c-5.73-10.01-10.96-20.94-13.32-32.12c-4.91-23.29-9.07-47.07-3.93-70.9
			c1.68-7.81,5.24-15.86,10.09-22.15c5.27-6.84,13.96-5.45,19.37,0.11c6.34,6.52,13.17,14.19,15.6,22.57
			C407.8,368.77,413.99,402.3,413.78,411.4z M375.73,339.66c-0.49,0.47-1.35,0.88-1.41,1.4c-4.12,31.86-2.29,63.29,7.94,93.88
			c0.86,2.56,2.91,4.72,5.15,7.04c1.76,1.82,4.87,1.26,5.78-1.11C404.69,410.58,394.39,351.06,375.73,339.66z"/>
		<path class="st1" d="M505.17,320.1c1.55,7.66,2.97,14.7,4.58,22.64c6.06-2.83,11.01-6.09,16.42-7.31
			c3.38-0.76,9.7,0.55,10.69,2.74c1.43,3.17,0.24,8.58-1.73,11.91c-1.96,3.3-5.91,6.16-9.62,7.55c-9.54,3.58-10.28,9.39-6.34,17.63
			c2.35,4.9,3.94,10.17,6.07,15.81c6.14-4.94,11.23-9.68,16.98-13.36c0.77-0.49,1.68-0.76,2.67-0.9c4.13-0.61,8.17,2.61,7.8,6.76
			c-0.05,0.55-0.2,1.03-0.49,1.39c-8.52,10.71-17.02,21.6-26.92,30.97c-4.48,4.24-10.88,1.6-12.68-5.38
			c-6.83-26.4-13.46-52.84-20.07-79.3c-0.58-2.32-0.49-4.82-0.56-7.24c-0.69-21.94,10.6-32.08,32.33-28.13
			c3.51,0.64,8.45,4.79,8.88,7.85c0.45,3.22-2.91,8.83-6.06,10.31C520.73,317.06,513.35,318,505.17,320.1z"/>
	</g>
</g>
</svg>
