<?xml version="1.0" encoding="utf-8"?>
<!-- Generator: Adobe Illustrator 24.1.2, SVG Export Plug-In . SVG Version: 6.00 Build 0)  -->
<svg version="1.1" id="Layer_4" xmlns="http://www.w3.org/2000/svg" xmlns:xlink="http://www.w3.org/1999/xlink" x="0px" y="0px"
	 viewBox="0 0 450 450" style="enable-background:new 0 0 450 450;" xml:space="preserve">
<style type="text/css">
	.st0{fill:#CAE9FA;}
	.st1{fill:#F37121;}
	.st2{fill:#F05124;}
	.st3{fill:#FAA82F;}
	.st4{fill:#F68952;}
	.st5{opacity:0.34;fill:#fffaf2;}
	.st6{opacity:0.15;fill:#8D2E1D;}
	.st7{fill:#FFFFFF;}
	.st8{fill:#B8D4E4;}
	.st9{fill:#FDCBA1;}
	.st10{fill:#9CBDD9;}
	.st11{fill:#9B320E;}
	.st12{fill:#FEE0C5;}
	.st13{fill:#F47721;}
	.st14{fill:#FFCB05;}
	.st15{fill:#F79550;}
	.st16{fill:#D86429;}
	.st17{opacity:0.42;fill:#D86429;}
	.st18{fill:#F6883A;}
	.st19{fill:#345A2B;}
	.st20{fill:#9D963A;}
	.st21{fill:#A04A18;}
	.st22{fill:#1C3D17;}
	.st23{fill:#FFE290;}
	.st24{fill:#FAB07B;}
	.st25{fill:#FFD865;}
</style>
<g>
	<g>
		<path class="st0" d="M81.34,144.39L73.81,96l-1-14.03c0,0-2.01-5.32,10.03-9.19C94.88,68.9,121.98,66,121.98,66
			s55.69-4.35,83.78-0.48c28.09,3.87,42.14,9.19,42.14,9.19s6.52,2.9,5.52,8.71c-1,5.81-7.02,60-7.02,60L81.34,144.39z"/>
		<path class="st1" d="M80.66,136.49l21.16,156.98l4.03,21.38c0,0,5.04,10.69,26.2,13.61c21.16,2.92,45.35,1.94,45.35,1.94
			s24.19-4.86,33.26-7.78c9.07-2.92,10.08-8.75,10.08-8.75l26.2-177.39H80.66z"/>
		<path class="st2" d="M110.89,321.65c0,0,53.41,0,66.51-6.8c13.1-6.8,20.16-49.57,22.17-74.84c2.02-25.27,4.03-86.51,4.03-86.51
			l29.23-4.86l14.11-9.72l-24.19,159.41c0,0,6.05,17.5-12.09,24.3s-47.37,7.78-47.37,7.78S115.93,328.46,110.89,321.65
			C105.85,314.85,110.89,321.65,110.89,321.65z"/>
		<ellipse class="st3" cx="163.8" cy="138.92" rx="83.14" ry="19.44"/>
		<ellipse class="st4" cx="163.8" cy="136.49" rx="83.14" ry="17.01"/>
		<path class="st5" d="M85.32,89.53l30.23,234.25l18.14,2.92l20.16,0.97l-4.03-233.28C149.82,94.39,99.43,96.33,85.32,89.53
			C71.21,82.72,85.32,89.53,85.32,89.53z"/>
		<path class="st6" d="M218.06,95.83l-17,208.63c0,0,0.94,5.47,6.61,5.47s14.11-1.34,15.08-11.6s30.26-212.52,30.26-212.52
			S225.62,94.92,218.06,95.83C210.51,96.74,218.06,95.83,218.06,95.83z"/>
		<path class="st7" d="M196.35,319.83c2.25-1.51-1.4-4.38-3.3-3.8c-1.94,0.6-3.91,3.3-1.4,4.53
			C193.14,321.28,194.98,320.75,196.35,319.83z"/>
		<path class="st7" d="M186.42,320.52c0.53-0.56,0.49-1.65-0.25-1.9c-0.26-0.09-0.54-0.05-0.81-0.02
			c-11.55,1.44-23.25,1.82-34.87,1.17c-5.81-0.33-11.61-0.92-17.37-1.77c-3.99-0.59-10.24-0.3-13.66-2.56
			c5.09,2.64,10.72,3.75,16.38,4.61c5.21,0.79,10.01,2.32,15.39,2.79c6.36,0.55,12.78,0.7,19.16,0.24c3.08-0.23,6.16-0.59,9.2-1.13
			C181.17,321.66,185.19,321.69,186.42,320.52z"/>
		<path class="st8" d="M116.45,70.33c-12.33,1.18-25.68,2.81-36.12,9.22c-5.52,3.39-3.51,6.29-3.51,6.29s7.53,4.84,22.07,7.26
			c14.55,2.42,55.19,4.84,55.19,4.84s0-29.02,0-29.03c0,0.57-30.05,0.71-33.04,0.99C119.54,70.04,118,70.18,116.45,70.33z"/>
		<path class="st7" d="M128.5,65.03v3.87c0,0,37.13-0.97,48.66-0.48c11.54,0.48,25.59,1.45,25.59,1.45l-1,26.13
			c0,0,15.05,0,21.07-1.94c6.02-1.94,19.57-3.39,19.57-4.84c0-1.45,1-16.45,1-16.45S211.78,62.13,128.5,65.03z"/>
		<polygon class="st7" points="90.87,70.84 91.87,73.26 108.43,70.36 107.43,67.45 		"/>
		<path class="st9" d="M72.52,81.58c0,0,0.69,3.61,1.89,9.94c0.58,3.16,1.28,7.01,2.08,11.41c0.4,2.2,0.83,4.55,1.29,7.02
			c0.45,2.47,0.63,5.1,1.03,7.83c2.84,21.82,6.8,50.9,10.99,79.95c4.19,29.05,8.61,58.06,12.06,79.81c0.38,2.73,0.96,5.3,1.2,7.8
			c0.26,2.5,0.51,4.86,0.75,7.09c0.47,4.45,0.89,8.33,1.23,11.53c0.64,6.4,1.01,10.05,1.01,10.05s-0.81-3.59-2.23-9.87
			c-0.68-3.15-1.51-6.96-2.46-11.35c-0.47-2.19-0.98-4.52-1.51-6.98c-0.55-2.46-0.78-5.09-1.26-7.8
			c-3.45-21.75-7.87-50.79-12.06-79.85c-4.19-29.06-8.15-58.16-10.99-79.99c-0.31-2.73-0.82-5.33-1.01-7.83
			c-0.18-2.5-0.36-4.88-0.52-7.11c-0.32-4.46-0.61-8.36-0.84-11.56C72.75,85.24,72.52,81.58,72.52,81.58z"/>
		<path class="st9" d="M254.2,81.58c0,0-0.23,3.67-0.63,10.08c-0.23,3.21-0.52,7.1-0.84,11.56c-0.16,2.23-0.34,4.61-0.52,7.11
			c-0.2,2.5-0.7,5.1-1.01,7.83c-2.84,21.84-6.8,50.93-10.99,79.99c-4.19,29.06-8.62,58.09-12.06,79.85
			c-0.48,2.71-0.71,5.34-1.26,7.8c-0.53,2.46-1.03,4.79-1.51,6.98c-0.95,4.38-1.78,8.2-2.46,11.35c-1.42,6.28-2.23,9.87-2.23,9.87
			s0.37-3.66,1.01-10.05c0.34-3.2,0.75-7.08,1.23-11.53c0.24-2.23,0.49-4.59,0.75-7.09c0.24-2.5,0.82-5.08,1.2-7.8
			c3.44-21.74,7.87-50.76,12.06-79.81c4.19-29.05,8.15-58.13,10.99-79.95c0.4-2.72,0.58-5.36,1.03-7.83
			c0.45-2.47,0.88-4.81,1.29-7.02c0.8-4.41,1.51-8.25,2.08-11.41C253.51,85.19,254.2,81.58,254.2,81.58z"/>
		<path class="st10" d="M254,81.08c-0.05,0.02,0.07-0.77-0.64-1.93c-0.71-1.15-2.31-2.45-4.59-3.61c-4.58-2.37-11.8-4.24-20.51-5.87
			c-8.73-1.62-19.06-2.77-30.14-3.61c-11.09-0.83-22.95-1.23-34.82-1.2c-11.86-0.03-23.73,0.36-34.82,1.2
			c-11.08,0.84-21.41,1.99-30.14,3.61c-8.71,1.62-15.93,3.5-20.51,5.86c-2.28,1.16-3.88,2.46-4.59,3.61
			c-0.71,1.16-0.59,1.95-0.64,1.93c0.06,0.02-0.1-0.76,0.58-1.97c0.68-1.19,2.25-2.57,4.52-3.81c4.55-2.51,11.72-4.74,20.46-6.51
			c8.75-1.76,19.08-3.21,30.21-4.11c11.12-0.9,23.03-1.38,34.93-1.41c11.91,0.04,23.81,0.51,34.93,1.41
			c11.13,0.9,21.46,2.35,30.21,4.11c8.74,1.77,15.91,4,20.46,6.51c2.27,1.25,3.84,2.62,4.52,3.81C254.1,80.32,253.94,81.1,254,81.08
			z"/>
		<path class="st11" d="M220.54,314.24c0,0-0.05,0.47-0.15,1.35c-0.18,0.84-0.76,2.15-1.95,3.4c-0.57,0.65-1.35,1.2-2.14,1.89
			c-0.88,0.55-1.79,1.22-2.85,1.79c-2.11,1.15-4.58,2.31-7.4,3.22c-2.79,1-5.89,1.82-9.19,2.6c-3.3,0.77-6.82,1.44-10.48,1.94
			c-3.66,0.49-7.46,0.91-11.34,1.16c-3.88,0.23-7.79,0.36-11.78,0.39c-3.89-0.03-7.83-0.16-11.73-0.39
			c-3.87-0.25-7.67-0.67-11.34-1.16c-3.66-0.5-7.18-1.16-10.48-1.94c-3.3-0.78-6.4-1.6-9.19-2.6c-2.82-0.91-5.29-2.07-7.4-3.22
			c-1.06-0.57-1.97-1.25-2.85-1.79c-0.78-0.7-1.57-1.24-2.14-1.9c-1.19-1.26-1.75-2.53-1.94-3.39c-0.1-0.89-0.15-1.36-0.15-1.36
			s0.11,0.46,0.33,1.31c0.29,0.82,1.01,1.91,2.23,3c0.59,0.56,1.41,1.02,2.2,1.61c0.9,0.45,1.83,1.01,2.9,1.47
			c2.15,0.91,4.62,1.8,7.41,2.57c2.76,0.81,5.84,1.45,9.11,2.03c3.27,0.58,6.75,1,10.35,1.43c3.61,0.4,7.35,0.63,11.16,0.87
			c3.78,0.19,7.66,0.28,11.59,0.28c3.83,0,7.74-0.09,11.54-0.28c3.81-0.24,7.55-0.47,11.16-0.87c3.6-0.43,7.09-0.84,10.35-1.43
			c3.27-0.58,6.35-1.22,9.11-2.03c2.79-0.77,5.26-1.66,7.41-2.57c1.07-0.46,1.99-1.02,2.9-1.47c0.79-0.59,1.61-1.05,2.2-1.61
			c1.22-1.11,1.93-2.15,2.23-2.99C220.43,314.7,220.54,314.24,220.54,314.24z"/>
		<path class="st10" d="M254,83.5c-0.06-0.01,0.12,0.75-0.53,1.99c-0.66,1.22-2.2,2.66-4.48,3.94c-4.55,2.58-11.71,4.94-20.46,6.79
			c-8.76,1.83-19.1,3.43-30.24,4.36c-11.14,0.94-23.07,1.45-34.99,1.52c-11.92-0.07-23.85-0.58-34.99-1.52
			c-11.15-0.92-21.48-2.53-30.24-4.35c-8.75-1.85-15.91-4.22-20.46-6.79c-2.27-1.28-3.82-2.72-4.48-3.94
			c-0.65-1.23-0.48-2.01-0.53-1.99c0.05-0.02-0.04,0.77,0.69,1.9c0.73,1.13,2.35,2.36,4.63,3.49c4.58,2.3,11.81,4.03,20.51,5.58
			c8.72,1.55,19.04,2.55,30.11,3.36c11.07,0.8,22.92,1.15,34.76,1.09c11.84,0.07,23.69-0.29,34.76-1.09
			c11.06-0.8,21.38-1.8,30.11-3.36c8.7-1.54,15.93-3.28,20.51-5.58c2.28-1.13,3.9-2.36,4.63-3.49
			C254.04,84.28,253.95,83.47,254,83.5z"/>
		<path class="st12" d="M254,81.08c-0.06-0.01,0.12,0.75-0.53,1.99c-0.66,1.22-2.2,2.66-4.48,3.94c-4.55,2.58-11.71,4.94-20.46,6.79
			c-8.76,1.83-19.1,3.43-30.24,4.36c-11.14,0.94-23.07,1.45-34.99,1.52c-11.92-0.07-23.85-0.58-34.99-1.52
			c-11.15-0.92-21.48-2.53-30.24-4.36c-8.75-1.85-15.91-4.22-20.46-6.79c-2.27-1.28-3.82-2.73-4.48-3.94
			c-0.65-1.23-0.48-2.01-0.53-1.99c0.05-0.02-0.04,0.77,0.69,1.9c0.73,1.13,2.35,2.36,4.63,3.49c4.58,2.3,11.81,4.03,20.51,5.58
			c8.72,1.55,19.04,2.55,30.11,3.36c11.07,0.8,22.92,1.15,34.76,1.09c11.84,0.07,23.69-0.29,34.76-1.09
			c11.06-0.8,21.38-1.8,30.11-3.36c8.7-1.54,15.93-3.28,20.51-5.58c2.28-1.13,3.9-2.36,4.63-3.49
			C254.04,81.86,253.95,81.06,254,81.08z"/>
	</g>
	<g>
		<path class="st13" d="M233.62,291.63c0,0-4.75-17.61,1.22-34.08s14.33-23.7,14.33-23.7s7.52-10.99,25.76-15.86
			c18.24-4.87,33.37-1.06,33.37-1.06s16.97,4,28.2,13.61c11.24,9.61,16.53,21.32,16.53,21.32s5.6,16.68,4.01,25.27
			c-1.59,8.59-4.82,15.23-4.82,15.23l-5.6,7.65l-6.33,5.64l-3.22,6.93c0,0-5.35,11.74-21.6,19.14c-16.26,7.39-21.51,5.94-21.51,5.94
			l-16.16-0.82L233.62,291.63z"/>
		<path class="st14" d="M273.65,338.85c0,0-8.25,8.98-28.38,12.79c-20.13,3.81-37.44-5.74-37.44-5.74s-13.25-7.73-18.19-13.89
			c-4.94-6.16-9.32-12.94-10.66-19.9c-1.35-6.96-1.55-15.15-1.55-15.15l2.37-10.69l3.71-8.72l6.12,5.51l104.76,22.65
			C294.38,305.69,290.61,328.19,273.65,338.85z"/>
		<path class="st15" d="M289.57,306.55l-5.27,12.91c0,0-5.57,8.24-9.94,11.13c-4.38,2.89-9.09,0.53-9.09,0.53s-7.94-5.4-11.22-9.32
			c-3.28-3.91-15.41-22.85-15.41-22.85l2.92-1.93l2.58-2.5C244.14,294.53,290.03,304.18,289.57,306.55z"/>
		<path class="st13" d="M256.29,333.4c0,0,0.26,4.09,0.38,6.13c0.13,2.04-5.75,5.32-5.75,5.32s-10.21,2.06-14.84,0.86
			c-4.63-1.2-9.02-3.29-9.02-3.29l-2.15-5.15l11.96-37.34l0.86,4.05C237.74,303.99,256.43,330.76,256.29,333.4z"/>
		<path class="st13" d="M235.11,300.92l-8.44,15.73l-6.96,15.06c0,0-2.89,7.2-10.56,6.18c-7.66-1.02-13.25-7.73-13.25-7.73
			s-5.21-5.56-3.15-11.54c2.06-5.98,10.13-8.21,10.13-8.21l29.52-14.03l3.19,2.45L235.11,300.92z"/>
		<path class="st13" d="M229.51,293.92l-30.71,14.39c0,0-10.61,5.31-14.06-1.24c-3.45-6.54-0.75-11.98-0.75-11.98l5.63-12.05
			l39.72,8.25L229.51,293.92z"/>
		<path class="st16" d="M268.08,235.31c-6.94,9.94-10.16,22.26-8.92,34.19c1.24,11.93,6.91,23.39,15.76,31.81
			c-10.93-4.19-22.28-7.37-33.83-9.5c-1.42-0.26-2.95-0.56-3.94-1.57c-0.9-0.92-1.19-2.24-1.36-3.5
			c-1.55-11.06,2.19-22.27,7.83-32.01c3.98-6.86,8.92-13.2,14.65-18.79c3.11-3.04,6.68-5.97,11.02-6.79c0.77-0.15,1.85,0,1.9,0.75
			c0.02,0.28-0.13,0.54-0.28,0.78c-1.29,2.12-2.59,4.23-3.88,6.35L268.08,235.31z"/>
		<path class="st16" d="M281.5,333.04c5.24-0.99,10.7,0.41,15.97-0.43c3.8-0.6,7.29-2.34,10.71-4.05
			c8.02-4.01,16.33-8.26,21.61-15.33c1.04-1.39,1.97-3.19,1.22-4.74c-3.93,5.94-10.39,10.28-17.53,11.78
			c-7.14,1.5-14.88,0.14-21.02-3.69c-1.93,6.41-6.32,12.16-11.19,16.91L281.5,333.04z"/>
		<path class="st17" d="M295.43,306.76c0.18,2.21,0.37,4.42,0.55,6.63c0.19,2.32,0.39,4.64,0.27,6.97
			c-0.23,4.47-1.64,8.87-4.06,12.68c-0.8,1.27-1.74,2.5-3,3.35c-3.02,2.05-7.2,1.54-10.61,0.15c7.78-8.49,13.46-18.76,16.46-29.72
			L295.43,306.76z"/>
		<path class="st18" d="M304.94,224.09c10.06,0.67,19.48,7.06,23.53,15.97c2.65,5.83,2.49,13.76-2.95,17.37
			c-4.88,3.23-11.44,1.56-17.35,1.84c-6.78,0.31-13.37,3.52-17.66,8.61c-1.56,1.86-2.87,3.98-4.87,5.39
			c-3.97,2.79-9.92,1.89-13.55-1.3c-3.64-3.19-5.19-8.14-5.15-12.88c0.04-4.74,1.49-9.36,3.04-13.85c1.58-4.56,3.41-9.29,7.11-12.51
			c1.78-1.55,3.91-2.67,6.04-3.73c7.53-3.74,16.26-6.92,24.31-4.38L304.94,224.09z"/>
		<path class="st18" d="M273.29,277.11c6.36-1.3,13.83,10.98,7.29,14.44c-1.15,0.61-2.59,0.5-3.79-0.01s-2.19-1.37-3.12-2.27
			c-1.83-1.76-3.54-3.84-3.93-6.31C269.35,280.5,270.76,277.63,273.29,277.11z"/>
		<path class="st16" d="M352.5,275.68c-0.66,2.54-2.21,5.5-4.92,5.53c-1.82,0.02-3.32-1.37-4.37-2.8c-3.51-4.8-4.28-11.34-2-16.78
			c-3.07,1.99-3.09,6.31-2.37,9.81c1.76,8.57,5.88,17.01,4.53,25.64c4.66-1.25,7.97-5.29,10-9.52c5.92-12.32,4.03-27.2-2.68-38.77
			C354.49,258.12,354.99,266.16,352.5,275.68z"/>
		<path class="st18" d="M323.47,222.24c8.08,5.18,16.69,10.48,21.87,18.59c4.9,7.67,7.35,16.92,6.77,25.91
			c-0.11,1.72-0.38,3.55-1.59,4.82c-1.21,1.26-3.65,1.53-4.65,0.11c-0.69-0.99-0.44-2.3-0.24-3.47c1.48-8.64-1.15-17.56-5.57-25.21
			C335.66,235.34,329.54,228.76,323.47,222.24z"/>
		<path class="st19" d="M336.81,270.67c-1.39-2.06-3.51-3.3-5.95-3.95c-1.66-0.45-3.38-0.65-5.08-0.97c0.67,0.13,2.3-1.08,2.79-1.49
			c0.96-0.81,1.87-1.69,2.67-2.65c1.48-1.79,2.59-3.92,2.9-6.19c1.16,2.71,3.86,4.46,6.51,5.9c-1.46,1.24-2.47,2.4-3.19,4.14
			c-0.34,0.82-0.57,1.53-0.65,2.43C336.76,268.48,336.46,270.16,336.81,270.67z"/>
		<path class="st20" d="M332.99,263.32c-1.24,0.07-2.42,1.39-3.67,1.75c1.43-0.85,2.32-1.99,3.24-3.31c0.43-0.62,0.84-1.19,1.16-1.9
			c0.21-0.48,0.88-1.71,0.72-2.23c0.62,2.02,2.85,3.56,4.79,4.29c-1.84,1.38-3.06,3.5-3.3,5.73c-0.06-1.03,0.08-2.07,0.22-3.1
			c0.07-0.51-2.21-1.07-2.57-1.17C333.37,263.33,333.18,263.31,332.99,263.32z"/>
		<path class="st21" d="M337.82,271.19c9.59,16.76,7.28,37.06-6.85,50.46c-12.96,12.3-35.12,22.12-53.36,15.92
			c-1.25-0.43-0.94-2.17,0.44-1.99c18.65,2.49,36.05-2.13,50.1-14.6c16.01-14.22,14.64-30.85,8.81-49.39
			C336.8,271.12,337.54,270.71,337.82,271.19L337.82,271.19z"/>
		<path class="st16" d="M342.4,303.4c8.72-8.7,14.39-20.05,14.23-32.31c-0.14-11.24-5.75-21.47-12.17-30.57
			c-10.3-14.6-28.38-22.08-46.22-23.39c-18.87-1.39-36.76,4.73-49.4,18.58c-13.45,14.73-17.17,32.93-14.92,51.93
			c0.11,0.89-1.36,1.18-1.62,0.31c-5.62-19.19,2.64-41.32,16.55-55.38c13.64-13.79,32.61-19.31,52.03-17.24
			c20.51,2.19,37.81,11.97,48.45,29.06c12.34,19.83,12.75,43.43-6.24,59.59C342.66,304.36,341.98,303.82,342.4,303.4L342.4,303.4z"
			/>
		<path class="st22" d="M333.98,254.09c1.56,3.34,3.69,5.75,7.22,7.23c0.25,0.11,0.3,0.52,0.04,0.65c-3.25,1.65-4.75,4.88-3.73,8.33
			c0.1,0.34-0.33,0.67-0.62,0.4c-3.32-3.11-7.38-4.34-11.96-4.04c-0.35,0.02-0.45-0.47-0.12-0.58c5.36-1.81,8.79-6.51,8.97-11.96
			c0.01-0.42,0.69-0.46,0.68-0.04c-0.1,4.68-2.63,9.01-6.83,11.43c-0.28,0.16-0.59,0.33-0.89,0.46c-1.49,0.65-0.86-0.05-0.3-0.08
			c1.23-0.07,2.49,0.06,3.69,0.33c2.81,0.62,5.23,2.01,7.28,3.93c-0.21,0.13-0.41,0.26-0.62,0.4c-0.46-1.54-0.55-3-0.06-4.55
			c0.51-1.62,1.86-2.36,2.56-3.73c0.67-0.11,0.89-0.33,0.65-0.65c-0.6-0.28-1.17-0.61-1.72-0.99c-0.58-0.39-1.11-0.82-1.61-1.29
			c-1.49-1.41-2.59-3.12-3.18-5.04C333.3,253.91,333.82,253.76,333.98,254.09L333.98,254.09z"/>
		<path class="st23" d="M188.62,282.3c-1.89-1.33-3.98-2.56-5.73-4.07c-0.64-0.55,0.1-1.71,0.87-1.24c2.03,1.24,3.88,2.88,5.77,4.32
			C190.24,281.85,189.33,282.8,188.62,282.3L188.62,282.3z"/>
		<path class="st16" d="M288.59,309.74c-2.47,6.21-10.57,26.8-20.76,23.49c-13.32-4.32-22.9-23.45-29.16-34.03
			c-0.16-0.27,0.24-0.54,0.42-0.27c6.69,9.39,11.88,20.06,20.7,27.86c3.75,3.32,5.74,4.87,11.03,4.22c5.57-0.69,5.97-2.11,8.89-6.37
			c3.3-4.82,6.24-9.72,8.56-15.05C288.36,309.38,288.67,309.54,288.59,309.74L288.59,309.74z"/>
		<path class="st16" d="M237.82,303.68c4.59,7.03,9.32,13.95,13.89,21c2.29,3.54,7.49,9,6.82,13.71c-0.89,6.24-10.22,7.62-15.4,7.88
			c-5.48,0.27-15.02,0.15-18.01-5.4c-1.87-3.47,0.28-7.48,1.45-10.79c2.72-7.69,5.25-15.46,8.25-23.05c0.1-0.26,0.56-0.1,0.48,0.16
			c-2.73,8.78-6.52,17.28-9.1,26.1c-3.13,10.71,7.48,12.51,16.06,12.27c2.41-0.07,5.04-0.22,7.33-0.96
			c8.3-2.69,6.83-11.32,3.24-16.9c-5.1-7.95-10.05-15.98-15.14-23.93C237.63,303.68,237.76,303.6,237.82,303.68L237.82,303.68z"/>
		<path class="st16" d="M234.49,303.11c-3.9,7.29-7.84,14.58-11.52,21.98c-1.9,3.83-3.51,8.38-6.78,11.38
			c-5.64,5.17-12.46,0.96-17.4-3.15c-5.12-4.26-9.93-11.03-4.84-17.1c3.98-4.75,11.37-7.14,16.79-9.86
			c6.99-3.5,14.02-6.95,21.16-10.14c0.25-0.11,0.46,0.3,0.22,0.42c-8.42,4.09-16.88,8.08-25.21,12.32
			c-3.66,1.86-12.37,5.19-13.69,9.35c-2.05,6.49,1.97,11.36,6.8,15.21c4.56,3.64,11.39,6.94,16.3,2c2.26-2.27,3.6-5.56,4.99-8.35
			c4.08-8.18,8.37-16.24,12.97-24.16C234.35,302.89,234.56,302.98,234.49,303.11L234.49,303.11z"/>
		<path class="st16" d="M227.32,295.11c-9.14,5.95-20.09,10.95-30.46,14.5c-4.19,1.43-9.42,2.58-12.29-1.58
			c-4.33-6.27-0.13-21.23,4.68-26.49c0.17-0.19,0.44,0.02,0.36,0.24c-2.61,6.78-7.15,14.68-5.52,22.23
			c2.21,10.29,13.3,4.52,19.86,1.8c7.94-3.3,15.61-7.03,23.33-10.77C227.32,295.01,227.38,295.08,227.32,295.11L227.32,295.11z"/>
		<path class="st16" d="M243.65,295.61c-0.65,0.93-1.34,1.66-2.3,2.32c-0.8,0.55-2,1.37-3.02,1.33c-0.17-0.01-0.33-0.21-0.18-0.35
			c0.7-0.62,1.71-0.87,2.51-1.39c0.93-0.61,1.83-1.37,2.6-2.16C243.44,295.18,243.8,295.39,243.65,295.61L243.65,295.61z"/>
		<path class="st16" d="M235.44,298.95c-0.84-0.08-1.41-0.21-2.06-0.8c-0.48-0.43-1-1.06-0.99-1.71c0-0.18,0.22-0.25,0.33-0.11
			c0.38,0.47,0.55,1,1.03,1.42c0.43,0.37,1.18,0.82,1.75,0.95C235.67,298.73,235.61,298.96,235.44,298.95L235.44,298.95z"/>
		<path class="st16" d="M230.46,294.4c-0.35-0.52-0.67-0.7-0.83-1.37c-0.14-0.57-0.17-1.13-0.07-1.71c0.06-0.37,0.72-0.34,0.7,0.05
			c-0.04,0.59-0.05,1.13,0.1,1.71c0.08,0.33,0.13,0.89,0.29,1.19C230.72,294.4,230.54,294.52,230.46,294.4L230.46,294.4z"/>
		<path class="st14" d="M293.03,305.42c-17.42-2.15-34.77-7.06-51.89-10.83c-17.26-3.8-34.5-7.65-51.75-11.45
			c-0.86-0.19-0.58-1.49,0.29-1.3c17.26,3.78,34.53,7.51,51.78,11.3c17.14,3.76,34.97,6.58,51.65,11.92
			C293.33,305.14,293.27,305.45,293.03,305.42L293.03,305.42z"/>
		<path class="st24" d="M284.24,308.27c-3.35,7.32-8.01,14.07-13.71,19.88c0.36-1.48,0.69-3.13-0.1-4.44
			c-0.79-1.31-3.23-1.6-3.76-0.17c0.37-5.37,0.75-10.74,1.12-16.12c0.05-0.67-0.13-1.59-0.82-1.61c-0.38-0.01-0.67,0.29-0.92,0.56
			c-3.22,3.51-6.44,7.01-9.66,10.52c-0.33-4.14-0.65-8.28-0.98-12.41c-0.05-0.63-0.32-1.46-0.98-1.41
			c-0.29,0.02-0.53,0.24-0.73,0.44c-1.36,1.32-2.71,2.63-4.07,3.95c0.36-3.39-0.61-6.89-2.67-9.65c2.94,0.87,5.88,1.73,8.83,2.59
			c1.9,0.56,4.07,1.36,4.66,3.2c0.25,0.8,0.15,1.66,0.04,2.48c-0.3,2.25-0.59,4.49-0.89,6.74c2.63-3.26,5.62-6.26,8.89-8.93
			c0.42-0.34,0.96-0.7,1.48-0.53c0.56,0.19,0.73,0.86,0.78,1.43c0.53,5.4-1.28,11.2,1.14,16.09c1.16-1.16,2.33-2.33,3.49-3.49
			c0.43,0.43,0.86,0.87,1.29,1.3c1.08-4.07,3.9-7.69,7.66-9.82c0.25-0.14,0.59-0.27,0.81-0.1c0.23,0.18-0.15,0.63-0.29,0.38
			L284.24,308.27z"/>
		<path class="st15" d="M249.64,338.87c-4.4,1.65-9.09,2.61-13.8,2.82c-1.51,0.07-3.06,0.06-4.47-0.45
			c-1.41-0.51-2.68-1.61-2.98-3.03c0.89,0.08,1.81-0.13,2.58-0.58c-1.44-1.07-1.21-3.19-0.82-4.91c1.68-7.42,3.59-14.79,5.73-22.1
			c0.46,5.51-0.09,11.09-1.62,16.42c-0.45,1.58-1,3.18-0.94,4.82c0.05,1.64,0.85,3.38,2.4,4.06c0.74,0.33,1.72,0.49,2,1.23
			c0.15,0.4,0.03,0.88,0.25,1.25c0.24,0.42,0.79,0.54,1.28,0.61c4.21,0.64,8.49,0.91,12.75,0.78L249.64,338.87z"/>
		<path class="st15" d="M231.32,302.03c0.21-0.63,0.42-1.26,0.62-1.9c-1.44-0.17-2.85,0.44-4.16,1.05
			c-10.41,4.84-20.56,10.19-30.41,16.01c-0.32,0.19-0.66,0.39-0.84,0.71c-0.22,0.38-0.19,0.85-0.13,1.28
			c0.17,1.34,0.46,2.66,0.88,3.95c0.16-2.09,1.39-4.08,3.22-5.21c3.28,5.34,7.75,10.01,13,13.6c-4.31-4.09-8.8-8.47-10.37-14.11
			c5.39-3.19,10.78-6.38,16.16-9.57c1.22,1.28,2.64,2.38,4.19,3.27c-0.52-1.15-0.85-2.38-0.97-3.63c3.36-1.43,6.56-3.23,9.51-5.35
			c-0.59,0.13-1.19,0.26-1.78,0.38L231.32,302.03z"/>
		<path class="st15" d="M224.49,293.75c-2.47-0.62-4.88-1.43-7.2-2.44c-0.64,0.72-1.07,1.61-1.23,2.55c-0.15-1-1.36-1.44-2.37-1.69
			c-4.57-1.12-9.15-2.25-13.78-3.13c-0.71-0.13-1.48-0.25-2.11,0.1c-0.62,0.35-0.9,1.05-1.13,1.7c-1.01,2.78-2.02,5.57-3.04,8.35
			c0.23-3.24,0.45-6.48,0.68-9.71c-0.52-0.09-1.03-0.19-1.55-0.28c-3.3,4.99-4.95,10.97-4.66,16.88c-2.03-6.43,0.4-13.3,2.81-19.62
			c5.34,2.35,11.72,1.22,17.22,3.21c1.19,0.43,2.33,1,3.57,1.24c1.35,0.26,2.74,0.12,4.12,0.16c2.2,0.06,4.38,0.61,6.33,1.58
			c1.05,0.52,2.6,1.04,3.18,0.04L224.49,293.75z"/>
		<path class="st25" d="M266.76,335.01c0.76,0.92,0.83,2.31,0.16,3.28c-0.67,0.98-2.02,1.47-3.19,1.16
			c-1.31-0.35-2.18-1.5-2.95-2.58c-3.65-5.15-7.31-10.3-10.96-15.45c-4.55-6.41-9.16-12.95-11.57-20.36
			c5.22,6.84,10.45,13.68,15.67,20.51c1.45,1.9,2.9,3.79,4.53,5.54c2.94,3.15,6.46,5.81,9.01,9.25L266.76,335.01z"/>
		<path class="st25" d="M233.04,310.78c-2.38,3.16-3.41,7.04-4.59,10.77c-1.76,5.56-3.95,10.99-6.4,16.3
			c-0.22,0.49-0.51,1.02-1.03,1.18c-0.67,0.21-1.38-0.35-1.57-1.01c-0.19-0.65,0-1.35,0.2-2c3.48-11.27,10.42-21.22,15.35-31.98
			c-0.8,4.31-1.94,8.56-3.4,12.7L233.04,310.78z"/>
		<path class="st25" d="M229.96,350.78c0.18,0.53,1.14,0.15,1.13-0.4c-0.01-0.56-0.53-0.96-1.01-1.28c-2.4-1.61-4.8-3.22-7.19-4.83
			c-0.53-0.36-1.08-0.72-1.69-0.92c-0.59-0.19-1.22-0.23-1.85-0.27c-6.09-0.38-12.16-1.15-18.15-2.3c6.5,2.88,13,5.76,19.5,8.64
			c3.08,1.37,6.47,2.76,9.76,1.95L229.96,350.78z"/>
		<path class="st25" d="M191.34,315.27c-2.12,1.66-3.43,4.23-3.5,6.86c-2.43,0.4-4.21-2.12-5.1-4.33c-2.02-5-3.07-10.37-3.06-15.74
			c1.35,4.77,4.07,9.67,8.84,11.45c0.86,0.32,1.87,0.61,2.29,1.41c0.42,0.8-0.57,2.03-1.29,1.46L191.34,315.27z"/>
		<path class="st16" d="M295.02,306.45c-6.3,33.39-41.08,53.45-74.78,45.06c-32.11-7.99-56.34-43.65-38.02-73.94
			c0.73-1.21,2.72-0.27,2.03,0.99c-16.78,30.41,6.01,64.5,38.61,71.56c32.48,7.04,64.14-12.4,70.83-43.95
			C293.85,305.34,295.18,305.61,295.02,306.45L295.02,306.45z"/>
	</g>
</g>
</svg>
