<?xml version="1.0" encoding="utf-8"?>
<!-- Generator: Adobe Illustrator 24.1.2, SVG Export Plug-In . SVG Version: 6.00 Build 0)  -->
<svg version="1.1" xmlns="http://www.w3.org/2000/svg" xmlns:xlink="http://www.w3.org/1999/xlink" x="0px" y="0px"
	 viewBox="0 0 450 450" style="enable-background:new 0 0 450 450;" xml:space="preserve">
<style type="text/css">
	.st0{fill:#fffaf2;}
	.st1{opacity:0.12;}
	.st2{opacity:0;fill:#556573;}
	.st3{opacity:0.0294;fill:#546472;}
	.st4{opacity:0.0588;fill:#546371;}
	.st5{opacity:0.0882;fill:#536270;}
	.st6{opacity:0.1176;fill:#52626F;}
	.st7{opacity:0.1471;fill:#51616E;}
	.st8{opacity:0.1765;fill:#51606D;}
	.st9{opacity:0.2059;fill:#505F6C;}
	.st10{opacity:0.2353;fill:#4F5E6B;}
	.st11{opacity:0.2647;fill:#4E5D6A;}
	.st12{opacity:0.2941;fill:#4E5C69;}
	.st13{opacity:0.3235;fill:#4D5C68;}
	.st14{opacity:0.3529;fill:#4C5B67;}
	.st15{opacity:0.3824;fill:#4B5A66;}
	.st16{opacity:0.4118;fill:#4B5965;}
	.st17{opacity:0.4412;fill:#4A5864;}
	.st18{opacity:0.4706;fill:#495763;}
	.st19{opacity:0.5;fill:#495763;}
	.st20{opacity:0.5294;fill:#485662;}
	.st21{opacity:0.5588;fill:#475561;}
	.st22{opacity:0.5882;fill:#465460;}
	.st23{opacity:0.6176;fill:#46535F;}
	.st24{opacity:0.6471;fill:#45525E;}
	.st25{opacity:0.6765;fill:#44515D;}
	.st26{opacity:0.7059;fill:#43515C;}
	.st27{opacity:0.7353;fill:#43505B;}
	.st28{opacity:0.7647;fill:#424F5A;}
	.st29{opacity:0.7941;fill:#414E59;}
	.st30{opacity:0.8235;fill:#404D58;}
	.st31{opacity:0.8529;fill:#404C57;}
	.st32{opacity:0.8824;fill:#3F4B56;}
	.st33{opacity:0.9118;fill:#3E4B55;}
	.st34{opacity:0.9412;fill:#3D4A54;}
	.st35{opacity:0.9706;fill:#3D4953;}
	.st36{fill:#3C4852;}
	.st37{fill:#FBD067;}
	.st38{fill:#FBC53F;}
	.st39{fill:#FBE09E;}
	.st40{fill:#F0C354;}
	.st41{fill:#EDB11A;}
	.st42{opacity:0.3;fill:#FBDC92;}
	.st43{opacity:0.26;fill:#FFFFFF;}
	.st44{fill:#FBE4AB;}
	.st45{opacity:0.34;fill:#FFFFFF;}
	.st46{filter:url(#Adobe_OpacityMaskFilter);}
	.st47{filter:url(#Adobe_OpacityMaskFilter_1_);}
	.st48{mask:url(#SVGID_1_);fill:url(#SVGID_2_);}
	.st49{opacity:0.69;fill:url(#SVGID_3_);}
	.st50{filter:url(#Adobe_OpacityMaskFilter_2_);}
	.st51{filter:url(#Adobe_OpacityMaskFilter_3_);}
	.st52{mask:url(#SVGID_4_);fill:url(#SVGID_5_);}
	.st53{opacity:0.69;fill:url(#SVGID_6_);}
	.st54{fill:#DD9FAC;}
	.st55{fill:#FBC9D2;}
	.st56{fill:#F0C0C9;}
	.st57{fill:#F0CBD2;}
	.st58{opacity:0.47;fill:#A8878D;}
	.st59{opacity:0.33;fill:#A8878D;}
	.st60{fill:#ADAD00;}
	.st61{fill:#EBEA8A;}
	.st62{fill:#FAF993;}
	.st63{fill:#999900;}
	.st64{opacity:0.22;fill:#FFFFFF;}
	.st65{fill:#E34554;}
	.st66{fill:#F55B69;}
	.st67{opacity:0.12;fill:#FFFFFF;}
	.st68{opacity:0.1;fill:#FFFFFF;}
	.st69{fill:#D94250;}
	.st70{fill:#D9AEB6;}
	.st71{fill:#FBD780;}
	.st72{fill:#FBC337;}
	.st73{fill:#FFC433;}
	.st74{opacity:0.48;fill:#FFFFFF;}
	.st75{opacity:0.25;}
	.st76{fill:#D69800;}
	.st77{opacity:0.21;}
	.st78{opacity:0.26;}
	.st79{opacity:0.16;}
</style>
<g id="background">
	<rect class="st0" width="450" height="450"/>
</g>
<g id="fast_food">
	<g>
		<g class="st1">
			<ellipse class="st2" cx="226.45" cy="272.68" rx="159.51" ry="57.86"/>
			<ellipse class="st3" cx="226.45" cy="272.68" rx="158.38" ry="57.45"/>
			<ellipse class="st4" cx="226.45" cy="272.68" rx="157.26" ry="57.04"/>
			<ellipse class="st5" cx="226.45" cy="272.68" rx="156.14" ry="56.63"/>
			<ellipse class="st6" cx="226.45" cy="272.68" rx="155.02" ry="56.23"/>
			<ellipse class="st7" cx="226.45" cy="272.68" rx="153.9" ry="55.82"/>
			<ellipse class="st8" cx="226.45" cy="272.68" rx="152.78" ry="55.41"/>
			<ellipse class="st9" cx="226.45" cy="272.68" rx="151.66" ry="55.01"/>
			<ellipse class="st10" cx="226.45" cy="272.68" rx="150.53" ry="54.6"/>
			<ellipse class="st11" cx="226.45" cy="272.68" rx="149.41" ry="54.19"/>
			<ellipse class="st12" cx="226.45" cy="272.68" rx="148.29" ry="53.79"/>
			<ellipse class="st13" cx="226.45" cy="272.68" rx="147.17" ry="53.38"/>
			<ellipse class="st14" cx="226.45" cy="272.68" rx="146.05" ry="52.97"/>
			<ellipse class="st15" cx="226.45" cy="272.68" rx="144.93" ry="52.57"/>
			<ellipse class="st16" cx="226.45" cy="272.68" rx="143.81" ry="52.16"/>
			<ellipse class="st17" cx="226.45" cy="272.68" rx="142.69" ry="51.75"/>
			<ellipse class="st18" cx="226.45" cy="272.68" rx="141.56" ry="51.35"/>
			<ellipse class="st19" cx="226.45" cy="272.68" rx="140.44" ry="50.94"/>
			<ellipse class="st20" cx="226.45" cy="272.68" rx="139.32" ry="50.53"/>
			<ellipse class="st21" cx="226.45" cy="272.68" rx="138.2" ry="50.13"/>
			<ellipse class="st22" cx="226.45" cy="272.68" rx="137.08" ry="49.72"/>
			<ellipse class="st23" cx="226.45" cy="272.68" rx="135.96" ry="49.31"/>
			<ellipse class="st24" cx="226.45" cy="272.68" rx="134.84" ry="48.91"/>
			<ellipse class="st25" cx="226.45" cy="272.68" rx="133.71" ry="48.5"/>
			<ellipse class="st26" cx="226.45" cy="272.68" rx="132.59" ry="48.09"/>
			<ellipse class="st27" cx="226.45" cy="272.68" rx="131.47" ry="47.69"/>
			<ellipse class="st28" cx="226.45" cy="272.68" rx="130.35" ry="47.28"/>
			<ellipse class="st29" cx="226.45" cy="272.68" rx="129.23" ry="46.87"/>
			<ellipse class="st30" cx="226.45" cy="272.68" rx="128.11" ry="46.47"/>
			<ellipse class="st31" cx="226.45" cy="272.68" rx="126.99" ry="46.06"/>
			<ellipse class="st32" cx="226.45" cy="272.68" rx="125.87" ry="45.65"/>
			<ellipse class="st33" cx="226.45" cy="272.68" rx="124.74" ry="45.25"/>
			<ellipse class="st34" cx="226.45" cy="272.68" rx="123.62" ry="44.84"/>
			<ellipse class="st35" cx="226.45" cy="272.68" rx="122.5" ry="44.43"/>
			<ellipse class="st36" cx="226.45" cy="272.68" rx="121.38" ry="44.03"/>
		</g>
		<g>
			<g>
				<g>
					<polygon class="st37" points="386.98,220.87 263.92,313.63 262.76,269.43 267.86,266.58 386.65,199.64 386.93,217.15 					"/>
					<polygon class="st38" points="263.92,313.63 78.08,245.62 77.79,240.52 76.72,222.08 257.92,268.21 262.76,269.43 					"/>
					<polygon class="st39" points="386.65,199.64 262.76,269.43 76.72,222.08 91.98,216.65 234.44,165.85 358.56,193.41 					"/>
				</g>
				<path class="st40" d="M263.92,313.63l-185.85-68l-0.29-5.1c22.97,8.21,46.76,13.5,70.47,18.76c20.75,4.59,41.49,9.2,62.24,13.78
					c11.59,2.58,23.79,5.24,35.44,1.58c3.29-1.04,7.64-4.07,11.99-6.43l4.84,1.22L263.92,313.63z"/>
				<path class="st41" d="M386.98,220.87l-123.06,92.75l-1.17-44.19l5.1-2.86c2.75,1.18,5.51,2.72,7.35,3.09
					c8.09,1.6,17.07-0.11,24.84-2.58c12.53-3.97,24.02-11.05,35.37-18.09c17.19-10.6,34.33-21.22,51.52-31.84L386.98,220.87z"/>
				<path class="st42" d="M282.68,273.12c-1.95,1.48-3.97,3.04-5.16,5.31c-1.18,2.27-1.26,5.45,0.47,7.24
					c2,2.07,5.23,1.37,7.82,0.38c22.39-8.55,39.41-28.51,59.8-41.8c5.45-3.55,26.45-12.96,26.82-21.27
					c0.43-9.6-15.52-2.22-18.97-0.23C328.69,237.06,305.66,255.66,282.68,273.12z"/>
				<path class="st43" d="M244.43,272.58c-4.34-2.96-9.5-4.02-14.53-5.03c-32.62-6.56-65.24-13.11-97.87-19.67
					c-1.44,3.93,2.08,7.82,5.34,10.1c15.12,10.63,32.72,16.02,50.02,21.27c16.68,5.06,33.7,11.99,50.71,15.44
					C251.56,297.42,257.16,279.75,244.43,272.58z"/>
				<path class="st44" d="M358.56,193.41c-36.19,24.21-79.73,33.56-122.3,34.49c-13.29,0.31-26.59-0.18-39.88-0.66
					c-24.96-0.96-49.94-2.01-74.77-4.85c-6.26-0.73-23.21-0.02-29.64-5.74l142.46-50.8L358.56,193.41z"/>
				<polygon class="st45" points="386.65,199.64 262.76,269.43 93.92,226.47 259.16,263.27 				"/>
			</g>
			<defs>
				<filter id="Adobe_OpacityMaskFilter" filterUnits="userSpaceOnUse" x="106.43" y="226.17" width="112.37" height="36.05">
					<feFlood  style="flood-color:white;flood-opacity:1" result="back"/>
					<feBlend  in="SourceGraphic" in2="back" mode="normal"/>
				</filter>
			</defs>
			<mask maskUnits="userSpaceOnUse" x="106.43" y="226.17" width="112.37" height="36.05" id="SVGID_1_">
				<g class="st46">
					<defs>
						<filter id="Adobe_OpacityMaskFilter_1_" filterUnits="userSpaceOnUse" x="319.85" y="313.15" width="33.56" height="9.8">
							<feFlood  style="flood-color:white;flood-opacity:1" result="back"/>
							<feBlend  in="SourceGraphic" in2="back" mode="normal"/>
						</filter>
					</defs>
					<mask maskUnits="userSpaceOnUse" x="319.85" y="313.15" width="33.56" height="9.8" id="SVGID_1_">
						<g class="st47">
						</g>
					</mask>
					
						<linearGradient id="SVGID_2_" gradientUnits="userSpaceOnUse" x1="331.5531" y1="325.2833" x2="338.9363" y2="314.9884" gradientTransform="matrix(1 9.900000e-03 -9.900000e-03 1 1.561 -2.4274)">
						<stop  offset="0.0626" style="stop-color:#FFFFFF"/>
						<stop  offset="1" style="stop-color:#000000"/>
					</linearGradient>
					<path class="st48" d="M324.89,320.48c1.27,0.67,2.71,1.11,4.28,1.37c4.56,0.75,9.29,1.42,13.9,0.96
						c3.17-0.32,6.26-1.18,9.31-2.07c0.41-0.12,0.89-0.31,1-0.72c0.13-0.53-0.42-0.95-0.91-1.19c-2.38-1.16-5.01-1.69-7.61-2.18
						c-4.94-0.92-9.91-1.71-14.89-2.41c-2.53-0.36-5.07-0.69-7.6-1.01c-1.92-0.24-3.19,0.01-2.18,2.22
						C321.27,317.79,322.88,319.42,324.89,320.48z"/>
				</g>
			</mask>
			<linearGradient id="SVGID_3_" gradientUnits="userSpaceOnUse" x1="167.7119" y1="253.7099" x2="157.3085" y2="227.7015">
				<stop  offset="0.0626" style="stop-color:#96616B"/>
				<stop  offset="1" style="stop-color:#FFFFFF"/>
			</linearGradient>
			<path class="st49" d="M123.33,253.11c4.27,2.46,9.08,4.09,14.34,5.03c15.26,2.75,31.1,5.22,46.55,3.52
				c10.61-1.17,20.94-4.34,31.18-7.61c1.38-0.44,2.99-1.12,3.34-2.66c0.44-1.93-1.41-3.5-3.04-4.38
				c-7.96-4.27-16.76-6.23-25.47-8.02c-16.55-3.39-33.18-6.28-49.85-8.85c-8.48-1.31-16.96-2.53-25.46-3.7
				c-6.44-0.89-10.66,0.03-7.3,8.16C111.19,243.24,116.57,249.22,123.33,253.11z"/>
			<defs>
				<filter id="Adobe_OpacityMaskFilter_2_" filterUnits="userSpaceOnUse" x="291.65" y="235.13" width="68.25" height="23.44">
					<feFlood  style="flood-color:white;flood-opacity:1" result="back"/>
					<feBlend  in="SourceGraphic" in2="back" mode="normal"/>
				</filter>
			</defs>
			<mask maskUnits="userSpaceOnUse" x="291.65" y="235.13" width="68.25" height="23.44" id="SVGID_4_">
				<g class="st50">
					<defs>
						<filter id="Adobe_OpacityMaskFilter_3_" filterUnits="userSpaceOnUse" x="291.65" y="235.13" width="68.25" height="23.44">
							<feFlood  style="flood-color:white;flood-opacity:1" result="back"/>
							<feBlend  in="SourceGraphic" in2="back" mode="normal"/>
						</filter>
					</defs>
					<mask maskUnits="userSpaceOnUse" x="291.65" y="235.13" width="68.25" height="23.44" id="SVGID_4_">
						<g class="st51">
						</g>
					</mask>
					
						<linearGradient id="SVGID_5_" gradientUnits="userSpaceOnUse" x1="317.9063" y1="263.7574" x2="333.0114" y2="228.8717" gradientTransform="matrix(1 9.900000e-03 -9.900000e-03 1 1.561 -2.4274)">
						<stop  offset="0.0626" style="stop-color:#FFFFFF"/>
						<stop  offset="1" style="stop-color:#000000"/>
					</linearGradient>
					<path class="st52" d="M334.99,257.13c8.82-2.72,16.11-9.37,23.12-15.85c1.05-0.98,2.22-2.43,1.64-3.8
						c-0.44-1.03-1.62-1.33-2.65-1.48c-16.61-2.47-33.43,0.74-49.93,3.94c-2.94,0.57-5.96,1.17-8.53,2.84
						c-2.02,1.31-8.17,6.28-6.78,8.55c1.42,2.31,11.69,3.41,14.27,4.11C315.52,257.98,325.45,260.07,334.99,257.13z"/>
				</g>
			</mask>
			
				<linearGradient id="SVGID_6_" gradientUnits="userSpaceOnUse" x1="317.9063" y1="263.7574" x2="333.0114" y2="228.8717" gradientTransform="matrix(1 9.900000e-03 -9.900000e-03 1 1.561 -2.4274)">
				<stop  offset="0.0626" style="stop-color:#96616B"/>
				<stop  offset="1" style="stop-color:#FFFFFF"/>
			</linearGradient>
			<path class="st53" d="M334.99,257.13c8.82-2.72,16.11-9.37,23.12-15.85c1.05-0.98,2.22-2.43,1.64-3.8
				c-0.44-1.03-1.62-1.33-2.65-1.48c-16.61-2.47-33.43,0.74-49.93,3.94c-2.94,0.57-5.96,1.17-8.53,2.84
				c-2.02,1.31-8.17,6.28-6.78,8.55c1.42,2.31,11.69,3.41,14.27,4.11C315.52,257.98,325.45,260.07,334.99,257.13z"/>
			<g>
				<g>
					<g>
						<g>
							<path class="st54" d="M399.9,208.1c-0.23,25.98-46.88,46.54-104.18,45.91c-57.3-0.62-103.56-22.19-103.33-48.17
								c0.23-25.98,46.88-46.54,104.18-45.91C353.87,160.55,400.13,182.12,399.9,208.1z"/>
							<path class="st55" d="M399.92,205.8c-0.23,25.98-46.88,46.54-104.19,45.91c-57.3-0.62-103.57-22.2-103.34-48.17
								c0.23-25.98,46.88-46.54,104.19-45.91c25.53,0.28,48.87,4.71,66.87,11.86c9.39,3.71,17.33,8.15,23.36,13.11
								C395.24,189.5,400,197.43,399.92,205.8z"/>
						</g>
						<path class="st56" d="M385.1,197.7c-3.96,10.63-11.77,19.1-20.64,25.16c-8.89,6.05-18.87,9.87-28.85,13.27
							c-18.57,6.36-37.86,11.5-57.3,10.25c-7.85-0.52-15.61-2.05-23.37-3.61c-17.73-3.54-36.41-7.58-49.89-20.69
							c-5.7-5.52-3.08-15.27,1.63-20.61c3.27-3.73,7.62-6.14,11.98-8.11c26.96-12.26,57.12-11.17,86.11-14.83
							c19.49-2.45,38.76-7.13,58.33-9.03c0.13-0.02,0.23-0.02,0.36-0.02c9.39,3.71,17.33,8.15,23.36,13.11
							C387.68,187.49,386.86,192.99,385.1,197.7z"/>
					</g>
					<path class="st57" d="M306.11,224.09c6.07-5.81,12.21-13.47,11.25-22.26c-0.08-0.7-0.22-1.44-0.67-1.94
						c-0.62-0.68-1.59-0.7-2.46-0.67c-15.25,0.54-30.8,5-42.71,15.48c-8.72,7.67-15.17,18.39-18.17,30.21
						c-2.6,10.25,21.02,0.81,24.78-0.92C288.42,239.24,297.72,232.13,306.11,224.09z"/>
				</g>
				<g>
					<g>
						<g>
							<g>
								
									<ellipse transform="matrix(0.9981 -0.0614 0.0614 0.9981 -12.7295 12.9097)" class="st54" cx="203.53" cy="213.42" rx="103.79" ry="47.03"/>
								<path class="st55" d="M307.03,205.02c1.27,25.94-44.1,49.71-101.32,53.09c-57.22,3.37-104.64-14.93-105.91-40.87
									c-1.27-25.94,44.1-49.71,101.32-53.09c25.49-1.5,49.04,1.29,67.42,7.17c9.58,3.04,17.77,6.93,24.08,11.45
									C301.42,189.08,306.62,196.65,307.03,205.02z"/>
							</g>
							<path class="st56" d="M291.77,197.96c-3.34,10.88-10.64,19.89-19.14,26.55c-8.52,6.66-18.26,11.17-28.02,15.26
								c-18.16,7.64-37.11,14.12-56.59,14.23c-7.86,0.03-15.7-0.96-23.53-1.97c-17.9-2.3-36.77-5.03-50.99-17.17
								c-6-5.12-3.96-15.03,0.43-20.69c3.05-3.95,7.25-6.66,11.49-8.93c26.19-14.12,56.35-15.13,85.07-20.8
								c19.31-3.8,38.27-9.82,57.69-13.08c0.12-0.03,0.23-0.04,0.35-0.04c9.58,3.04,17.77,6.93,24.08,11.45
								C293.76,187.6,293.25,193.14,291.77,197.96z"/>
						</g>
						<path class="st57" d="M174.81,226.27c20.43,4.46,40.87,8.93,61.46,12.45c6.49,1.11,13.03,2.13,19.59,1.95
							c16.55-0.45,32.78-8.93,43.54-22.75c-37.77-4.06-75.48-8.76-113.11-14.1c-13.01-1.85-26.05-3.78-38.75-7.38
							c-10.22-2.9-20.95-7.4-31.69-6.24c-11.83,1.28-12.83,9.42-3.15,15.87C130.77,218.12,154.42,221.82,174.81,226.27z"/>
					</g>
					<path class="st58" d="M129.13,224.56c3.75,3.55,7.54,7.14,11.91,9.69c7.53,4.4,16.26,5.44,24.74,6.41
						c6.09,0.7,12.5,1.34,18.13-1.29c0.24-0.11,0.5-0.26,0.6-0.53c0.09-0.28-0.03-0.58-0.15-0.85c-2.66-5.76-7.18-10.22-11.95-13.99
						c-11.85-9.36-26.03-15.36-40.6-16.19c-3.31-0.19-10.11,0.08-10.13,5.25C121.67,217.6,126.34,221.91,129.13,224.56z"/>
					<path class="st58" d="M280.58,250.54c4.84,1.17,9.72,2.35,14.67,2.32c8.53-0.06,16.66-3.68,24.55-7.25
						c5.66-2.57,11.58-5.33,15.41-10.59c0.16-0.23,0.33-0.49,0.3-0.77c-0.04-0.29-0.27-0.5-0.5-0.67
						c-4.83-3.69-10.73-5.25-16.56-6.08c-14.48-2.07-29.55,0.05-42.73,6.92c-3,1.56-8.87,5.35-6.65,9.9
						C271,248.3,276.97,249.67,280.58,250.54z"/>
					<path class="st58" d="M345.42,218.33c4.19-0.18,8.43-0.37,12.17-1.55c6.45-2.04,11.01-6.88,15.4-11.61
						c3.16-3.4,6.42-7.02,6.98-12.17c0.02-0.22,0.03-0.47-0.12-0.7c-0.16-0.23-0.43-0.34-0.67-0.43
						c-5.31-1.86-10.49-1.74-15.28-1.06c-11.91,1.71-22.41,6.94-29.36,15.59c-1.58,1.96-4.35,6.4-0.64,9.57
						C337.15,218.75,342.29,218.46,345.42,218.33z"/>
					<path class="st59" d="M208.36,252.43c5.42,2.42,10.89,4.85,16.41,5.76c9.52,1.57,18.54-1.47,27.28-4.49
						c6.28-2.16,12.84-4.54,17.02-10.47c0.18-0.25,0.36-0.56,0.32-0.93c-0.05-0.38-0.31-0.69-0.56-0.94
						c-5.45-5.6-12.07-8.72-18.59-10.89c-16.19-5.4-32.98-5.62-47.58,0.57c-3.32,1.4-9.81,5.08-7.26,11.28
						C197.63,247.75,204.32,250.63,208.36,252.43z"/>
					<g>
						<g>
							<polygon class="st60" points="340.79,208.17 342.3,213.78 339.04,213.32 							"/>
							<path class="st60" d="M342.8,217.87l0,0.23c-0.15,16.61-20.97,29.88-46.5,29.6c-20.41-0.22-37.67-9.04-43.66-21.06
								c-1.52-3-2.33-6.22-2.3-9.55c0.15-16.64,20.97-29.9,46.5-29.63C322.24,187.75,342.76,201.35,342.8,217.87z"/>
						</g>
						
							<ellipse transform="matrix(0.0123 -0.9999 0.9999 0.0123 80.2207 503.3445)" class="st61" cx="294.89" cy="211.07" rx="30.12" ry="46.22"/>
						<path class="st62" d="M262.36,192.69c-3.74,3.13-6.83,7.38-8.31,12.32c-2.97,9.91,5.19,17.16,12.01,21.88
							c16.44,11.38,37.96,10.77,55.23,1.88c5.64-2.9,12.35-8.5,13.69-15.65c1.32-7.04-1.62-15.21-7.64-18.37
							c-9.08-4.77-19.1-6.87-29.01-8.79C285.96,183.56,272.78,183.97,262.36,192.69z"/>
						<path class="st63" d="M342.8,217.87l0,0.23c-0.15,16.61-20.97,29.88-46.5,29.6c-20.41-0.22-37.67-9.04-43.66-21.06
							c2.44,3.24,5.44,6,8.7,8.2c6.27,4.25,13.46,6.62,20.63,8.39c3.81,0.94,7.65,1.74,11.56,1.89c4.78,0.17,9.57-0.63,14.28-1.68
							c6.57-1.44,13.13-3.37,19.07-6.82c5.94-3.45,11.25-8.51,14.3-15.08C341.73,220.36,342.22,219.11,342.8,217.87z"/>
						<path class="st64" d="M279.45,188.91c-6.95,2.57-14.04,6.9-16.9,14.32c-1.13,2.92-1.51,6.12-1.63,9.29
							c-0.11,2.7-0.02,5.49,0.9,7.99c1.87,5.09,6.81,8.05,11.67,9.33c12.46,3.28,25.7-1.96,36.08-10.22
							c4.84-3.85,9.52-8.93,10.25-15.44c0.57-5.17-1.59-10.44-5.08-13.95C305.71,181.13,289.86,185.06,279.45,188.91z"/>
						<path class="st64" d="M332.38,223.38c-4.87,7.29-13.21,11.17-21.44,11.61c-1.18,0.06-2.43,0.05-3.46-0.59
							c-1.03-0.64-1.73-2.1-1.22-3.28c0.43-1,1.5-1.42,2.46-1.75c3.86-1.33,7.74-2.81,11.04-5.36c3.29-2.54,5.88-6.13,7.45-10.18
							c0.81-2.09,1.46-4.42,1.58-6.7c0.14-2.5-0.97-4.02-1.28-6.3c-0.55-4.04,1.94-6.47,4.74-3.3c2.71,3.06,3.94,7.69,4.06,11.86
							C336.45,214.33,335.05,219.38,332.38,223.38z"/>
					</g>
					<g>
						<g>
							<polygon class="st60" points="214.83,198.39 216.34,204 213.08,203.53 							"/>
							<path class="st60" d="M216.84,208.09l0,0.23c-0.15,16.61-20.97,29.88-46.5,29.6c-20.41-0.22-37.67-9.04-43.66-21.06
								c-1.52-3-2.33-6.22-2.3-9.55c0.15-16.64,20.97-29.9,46.5-29.63C196.28,177.96,216.8,191.56,216.84,208.09z"/>
						</g>
						
							<ellipse transform="matrix(0.0123 -0.9999 0.9999 0.0123 -34.4124 367.7248)" class="st61" cx="168.93" cy="201.28" rx="30.12" ry="46.22"/>
						<path class="st62" d="M136.4,182.91c-3.74,3.13-6.83,7.38-8.31,12.32c-2.97,9.91,5.19,17.16,12.01,21.88
							c16.44,11.38,37.96,10.77,55.23,1.88c5.64-2.9,12.35-8.5,13.69-15.65c1.32-7.04-1.62-15.21-7.64-18.37
							c-9.08-4.77-19.1-6.87-29.01-8.79C160,173.77,146.82,174.18,136.4,182.91z"/>
						<path class="st63" d="M216.84,208.09l0,0.23c-0.15,16.61-20.97,29.88-46.5,29.6c-20.41-0.22-37.67-9.04-43.66-21.06
							c2.44,3.24,5.44,6,8.7,8.2c6.27,4.24,13.46,6.62,20.63,8.39c3.82,0.94,7.65,1.74,11.56,1.89c4.78,0.17,9.57-0.63,14.28-1.68
							c6.57-1.44,13.13-3.37,19.07-6.82c5.94-3.45,11.25-8.51,14.3-15.08C215.77,210.58,216.26,209.32,216.84,208.09z"/>
						<path class="st64" d="M153.49,179.12c-6.95,2.57-14.04,6.9-16.9,14.32c-1.13,2.92-1.51,6.12-1.63,9.29
							c-0.11,2.7-0.02,5.49,0.9,7.99c1.87,5.09,6.81,8.05,11.67,9.33c12.46,3.28,25.7-1.96,36.08-10.22
							c4.83-3.85,9.52-8.93,10.25-15.44c0.57-5.17-1.59-10.44-5.08-13.95C179.75,171.34,163.9,175.27,153.49,179.12z"/>
						<path class="st64" d="M206.42,213.59c-4.87,7.29-13.21,11.17-21.44,11.61c-1.18,0.06-2.43,0.05-3.46-0.59
							c-1.03-0.64-1.73-2.1-1.22-3.28c0.43-1,1.5-1.42,2.46-1.75c3.86-1.33,7.74-2.81,11.04-5.36c3.29-2.54,5.88-6.13,7.45-10.18
							c0.81-2.09,1.46-4.42,1.58-6.7c0.14-2.5-0.97-4.02-1.28-6.3c-0.55-4.04,1.94-6.47,4.74-3.3c2.71,3.06,3.94,7.69,4.06,11.86
							C210.49,204.54,209.09,209.59,206.42,213.59z"/>
					</g>
					<g>
						<g>
							<polygon class="st60" points="234.06,210.17 235.29,214.69 232.66,214.32 							"/>
							<path class="st60" d="M235.69,217.99l0,0.18c-0.12,13.39-16.9,24.08-37.48,23.86c-16.45-0.18-30.36-7.29-35.19-16.97
								c-1.22-2.42-1.87-5.01-1.85-7.7c0.12-13.41,16.9-24.1,37.48-23.88C219.12,193.71,235.65,204.67,235.69,217.99z"/>
						</g>
						<path class="st61" d="M234.32,212.91c-0.12,13.41-16.9,24.09-37.47,23.87c-20.57-0.22-37.15-11.27-37.03-24.68
							c0.12-13.41,16.9-24.09,37.47-23.87C217.86,188.45,234.44,199.5,234.32,212.91z"/>
						<path class="st62" d="M170.85,197.7c-3.01,2.52-5.5,5.95-6.7,9.93c-2.39,7.99,4.19,13.83,9.68,17.63
							c13.25,9.17,30.59,8.68,44.52,1.52c4.54-2.34,9.95-6.85,11.03-12.61c1.06-5.67-1.31-12.26-6.16-14.81
							c-7.32-3.84-15.39-5.54-23.38-7.09C189.88,190.33,179.25,190.66,170.85,197.7z"/>
						<path class="st63" d="M235.69,217.99l0,0.18c-0.12,13.39-16.9,24.08-37.48,23.86c-16.45-0.18-30.36-7.29-35.19-16.97
							c1.96,2.61,4.38,4.84,7.01,6.61c5.05,3.42,10.85,5.33,16.62,6.77c3.07,0.75,6.17,1.4,9.31,1.53
							c3.85,0.13,7.72-0.51,11.51-1.35c5.3-1.16,10.58-2.71,15.37-5.49c4.79-2.78,9.07-6.86,11.53-12.16
							C234.83,219.99,235.22,218.98,235.69,217.99z"/>
						<path class="st64" d="M184.63,194.64c-5.6,2.07-11.31,5.56-13.62,11.54c-0.91,2.35-1.22,4.93-1.32,7.48
							c-0.09,2.18-0.02,4.42,0.73,6.44c1.51,4.1,5.48,6.48,9.4,7.52c10.04,2.64,20.71-1.58,29.08-8.24c3.9-3.1,7.68-7.2,8.26-12.44
							c0.46-4.16-1.28-8.41-4.09-11.25C205.8,188.38,193.02,191.54,184.63,194.64z"/>
						<path class="st64" d="M227.29,222.42c-3.93,5.88-10.65,9-17.28,9.35c-0.95,0.05-1.96,0.04-2.79-0.48
							c-0.83-0.52-1.39-1.7-0.99-2.65c0.35-0.81,1.21-1.15,1.98-1.41c3.11-1.07,6.24-2.26,8.9-4.32c2.65-2.04,4.74-4.94,6.01-8.2
							c0.65-1.68,1.17-3.56,1.28-5.4c0.11-2.02-0.78-3.24-1.03-5.08c-0.44-3.25,1.56-5.21,3.82-2.66c2.18,2.47,3.18,6.2,3.27,9.56
							C230.57,215.13,229.44,219.2,227.29,222.42z"/>
					</g>
					<g>
						<g>
							<polygon class="st60" points="378.47,181.91 379.7,186.43 377.07,186.05 							"/>
							<path class="st60" d="M380.1,189.73l0,0.18c-0.12,13.39-16.9,24.08-37.48,23.86c-16.45-0.18-30.36-7.29-35.19-16.97
								c-1.22-2.42-1.87-5.01-1.85-7.7c0.12-13.41,16.9-24.1,37.48-23.88C363.53,165.44,380.07,176.41,380.1,189.73z"/>
						</g>
						
							<ellipse transform="matrix(0.0123 -0.9999 0.9999 0.0123 153.0668 523.4358)" class="st61" cx="341.48" cy="184.24" rx="24.27" ry="37.25"/>
						<path class="st62" d="M315.26,169.43c-3.01,2.52-5.5,5.95-6.7,9.93c-2.39,7.99,4.19,13.83,9.68,17.63
							c13.25,9.17,30.59,8.68,44.52,1.52c4.54-2.34,9.95-6.85,11.03-12.61c1.06-5.67-1.31-12.26-6.16-14.81
							c-7.32-3.84-15.39-5.54-23.38-7.08C334.29,162.07,323.67,162.4,315.26,169.43z"/>
						<path class="st63" d="M380.1,189.73l0,0.18c-0.12,13.39-16.9,24.08-37.48,23.86c-16.45-0.18-30.36-7.29-35.19-16.97
							c1.96,2.61,4.38,4.84,7.01,6.61c5.05,3.42,10.85,5.33,16.63,6.77c3.07,0.75,6.17,1.4,9.31,1.53
							c3.85,0.13,7.72-0.51,11.51-1.35c5.3-1.16,10.58-2.71,15.37-5.49c4.79-2.78,9.07-6.86,11.53-12.16
							C379.24,191.73,379.63,190.72,380.1,189.73z"/>
						<path class="st64" d="M329.04,166.38c-5.6,2.07-11.31,5.56-13.62,11.54c-0.91,2.35-1.22,4.93-1.32,7.48
							c-0.09,2.18-0.02,4.42,0.73,6.44c1.51,4.1,5.48,6.48,9.4,7.52c10.04,2.64,20.71-1.58,29.08-8.24c3.9-3.1,7.68-7.2,8.26-12.44
							c0.46-4.16-1.28-8.41-4.1-11.25C350.21,160.11,337.43,163.28,329.04,166.38z"/>
						<path class="st64" d="M371.7,194.16c-3.93,5.88-10.65,9-17.28,9.35c-0.95,0.05-1.96,0.04-2.79-0.48
							c-0.83-0.52-1.39-1.7-0.99-2.65c0.35-0.81,1.21-1.15,1.98-1.41c3.11-1.07,6.24-2.26,8.9-4.32c2.65-2.04,4.74-4.94,6.01-8.2
							c0.65-1.68,1.17-3.56,1.28-5.4c0.11-2.02-0.78-3.24-1.03-5.08c-0.44-3.25,1.56-5.21,3.82-2.66c2.18,2.47,3.18,6.2,3.27,9.56
							C374.98,186.87,373.85,190.94,371.7,194.16z"/>
					</g>
					<g>
						<g>
							<polygon class="st65" points="279.35,215.34 280.87,220.96 277.61,220.49 							"/>
							<path class="st65" d="M281.35,225.25c0,0.11,0,0.21-0.02,0.32c-0.4,16.5-21.12,29.58-46.46,29.31
								c-21.29-0.23-39.13-9.81-44.38-22.63c-1.06-2.56-1.6-5.25-1.58-8c0.15-16.61,20.97-29.88,46.5-29.6
								C260.92,194.92,281.5,208.64,281.35,225.25z"/>
						</g>
						
							<ellipse transform="matrix(0.0123 -0.9999 0.9999 0.0123 12.3651 448.9966)" class="st66" cx="233.45" cy="218.24" rx="30.12" ry="46.22"/>
						<path class="st65" d="M238.38,204.61c-1.01,4.99-3.35,10.29-4.44,13.03c-2.37,6.01-5.83,11.76-10.94,15.14
							c-8.09,5.42-19.67,3.27-25.72-4.71c-0.17-0.21-0.33-0.44-0.47-0.67c-0.93-1.34-1.69-2.82-1.99-4.45
							c-0.6-3.33,0.73-6.67,2.03-9.73c1.92-4.59,4.01-9.41,7.76-12.35c2.02-1.61,4.43-2.57,6.82-3.37
							c4.51-1.56,9.13-2.68,13.82-3.41c3.16-0.49,8.69-2.15,11.49,0.35C239.12,196.59,239.19,200.49,238.38,204.61z"/>
						<path class="st65" d="M267.68,233.3c-1.01,1.07-2.11,2-3.28,2.81c-3.34,2.33-7.24,3.73-11.1,4.88
							c-3.41,1-6.99,1.83-10.48,1.19c-3.48-0.63-6.91-3.08-7.96-6.79c-0.89-3.13,0.02-6.52,1.05-9.58
							c1.87-5.42,4.19-10.65,6.93-15.6c1.23-2.19,2.72-5.46,4.5-7.96c0.85-1.21,1.75-2.25,2.72-2.93c6.5-4.57,17.19,2.64,20.56,8.67
							C274.98,215.84,273.69,226.91,267.68,233.3z"/>
						<path class="st67" d="M197.73,203.83c-7.15,5.38-9.32,17.3-4.61,25.28c1.39,2.35,3.25,4.33,5.24,6.09
							c2.95,2.61,6.21,4.79,9.68,6.47c2.26,1.09,4.73,1.98,7.15,1.49c3.51-0.7,6-4.04,8.17-7.15c2.52-3.61,5.15-7.55,5.24-12.1
							c0.03-1.4-0.23-2.88-1.1-3.91c-1.28-1.51-3.42-1.54-5.3-1.46c-3.3,0.14-6.61,0.27-9.91,0.41c-2.19,0.09-4.63,0.09-6.24-1.54
							c-1.47-1.48-1.8-3.9-1.67-6.09c0.16-2.66,0.88-5.28,2.08-7.59c0.61-1.18,1.38-2.38,1.38-3.74c0.02-2.4-2.95-4.08-4.72-2.67
							L197.73,203.83z"/>
						<path class="st68" d="M239.9,246.7c4.43,1.52,9.24,0.11,13.58-1.72c3.85-1.62,7.59-3.56,11.17-5.81
							c4.46-2.79,8.83-6.24,11.2-11.24c3.9-8.25,0.56-19.67-6.99-23.87c-1.04-0.58-2.37-1.01-3.33-0.27c-1.07,0.83-1,2.56-0.76,3.97
							c1.05,5.94,3.4,12.19,1.31,17.79c-1.99,5.33-7.41,8.09-12.56,9.22c-3.85,0.84-8.88,0.35-10.24-3.7
							c-0.57-1.7-0.32-3.7-1.21-5.22c-1.48-2.52-5.28-1.92-7.03,0.38C230.44,232.27,232.94,244.3,239.9,246.7z"/>
						<path class="st69" d="M281.33,225.57c-0.4,16.5-21.12,29.58-46.46,29.31c-21.29-0.23-39.13-9.81-44.38-22.63
							c2.23,2.59,4.66,4.96,7.25,7.1c7.61,6.28,16.6,10.49,25.96,12.33c3.61,0.73,7.28,1.09,10.92,0.81
							c4.41-0.34,8.71-1.65,12.94-3.05c12.15-4,24.88-9.46,32.07-20.95C280.22,227.53,280.78,226.55,281.33,225.57z"/>
					</g>
					<g>
						<g>
							<polygon class="st65" points="354.14,185.56 355.65,191.17 352.39,190.7 							"/>
							<path class="st65" d="M356.14,195.47c0,0.11,0,0.21-0.02,0.32c-0.4,16.5-21.12,29.58-46.46,29.31
								c-21.29-0.23-39.13-9.81-44.38-22.63c-1.06-2.56-1.6-5.25-1.58-8c0.15-16.61,20.97-29.88,46.5-29.6
								C335.71,165.13,356.29,178.85,356.14,195.47z"/>
						</g>
						<path class="st66" d="M354.45,188.96c-0.15,16.63-20.96,29.89-46.49,29.62c-25.53-0.28-46.1-13.99-45.95-30.62
							s20.97-29.89,46.49-29.62C334.03,158.61,354.6,172.32,354.45,188.96z"/>
						<path class="st65" d="M313.16,174.83c-1.01,4.99-3.35,10.29-4.44,13.03c-2.37,6.01-5.83,11.76-10.94,15.14
							c-8.09,5.42-19.67,3.27-25.72-4.71c-0.17-0.21-0.33-0.44-0.47-0.67c-0.93-1.34-1.69-2.82-1.99-4.45
							c-0.6-3.33,0.73-6.67,2.03-9.73c1.92-4.59,4.01-9.41,7.76-12.35c2.02-1.61,4.43-2.57,6.82-3.37
							c4.51-1.56,9.13-2.68,13.82-3.41c3.16-0.49,8.69-2.15,11.49,0.35C313.9,166.8,313.97,170.7,313.16,174.83z"/>
						<path class="st65" d="M342.46,203.51c-1.01,1.07-2.11,2-3.28,2.81c-3.34,2.33-7.24,3.73-11.1,4.88
							c-3.41,1-6.99,1.83-10.48,1.19c-3.48-0.63-6.91-3.08-7.96-6.79c-0.89-3.13,0.02-6.52,1.05-9.58
							c1.87-5.42,4.19-10.65,6.93-15.6c1.23-2.19,2.72-5.46,4.5-7.96c0.85-1.21,1.75-2.25,2.72-2.93c6.5-4.56,17.19,2.64,20.56,8.67
							C349.77,186.06,348.48,197.13,342.46,203.51z"/>
						<path class="st67" d="M272.51,174.05c-7.15,5.38-9.32,17.3-4.61,25.28c1.39,2.35,3.25,4.33,5.24,6.09
							c2.95,2.61,6.21,4.79,9.68,6.47c2.26,1.09,4.73,1.98,7.15,1.49c3.51-0.7,6-4.04,8.17-7.15c2.52-3.61,5.15-7.56,5.24-12.1
							c0.03-1.4-0.23-2.88-1.1-3.91c-1.28-1.51-3.42-1.54-5.3-1.46c-3.3,0.14-6.61,0.27-9.91,0.41c-2.19,0.09-4.63,0.09-6.24-1.54
							c-1.47-1.48-1.8-3.9-1.67-6.09c0.16-2.66,0.88-5.28,2.08-7.59c0.61-1.18,1.38-2.38,1.38-3.74c0.02-2.4-2.95-4.08-4.72-2.67
							L272.51,174.05z"/>
						<path class="st68" d="M314.69,216.91c4.43,1.52,9.24,0.11,13.58-1.72c3.85-1.62,7.59-3.56,11.17-5.81
							c4.46-2.79,8.83-6.24,11.2-11.24c3.9-8.25,0.56-19.67-6.99-23.87c-1.04-0.58-2.37-1.02-3.33-0.27c-1.06,0.83-1,2.56-0.75,3.97
							c1.05,5.94,3.4,12.19,1.31,17.79c-1.99,5.33-7.41,8.09-12.56,9.22c-3.85,0.84-8.88,0.35-10.24-3.7
							c-0.57-1.7-0.32-3.7-1.21-5.22c-1.48-2.52-5.28-1.92-7.03,0.38C305.23,202.49,307.72,214.52,314.69,216.91z"/>
						<path class="st69" d="M356.11,195.79c-0.4,16.5-21.12,29.58-46.46,29.31c-21.29-0.23-39.13-9.81-44.38-22.63
							c2.23,2.59,4.66,4.96,7.25,7.1c7.61,6.28,16.6,10.49,25.96,12.33c3.61,0.73,7.28,1.09,10.92,0.81
							c4.41-0.34,8.71-1.65,12.94-3.05c12.15-4,24.88-9.46,32.07-20.95C355.01,197.75,355.56,196.77,356.11,195.79z"/>
					</g>
					<g>
						<g>
							<polygon class="st65" points="193.82,182.67 195.33,188.28 192.07,187.81 							"/>
							<path class="st65" d="M195.82,192.57c0,0.11,0,0.21-0.02,0.32c-0.4,16.5-21.12,29.58-46.46,29.31
								c-21.29-0.23-39.13-9.81-44.38-22.63c-1.06-2.56-1.6-5.25-1.58-8c0.15-16.61,20.97-29.88,46.5-29.6
								C175.38,162.24,195.97,175.96,195.82,192.57z"/>
						</g>
						
							<ellipse transform="matrix(0.0123 -0.9999 0.9999 0.0123 -39.4475 331.188)" class="st66" cx="147.91" cy="185.56" rx="30.12" ry="46.22"/>
						<path class="st65" d="M152.84,171.93c-1.01,4.99-3.35,10.29-4.44,13.03c-2.37,6.01-5.83,11.76-10.94,15.14
							c-8.09,5.42-19.67,3.27-25.72-4.71c-0.17-0.21-0.33-0.44-0.47-0.67c-0.93-1.34-1.69-2.82-1.99-4.45
							c-0.6-3.33,0.73-6.67,2.03-9.73c1.92-4.59,4.01-9.41,7.76-12.35c2.02-1.61,4.43-2.57,6.82-3.37
							c4.51-1.56,9.13-2.68,13.82-3.41c3.16-0.49,8.69-2.15,11.49,0.35C153.58,163.91,153.65,167.81,152.84,171.93z"/>
						<path class="st65" d="M182.14,200.62c-1.01,1.07-2.11,2-3.28,2.81c-3.34,2.33-7.24,3.73-11.1,4.88
							c-3.41,1-6.99,1.83-10.48,1.19c-3.48-0.63-6.91-3.08-7.96-6.79c-0.89-3.13,0.02-6.52,1.05-9.58
							c1.87-5.42,4.19-10.65,6.93-15.6c1.23-2.19,2.72-5.46,4.5-7.96c0.85-1.21,1.75-2.25,2.72-2.93c6.5-4.56,17.19,2.64,20.56,8.67
							C189.44,183.16,188.15,194.23,182.14,200.62z"/>
						<path class="st67" d="M112.19,171.16c-7.15,5.38-9.32,17.3-4.61,25.28c1.39,2.35,3.25,4.33,5.24,6.09
							c2.95,2.61,6.21,4.79,9.68,6.47c2.26,1.09,4.73,1.98,7.15,1.49c3.51-0.7,6-4.04,8.17-7.15c2.52-3.61,5.15-7.56,5.24-12.1
							c0.03-1.4-0.23-2.88-1.1-3.91c-1.28-1.51-3.42-1.54-5.3-1.46c-3.3,0.14-6.61,0.27-9.91,0.41c-2.19,0.09-4.63,0.09-6.24-1.54
							c-1.47-1.48-1.8-3.9-1.67-6.09c0.16-2.66,0.88-5.28,2.08-7.59c0.61-1.18,1.38-2.38,1.38-3.74c0.02-2.4-2.95-4.08-4.72-2.67
							L112.19,171.16z"/>
						<path class="st68" d="M154.37,214.02c4.43,1.52,9.24,0.11,13.58-1.72c3.85-1.62,7.59-3.56,11.17-5.81
							c4.46-2.79,8.83-6.24,11.2-11.24c3.9-8.25,0.56-19.67-6.99-23.87c-1.04-0.58-2.37-1.02-3.33-0.27c-1.06,0.83-1,2.56-0.76,3.97
							c1.05,5.94,3.4,12.19,1.31,17.79c-1.99,5.33-7.41,8.09-12.56,9.22c-3.85,0.84-8.88,0.35-10.24-3.7
							c-0.57-1.7-0.32-3.7-1.21-5.22c-1.48-2.52-5.28-1.92-7.03,0.38C144.91,199.6,147.4,211.62,154.37,214.02z"/>
						<path class="st69" d="M195.79,192.89c-0.4,16.5-21.12,29.58-46.46,29.31c-21.29-0.23-39.13-9.81-44.38-22.63
							c2.23,2.59,4.66,4.96,7.25,7.1c7.61,6.28,16.6,10.49,25.96,12.33c3.61,0.73,7.28,1.09,10.92,0.81
							c4.41-0.34,8.71-1.65,12.94-3.05c12.15-4,24.88-9.46,32.07-20.95C194.69,194.86,195.24,193.88,195.79,192.89z"/>
					</g>
					<path class="st70" d="M153.28,217.47c1.91,0.59,3.82,1.17,5.74,1.74c8.89,2.66,17.85,5.1,26.9,7.03
						c8.91,1.89,17.63,2.28,26.7,2.61c4.46,0.16,8.93,0.33,13.39,0.49c-0.12-1.66-1.09-3.08-2.16-4.26
						c-5.44-5.99-13.56-7.67-21.15-9.07c-13.1-2.41-26.2-4.82-39.29-7.23c-10.13-1.86-20.32-3.73-30.59-3.62
						c-0.97,0.01-2.05,0.09-2.73,0.85c-2.03,2.27,8.66,6.82,10.06,7.28C144.52,214.73,148.9,216.12,153.28,217.47z"/>
					<path class="st70" d="M307.67,219.57c17.99-10.9,37.35-19.2,54.24-32.06c2.43-1.85,4.84-3.84,6.61-6.45
						c1.77-2.61,2.83-5.95,2.26-9.14c-0.09-0.5-0.23-1.01-0.56-1.36c-0.49-0.53-1.25-0.56-1.94-0.56
						c-15.48,0.06-30.8,4.32-44.99,11.11c-14.19,6.79-27.3,16.07-39.61,26.38c-4.5,3.77-8.96,7.75-12.22,12.83
						c-2.06,3.21-6.23,11.34-4.35,15.47c1.8,3.94,9.15,0.48,12-0.53C289.28,231.62,298.37,225.21,307.67,219.57z"/>
					<g>
						<g>
							<g>
								<polygon class="st71" points="388.64,143.53 264.33,201.27 70.34,167.6 94.52,157.49 208.23,110.01 355.29,137.33 								
									"/>
								<polygon class="st37" points="388.64,143.53 387.64,165.91 387.33,173.35 262.93,241.41 264.33,201.27 268.91,199.14 
																	"/>
								<polygon class="st38" points="264.33,201.27 263.43,227.24 262.93,241.41 71.14,194.57 70.42,170.26 70.34,167.6 								
									"/>
							</g>
							<path class="st41" d="M387.64,165.91l-0.32,7.43l-124.4,68.07l1.41-40.15l4.57-2.13c4.75,0.97,9.6,1.32,14.45,1.21
								c12.14-0.24,24.1-3.18,35.87-6.29c7.04-1.85,14.07-3.77,20.93-6.31C356.41,181.73,371.52,172.23,387.64,165.91z"/>
							<path class="st40" d="M264.33,201.46l-1.41,39.96L71.14,194.57l-0.72-24.31c1.36,1.6,2.75,3.13,4.2,4.25
								c4.65,3.56,10.02,6.03,15.3,8.2C145.67,205.55,243.15,233.36,264.33,201.46z"/>
							<path class="st42" d="M291.68,190.43c-6.31,2.06-12.88,4.12-17.81,8.91c-4.93,4.78-7.64,13.2-4.29,19.42
								c0.49,0.91,1.12,1.77,1.97,2.26c0.85,0.49,1.84,0.57,2.8,0.61c13.91,0.61,27.54-4.6,39.96-11.51
								c12.42-6.91,23.99-15.54,36.38-22.53c9.18-5.18,19.51-9.19,27.74-16.15c5.48-4.63,7.42-10.97-0.58-13.07
								c-7.9-2.08-14.79,2.08-21.73,5.55c-9.95,4.97-20.05,9.59-30.27,13.83C314.61,182.44,303.21,186.66,291.68,190.43z"/>
							<path class="st72" d="M355.85,138.56c-25.48,12.67-52.43,21.74-79.99,26.99c-36.52,6.95-74.77,6.05-111.66,3.17
								c-1.29-0.11-2.57-0.21-3.86-0.32c-14.76-1.24-29.47-3.05-44.12-5.44c-6.2-1.01-14.02-1.87-21.15-4.25l20.4-8.52l93.3-38.96
								l53.75,9.99L355.85,138.56z"/>
							<path class="st73" d="M261.97,120c-8.71,9.02-19.36,15.69-30.48,20.62c-11.73,5.2-24.06,8.55-36.55,10.48
								c-21.95,3.41-44.27,2.52-66.25,0.01c-3.67-0.43-9.21-0.61-13.77-2.15l93.3-38.96L261.97,120z"/>
							<polygon class="st74" points="387.24,143.89 264.33,201.27 71.56,167.61 260.71,197.21 							"/>
							<path class="st43" d="M242.35,223.87c-15.88,1.58-31.74-2.39-47.28-6.33c-16.72-4.24-33.45-8.48-50.17-12.71
								c-14.36-3.64-28.77-7.29-42.6-12.88c-2.57-1.04-5.45-2.55-6.06-5.48c-0.11-0.55-0.13-1.17,0.15-1.65
								c0.25-0.44,0.71-0.7,1.14-0.9c4.51-2.13,9.64-1.65,14.53-1.13c22.49,2.42,44.97,4.96,67.44,7.61
								c15.64,1.85,31.3,3.75,46.77,6.89c7.17,1.45,28.66,2.84,29.11,14.08C255.73,219.89,248.95,223.21,242.35,223.87z"/>
						</g>
						<path class="st43" d="M197.87,184.22c22.87,3.55,46.13,5.97,69.02,2.63c22.89-3.33,45.6-12.84,62.21-30.46
							c4.4-4.67,8.61-11.17,6.79-17.58c-39.05-12.38-79.75,8.02-120.09,13.46c-26.35,3.56-53.02,0.65-79.56-0.07
							c-24.23-0.66-27.17,11.93-3.58,18.71C153.96,177.03,176.1,180.83,197.87,184.22z"/>
					</g>
				</g>
			</g>
			<g class="st75">
				<path class="st76" d="M306.12,142.82c-0.01,0.95-2.94,1.69-6.54,1.65c-3.61-0.04-6.52-0.84-6.51-1.79
					c0.01-0.95,2.94-1.69,6.54-1.65C303.22,141.07,306.13,141.87,306.12,142.82z"/>
				<path class="st76" d="M312.35,157.94c-0.01,0.83-2.26,1.47-5.03,1.44c-2.77-0.03-5.01-0.72-5.01-1.55
					c0.01-0.83,2.26-1.47,5.03-1.44C310.11,156.42,312.36,157.12,312.35,157.94z"/>
				<path class="st76" d="M317.86,146.41c-0.05,0.71-1.51,1.17-3.27,1.03s-3.15-0.82-3.1-1.53c0.05-0.71,1.51-1.17,3.27-1.03
					C316.52,145.02,317.91,145.7,317.86,146.41z"/>
				<path class="st76" d="M289.41,149.58c-0.01,0.56-1.74,1-3.87,0.98c-2.13-0.02-3.86-0.5-3.85-1.06c0.01-0.56,1.74-1,3.87-0.98
					C287.69,148.55,289.42,149.02,289.41,149.58z"/>
				<path class="st76" d="M293.1,158.53c0,0.49-1.34,0.87-2.98,0.85c-1.64-0.02-2.97-0.43-2.96-0.92c0-0.49,1.34-0.87,2.98-0.85
					C291.78,157.63,293.1,158.04,293.1,158.53z"/>
				<path class="st76" d="M296.36,151.71c-0.03,0.42-0.89,0.69-1.93,0.61c-1.04-0.08-1.86-0.49-1.84-0.91
					c0.03-0.42,0.89-0.69,1.93-0.61C295.57,150.88,296.39,151.29,296.36,151.71z"/>
			</g>
			<g class="st77">
				<path class="st40" d="M228.15,132.2c0-0.32-1.95-0.61-4.35-0.63c-2.41-0.03-4.36,0.22-4.36,0.54c0,0.32,1.95,0.61,4.35,0.63
					C226.19,132.76,228.15,132.52,228.15,132.2z"/>
				<path class="st40" d="M232.44,127.11c0-0.28-1.5-0.53-3.35-0.55c-1.85-0.02-3.35,0.19-3.36,0.47c0,0.28,1.5,0.53,3.35,0.55
					C230.94,127.6,232.44,127.39,232.44,127.11z"/>
				<path class="st40" d="M236.02,131.1c-0.02-0.24-1-0.42-2.17-0.39c-1.18,0.03-2.11,0.25-2.09,0.49c0.02,0.24,1,0.42,2.17,0.39
					C235.11,131.56,236.04,131.34,236.02,131.1z"/>
				<path class="st40" d="M217.06,129.71c0-0.19-1.15-0.36-2.58-0.38c-1.42-0.02-2.58,0.13-2.58,0.32c0,0.19,1.15,0.36,2.58,0.38
					C215.9,130.04,217.06,129.9,217.06,129.71z"/>
				<path class="st40" d="M219.6,126.69c0-0.17-0.89-0.31-1.98-0.32c-1.1-0.01-1.98,0.11-1.99,0.28c0,0.17,0.89,0.31,1.98,0.32
					C218.71,126.99,219.6,126.86,219.6,126.69z"/>
				<path class="st40" d="M221.72,129.06c-0.01-0.14-0.59-0.25-1.29-0.23c-0.7,0.02-1.25,0.15-1.23,0.29
					c0.01,0.14,0.59,0.25,1.29,0.23C221.18,129.33,221.73,129.2,221.72,129.06z"/>
			</g>
			<g class="st1">
				<path class="st40" d="M250.8,169.39c0.01-1-3.62-1.89-8.11-1.99c-4.49-0.1-8.14,0.62-8.15,1.62c-0.01,1,3.62,1.89,8.11,1.99
					C247.14,171.11,250.79,170.38,250.8,169.39z"/>
				<path class="st40" d="M258.93,153.8c0.01-0.87-2.78-1.63-6.23-1.71c-3.45-0.08-6.26,0.56-6.27,1.42
					c-0.01,0.87,2.78,1.63,6.23,1.71C256.11,155.3,258.92,154.66,258.93,153.8z"/>
				<path class="st40" d="M265.51,166.1c-0.04-0.74-1.85-1.28-4.05-1.21c-2.19,0.07-3.94,0.74-3.9,1.48
					c0.04,0.74,1.85,1.28,4.05,1.21C263.8,167.5,265.55,166.84,265.51,166.1z"/>
				<path class="st40" d="M230.16,161.63c0.01-0.59-2.14-1.12-4.8-1.18c-2.66-0.06-4.82,0.37-4.83,0.96
					c-0.01,0.59,2.14,1.12,4.8,1.18C227.99,162.65,230.15,162.22,230.16,161.63z"/>
				<path class="st40" d="M234.97,152.4c0.01-0.51-1.64-0.97-3.69-1.01c-2.04-0.05-3.71,0.33-3.71,0.84
					c-0.01,0.51,1.64,0.97,3.69,1.01C233.3,153.29,234.96,152.91,234.97,152.4z"/>
				<path class="st40" d="M238.87,159.68c-0.02-0.44-1.1-0.76-2.39-0.72s-2.33,0.44-2.31,0.87c0.02,0.44,1.1,0.76,2.39,0.72
					C237.85,160.51,238.89,160.12,238.87,159.68z"/>
			</g>
			<g class="st78">
				<path class="st76" d="M230.89,145.65c-0.09-1.21,2.81-2.62,6.47-3.15c3.66-0.52,6.7,0.04,6.79,1.25
					c0.09,1.21-2.81,2.62-6.47,3.15C234.02,147.43,230.98,146.87,230.89,145.65z"/>
				<path class="st76" d="M223.05,127.35c-0.08-1.05,2.14-2.24,4.96-2.64c2.81-0.4,5.16,0.13,5.23,1.18
					c0.08,1.05-2.14,2.24-4.96,2.64C225.47,128.93,223.12,128.4,223.05,127.35z"/>
				<path class="st76" d="M218.62,142.94c-0.03-0.91,1.41-1.73,3.21-1.83c1.8-0.1,3.28,0.55,3.3,1.46c0.03,0.91-1.41,1.73-3.21,1.83
					C220.13,144.5,218.65,143.85,218.62,142.94z"/>
				<path class="st76" d="M247.15,134.36c-0.05-0.72,1.66-1.55,3.83-1.86c2.17-0.31,3.96,0.02,4.02,0.74s-1.66,1.55-3.83,1.86
					C249,135.41,247.2,135.08,247.15,134.36z"/>
				<path class="st76" d="M242.51,123.53c-0.05-0.62,1.27-1.32,2.93-1.56c1.67-0.24,3.05,0.07,3.1,0.7s-1.27,1.32-2.93,1.56
					C243.94,124.47,242.55,124.15,242.51,123.53z"/>
				<path class="st76" d="M239.89,132.76c-0.01-0.54,0.84-1.02,1.9-1.09c1.06-0.06,1.94,0.32,1.95,0.86
					c0.02,0.54-0.84,1.02-1.9,1.09C240.78,133.68,239.9,133.29,239.89,132.76z"/>
			</g>
			<g class="st78">
				<path class="st76" d="M178.96,148.96c0.01-1.01,2.48-1.94,5.53-2.09c3.05-0.15,5.52,0.55,5.51,1.56
					c-0.01,1.01-2.48,1.94-5.53,2.09C181.43,150.67,178.96,149.97,178.96,148.96z"/>
				<path class="st76" d="M173.67,133.27c0-0.88,1.91-1.68,4.26-1.79c2.35-0.11,4.24,0.5,4.24,1.38c-0.01,0.87-1.91,1.68-4.26,1.79
					C175.56,134.76,173.67,134.14,173.67,133.27z"/>
				<path class="st76" d="M169.02,145.78c0.04-0.75,1.28-1.32,2.76-1.26c1.49,0.05,2.67,0.71,2.63,1.46
					c-0.04,0.75-1.28,1.32-2.76,1.26C170.16,147.18,168.98,146.53,169.02,145.78z"/>
				<path class="st76" d="M193.09,140.91c0-0.6,1.47-1.15,3.28-1.24c1.81-0.09,3.27,0.32,3.26,0.92c0,0.6-1.47,1.15-3.27,1.24
					C194.55,141.92,193.09,141.51,193.09,140.91z"/>
				<path class="st76" d="M189.96,131.63c0-0.52,1.13-0.99,2.52-1.06c1.39-0.07,2.51,0.3,2.51,0.82c0,0.52-1.13,0.99-2.52,1.06
					C191.08,132.51,189.96,132.14,189.96,131.63z"/>
				<path class="st76" d="M187.21,139.03c0.02-0.45,0.75-0.78,1.64-0.75c0.88,0.03,1.58,0.42,1.55,0.86
					c-0.02,0.44-0.75,0.78-1.64,0.75C187.88,139.86,187.18,139.48,187.21,139.03z"/>
			</g>
			<g class="st79">
				<path class="st40" d="M193.33,134.06c-0.01,0.88-2.73,1.57-6.07,1.53c-3.34-0.04-6.05-0.78-6.04-1.66
					c0.01-0.88,2.73-1.57,6.07-1.53C190.63,132.43,193.34,133.17,193.33,134.06z"/>
				<path class="st40" d="M199.11,148.09c-0.01,0.77-2.1,1.36-4.67,1.34c-2.57-0.03-4.65-0.67-4.64-1.44
					c0.01-0.77,2.1-1.36,4.67-1.34C197.03,146.68,199.11,147.32,199.11,148.09z"/>
				<path class="st40" d="M204.22,137.39c-0.04,0.66-1.4,1.08-3.03,0.96c-1.63-0.13-2.92-0.76-2.88-1.42
					c0.04-0.66,1.4-1.08,3.03-0.96C202.98,136.09,204.26,136.73,204.22,137.39z"/>
				<path class="st40" d="M177.83,140.33c0,0.52-1.61,0.93-3.59,0.91c-1.98-0.02-3.58-0.46-3.58-0.98c0-0.52,1.61-0.93,3.59-0.91
					C176.23,139.37,177.83,139.81,177.83,140.33z"/>
				<path class="st40" d="M181.25,148.63c0,0.45-1.24,0.81-2.76,0.79c-1.52-0.02-2.75-0.4-2.75-0.85c0-0.45,1.24-0.81,2.76-0.79
					C180.02,147.8,181.25,148.18,181.25,148.63z"/>
				<path class="st40" d="M184.27,142.3c-0.03,0.39-0.83,0.64-1.79,0.57c-0.97-0.08-1.73-0.45-1.7-0.84
					c0.03-0.39,0.83-0.64,1.79-0.57C183.54,141.54,184.3,141.91,184.27,142.3z"/>
			</g>
		</g>
	</g>
</g>
</svg>
