<?xml version="1.0" encoding="utf-8"?>
<!-- Generator: Adobe Illustrator 24.1.2, SVG Export Plug-In . SVG Version: 6.00 Build 0)  -->
<svg version="1.1" xmlns="http://www.w3.org/2000/svg" xmlns:xlink="http://www.w3.org/1999/xlink" x="0px" y="0px"
	 viewBox="0 0 1122 1122" style="enable-background:new 0 0 1122 1122;" xml:space="preserve">
<style type="text/css">
	.st0{fill:#FFFFFF;}
	.st1{fill:#BE242A;}
	.st2{fill:#CE4151;}
	.st3{fill:#C72B2C;}
	.st4{fill:#E0DFDE;}
	.st5{fill:#F0F0EF;}
	.st6{fill:#B8252B;}
	.st7{fill:#A1272A;}
	.st8{fill:#AED3E1;}
	.st9{fill:#8FBED8;}
	.st10{fill:#AD262B;}
	.st11{fill:#D7D4D2;}
</style>
<g id="BG">
	<rect class="st0" width="1122" height="1122"/>
</g>
<g id="Object">
	<g>
		<g>
			<g>
				<path class="st1" d="M568.3,434.52h-24.26v-170.7c-0.56-14.25,9.04-43.01,49.59-52.47l100.05-27.43l6.42,23.4l-100.76,27.62
					c-31.76,7.33-31.06,27.77-31.05,27.98l0.02,0.64V434.52z"/>
			</g>
			<polygon class="st2" points="544.01,265.86 544.01,270.72 568.27,269.54 568.27,264.69 			"/>
			<path class="st2" d="M569.19,257.38l-23.13-7.17c-0.51,1.61-0.92,3.18-1.23,4.7l23.45,7.27
				C568.32,261.26,568.51,259.55,569.19,257.38z"/>
			<path class="st2" d="M572.6,250.49l-19.26-14.63c-0.98,1.35-1.86,2.71-2.67,4.07l19.51,14.82
				C570.78,253.4,571.57,251.96,572.6,250.49z"/>
			<path class="st2" d="M578.14,244.54l-13.15-20.42c-1.34,1-2.6,2.04-3.78,3.09l13.37,20.76
				C575.6,246.82,576.77,245.67,578.14,244.54z"/>
			<path class="st2" d="M575.66,217.62l5.59,24.62c1.32-0.88,2.79-1.72,4.4-2.53l-5.47-24.12
				C578.6,216.24,577.1,216.92,575.66,217.62z"/>
		</g>
		<path class="st3" d="M682.26,922.8l28.53-477.65H411.21l30.72,477.65C441.93,922.8,551.34,957.2,682.26,922.8z"/>
		<rect x="390.92" y="412.58" class="st4" width="340.15" height="32.56"/>
		<rect x="403.23" y="391.73" class="st5" width="315.53" height="20.85"/>
		<path class="st6" d="M411.21,445.14c0,0,231.84,9.61,297.17,40.3l2.41-40.3H411.21z"/>
		<path class="st7" d="M441.93,922.8c0,0,109.41,34.4,240.33,0l21.66-362.66C608.16,887.2,441.93,922.8,441.93,922.8z"/>
		<polygon class="st8" points="696.27,774.63 708.89,573.21 413.11,573.21 426.71,774.63 		"/>
		<path class="st9" d="M708.89,573.21c0,0-27.71,126.37-113.29,201.42l100.66,0L708.89,573.21z"/>
		<polygon class="st10" points="432.4,774.63 691.11,774.63 689.83,795.97 		"/>
		<path class="st11" d="M718.77,391.73v20.85h-148.9C569.87,412.58,695.28,412.16,718.77,391.73z"/>
	</g>
</g>
</svg>
