<?xml version="1.0" encoding="utf-8"?>
<!-- Generator: Adobe Illustrator 24.1.2, SVG Export Plug-In . SVG Version: 6.00 Build 0)  -->
<svg version="1.1" xmlns="http://www.w3.org/2000/svg" xmlns:xlink="http://www.w3.org/1999/xlink" x="0px" y="0px"
	 viewBox="0 0 450 450" style="enable-background:new 0 0 450 450;" xml:space="preserve">
<style type="text/css">
	.st0{fill:#fffaf2;}
	.st1{opacity:0.12;}
	.st2{opacity:0;fill:#556573;}
	.st3{opacity:0.0294;fill:#546472;}
	.st4{opacity:0.0588;fill:#546371;}
	.st5{opacity:0.0882;fill:#536270;}
	.st6{opacity:0.1176;fill:#52626F;}
	.st7{opacity:0.1471;fill:#51616E;}
	.st8{opacity:0.1765;fill:#51606D;}
	.st9{opacity:0.2059;fill:#505F6C;}
	.st10{opacity:0.2353;fill:#4F5E6B;}
	.st11{opacity:0.2647;fill:#4E5D6A;}
	.st12{opacity:0.2941;fill:#4E5C69;}
	.st13{opacity:0.3235;fill:#4D5C68;}
	.st14{opacity:0.3529;fill:#4C5B67;}
	.st15{opacity:0.3824;fill:#4B5A66;}
	.st16{opacity:0.4118;fill:#4B5965;}
	.st17{opacity:0.4412;fill:#4A5864;}
	.st18{opacity:0.4706;fill:#495763;}
	.st19{opacity:0.5;fill:#495763;}
	.st20{opacity:0.5294;fill:#485662;}
	.st21{opacity:0.5588;fill:#475561;}
	.st22{opacity:0.5882;fill:#465460;}
	.st23{opacity:0.6176;fill:#46535F;}
	.st24{opacity:0.6471;fill:#45525E;}
	.st25{opacity:0.6765;fill:#44515D;}
	.st26{opacity:0.7059;fill:#43515C;}
	.st27{opacity:0.7353;fill:#43505B;}
	.st28{opacity:0.7647;fill:#424F5A;}
	.st29{opacity:0.7941;fill:#414E59;}
	.st30{opacity:0.8235;fill:#404D58;}
	.st31{opacity:0.8529;fill:#404C57;}
	.st32{opacity:0.8824;fill:#3F4B56;}
	.st33{opacity:0.9118;fill:#3E4B55;}
	.st34{opacity:0.9412;fill:#3D4A54;}
	.st35{opacity:0.9706;fill:#3D4953;}
	.st36{fill:#3C4852;}
	.st37{fill:#DE4352;}
	.st38{fill:#D6414F;}
	.st39{fill:#E84656;}
	.st40{fill:#B53742;}
	.st41{opacity:0.06;fill:#FFFFFF;}
	.st42{fill:#F0E4C9;}
	.st43{fill:#DED3BA;}
	.st44{fill:#C9BFA8;}
	.st45{fill:#E3D7BF;}
	.st46{fill:#FFF1D6;}
	.st47{fill:#F2EADA;}
	.st48{fill:#FFFAF0;}
	.st49{fill:#FFF7E6;}
	.st50{fill:#D4C9B2;}
	.st51{opacity:0.43;fill:#C4BBA5;}
	.st52{fill:#C4C300;}
	.st53{fill:#A3A200;}
	.st54{fill:#F0EE00;}
	.st55{fill:#949300;}
	.st56{opacity:0.29;fill:#F0EE00;}
	.st57{opacity:0.28;fill:#FFFFFF;}
</style>
<g id="background">
	<rect class="st0" width="450" height="450"/>
</g>
<g id="fast_food">
	<g>
		<g class="st1">
			<ellipse class="st2" cx="209.17" cy="346.53" rx="100.17" ry="22.47"/>
			<ellipse class="st3" cx="209.17" cy="346.53" rx="99.46" ry="22.31"/>
			<ellipse class="st4" cx="209.17" cy="346.53" rx="98.76" ry="22.15"/>
			<ellipse class="st5" cx="209.17" cy="346.53" rx="98.06" ry="22"/>
			<ellipse class="st6" cx="209.17" cy="346.53" rx="97.35" ry="21.84"/>
			<ellipse class="st7" cx="209.17" cy="346.53" rx="96.65" ry="21.68"/>
			<ellipse class="st8" cx="209.17" cy="346.53" rx="95.94" ry="21.52"/>
			<ellipse class="st9" cx="209.17" cy="346.53" rx="95.24" ry="21.36"/>
			<ellipse class="st10" cx="209.17" cy="346.53" rx="94.53" ry="21.21"/>
			<ellipse class="st11" cx="209.17" cy="346.53" rx="93.83" ry="21.05"/>
			<ellipse class="st12" cx="209.17" cy="346.53" rx="93.13" ry="20.89"/>
			<ellipse class="st13" cx="209.17" cy="346.53" rx="92.42" ry="20.73"/>
			<ellipse class="st14" cx="209.17" cy="346.53" rx="91.72" ry="20.57"/>
			<ellipse class="st15" cx="209.17" cy="346.53" rx="91.01" ry="20.42"/>
			<ellipse class="st16" cx="209.17" cy="346.53" rx="90.31" ry="20.26"/>
			<ellipse class="st17" cx="209.17" cy="346.53" rx="89.6" ry="20.1"/>
			<ellipse class="st18" cx="209.17" cy="346.53" rx="88.9" ry="19.94"/>
			<ellipse class="st19" cx="209.17" cy="346.53" rx="88.2" ry="19.78"/>
			<ellipse class="st20" cx="209.17" cy="346.53" rx="87.49" ry="19.63"/>
			<ellipse class="st21" cx="209.17" cy="346.53" rx="86.79" ry="19.47"/>
			<ellipse class="st22" cx="209.17" cy="346.53" rx="86.08" ry="19.31"/>
			<ellipse class="st23" cx="209.17" cy="346.53" rx="85.38" ry="19.15"/>
			<ellipse class="st24" cx="209.17" cy="346.53" rx="84.68" ry="18.99"/>
			<ellipse class="st25" cx="209.17" cy="346.53" rx="83.97" ry="18.84"/>
			<ellipse class="st26" cx="209.17" cy="346.53" rx="83.27" ry="18.68"/>
			<ellipse class="st27" cx="209.17" cy="346.53" rx="82.56" ry="18.52"/>
			<ellipse class="st28" cx="209.17" cy="346.53" rx="81.86" ry="18.36"/>
			<ellipse class="st29" cx="209.17" cy="346.53" rx="81.15" ry="18.2"/>
			<ellipse class="st30" cx="209.17" cy="346.53" rx="80.45" ry="18.05"/>
			<ellipse class="st31" cx="209.17" cy="346.53" rx="79.75" ry="17.89"/>
			<ellipse class="st32" cx="209.17" cy="346.53" rx="79.04" ry="17.73"/>
			<ellipse class="st33" cx="209.17" cy="346.53" rx="78.34" ry="17.57"/>
			<ellipse class="st34" cx="209.17" cy="346.53" rx="77.63" ry="17.41"/>
			<ellipse class="st35" cx="209.17" cy="346.53" rx="76.93" ry="17.26"/>
			<ellipse class="st36" cx="209.17" cy="346.53" rx="76.23" ry="17.1"/>
		</g>
		<g>
			<path class="st37" d="M294.91,159.43l-0.09,0.5l-0.03,0.21l-0.84,5l-1.02,6.19l-0.24,1.42L264.78,341.3h-0.06
				c-0.24,8.16-25.19,14.77-55.91,14.77c-19.11,0-35.97-2.56-46.06-6.45c-1.38-0.55-2.66-1.11-3.77-1.68
				c-1.05-0.55-1.98-1.11-2.76-1.73c-2.1-1.52-3.29-3.18-3.32-4.91h-0.03l-8.68-52.35l-19.5-117.65l-1.98-11.88H294.91z"/>
			<path class="st38" d="M294.91,159.43l-0.09,0.5l-0.03,0.21l-0.84,5l-1.02,6.19l-0.24,1.42L264.78,341.3h-0.06
				c-0.24,8.16-25.19,14.77-55.91,14.77c-19.11,0-35.97-2.56-46.06-6.45c1.41-0.64,2.79-1.33,4.13-2.06
				c16.77-8.61,31-21.05,42.17-35.18c13.81-17.47,23.18-37.44,30.25-57.83c4.04-11.62,7.25-23.5,9.04-35.56
				c1.32-8.99,1.83-18.09,1.11-27.15c-0.15-1.92-0.33-3.84-0.6-5.76c-0.12-0.95-0.3-1.9-0.48-2.84c-0.63-3.51-1.56-7.07-2.25-10.62
				c-0.27-1.33-0.48-2.63-0.63-3.96c-0.09-0.5-0.15-0.97-0.18-1.47c-0.06-0.5-0.09-1-0.12-1.49c-0.03-1.26-0.03-2.54,0.06-3.79
				c0.06-0.85,0.18-1.68,0.39-2.47H294.91z"/>
			<path class="st39" d="M220.46,163.1c-0.03,1.3-0.09,2.63-0.15,3.94c0,0.33,0,0.69-0.03,1.02c-0.03,0.92-0.09,1.87-0.15,2.8
				c-0.03,1.23-0.12,2.47-0.21,3.67c-0.21,3.63-0.51,7.25-0.87,10.86c-0.24,2.8-0.57,5.6-0.9,8.39c-1.8,14.63-4.58,29.16-8.3,43.51
				c-2.52,9.63-5.45,19.16-8.83,28.59c-3.35,9.51-7.19,18.92-11.41,28.17c-5.21,11.33-11.02,22.45-17.46,33.29
				c-3.86,6.52-7.94,12.92-12.22,19.2c-0.33,0.47-0.63,0.92-0.96,1.4c-1.05-0.55-1.98-1.11-2.76-1.73c-2.1-1.52-3.29-3.18-3.32-4.91
				h-0.03l-8.68-52.35c0.18-13.66,0.75-27.31,1.35-40.95c0.9-21.6,2.19-44.12,7.43-65.51l0.45-1.78c0.69-2.68,1.44-5.36,2.28-8.01
				c0.27-0.85,0.57-1.71,0.96-2.51c0.57-1.35,1.26-2.66,2.07-3.89c0.6-1,1.29-1.97,2.07-2.89c0.03-0.05,0.06-0.09,0.12-0.12
				c0.45-0.59,0.93-1.14,1.44-1.68c0.69-0.76,1.41-1.47,2.19-2.18c2.46-2.25,5.27-4.27,8.3-6.09c2.99-1.8,5.99-3.06,9.01-3.86
				c10.42-2.84,21.02-0.36,31.86,3.67c1.86,0.69,3.74,1.4,5,2.77c0.93,1.02,1.38,2.23,1.59,3.51
				C220.49,160.63,220.49,161.89,220.46,163.1z"/>
			<path class="st40" d="M292.92,166.74c0,1.78-0.69,3.41-1.77,4.93c-0.69,1.04-1.53,1.99-2.46,2.89c-0.18,0.21-0.39,0.4-0.6,0.59
				c-4.4,4.17-9.55,7.56-15.21,10.31c-6.17,3.03-12.88,5.24-19.71,6.73c-2.55,0.57-5.12,1.04-7.73,1.45
				c-10.3,1.56-20.84,1.92-31.3,1.94h-1.14c-9.94,0.02-19.94-0.24-29.77-1.59c-11.92-1.64-23.51-4.96-34.29-9.7
				c-2.49-1.07-4.88-2.23-7.25-3.46c-2.13-1.09-4.22-2.25-6.26-3.46c-9.49-5.64-8.03-8.82-2.52-10.55c2.9-0.88,6.92-1.38,11.05-1.61
				c4.55-0.26,9.25-0.19,12.79,0c0.3,0.02,0.6,0.05,0.9,0.07c0.75,0.02,1.44,0.09,2.04,0.14c8.33,0.83,16.65,1.49,24.98,2.02
				c3.32,0.24,6.68,0.43,10,0.59c7.22,0.38,14.4,0.64,21.62,0.81c4.19,0.09,8.39,0.14,12.58,0.17c4.13,0.05,8.27,0.05,12.43-0.02
				c3.23-0.02,6.47-0.07,9.73-0.17c7.79-0.17,15.57-0.45,23.33-0.88c0.27,0,0.57-0.02,0.84-0.05c4.91-0.26,9.82-0.57,14.73-0.95
				C290.94,166.89,291.93,166.81,292.92,166.74z"/>
			<path class="st41" d="M158.2,260.06c1.12,6.29,2.48,12.76,6.44,18.08c3.96,5.32,11.2,9.22,18.23,7.9
				c7.62-1.43,12.33-8.11,15.5-14.42c8.53-16.96,12.38-35.49,14.63-53.95c0.44-3.65,0.81-7.46-0.64-10.9
				c-1.81-4.3-6.19-7.36-10.8-9.45c-11.17-5.06-46.27-14.25-49.23,2.35C148.99,218.29,154.93,241.65,158.2,260.06z"/>
			<path class="st41" d="M172.06,327.21c1.04,1.19,2.4,2.39,4.1,2.44c1.61,0.05,3-0.97,4.1-2.01c5.71-5.44,7.87-13,9.84-20.22
				c0.91-3.34,1.82-6.79,1.16-10.17c-0.23-1.16-0.66-2.33-1.6-3.16c-0.71-0.63-1.65-1.01-2.57-1.36
				c-5.41-2.06-11.07-3.62-16.84-4.66c-11.39-2.05-7.5,9.16-6.75,15.74C164.43,312.02,166.21,320.52,172.06,327.21z"/>
			<path class="st40" d="M300.48,161.92c0,2.8-6.86,9.93-7.79,10.83L264.78,341.3h-0.06c-0.24,8.16-25.19,14.77-55.91,14.77
				c-19.11,0-35.97-2.56-46.06-6.45c-1.38-0.55-2.66-1.11-3.77-1.68c-1.05-0.55-1.98-1.11-2.76-1.73c1.23,0.02,2.49,0.17,3.71,0.33
				c0.39,0.07,0.81,0.12,1.2,0.19c1.92,0.31,3.83,0.59,5.75,0.83c16.05,2.09,32.79,1.97,47.68-3.01
				c20.48-6.83,34.95-22.1,42.76-38.55c7.85-16.48,9.88-34.24,11.89-51.76l3.77-33.29c1.11-9.96,2.25-19.92,3.38-29.87
				c0.27-2.42,0.39-4.91,0.51-7.42c0.06-1.99,0.15-4.01,0.24-6c0.18-2.96,0.42-5.88,0.99-8.73c0.21-1.02,0.6-1.97,1.11-2.84
				c0.09-0.09,0.15-0.19,0.21-0.28c2.46-3.7,7.64-5.88,13.18-5.95c0.45-0.02,0.9-0.02,1.35,0.02c0.24,0,0.45,0,0.69,0.02
				c0.06,0,0.12,0,0.18,0.02c1.98,0.14,3.83,0.59,5.57,1.26c0.03,0,0.03,0,0.06,0.02C300.48,161.44,300.48,161.68,300.48,161.92z"/>
			<path class="st42" d="M300.74,163.11c0,2.8-1.89,5.48-5.33,7.94c-0.69,0.5-1.41,1-2.22,1.47c-3.11,1.85-7.13,3.56-11.95,5.14
				c-0.06,0.02-0.09,0.02-0.15,0.05c-1.17,0.38-2.4,0.76-3.65,1.11c-0.03,0.02-0.03,0.02-0.06,0.02c-0.12,0.02-0.24,0.07-0.36,0.09
				c-0.03,0-0.03,0-0.06,0.02c-7.97,2.25-17.55,4.13-28.33,5.45c-0.18,0.02-0.36,0.05-0.54,0.07c-1.83,0.21-3.68,0.43-5.57,0.59
				c-7.34,0.76-15.12,1.26-23.21,1.49c-0.72,0.02-1.44,0.05-2.19,0.05c-2.64,0.07-5.33,0.09-8.06,0.09
				c-20.81,0-40.01-1.78-55.4-4.81c-0.93-0.19-1.83-0.36-2.73-0.55c-1.71-0.38-3.38-0.76-4.97-1.14
				c-8.89-2.16-16.11-4.79-21.02-7.73c-4.85-2.87-7.55-6.05-7.55-9.39v-0.05c0-0.95,0.21-1.9,0.66-2.8l1.89-7.94l3.26,2.49
				c2.22-1.52,5.06-2.99,8.42-4.36c2.28-0.92,4.82-1.8,7.61-2.66c5.69-1.73,12.31-3.22,19.71-4.46c9.34-1.59,19.89-2.75,31.18-3.37
				c6.11-0.33,12.46-0.5,18.96-0.5c13.57,0,26.44,0.76,38.03,2.13c1.14,0.12,2.25,0.26,3.32,0.4c2.82,0.38,5.57,0.78,8.21,1.23
				c8.03,1.3,15.21,2.96,21.29,4.86c1.11,0.36,2.19,0.71,3.2,1.07c0.72,0.26,1.44,0.5,2.13,0.76c0.21,0.09,0.42,0.19,0.63,0.26
				c0.06,0.02,0.09,0.05,0.15,0.07c1.14,0.45,2.25,0.92,3.26,1.42c1.8,0.81,3.38,1.66,4.76,2.54c0.69,0.45,1.35,0.9,1.92,1.35
				l3.23-3.25l1.29,9.06c0,0.02,0,0.02,0,0.02c0.09,0.33,0.15,0.66,0.21,1C300.74,162.63,300.74,162.87,300.74,163.11z"/>
			<path class="st43" d="M267.23,148.96c0,2.98-7.41,5.39-16.54,5.39c-9.14,0-16.54-2.41-16.54-5.39c0-2.98,7.41-5.39,16.54-5.39
				C259.82,143.57,267.23,145.98,267.23,148.96z"/>
			<path class="st44" d="M300.74,163.11c0,2.8-1.89,5.48-5.33,7.94c-0.69,0.5-1.41,1-2.22,1.47c-3.92,2.32-9.25,4.43-15.75,6.31
				c0.21-2.75,0.39-5.5,0.57-8.25c0.12-1.66,0.54-3.49,0.36-5.14c-0.15-1.26-0.96-2.28-0.27-3.56c0.45-0.88,1.23-1.59,2.04-2.28
				c2.07-1.85,4.16-3.7,6.23-5.55c0.96-0.83,1.92-1.66,2.93-2.37c1.8,0.81,3.38,1.66,4.76,2.54c0.69,0.45,1.35,0.9,1.92,1.35
				l3.23-3.25l1.29,9.06c0,0.02,0,0.02,0,0.02c0.09,0.33,0.15,0.66,0.21,1C300.74,162.63,300.74,162.87,300.74,163.11z"/>
			<path class="st45" d="M282.14,168.04c-0.06,2.21-0.18,4.41-0.39,6.59c-0.09,1.02-0.24,2.06-0.51,3.03
				c-0.06,0.02-0.09,0.02-0.15,0.05c-1.17,0.38-2.4,0.76-3.65,1.11c-0.03,0.02-0.03,0.02-0.06,0.02c-0.12,0.02-0.24,0.07-0.36,0.09
				c-0.03,0-0.03,0-0.06,0.02c-7.97,2.25-17.55,4.13-28.33,5.45c-0.18,0.02-0.36,0.05-0.54,0.07v-0.26
				c0.15-3.41-0.27-7.26,0.39-10.62c0.54-2.63,3.74-3.37,6.14-4.34c6.83-2.8,14.11-4.72,21.5-5.67c1.83-0.24,3.98-0.31,5.15,1
				C282.11,165.53,282.17,166.85,282.14,168.04z"/>
			<path class="st46" d="M219.4,175.48c-0.6,3.72-1.35,7.44-2.28,11.14c-2.64,0.07-5.33,0.09-8.06,0.09
				c-20.81,0-40.01-1.78-55.4-4.81c-0.93-0.19-1.83-0.36-2.73-0.55c-0.69-2.23-1.02-4.55-1.14-6.8c-0.09-1.9-0.96-5.69-0.06-7.42
				c1.05-2.09,5-2.06,7.37-1.97c9.46,0.43,18.93,0.85,28.39,1.28c9.28,0.4,18.66,0.83,27.64,2.73c2.52,0.55,5.33,1.42,6.17,3.37
				C219.7,173.49,219.58,174.51,219.4,175.48z"/>
			<g>
				<ellipse class="st47" cx="209.57" cy="152.31" rx="89.64" ry="23.57"/>
				<ellipse class="st48" cx="208.8" cy="151.93" rx="77.39" ry="20.35"/>
				<ellipse class="st47" cx="209.47" cy="150.74" rx="71.15" ry="18.71"/>
				<path class="st49" d="M263.45,148.61c0,2.29-6.15,4.14-13.73,4.14c-7.58,0-13.73-1.86-13.73-4.14c0-2.29,6.15-4.14,13.73-4.14
					C257.31,144.47,263.45,146.32,263.45,148.61z"/>
				<path class="st50" d="M256.96,147.95l41.16,1.16c0,0,1.69,1.2,0.51,3.29s-47.94-1.35-47.94-1.35L256.96,147.95z"/>
				<path class="st51" d="M258.67,151.52c0.61-0.13,1.24-0.3,1.73-0.66c0.49-0.36,0.81-0.95,0.63-1.49
					c-0.18-0.54-0.79-0.88-1.36-1.13c-2.71-1.19-13.24-3.6-14.98,0C242.59,152.58,256.44,152,258.67,151.52z"/>
				<g>
					<path class="st52" d="M332.51,73.55l-60.99,14.77l-14.22,59.43c0,0.01,0,0.01,0,0.02l-0.09,0.38l-7.52-0.09l-4.25-0.05
						l0.12-0.54l15.2-68.01l70.28-19.44l0.78,7.25L332.51,73.55z"/>
					<path class="st52" d="M257.3,147.75c0,0.01,0,0.01,0,0.02c0.07,1.79-2.52,3.36-5.8,3.51c-0.57,0.03-1.12,0.01-1.65-0.05
						c-2.51-0.28-4.39-1.44-4.46-2.93c-0.01-0.29,0.04-0.57,0.17-0.84c0.51-1.2,2.22-2.2,4.41-2.56c0.4-0.06,0.8-0.11,1.22-0.13
						C254.47,144.62,257.21,145.95,257.3,147.75z"/>
				</g>
				<path class="st53" d="M332.51,73.55l-60.99,14.77l-14.22,59.43c0,0.01,0,0.01,0,0.02c0.07,1.79-2.52,3.36-5.8,3.51
					c-0.57,0.03-1.12,0.01-1.65-0.05c-0.21-1.03-0.21-2.11-0.15-3.18c0.02-0.42,0.05-0.84,0.09-1.26c0.05-0.63,0.11-1.27,0.18-1.89
					c1.59-16.38,5.39-32.6,11.29-48.19c1.33-3.52,2.83-7.09,5.53-9.94c4.62-4.86,11.96-6.81,18.87-8.51
					c7.66-1.89,15.31-3.79,22.97-5.68c5.93-1.46,11.86-2.94,17.87-4.14c1.64-0.32,3.45-0.76,5.33-1.18L332.51,73.55z"/>
				<g>
					<path class="st54" d="M334.98,66.72c0.2,3.81-1.23,6.98-3.19,7.08c-1.96,0.1-3.71-2.91-3.91-6.72
						c-0.2-3.81,1.23-6.98,3.19-7.08C333.03,59.9,334.78,62.91,334.98,66.72z"/>
					<path class="st55" d="M334.18,66.81c0.17,3.18-1.03,5.83-2.67,5.91c-1.64,0.08-3.1-2.43-3.27-5.61
						c-0.17-3.18,1.03-5.83,2.67-5.91C332.55,61.11,334.01,63.62,334.18,66.81z"/>
				</g>
				<path class="st56" d="M294.99,71.43c-1.8,0.75-3.79,1.9-3.85,3.66c10.18-1.31,20.21-3.49,29.92-6.49
					c3.02-0.93,4.27-3.71,0.23-4.01c-2.37-0.18-4.35,0.57-6.59,1.11C308,67.33,301.31,68.79,294.99,71.43z"/>
				<path class="st56" d="M254.04,113.95c-0.15,0.82-0.01,1.98,0.92,2.04c0.56,0.03,0.99-0.4,1.31-0.82
					c1.26-1.65,2.11-3.51,2.92-5.36c2.51-5.75,4.64-11.62,6.39-17.58c0.67-2.3,1.29-4.62,1.58-6.98c0.06-0.5,0.11-1.02-0.08-1.49
					c-0.9-2.3-5.05-1.55-6.15,0.15c-1.51,2.34-1.68,6.25-2.33,8.88C256.86,99.8,255.34,106.85,254.04,113.95z"/>
				<path class="st57" d="M158.52,142.19c-4.14,1.79-8.59,4.41-9.15,8.46c-0.43,3.13,1.75,6.19,4.66,8c2.91,1.81,6.46,2.61,9.93,3.3
					c9.61,1.91,19.36,3.29,29.17,4.12c3.33,0.28,6.85,0.47,9.86-0.83c3.01-1.3,5.17-4.61,3.75-7.3c-1.26-2.39-4.56-3.22-7.47-3.78
					c-3.08-0.6-6.16-1.2-9.24-1.79c-2.76-0.53-5.61-1.11-7.85-2.63c-2.24-1.52-3.67-4.28-2.58-6.59c3.01-1.57,6.35-2.64,9.79-3.16
					C194.72,129.41,161.72,140.81,158.52,142.19z"/>
			</g>
		</g>
	</g>
</g>
</svg>
