<?xml version="1.0" encoding="utf-8"?>
<!-- Generator: Adobe Illustrator 24.1.2, SVG Export Plug-In . SVG Version: 6.00 Build 0)  -->
<svg version="1.1" id="Layer_1" xmlns="http://www.w3.org/2000/svg" xmlns:xlink="http://www.w3.org/1999/xlink" x="0px" y="0px"
	 viewBox="0 0 621 768" style="enable-background:new 0 0 621 768;" xml:space="preserve">
<style type="text/css">
	.st0{fill:#E27227;}
	.st1{fill:#FFFFFF;}
	.st2{fill:#232323;}
</style>
<g>
	<g>
		<g>
			<path class="st0" d="M43.61,463.98c-3.54-21.3-3.1-42.64,0.36-63.94c0.56-3.45,1.11-7.06,0.78-10.49
				c-0.89-9.12,1.48-17.17,4.67-25.51c7.75-20.26,13.34-41.1,11.56-63.58c-0.63-7.93-0.08-16.01,0.3-24
				c0.57-11.84-4.1-21.53-10.15-30.68c-4.29-6.5-8.87-12.77-13.2-19.23c-1-1.49-2.24-3.4-2.14-5.04
				c0.63-10.57,1.59-21.11,2.59-33.44c2.21,3.1,3.58,4.4,4.24,6.04c6.83,17.01,20.95,24.59,35.08,32.03
				c2.43,1.28,5.7,1.63,8.39,1.16c15.95-2.76,21.47-0.02,29.06,15.57c2.04,4.2,3.55,8.71,5.68,14.02
				c3.61-18.86,2.02-35.26-8.03-50.74c-6.86-10.56-12.36-22.28-17.53-33.97c-1.71-3.86-0.31-9.27-0.68-13.94
				c-1.63-20.63,4.22-39.77,8.76-59.39c4.59-19.82,15.82-35.31,24.72-52.38c2.15-4.12,4.39-8.17,6.59-12.26
				c0.71,0.07,1.43,0.14,2.14,0.22c0.29,4.23,0.87,8.46,0.81,12.69c-0.14,9.63-1.5,19.34-0.69,28.85
				c1.13,13.39,10.19,21.83,19.13,29.62c6.92,6.03,14,12.26,21.87,16.48c16.4,8.78,27.77,24.15,43.13,36.5
				c5.63-4.33,11.93-8.7,17.72-13.77c6.26-5.47,6.48-14.17,7.26-21.74c0.65-6.35-1.58-13.05-2.47-19.6
				c-0.22-1.62-0.61-3.44-0.18-4.91c2.31-7.86,4.26-15.94,7.47-23.36c3.26-7.55,7.84-14.42,12.06-21.98
				c1.59,9.39,2.76,18.18,4.62,26.8c3.52,16.36,14.88,27.27,24.05,39.66c12.98,17.54,25.6,40.06,28.5,62.44
				c1.31,10.15-1.67,27.88-1.67,27.88s8.15-7.09,9.97-9.21c6.22-8.29,10.69-13.16,5.64-25.69c-4.97-12.35-6.28-21.51-1.18-32.46
				c3.46-7.43,7.38-14.61,11.68-23.05c4.34,7.89,7.24,14.88,11.56,20.59c6.21,8.2,13.03,16,20.4,22.96
				c6.01,5.68,10.78,11.7,13.11,20.05c1.78,6.37,4,12.6,6.37,19.97c6.52-12.26,6.58-24.28,3.34-36.17
				c-2.41-8.85-6.58-17.11-9.53-25.8c-7.94-23.39-6.68-46.72-0.76-70.58c4.42-17.8,15.06-30.42,25.57-43.53
				c4.54-5.67,9.06-11.36,13.59-17.05c0.61,0.16,1.21,0.32,1.82,0.49c-0.15,3.04,0.15,6.21-0.52,9.11
				c-5.74,24.88-4.3,49.17,2.79,73.65c6.78,23.42,20.99,39.03,39.34,51.98c14.11,9.96,22.63,25.63,26.76,42.92
				c3.57,14.91,4.52,30.61,6.06,46.02c0.73,7.27,0.12,14.7,0.12,23.15c5.52-2.12,9.33-4.91,10.59-10.72
				c0.62-2.85,0.93-5.79,1.27-8.71c1.25-10.69,6.24-18.93,13.01-26.67c7.8-8.92,14.57-18.9,22.78-29.72
				c-1.34,9.95-2.42,18.16-3.54,26.36c-3.14,22.82-0.58,44.78,8.02,65.93c6.66,16.38,13.05,32.88,19.67,49.28
				c8.12,20.13,8.1,41.3,7.07,62.64c-0.39,8.1-1.43,16.25-1.03,24.31c1.01,20.56-4.46,39.83-8.85,59.36
				c-4.79,21.29-13.87,40.46-24.68,58.71c-1.67,2.82-16.78,24.52-18.03,25.7c-7.1,6.72-13.92,13.81-21.13,20.38
				c-32.76,29.87-70.71,49.92-109.56,68.23c-4.52,2.13-9.26,5.06-13.94,5.17c-8.36,0.2-15.72,5.25-23.88,4.97
				c-36.15-1.24-72.37-2.22-107.98-9.85c-26.09-5.6-50.68-16.42-74.78-28.48c-21.4-10.7-42.77-21.48-64.14-32.24
				c-1.4-0.71-3-1.23-4.1-2.31c-9.14-8.96-18.55-17.64-27.14-27.2c-5.9-6.57-10.94-13.89-13.82-23.17
				c-2.22-7.15-7.86-12.96-11.1-19.85c-4.38-9.32-8-19.06-11.71-28.73C47.05,479.41,44.3,468.15,43.61,463.98z"/>
			<path class="st0" d="M606.03,223.89c5.39,4.94,4.96,10.23-0.15,15.89c-5.28,5.85-10.42,11.85-15.7,17.7
				c-0.75,0.83-1.96,1.65-2.96,1.67c-3.93,0.08-10.26-10.17-8.76-14.14c2.82-7.46,5.5-15.01,8.83-22.19
				C588.4,220.39,602.77,220.9,606.03,223.89z"/>
			<path class="st0" d="M70.9,136.23c-0.32,5.22,0.1,10.68-1.22,15.59c-0.87,3.25-3.95,6.14-6.68,8.18
				c-0.63,0.47-4.49-2.79-5.79-5.06c-3.35-5.84-6.09-12.1-9.1-18.18c-1.93-3.92-1.66-6.97,2.34-9.29c2.35-1.36,4.41-3.37,6.52-5.19
				c4.74-4.11,9.02-3.42,11.57,2.48C70.06,128.28,71.18,136.16,70.9,136.23z"/>
			<path class="st0" d="M20.07,272.1c3.28,0.26,7.54,2.47,10.14,7.03c2.08,3.66,3.19,8,4.51,12.12c0.31,0.98,0,2.43-0.46,3.43
				c-1.43,3.13-3.47,6-4.53,9.25c-1.48,4.52-5.1,5.13-7.25,2.99c-4.4-4.38-8.69-9.52-11.16-15.29c-1.08-2.52,2.31-7.44,3.94-11.13
				C16.33,278.08,17.87,275.89,20.07,272.1z"/>
			<path class="st0" d="M235.55,121.9c0.79,2.17,0.8,4.6,0.02,6.78c-0.36,0.99-0.71,1.79-1.25,2.38c-2.7,2.93-5.65,5.63-8.68,8.15
				c-4.09,3.4-8.31,1.53-9.34-4.03c-0.38-2.05-0.64-4.15-0.75-6.25c-0.48-9.41,8.53-18.07,15.79-14.28
				C233.37,115.72,234.46,118.92,235.55,121.9z"/>
			<path class="st0" d="M49.83,317.74c-0.16,3.62-3.63,5.93-6.67,4.47c-2.92-1.41-5.84-2.82-8.79-4.19
				c-2.86-1.33-4.41-3.66-3.24-6.82c1.14-3.07,2.56-7.31,4.82-8.23c2.36-0.96,6.49,0.59,8.75,2.55
				C48.56,308.84,50.04,313.04,49.83,317.74z"/>
		</g>
		<path class="st1" d="M521.37,758.01c-2.69,0-5.2-0.64-7.46-1.9l-0.23-0.13c-2.03-1.19-4.1-2.33-6.17-3.47
			c-5.99-3.32-12.2-6.74-18.03-11.33c-6.56-5.14-12.2-10.94-17.66-16.56c-1.56-1.6-3.11-3.2-4.69-4.78c-4.37-4.4-8.43-9-11.82-12.93
			c-2.89-3.31-5.83-6.66-8.77-10c-9.08-10.34-18.48-21.04-27.41-31.97c-4.49-5.48-10.85-13.53-16.46-20.62
			c-1.32-1.67-2.73-3.46-4.1-5.19l-0.39,0.3l-8.19-10.83c-1.83-2.42-3.64-4.84-5.46-7.26c-4.49-5.99-9.13-12.18-13.81-18.07
			c-0.37-0.47-0.68-0.82-0.92-1.07c-0.55,0.16-1.4,0.44-2.64,0.96c-2.47,1.03-4.92,2.06-7.38,3.09
			c-12.49,5.26-25.4,10.7-38.91,14.67c-5.04,1.49-10.75,2.24-16.95,2.24c-4.62,0-9.65-0.42-14.96-1.25
			c-16.69-2.6-34-6.25-51.45-10.82c-6.1-1.59-11.55-4.28-16.36-6.65c-3.09-1.53-6.01-2.97-8.77-3.97
			c-16.77-6.12-29.33-17.24-39.4-27.31c-1.5-1.49-3.33-3.02-5.26-4.64c-2.29-1.92-4.66-3.9-7.01-6.24
			c-15.15-15.06-26.71-32.55-36.35-47.75c-7.95-12.53-15.91-25.58-24.36-39.87c-2.94-4.94-4.81-10.54-5.26-15.75
			c-0.65-7.65-1.1-15.35-1.53-22.79c-0.3-5.24-0.61-10.48-0.98-15.71c-0.12-1.7-0.41-3.62-0.72-5.64c-0.42-2.77-0.89-5.91-1.04-9.24
			c-0.14-3.28,0.36-6.06,0.76-8.29c0.15-0.84,0.36-2,0.36-2.43c0.03-2.7-0.23-5.84-0.77-9.57c-1.31-8.79,0.95-15.84,3.58-22.14
			c5.88-14.07,14.48-25.37,22.8-36.29l0.34-0.45c18.3-24.1,41.78-45.21,76.11-68.41c4.47-3.02,8.92-6.07,13.37-9.13
			c9.6-6.59,19.53-13.4,29.61-19.81c8.52-5.43,17.64-10.16,27.1-14.06c5.47-2.24,10.99-2.55,16.13-2.55c0.75,0,3.68,0.02,3.68,0.02
			c50.44,0.25,97.42,16.56,143.64,49.87c19.98,14.41,33.64,30.22,41.76,48.34c11.99,26.84,25.27,58.89,32.91,93.17
			c0.2,0.9,0.75,2.26,1.32,3.7c1.11,2.77,2.49,6.21,3.05,10.29c0.25,1.84,0.57,3.69,0.9,5.56c1.36,7.8,2.9,16.63,0.24,25.57
			c-10.61,35.55-25.7,63.6-46.16,85.75c-1.96,2.11-3.97,4.02-5.98,5.82c5.66,7.9,11.28,15.81,16.9,23.72
			c9.02,12.69,18.34,25.82,27.63,38.59c6.81,9.37,13.89,18.84,20.72,28.01c10.32,13.83,20.99,28.12,31.14,42.54
			c6.47,9.21,11.48,20.06,14.1,30.57c3.26,13.01-0.2,25.69-9.26,33.89c-1.74,1.57-3.68,3.39-4.69,4.89
			c-8.58,12.83-22.15,14.47-26.85,14.99C524.03,757.82,522.82,758.01,521.37,758.01L521.37,758.01z"/>
		<path class="st2" d="M552.44,707.21c-2.28-9.14-6.58-18.29-12.02-26.03c-16.75-23.8-34.62-46.83-51.74-70.38
			c-16.48-22.67-32.53-45.66-48.91-68.41c-2.12-2.94-2.03-4.91,0.7-7.23c3.66-3.12,7.4-6.23,10.67-9.76
			c21.29-23.06,34.28-50.82,43.11-80.39c2.28-7.66-0.45-16.95-1.58-25.38c-0.6-4.4-3.2-8.49-4.17-12.88
			c-7.01-31.48-18.97-61.3-32.05-90.56c-7.89-17.61-21.43-31.42-37.28-42.86c-40.6-29.26-85.09-47.04-135.72-47.3
			c-4.89-0.02-10.23-0.27-14.55,1.5c-8.65,3.56-17.08,7.93-24.97,12.95c-14.45,9.19-28.44,19.13-42.66,28.73
			c-27.29,18.45-52.79,38.9-72.89,65.37c-8.08,10.62-16.13,21.1-21.41,33.74c-2.18,5.22-3.47,9.55-2.67,14.9
			c0.56,3.86,0.95,7.81,0.92,11.71c-0.04,3.33-1.27,6.66-1.13,9.95c0.21,4.85,1.38,9.66,1.73,14.51c0.92,12.76,1.4,25.56,2.49,38.32
			c0.29,3.41,1.64,6.99,3.41,9.97c7.85,13.29,15.88,26.47,24.14,39.51c10.21,16.09,20.86,31.87,34.46,45.39
			c3.88,3.86,8.42,7.05,12.29,10.91c10.07,10.07,20.69,19.13,34.42,24.14c8.14,2.96,15.62,8.08,23.92,10.25
			c16.5,4.32,33.25,7.91,50.1,10.54c8.47,1.32,17.9,1.77,25.97-0.6c15.33-4.5,30.08-11.1,44.88-17.26
			c8.73-3.64,13.68-3.12,19.48,4.21c6.68,8.4,13.01,17.05,19.48,25.6c0.31-0.23,19.11,24.08,28.83,35.94
			c11.61,14.2,23.88,27.86,35.94,41.69c3.6,4.17,7.27,8.3,11.16,12.21c6.9,6.92,13.48,14.26,21.12,20.24
			c6.9,5.41,15.02,9.29,22.66,13.75c0.66,0.37,1.75,0.04,2.63-0.06c6.9-0.76,13.01-2.8,17.18-9.04c1.85-2.77,4.38-5.16,6.88-7.42
			C553.57,721.98,554.1,713.82,552.44,707.21z M276.84,566.49c-0.93,1.29-3.14,2.81-4.32,2.51c-12.17-3.12-24.7-5.51-36.27-10.21
			c-16.79-6.8-32.43-16.23-45.25-29.3c-9.04-9.19-17.01-19.4-24.99-29.65c33.27,29.04,71.61,48.13,113.8,60.54
			C279.02,562.11,278.28,564.56,276.84,566.49z M382.63,303.41c-15.47-9.49-30.97-19.01-46.93-27.62
			c-18.19-9.82-37.64-16.21-58.54-17.24c-1.71-0.08-3.39-0.51-5.08-0.78c-0.04-0.51-0.06-1.01-0.1-1.52
			c3.55-0.56,7.15-1.93,10.6-1.6c39.88,3.74,77.2,14.98,110.2,38.45c20.9,14.86,37.4,33.92,51.84,54.89
			c0.31,0.45,0.76,0.9,0.82,1.38c0.22,2.07,0.29,4.13,0.43,6.21c-1.79-0.8-4.05-1.15-5.36-2.45
			C422.53,335.05,404.59,316.85,382.63,303.41z M529.61,712.63c-8.43,9.86-17.38,13.6-27.31,1.01c-1.44-1.81-2.8-3.68-4.21-5.53
			c0.23-0.31,0.47-0.6,0.7-0.9c-3.68-2.71-7.36-5.42-11.05-8.12c-3.16-2.3-8.55-16.62-7.67-20.36c0.88-3.76,16.81-15.47,20.34-14.3
			c2.67,0.88,5.4,2.86,7.13,5.12c8.1,10.62,15.82,21.51,23.79,32.24C534.48,706.06,531.69,710.21,529.61,712.63z"/>
		<path class="st1" d="M445.87,355.6c-1.79-0.8-4.05-1.15-5.36-2.45c-17.98-18.1-35.92-36.29-57.87-49.73
			c-15.47-9.49-30.97-19.01-46.93-27.62c-18.19-9.82-37.64-16.21-58.54-17.24c-1.71-0.08-3.39-0.51-5.08-0.78
			c-0.04-0.51-0.06-1.01-0.1-1.52c3.55-0.56,7.15-1.93,10.6-1.6c39.88,3.74,77.2,14.98,110.2,38.45
			c20.9,14.86,37.4,33.92,51.84,54.89c0.31,0.45,0.76,0.9,0.82,1.38C445.65,351.45,445.73,353.52,445.87,355.6z"/>
		<path class="st1" d="M279.8,560.39c-0.78,1.71-1.52,4.17-2.96,6.1c-0.93,1.29-3.14,2.81-4.32,2.51
			c-12.17-3.12-24.7-5.51-36.27-10.21c-16.79-6.8-32.43-16.23-45.25-29.3c-9.04-9.19-17.01-19.4-24.99-29.65
			C199.27,528.89,237.6,547.98,279.8,560.39z"/>
		<path class="st1" d="M529.61,712.63c-8.43,9.86-17.38,13.6-27.31,1.01c-1.44-1.81-2.8-3.68-4.21-5.53c0.23-0.31,0.47-0.6,0.7-0.9
			c-3.68-2.71-7.36-5.42-11.05-8.12c-3.16-2.3-8.55-16.62-7.67-20.36c0.88-3.76,16.81-15.47,20.34-14.3
			c2.67,0.88,5.4,2.86,7.13,5.12c8.1,10.62,15.82,21.51,23.79,32.24C534.48,706.06,531.69,710.21,529.61,712.63z"/>
	</g>
	<g>
		<path class="st1" d="M344.13,463.43c1.98-25.22,3.88-48.03,5.52-70.87c0.91-12.6,1.41-25.23,2.08-37.85
			c0.33-6.15,1.32-12.67,9.05-12.46c7.73,0.21,8.84,6.95,8.39,12.96c-2.67,35.85-5.58,71.69-8.52,107.52
			c-1.01,12.26-1.83,24.58-3.83,36.7c-0.21,1.28-0.7,2.51-1.36,3.72c-3,5.55-10.53,7.06-15.13,2.74c-0.68-0.64-1.22-1.33-1.57-2.12
			c-7.26-16.22-13.88-32.76-19.81-49.52c-5.82-16.45-10.51-33.29-17.99-49.69c1,9.84,1.76,19.71,3.05,29.52
			c2.06,15.73,4.54,31.42,6.69,47.14c0.48,3.52,1.33,7.45,0.25,10.59c-0.1,0.3-0.22,0.6-0.35,0.89c-2.78,6.46-11.61,8.03-15.74,2.34
			c-0.33-0.46-0.61-0.95-0.8-1.46c-2.57-6.85-3.46-14.48-4.13-21.87c-3.46-38.05-6.91-76.11-9.72-114.22
			c-0.71-9.6,0.46-19.44,1.8-29.03c0.16-1.15,0.66-2.24,1.34-3.32c2.37-3.75,7.65-4.05,10.27-0.47c0.55,0.75,1,1.53,1.29,2.36
			c15.46,43.65,30.61,87.41,45.87,131.13C341.18,459.28,342.06,460.21,344.13,463.43z"/>
		<path class="st1" d="M166.63,392.11c9.7-24.89,18.42-47.29,27.15-69.7c1.48-0.03,1.83-0.87,3.07-0.07
			c3.87,2.52,4.44,8.47,4.7,12.82c2.26,38.19,4.09,76.41,5.79,114.64c0.21,4.77-0.21,9.97-1.99,14.3c-1.28,3.11-3.99,7.12-7.66,7.76
			c-1.49,0.26-2.35,0.09-3.05-1.25c-5.07-9.65-3.69-47.47-5.53-71.2c-2.08-0.33-1.77-0.28-3.85-0.6
			c-2.39,5.98-4.51,12.12-7.72,17.62c-2.37,4.06-6.48,9.05-10.4,9.63c-2.97,0.44-7.54-4.95-10.19-8.62
			c-2.83-3.93-4.75-8.51-6.88-12.95c-2.19,0.5-1.83,0.42-4.02,0.92v46.77c0,4.81-5.94,7.45-9.25,3.96
			c-2.19-2.32-2.72-5.62-2.77-8.61c-0.44-27.21-0.32-54.44,0.16-81.65c0.02-1.15,0.54-2.28,1.28-3.42c2.2-3.36,6.83-3.95,9.88-1.34
			c0.92,0.79,1.76,1.63,2.45,2.59C153.78,372.1,159.23,380.85,166.63,392.11z"/>
		<path class="st1" d="M451.64,388.83c0.39-0.71,1.62,0.1,2.43,0.14c0.85,4.88,2.07,9.73,2.48,14.65
			c2.06,24.84,3.98,49.7,5.71,74.57c0.18,2.59-0.61,7.22-1.85,7.55c-3.46,0.93-8.6,1.53-10.85-0.38c-3.65-3.1-6.33-8.02-7.95-12.68
			c-2.08-5.96-2.7-12.42-4.5-21.4c-7.41,9.5-13.44,16.97-19.18,24.66c-5.36,7.2-10.75,14.78-21.15,12.39
			c-9.57-2.2-12.74-10.27-14.18-19.01c-0.74-4.46-1.63-9-1.53-13.49c0.53-23.03,1.29-46.06,2.16-69.08c0.15-3.86,0.5-8.01,2.1-11.4
			c1.12-2.37,4.42-4.83,6.94-5.06c1.87-0.17,5.27,2.84,5.88,5.02c1.46,5.25,2.25,10.84,2.29,16.3c0.13,16.55-0.25,33.1-0.39,49.65
			c-0.06,7.75-0.01,15.5-0.01,23.25C400.95,464.8,438.92,412.27,451.64,388.83z"/>
		<path class="st1" d="M261.16,329.58c-3.73-0.76-7.44-1.6-11.18-2.25c-11.15-1.93-13.65-0.04-13.19,11.18
			c0.44,10.66,1.61,21.29,2.45,31.94c0.63,8.07,1.51,16.13,1.77,24.21c0.2,6.31,1.75,9.86,9.17,10.58
			c11.08,1.07,17.6,7.82,15.32,14.78c-3.31,10.08-11.28,8.88-19.27,6.74c-0.56-0.15-1.24,0.18-1.74,0.26c0,14.44,0,28.8,0,43.79
			c6.2,0.88,11.33,1.26,16.28,2.41c4.35,1.01,8.86,2.27,12.65,4.52c6.63,3.95,6.09,10.72-0.67,14.46
			c-9.38,5.19-33.29,2.53-40.68-5.07c-2.26-2.32-4.09-6.1-4.22-9.3c-2.16-51.11-4.2-102.23-5.6-153.37c-0.11-4,3.85-10.18,7.49-11.8
			c9.26-4.12,19.82-6.14,28.29,1.74c3.27,3.04,7.32,8.61,5.93,13.3C263.65,328.77,262.1,328.95,261.16,329.58z"/>
	</g>
</g>
</svg>
