<?xml version="1.0" encoding="utf-8"?>
<!-- Generator: Adobe Illustrator 24.1.2, SVG Export Plug-In . SVG Version: 6.00 Build 0)  -->
<svg version="1.1" id="Layer_2" xmlns="http://www.w3.org/2000/svg" xmlns:xlink="http://www.w3.org/1999/xlink" x="0px" y="0px"
	 viewBox="0 0 450 450" style="enable-background:new 0 0 450 450;" xml:space="preserve">
<style type="text/css">
	.st0{opacity:0.7;fill:#8FDAFF;}
	.st1{fill:#34B1ED;}
	.st2{fill:#0486D1;}
	.st3{fill:#FFFFFF;}
	.st4{opacity:0.05;fill:#1D1D1B;}
</style>
<g>
	<path class="st0" d="M274.25,208.19v-15.51c0-3.49-2.22-6.49-5.4-7.83v-7.11c0-19.6-13.38-36.22-31.99-42.32v-15.8h-31.33v15.8
		c-18.61,6.1-31.99,22.72-31.99,42.32v7.11c-3.18,1.34-5.4,4.33-5.4,7.83v15.51c0,3.49,2.22,6.49,5.4,7.83v12.44
		c-3.18,1.34-5.4,4.33-5.4,7.83v15.51c0,3.49,2.22,6.49,5.4,7.83v12.44c-3.18,1.34-5.4,4.33-5.4,7.83v15.51
		c0,3.49,2.22,6.49,5.4,7.83v12.44c-3.18,1.34-5.4,4.33-5.4,7.83v15.51c0,3.49,2.22,6.49,5.4,7.83v11.45h95.3v-11.45
		c3.18-1.34,5.4-4.33,5.4-7.83v-15.51c0-3.49-2.22-6.49-5.4-7.83v-12.44c3.18-1.34,5.4-4.33,5.4-7.83v-15.51
		c0-3.49-2.22-6.49-5.4-7.83v-12.44c3.18-1.34,5.4-4.33,5.4-7.83v-15.51c0-3.49-2.22-6.49-5.4-7.83v-12.44
		C272.02,214.68,274.25,211.68,274.25,208.19z"/>
	<path class="st1" d="M267.7,187.25l-1.65-0.69v-8.81c0-6.67-1.68-13.07-4.71-18.79h-80.31c-3.03,5.72-4.71,12.12-4.71,18.79v8.81
		l-1.65,0.69c-2.29,0.96-3.76,3.1-3.76,5.46v15.48c0,2.34,1.46,4.47,3.73,5.43l1.67,0.7v15.83l-1.67,0.7
		c-2.27,0.96-3.73,3.08-3.73,5.42v15.51c0,2.34,1.46,4.47,3.73,5.42l1.67,0.7v15.83l-1.67,0.7c-2.27,0.96-3.73,3.08-3.73,5.43v15.51
		c0,2.34,1.46,4.47,3.73,5.43l1.67,0.7v15.83l-1.67,0.71c-2.27,0.96-3.73,3.08-3.73,5.42v15.48c0,2.36,1.47,4.5,3.76,5.46l1.65,0.69
		v0.94c0,4.43,4.63,7.62,9.06,6.15c24.27-2.9,41.22-2.41,71.54,0.33c4.5,1.38,9.13-1.68,9.13-6.14v-1.28l1.67-0.7
		c2.27-0.96,3.73-3.08,3.73-5.43v-15.51c0-2.34-1.46-4.46-3.73-5.42l-1.67-0.71v-15.83l1.65-0.69c2.29-0.96,3.76-3.1,3.76-5.46
		v-15.45c0-2.36-1.47-4.5-3.76-5.46l-1.65-0.69v-15.83l1.65-0.69c2.29-0.96,3.76-3.1,3.76-5.46v-15.48c0-2.34-1.46-4.47-3.73-5.42
		l-1.67-0.71v-15.83l1.65-0.69c2.29-0.96,3.76-3.1,3.76-5.46v-15.45C271.46,190.35,269.99,188.21,267.7,187.25z"/>
	<path class="st2" d="M241.25,126.62h-40.11v-16.62c0-4.82,4.15-8.73,9.27-8.73h21.57c5.12,0,9.27,3.91,9.27,8.73V126.62z"/>
	<path class="st3" d="M202.79,162.61c-2.93,5.46-8.74,8.26-12.99,6.24c-4.25-2.02-5.32-8.08-2.39-13.54
		c2.93-5.46,8.74-8.26,12.99-6.25C204.64,151.08,205.71,157.15,202.79,162.61z"/>
	<path class="st4" d="M265.12,216.78h-87.86c-5.04,0-9.12-3.85-9.12-8.59v-15.51c0-4.74,4.08-8.59,9.12-8.59h87.86
		c5.04,0,9.12,3.85,9.12,8.59v15.51C274.25,212.93,270.16,216.78,265.12,216.78z"/>
	<path class="st4" d="M265.12,260.38h-87.86c-5.04,0-9.12-3.85-9.12-8.59v-15.51c0-4.74,4.08-8.59,9.12-8.59h87.86
		c5.04,0,9.12,3.85,9.12,8.59v15.51C274.25,256.53,270.16,260.38,265.12,260.38z"/>
	<path class="st4" d="M265.12,303.98h-87.86c-5.04,0-9.12-3.85-9.12-8.59v-15.51c0-4.74,4.08-8.59,9.12-8.59h87.86
		c5.04,0,9.12,3.84,9.12,8.59v15.51C274.25,300.13,270.16,303.98,265.12,303.98z"/>
	<path class="st4" d="M265.12,347.58h-87.86c-5.04,0-9.12-3.85-9.12-8.59v-15.51c0-4.74,4.08-8.59,9.12-8.59h87.86
		c5.04,0,9.12,3.85,9.12,8.59v15.51C274.25,343.73,270.16,347.58,265.12,347.58z"/>
	<path class="st4" d="M274.08,278.33c-0.03-0.16-0.07-0.31-0.11-0.46c-0.09-0.35-0.2-0.7-0.34-1.03c-0.06-0.15-0.12-0.31-0.19-0.45
		c-0.2-0.43-0.44-0.84-0.71-1.23c-0.1-0.14-0.22-0.26-0.32-0.39c-0.2-0.25-0.4-0.49-0.63-0.72c-0.17-0.17-0.34-0.33-0.53-0.48
		c-0.2-0.17-0.4-0.32-0.61-0.47c-0.21-0.15-0.4-0.3-0.62-0.43c-0.36-0.22-0.75-0.41-1.14-0.58c-0.01-0.01-0.02-0.01-0.04-0.02v-2.35
		c-20.75,41.72-56.65,69.32-97.48,69.32c-1.08,0-2.15-0.07-3.22-0.11v0.07c0,0.53,0.07,1.05,0.17,1.55c0.03,0.15,0.07,0.3,0.11,0.45
		c0.09,0.36,0.21,0.71,0.35,1.05c0.06,0.15,0.11,0.29,0.18,0.44c0.21,0.43,0.44,0.85,0.72,1.24c0.09,0.13,0.2,0.24,0.3,0.37
		c0.2,0.26,0.42,0.51,0.65,0.74c0.16,0.17,0.34,0.32,0.51,0.47c0.2,0.17,0.41,0.33,0.62,0.48c0.2,0.14,0.4,0.29,0.61,0.42
		c0.38,0.23,0.77,0.43,1.19,0.61v11.45h95.3v-11.45c0.01-0.01,0.02-0.01,0.04-0.02c0.4-0.17,0.78-0.37,1.14-0.58
		c0.22-0.13,0.42-0.28,0.62-0.43c0.21-0.15,0.41-0.31,0.61-0.47c0.18-0.16,0.36-0.31,0.53-0.48c0.23-0.23,0.43-0.47,0.63-0.72
		c0.1-0.13,0.22-0.25,0.32-0.39c0.27-0.39,0.51-0.8,0.71-1.23c0.07-0.15,0.13-0.3,0.19-0.45c0.14-0.33,0.25-0.68,0.34-1.03
		c0.04-0.15,0.08-0.3,0.11-0.46c0.1-0.5,0.16-1.01,0.16-1.54c0,0,0-0.01,0-0.01v-15.51c0,0,0-0.01,0-0.01
		c0-0.53-0.07-1.04-0.16-1.54c-0.03-0.16-0.07-0.31-0.11-0.46c-0.09-0.35-0.2-0.7-0.34-1.03c-0.06-0.15-0.12-0.31-0.19-0.45
		c-0.2-0.43-0.44-0.84-0.71-1.23c-0.1-0.14-0.22-0.26-0.32-0.39c-0.2-0.25-0.4-0.49-0.63-0.72c-0.17-0.17-0.34-0.33-0.53-0.48
		c-0.2-0.17-0.4-0.32-0.61-0.47c-0.21-0.15-0.4-0.3-0.62-0.43c-0.36-0.22-0.75-0.41-1.14-0.58c-0.01-0.01-0.02-0.01-0.04-0.02
		v-12.44c0.01-0.01,0.02-0.01,0.04-0.02c0.4-0.17,0.78-0.37,1.14-0.58c0.22-0.13,0.42-0.28,0.62-0.43c0.21-0.15,0.41-0.31,0.61-0.47
		c0.18-0.16,0.36-0.31,0.53-0.48c0.23-0.23,0.43-0.47,0.63-0.72c0.1-0.13,0.22-0.25,0.32-0.39c0.27-0.39,0.51-0.8,0.71-1.23
		c0.07-0.15,0.13-0.3,0.19-0.45c0.14-0.33,0.25-0.68,0.34-1.03c0.04-0.15,0.08-0.31,0.11-0.46c0.1-0.5,0.16-1.01,0.16-1.54
		c0,0,0-0.01,0-0.01v-15.51c0,0,0-0.01,0-0.01C274.24,279.34,274.18,278.83,274.08,278.33z"/>
</g>
</svg>
